<?xml version="1.0" encoding="UTF-8"?> <svg xmlns="http://www.w3.org/2000/svg" width="106" height="31" viewBox="0 0 106 31" fill="none"><g clip-path="url(#clip0)"><path d="M65.9077 3.79555C65.053 3.79555 64.548 4.18285 64.3537 4.95745L62.5472 12.7228L60.799 3.77618H57.3414L55.4961 12.7228L53.4177 3.79555H50.1155L53.6702 16.712H57.0889L59.0896 7.4749L61.0904 16.712H64.4897L68.0444 3.79555H65.9077Z" fill="#9C9EA1"></path><path d="M78.2812 3.79555C77.4265 3.79555 76.9215 4.18285 76.7272 4.95745L74.4351 12.9165L71.8128 3.77618H68.0639L72.5898 16.6539C72.8229 17.3317 72.7452 17.8352 72.3761 18.145C72.0071 18.4549 71.1135 18.6098 70.5308 18.6098C69.3653 18.6098 67.248 18.5711 67.248 21.379H71.3272C72.6675 21.379 73.6193 21.1853 74.202 20.798C74.7848 20.3526 75.2704 19.578 75.6589 18.513L80.6316 3.79555H78.2812Z" fill="#9C9EA1"></path><path d="M94.8309 8.94663C94.8697 8.11394 95.1028 7.45553 95.569 7.01013C96.0158 6.56474 96.6179 6.33236 97.3172 6.33236C98.0942 6.33236 98.6964 6.56474 99.1237 7.01013C99.5122 7.43616 99.7453 8.07521 99.8036 8.94663H94.8309ZM97.2201 3.50507C95.3748 3.50507 93.9179 4.10538 92.8884 5.30601C91.8783 6.46791 91.3733 8.09457 91.3733 10.1666C91.3733 12.3355 91.8978 14.0009 92.9273 15.1628C93.9762 16.3634 95.4136 16.9637 97.2589 16.9637C98.7935 16.9637 100.056 16.5958 101.066 15.8406C102.076 15.1241 102.756 14.0977 103.106 12.7228H100.678C100.289 12.7228 99.9784 12.8003 99.7841 12.9746C99.5705 13.1295 98.8906 14.1365 97.4726 14.1365C96.6179 14.1365 95.9963 13.8847 95.569 13.3619C95.1222 12.8777 94.8697 12.1225 94.8309 11.1349H103.261C103.3 11.0768 103.319 10.9606 103.319 10.7863V10.5927V10.2441C103.319 8.11394 102.795 6.42918 101.765 5.24792C100.678 4.08602 99.1625 3.50507 97.2201 3.50507Z" fill="#9C9EA1"></path><path d="M91.2568 6.56473C91.2568 6.56473 92.4223 5.38346 92.4223 3.79553H80.6316V4.86061C80.6316 5.306 80.787 5.6933 81.1172 6.00314C81.4474 6.31298 81.8359 6.4679 82.2826 6.4679H87.1971L80.2431 14.1364C80.2431 14.1364 79.2913 15.1241 79.2913 16.712H91.4899V13.9041H84.3805L91.2568 6.56473Z" fill="#9C9EA1"></path><path d="M17.0161 5.18981C16.3751 5.71267 15.8506 6.39044 15.4815 7.26187C15.1125 8.11393 14.9182 9.17901 14.9182 10.4377V16.712H18.3369V10.0504C18.3369 9.08218 18.57 8.36567 19.0168 7.92028C19.4636 7.47488 20.1628 7.2425 21.1147 7.2425H22.2413V3.79553C21.1147 3.79553 20.0269 3.91172 19.1916 4.1441C18.3564 4.35712 17.6182 4.70569 17.0161 5.18981Z" fill="#0065A5"></path><path d="M24.611 3.79553H22.8628V16.712H26.2815V5.44156C26.2815 4.99616 26.1261 4.60886 25.7959 4.27966C25.4463 3.95045 25.0578 3.79553 24.611 3.79553Z" fill="#0065A5"></path><path d="M25.7182 1.64603C25.7182 1.20063 25.5628 0.81333 25.2326 0.484125C24.9024 0.15492 24.5139 0 24.0671 0H22.8628V2.67237H25.7376V1.64603H25.7182Z" fill="#0065A5"></path><path d="M36.46 3.79553C35.683 3.79553 35.1585 4.18283 34.906 4.95743L32.6139 12.8777L30.0305 3.79553H26.4175L30.9434 16.712H34.401L38.9852 3.79553H36.46Z" fill="#0065A5"></path><path d="M41.4131 8.94663C41.452 8.11394 41.6851 7.45553 42.1513 7.01013C42.598 6.56474 43.2002 6.33236 43.8995 6.33236C44.6765 6.33236 45.2786 6.56474 45.706 7.01013C46.0945 7.43616 46.3276 8.07521 46.3858 8.94663H41.4131ZM48.3283 5.24792C47.2599 4.08602 45.7448 3.50507 43.8024 3.50507C41.957 3.50507 40.5002 4.10538 39.4707 5.30601C38.4606 6.46791 37.9556 8.09457 37.9556 10.1666C37.9556 12.3355 38.48 14.0009 39.5095 15.1628C40.5585 16.3634 41.9959 16.9637 43.8412 16.9637C45.3758 16.9637 46.6384 16.5958 47.6484 15.8406C48.6585 15.1241 49.3384 14.0977 49.688 12.7228H47.2599C46.2304 12.7228 46.1722 13.42 45.4535 13.7879C45.0455 14.0009 44.5988 14.1365 44.0355 14.1365C43.1808 14.1365 42.5592 13.8847 42.1319 13.3619C41.6851 12.8777 41.4326 12.1225 41.3937 11.1349H49.824C49.8628 11.0768 49.8823 10.9606 49.8823 10.7863V10.5927V10.2441C49.8823 8.11394 49.3772 6.44855 48.3283 5.24792Z" fill="#0065A5"></path><path d="M9.65402 12.4323C8.91589 13.2844 7.73099 13.6911 6.13817 13.6911H5.36119C3.7878 13.6911 3.36045 12.7422 3.36045 12.0063V2.90475H6.58494C8.02236 2.90475 9.05186 3.35015 9.7123 4.22157C10.3922 5.093 10.7418 6.46791 10.7418 8.34632C10.7224 10.3022 10.3727 11.6577 9.65402 12.4323ZM6.58494 0H2.4475C1.12663 0 0 0.69714 0 2.43999V16.712H5.65256C7.24537 16.712 8.4497 16.6539 9.20726 16.3634C11.8879 15.3952 13.0339 13.6136 13.5389 12.3742C13.9857 11.1736 14.2188 9.83742 14.2188 8.34632C14.2188 5.55776 13.5778 3.44697 12.3152 2.03333C11.072 0.677775 9.14898 0 6.58494 0Z" fill="#0065A5"></path><path d="M104.543 3.67934C104.601 3.67934 104.66 3.67934 104.718 3.65998C104.757 3.64061 104.796 3.62125 104.834 3.60188C104.854 3.58252 104.873 3.54379 104.893 3.52442C104.912 3.48569 104.912 3.44696 104.912 3.40823C104.912 3.3695 104.912 3.33077 104.893 3.29204C104.893 3.25331 104.873 3.23395 104.834 3.21458C104.815 3.19522 104.776 3.17585 104.737 3.17585C104.698 3.15649 104.64 3.15649 104.582 3.15649H104.349V3.67934H104.543ZM104.582 2.86601C104.815 2.86601 104.99 2.90474 105.087 2.9822C105.203 3.05966 105.242 3.17585 105.242 3.35014C105.242 3.46633 105.203 3.56315 105.145 3.65998C105.087 3.73744 104.99 3.79553 104.854 3.83426C104.873 3.85363 104.893 3.87299 104.912 3.89236C104.932 3.91172 104.951 3.93109 104.97 3.96982L105.359 4.57013H105.009C104.951 4.57013 104.932 4.55077 104.893 4.51204L104.562 3.96982C104.543 3.95045 104.543 3.93109 104.524 3.93109C104.504 3.93109 104.485 3.91172 104.446 3.91172H104.31V4.55077H103.96V2.84665H104.582V2.86601ZM104.582 4.9187C104.698 4.9187 104.796 4.89934 104.893 4.87997C104.99 4.86061 105.087 4.82188 105.184 4.76378C105.262 4.70569 105.359 4.64759 105.417 4.57013C105.495 4.49267 105.553 4.41521 105.611 4.31839C105.67 4.22156 105.709 4.12474 105.728 4.02791C105.747 3.93109 105.767 3.8149 105.767 3.69871C105.767 3.58252 105.747 3.48569 105.728 3.3695C105.709 3.27268 105.67 3.17585 105.611 3.07903C105.553 2.9822 105.495 2.90474 105.417 2.82728C105.339 2.74982 105.262 2.69173 105.184 2.63363C105.106 2.57554 105.009 2.53681 104.893 2.51744C104.796 2.49808 104.679 2.47871 104.582 2.47871C104.427 2.47871 104.271 2.51744 104.116 2.57554C103.98 2.63363 103.844 2.73046 103.747 2.82728C103.65 2.94347 103.552 3.05966 103.494 3.21458C103.436 3.3695 103.397 3.52442 103.397 3.67934C103.397 3.85363 103.436 4.00855 103.494 4.1441C103.552 4.29902 103.63 4.41521 103.747 4.5314C103.844 4.64759 103.98 4.72505 104.116 4.78315C104.271 4.89934 104.427 4.9187 104.582 4.9187ZM104.582 2.32379C104.718 2.32379 104.834 2.34316 104.951 2.38189C105.068 2.42062 105.184 2.45935 105.281 2.51744C105.378 2.57554 105.475 2.653 105.573 2.73046C105.65 2.80792 105.728 2.90474 105.786 3.02093C105.845 3.11776 105.903 3.23395 105.922 3.35014C105.961 3.46633 105.98 3.60188 105.98 3.71807C105.98 3.85363 105.961 3.96982 105.922 4.08601C105.883 4.2022 105.845 4.31839 105.786 4.41521C105.728 4.51204 105.65 4.60886 105.573 4.70569C105.495 4.78315 105.398 4.86061 105.281 4.9187C105.184 4.9768 105.068 5.03489 104.951 5.05426C104.834 5.09299 104.698 5.11235 104.582 5.11235C104.446 5.11235 104.329 5.09299 104.213 5.05426C104.096 5.01553 103.98 4.9768 103.883 4.9187C103.786 4.86061 103.688 4.78315 103.591 4.70569C103.514 4.62823 103.436 4.5314 103.378 4.41521C103.319 4.31839 103.261 4.2022 103.242 4.08601C103.203 3.96982 103.183 3.83426 103.183 3.71807C103.183 3.58252 103.203 3.46633 103.242 3.35014C103.28 3.23395 103.319 3.11776 103.378 3.02093C103.436 2.92411 103.514 2.82728 103.591 2.73046C103.669 2.653 103.766 2.57554 103.883 2.51744C103.98 2.45935 104.096 2.40125 104.213 2.38189C104.329 2.34316 104.465 2.32379 104.582 2.32379Z" fill="#9C9EA1"></path><path d="M60.6629 27.0529V29.8995H59.0312V22.7539C59.0312 22.5215 59.109 22.3278 59.2643 22.1535C59.4197 21.9986 59.614 21.9018 59.8471 21.9018H62.5471C63.3824 21.9018 64.0234 22.1148 64.4313 22.5602C64.8586 22.9862 65.0723 23.6446 65.0723 24.4773C65.0723 25.2907 64.8586 25.9104 64.4507 26.3751C64.0428 26.8011 63.4406 27.0335 62.6637 27.0335H60.6629V27.0529ZM60.6629 25.6199H62.2557C62.6831 25.6199 62.9939 25.5231 63.1881 25.3488C63.3824 25.1745 63.4795 24.884 63.4795 24.458C63.4795 24.1094 63.3824 23.8189 63.2075 23.6059C62.9939 23.4123 62.7025 23.3348 62.3529 23.3348H60.6629V25.6199Z" fill="#0065A5"></path><path d="M65.9658 29.9189V26.9173C65.9658 26.317 66.0629 25.8135 66.2378 25.4068C66.4126 25.0002 66.6651 24.671 66.9565 24.4192C67.2478 24.1868 67.5975 24.0125 67.986 23.9157C68.3745 23.7995 68.7824 23.7608 69.1903 23.7608C69.2097 23.7608 69.268 23.7608 69.3068 23.7608C69.3457 23.7608 69.3845 23.7608 69.4234 23.7608V25.4068H68.8989C68.4522 25.4068 68.1219 25.523 67.9083 25.736C67.6946 25.949 67.5781 26.2976 67.5781 26.7624V29.9382H65.9658V29.9189Z" fill="#0065A5"></path><path d="M74.435 28.0018H75.5811C75.4062 28.6602 75.0955 29.1443 74.6098 29.4929C74.1436 29.8415 73.5415 30.0351 72.8228 30.0351C71.9487 30.0351 71.2688 29.7446 70.7638 29.1831C70.2782 28.6215 70.0256 27.8275 70.0256 26.8012C70.0256 25.8135 70.2587 25.039 70.7443 24.4774C71.23 23.8964 71.9292 23.6253 72.8033 23.6253C73.7163 23.6253 74.435 23.8964 74.9401 24.458C75.4257 25.039 75.6782 25.8329 75.6782 26.8399C75.6782 26.898 75.6782 26.9561 75.6782 26.9948C75.6782 27.0335 75.6782 27.0723 75.6782 27.0916C75.6782 27.1691 75.6782 27.2272 75.6588 27.2466H71.6767C71.6961 27.7307 71.8127 28.0793 72.0264 28.3116C72.2206 28.5634 72.5314 28.6796 72.9199 28.6796C73.1724 28.6796 73.4055 28.6215 73.5803 28.5247C73.6192 28.5053 73.6775 28.4859 73.7163 28.4472C73.7552 28.4085 73.794 28.3697 73.8523 28.3116C73.8717 28.2729 73.93 28.1954 74.0271 28.118C74.1048 28.0405 74.2602 28.0018 74.435 28.0018ZM71.6767 26.2009H74.0271C73.9883 25.7748 73.8911 25.465 73.6969 25.2713C73.5026 25.0583 73.2113 24.9421 72.8422 24.9421C72.512 24.9421 72.2206 25.0583 72.0069 25.2713C71.8127 25.4843 71.6961 25.7942 71.6767 26.2009Z" fill="#0065A5"></path><path d="M83.6035 27.1497C83.5258 28.0792 83.1762 28.7957 82.574 29.3379C81.9524 29.8414 81.1172 30.1125 80.0876 30.1125C78.8833 30.1125 77.9704 29.7446 77.3488 29.0281C76.7272 28.3309 76.397 27.3046 76.397 25.9491C76.397 24.5548 76.7272 23.5091 77.3682 22.8119C78.0286 22.076 78.9804 21.7275 80.2236 21.7275C81.2337 21.7275 82.0495 21.9792 82.6517 22.5021C83.215 23.0056 83.5452 23.7027 83.6229 24.5935H82.6323C82.2632 24.5935 82.0107 24.4386 81.8553 24.1094C81.7387 23.9157 81.6222 23.7221 81.4668 23.5672C81.156 23.3348 80.7481 23.2186 80.2431 23.2186C79.5438 23.2186 78.9999 23.451 78.6114 23.9157C78.2423 24.3805 78.0675 25.0583 78.0675 25.9491C78.0675 26.8205 78.2423 27.4789 78.6114 27.9436C78.961 28.4278 79.5049 28.6602 80.2042 28.6602C80.6898 28.6602 81.0977 28.544 81.428 28.2922C81.7193 28.0598 81.933 27.6919 82.0495 27.169H83.6035V27.1497Z" fill="#0065A5"></path><path d="M84.594 21.9211H85.4293C85.6429 21.9211 85.8372 21.9986 85.9732 22.1342C86.1285 22.2891 86.2062 22.4634 86.2062 22.6764V29.8995H84.594V21.9211Z" fill="#0065A5"></path><path d="M91.3344 28.0018H92.4805C92.3057 28.6602 91.9949 29.1443 91.5093 29.4929C91.0431 29.8415 90.4409 30.0351 89.7222 30.0351C88.8481 30.0351 88.1682 29.7446 87.6632 29.1831C87.1776 28.6215 86.925 27.8275 86.925 26.8012C86.925 25.8135 87.1581 25.039 87.6438 24.4774C88.1294 23.8964 88.8092 23.6253 89.7028 23.6253C90.6157 23.6253 91.3344 23.8964 91.8395 24.458C92.3251 25.039 92.5776 25.8329 92.5776 26.8399C92.5776 26.898 92.5776 26.9561 92.5776 26.9948C92.5776 27.0335 92.5776 27.0723 92.5776 27.0916C92.5776 27.1691 92.5776 27.2272 92.5582 27.2466H88.5761C88.5956 27.7307 88.7121 28.0793 88.9258 28.3116C89.12 28.5634 89.4308 28.6796 89.8193 28.6796C90.0718 28.6796 90.3049 28.6215 90.4797 28.5247C90.5186 28.5053 90.5769 28.4859 90.6157 28.4472C90.6546 28.4085 90.6934 28.3697 90.7517 28.3116C90.7711 28.2729 90.8294 28.1954 90.9265 28.118C91.0042 28.0405 91.1596 28.0018 91.3344 28.0018ZM88.5761 26.2009H90.9265C90.8877 25.7748 90.7905 25.465 90.5963 25.2713C90.402 25.0583 90.1107 24.9421 89.7416 24.9421C89.4114 24.9421 89.12 25.0583 88.9064 25.2713C88.7121 25.4843 88.5956 25.7942 88.5761 26.2009Z" fill="#0065A5"></path><path d="M97.3366 29.6672C97.0064 29.8415 96.6762 29.9383 96.3071 29.977C95.938 30.0158 95.6272 30.0351 95.3553 30.0351C94.8114 30.0351 94.3258 29.8802 93.8984 29.5897C93.4905 29.2799 93.2769 28.7958 93.2769 28.0986C93.2769 27.4402 93.4711 26.9755 93.8402 26.7043C94.2092 26.4332 94.6949 26.2396 95.2776 26.1428C95.3553 26.1428 95.4524 26.1234 95.5495 26.104C95.6661 26.0847 95.7826 26.0653 95.9186 26.0459C96.5985 25.9491 96.9287 25.7555 96.9287 25.4456C96.9287 25.2132 96.8121 25.0583 96.579 25.0002C96.346 24.9228 96.1323 24.9034 95.9186 24.9034C95.7049 24.9034 95.5107 24.9421 95.3359 25.0002C95.161 25.0583 95.0445 25.1745 94.9668 25.3488H93.4323C93.4905 24.8647 93.7042 24.4774 94.0733 24.1675C94.4812 23.819 95.0833 23.6253 95.8409 23.6253C96.6956 23.6253 97.3366 23.7802 97.7834 24.0707C98.2301 24.3805 98.4438 24.8066 98.4438 25.3682V27.4789C98.4438 28.0986 98.3273 28.5827 98.1136 28.9313C97.9193 29.2605 97.6474 29.5123 97.3366 29.6672ZM96.9675 26.8012C96.7539 26.9174 96.4625 27.0142 96.074 27.111L95.5495 27.2272C95.2776 27.3047 95.0639 27.4015 94.9474 27.537C94.8308 27.7113 94.792 27.8856 94.792 28.0405C94.792 28.2729 94.8697 28.4666 95.0056 28.6021C95.1416 28.7183 95.3359 28.7958 95.6078 28.7958C96.0352 28.7958 96.3848 28.6796 96.6179 28.4278C96.8704 28.1761 96.987 27.8469 96.987 27.4015V26.8012H96.9675Z" fill="#0065A5"></path><path d="M99.2986 29.9189V26.9173C99.2986 26.317 99.3957 25.8135 99.5705 25.4068C99.7453 25.0002 99.9979 24.671 100.289 24.4192C100.581 24.1868 100.93 24.0125 101.319 23.9157C101.707 23.7995 102.115 23.7608 102.523 23.7608C102.562 23.7608 102.601 23.7608 102.64 23.7608C102.678 23.7608 102.717 23.7608 102.756 23.7608V25.4068H102.232C101.785 25.4068 101.455 25.523 101.241 25.736C101.027 25.949 100.911 26.2976 100.911 26.7624V29.9382H99.2986V29.9189Z" fill="#0065A5"></path></g><defs><clipPath id="clip0"><rect width="106" height="30.0932" fill="white"></rect></clipPath></defs></svg> 