<?xml version="1.0" encoding="UTF-8"?> <svg xmlns="http://www.w3.org/2000/svg" width="236" height="75" viewBox="0 0 236 75" fill="none"><g clip-path="url(#clip0)"><path d="M146.729 8.46411C144.849 8.46411 143.695 9.3291 143.269 11.0591L139.264 28.4281L135.371 8.46411H127.63L123.508 28.4281L118.936 8.46411H111.584L119.503 37.3289H127.098L131.548 16.7118L135.998 37.3289H143.589L151.503 8.46411H146.729Z" fill="#9C9EA1"></path><path d="M174.296 8.46411C172.413 8.46411 171.26 9.3291 170.836 11.0591L165.728 28.8649L159.868 8.46411H151.512L161.602 37.2208C162.107 38.7374 161.944 39.8402 161.113 40.5294C160.283 41.217 158.294 41.5587 156.996 41.5587C154.401 41.5587 149.708 41.4895 149.708 47.7434H158.791C161.755 47.7434 163.889 47.3109 165.192 46.4459C166.492 45.4339 167.578 43.7341 168.449 41.3468L179.516 8.47709L174.296 8.46411Z" fill="#9C9EA1"></path><path d="M211.145 19.9683C211.214 18.0855 211.756 16.6439 212.771 15.6434C213.282 15.1391 213.891 14.7444 214.561 14.4834C215.23 14.2224 215.945 14.1005 216.663 14.1253C218.393 14.1253 219.733 14.6313 220.681 15.6434C221.546 16.5819 222.052 18.0307 222.199 19.9683H211.145ZM216.46 7.81519C212.337 7.81519 209.118 9.15304 206.802 11.8287C204.562 14.4237 203.44 18.0408 203.438 22.6801C203.438 27.5269 204.591 31.2521 206.897 33.8558C209.204 36.5315 212.423 37.8693 216.555 37.8693C219.955 37.8693 222.776 37.0375 225.019 35.3738C227.265 33.7822 228.785 31.4669 229.578 28.4279H224.167C223.456 28.3834 222.75 28.5766 222.16 28.9772C221.689 29.3405 220.149 31.5722 217.005 31.5722C215.122 31.5722 213.711 30.9955 212.771 29.8422C211.759 28.7552 211.217 27.0915 211.145 24.8512H229.915C230.004 24.6078 230.041 24.3485 230.023 24.09V22.8963C230.023 18.1216 228.87 14.3963 226.563 11.7206C224.176 9.12565 220.811 7.82816 216.469 7.82816" fill="#9C9EA1"></path><path d="M203.169 14.6488C203.169 14.6488 205.764 11.989 205.764 8.46411H179.516V10.8515C179.506 11.3295 179.597 11.8043 179.784 12.2442C179.971 12.6842 180.25 13.0793 180.602 13.4032C180.945 13.7376 181.351 14.0007 181.796 14.1774C182.242 14.3541 182.718 14.4408 183.197 14.4326H194.156L178.647 31.5724C177.273 33.1747 176.516 35.2141 176.51 37.3246H203.706V31.0361H187.872L203.169 14.6488Z" fill="#9C9EA1"></path><path d="M37.8693 11.6125C36.3659 12.8424 35.1918 14.4267 34.4526 16.2229C33.6193 18.1403 33.2026 20.5089 33.2026 23.3288V37.3287H40.8016V22.4595C40.8016 20.297 41.3033 18.7011 42.3197 17.702C43.336 16.703 44.8844 16.1796 46.9863 16.1796H49.4818V8.46392C47.1981 8.42855 44.9193 8.68434 42.7002 9.22511C40.9449 9.68575 39.3014 10.4979 37.8693 11.6125Z" fill="#0065A5"></path><path d="M54.7972 8.46411H50.9048V37.3289H58.4994V12.1533C58.4949 11.1763 58.1047 10.2406 57.4139 9.54968C56.723 8.8588 55.7873 8.46866 54.8102 8.46411" fill="#0065A5"></path><path d="M57.2711 3.68928C57.2761 3.20564 57.1825 2.72606 56.9958 2.27986C56.8092 1.83367 56.5334 1.43025 56.1855 1.09431C55.8495 0.746357 55.4461 0.470617 54.9999 0.283959C54.5537 0.0973016 54.0742 0.00365221 53.5905 0.00874178H50.9004V5.96853H57.2797V3.68928H57.2711Z" fill="#0065A5"></path><path d="M81.1664 8.46397C79.4364 8.46397 78.2831 9.32896 77.7064 11.0589L72.6073 28.748L66.8551 8.45532H58.8193L68.9138 37.3201H76.6165L86.8148 8.45532L81.1664 8.46397Z" fill="#0065A5"></path><path d="M92.2037 19.9683C92.2729 18.0855 92.8149 16.6438 93.8298 15.6433C94.3414 15.139 94.9505 14.7443 95.6197 14.4833C96.289 14.2223 97.0044 14.1005 97.7223 14.1253C99.4523 14.1253 100.79 14.6313 101.736 15.6433C102.601 16.5804 103.108 18.0221 103.258 19.9683H92.2037ZM107.609 11.7206C105.222 9.12561 101.858 7.82812 97.519 7.82812C93.3988 7.82812 90.1796 9.16598 87.8614 11.8417C85.6182 14.4367 84.4966 18.0538 84.4966 22.693C84.4966 27.5398 85.6499 31.2651 87.9565 33.8687C90.2632 36.5444 93.4824 37.8823 97.6142 37.8823C101.014 37.8823 103.835 37.0504 106.078 35.3868C108.318 33.7952 109.838 31.4799 110.637 28.4409H105.222C102.938 28.4409 102.804 30.0152 101.208 30.8283C100.235 31.3279 99.154 31.5832 98.0597 31.5721C96.1769 31.5721 94.7669 30.9955 93.8298 29.8422C92.8149 28.7552 92.2729 27.0915 92.2037 24.8512H110.974C111.063 24.6078 111.1 24.3485 111.082 24.09V22.8963C111.082 18.1215 109.929 14.3963 107.622 11.7206" fill="#0065A5"></path><path d="M21.4864 27.7792C19.8227 29.6591 17.2177 30.5991 13.6712 30.5991H11.9412C8.42934 30.5991 7.48218 28.4842 7.48218 26.832V6.50474H14.6486C17.8203 6.50474 20.1356 7.48218 21.5945 9.43706C23.1111 11.3891 23.8709 14.4627 23.8738 18.6579C23.8738 23.0001 23.078 26.0391 21.4864 27.7749V27.7792ZM14.6486 0H5.43215C2.50415 0 0 1.56996 0 5.4581V37.3287H12.5856C16.1321 37.3287 18.8092 37.186 20.5089 36.5675C26.4947 34.405 29.0075 30.4218 30.1666 27.6711C31.2148 24.785 31.7292 21.7324 31.6846 18.6622C31.6846 12.4429 30.2747 7.74168 27.4548 4.55851C24.6321 1.5195 20.3633 0 14.6486 0Z" fill="#0065A5"></path><path d="M232.765 8.21744C232.892 8.22016 233.018 8.20708 233.141 8.17852C233.23 8.15838 233.313 8.11845 233.383 8.06174C233.44 8.00952 233.483 7.94418 233.509 7.87144C233.532 7.7855 233.544 7.69673 233.543 7.60762C233.546 7.52297 233.536 7.43846 233.513 7.35677C233.493 7.28829 233.454 7.22685 233.401 7.17945C233.336 7.12818 233.261 7.09132 233.18 7.07133C233.068 7.04661 232.953 7.03499 232.838 7.03673H232.332V8.21744H232.765ZM232.838 6.42691C233.234 6.39673 233.629 6.49208 233.967 6.69938C234.088 6.79461 234.183 6.91749 234.246 7.05756C234.308 7.19763 234.336 7.35073 234.326 7.50382C234.335 7.75681 234.253 8.0046 234.094 8.20165C233.935 8.39871 233.71 8.53178 233.461 8.57641C233.516 8.60883 233.565 8.65139 233.604 8.70184C233.646 8.75557 233.682 8.81356 233.712 8.87483L234.577 10.2329H233.816C233.769 10.2371 233.722 10.228 233.68 10.2066C233.637 10.1852 233.602 10.1523 233.578 10.1118L232.851 8.91808C232.825 8.8824 232.793 8.85164 232.756 8.82726C232.706 8.80089 232.649 8.78892 232.592 8.79266H232.311V10.2329H231.515V6.42691H232.838ZM232.873 11.0114C233.111 11.0118 233.348 10.9813 233.578 10.9205C233.799 10.859 234.012 10.7688 234.21 10.6524C234.404 10.531 234.583 10.3857 234.741 10.2199C235.065 9.89156 235.298 9.48464 235.416 9.03918C235.481 8.80549 235.513 8.56383 235.511 8.32124C235.513 8.07727 235.481 7.83425 235.416 7.59897C235.358 7.37314 235.269 7.15632 235.152 6.95455C235.033 6.7547 234.887 6.57147 234.72 6.40961C234.562 6.24255 234.384 6.09712 234.188 5.97711C233.99 5.8593 233.778 5.76771 233.556 5.70464C233.327 5.64039 233.09 5.60836 232.851 5.60949C232.497 5.60613 232.146 5.67838 231.822 5.82141C231.509 5.95513 231.226 6.14911 230.987 6.39231C230.497 6.90748 230.226 7.59277 230.231 8.30394C230.228 8.66426 230.297 9.02147 230.434 9.3549C230.558 9.6808 230.747 9.97809 230.989 10.2287C231.231 10.4792 231.522 10.6779 231.844 10.8124C232.169 10.952 232.519 11.0227 232.873 11.02V11.0114ZM232.873 5.20294C233.154 5.2023 233.434 5.24162 233.703 5.31972C233.966 5.39156 234.217 5.49772 234.452 5.63544C234.683 5.76975 234.895 5.93409 235.083 6.12416C235.274 6.31456 235.439 6.52816 235.576 6.75993C235.711 6.99575 235.817 7.24697 235.892 7.50815C236.039 8.05199 236.039 8.62509 235.892 9.16893C235.819 9.43078 235.713 9.68223 235.576 9.91715C235.441 10.1477 235.277 10.3599 235.087 10.5486C234.899 10.7387 234.687 10.903 234.456 11.0373C234.222 11.175 233.97 11.2812 233.708 11.353C233.437 11.4276 233.158 11.4654 232.877 11.4655C232.597 11.466 232.317 11.4282 232.047 11.353C231.784 11.2828 231.532 11.1765 231.299 11.0373C231.068 10.903 230.855 10.7387 230.667 10.5486C230.478 10.3589 230.313 10.1468 230.174 9.91715C230.039 9.68205 229.934 9.4306 229.863 9.16893C229.713 8.62549 229.713 8.05159 229.863 7.50815C230.003 6.98349 230.281 6.50574 230.667 6.12416C230.853 5.92982 231.064 5.76111 231.294 5.62247C231.528 5.48323 231.78 5.37698 232.043 5.30674C232.312 5.22806 232.592 5.18873 232.873 5.18997V5.20294Z" fill="#9C9EA1"></path><path d="M128.122 50.1072C128.285 50.2654 128.414 50.4552 128.501 50.6649C128.588 50.8746 128.632 51.0999 128.629 51.3269V52.3908H125.082V49.6012H126.907C127.134 49.5983 127.358 49.6416 127.567 49.7287C127.776 49.8157 127.965 49.9445 128.122 50.1072ZM126.907 53.5672H125.082V67.0481H128.629V55.2799C128.629 54.8211 128.446 54.381 128.122 54.0566C127.797 53.7322 127.357 53.5499 126.899 53.5499L126.907 53.5672Z" fill="#0065A5"></path><path d="M144.54 50.1072C144.703 50.2654 144.832 50.4552 144.919 50.6649C145.006 50.8746 145.049 51.0999 145.046 51.3269V52.3908H141.5V49.6012H143.325C143.552 49.5983 143.776 49.6416 143.985 49.7287C144.194 49.8157 144.383 49.9445 144.54 50.1072ZM143.325 53.5672H141.5V67.0481H145.046V55.2799C145.046 54.8211 144.864 54.381 144.54 54.0566C144.215 53.7322 143.775 53.5499 143.316 53.5499L143.325 53.5672Z" fill="#0065A5"></path><path d="M188.205 50.1072C188.367 50.2654 188.496 50.4552 188.583 50.6649C188.67 50.8746 188.714 51.0999 188.711 51.3269V52.3908H185.164V49.6012H186.989C187.216 49.5983 187.44 49.6416 187.649 49.7287C187.858 49.8157 188.047 49.9445 188.205 50.1072ZM186.989 53.5672H185.164V67.0481H188.711V55.2799C188.711 54.8211 188.528 54.381 188.204 54.0566C187.879 53.7322 187.439 53.5499 186.981 53.5499L186.989 53.5672Z" fill="#0065A5"></path><path d="M215.521 53.7916C214.232 52.984 212.739 52.5609 211.218 52.572C209.734 52.628 208.295 53.0871 207.053 53.8998C205.793 54.7128 205.164 56.3232 205.167 58.7307V67.013H208.895V57.9652C208.866 57.6187 208.918 57.2701 209.047 56.9472C209.176 56.6243 209.379 56.3361 209.639 56.1055C210.122 55.7215 210.722 55.5153 211.339 55.5216C211.965 55.5167 212.574 55.7223 213.069 56.1055C213.338 56.3298 213.549 56.6163 213.683 56.9403C213.817 57.2643 213.871 57.616 213.839 57.9652V65.1879C213.828 65.4275 213.868 65.6667 213.955 65.8902C214.042 66.1137 214.174 66.3167 214.344 66.4863C214.513 66.6559 214.716 66.7884 214.94 66.8754C215.163 66.9623 215.402 67.0018 215.642 66.9914H217.502V58.7091C217.49 56.2295 216.83 54.5903 215.521 53.7916Z" fill="#0065A5"></path><path d="M43.8029 52.4945C41.7644 52.4945 40.1786 53.1547 39.0454 54.4753C37.9123 55.7959 37.3587 57.5821 37.3847 59.8339C37.3847 62.2242 37.9613 64.0637 39.1146 65.3526C40.268 66.6414 41.8538 67.3017 43.8721 67.3334C45.3613 67.3896 46.8282 66.9583 48.05 66.1051C49.1902 65.2711 49.9905 64.053 50.3033 62.6754H47.6218C47.271 62.652 46.9225 62.7464 46.6314 62.9436C46.4615 63.0496 46.3227 63.1989 46.2292 63.3761L45.9351 63.6702C45.8525 63.7538 45.7519 63.8174 45.641 63.8561C45.1665 64.1183 44.6303 64.2483 44.0883 64.2324C43.6969 64.2601 43.3044 64.1964 42.9419 64.0462C42.5793 63.8961 42.2567 63.6637 41.9994 63.3674C41.4977 62.8311 41.2295 62.0094 41.1949 60.9022H50.4633C50.5054 60.7814 50.523 60.6535 50.5152 60.5259V59.9377C50.5152 57.5821 49.9386 55.7425 48.7853 54.4191C47.6319 53.0956 45.9711 52.4541 43.8029 52.4945ZM41.1776 58.4932C41.1588 57.7024 41.4471 56.935 41.9821 56.3523C42.2347 56.1012 42.5364 55.9048 42.8682 55.7753C43.2001 55.6459 43.5551 55.5861 43.911 55.5998C44.2757 55.5771 44.6411 55.6326 44.9826 55.7623C45.3242 55.8921 45.6342 56.0932 45.8919 56.3523C46.3747 56.9616 46.6383 57.7158 46.6401 58.4932H41.1776Z" fill="#0065A5"></path><path d="M192.694 65.6944C191.924 65.0122 191.373 64.1188 191.107 63.1254C190.788 62.0338 190.628 60.9021 190.631 59.7649C190.631 58.7968 190.765 57.8334 191.029 56.9018C191.255 56.0229 191.679 55.2076 192.27 54.5187C193.176 53.4689 194.443 52.7988 195.821 52.6417C197.135 52.4343 198.481 52.5516 199.739 52.9834C201.047 53.4835 202.111 54.471 202.706 55.7384C203.328 57.0063 203.636 58.4049 203.606 59.8168C203.625 60.8 203.5 61.7807 203.234 62.7275C203.024 63.4613 202.704 64.1585 202.282 64.7948C201.519 65.8993 200.364 66.6723 199.052 66.9573C197.901 67.2748 196.69 67.3015 195.527 67.0352C194.483 66.8404 193.507 66.3785 192.694 65.6944ZM195.237 56.3871C194.497 57.2002 194.16 58.4069 194.229 60.0158C194.298 61.6246 194.601 62.7405 195.133 63.3763C195.427 63.7172 195.813 63.9664 196.245 64.0942C196.762 64.2884 197.329 64.3067 197.858 64.1461C198.471 63.9352 198.988 63.5117 199.315 62.9524C199.748 62.3166 199.968 61.296 200.003 59.8817C200.003 58.6102 199.8 57.6572 199.393 57.0229C199.08 56.468 198.585 56.0375 197.992 55.8033C197.477 55.6304 196.921 55.6213 196.4 55.7773C195.969 55.8846 195.57 56.0937 195.237 56.3871Z" fill="#0065A5"></path><path d="M102.069 65.6943C101.298 65.0132 100.746 64.1194 100.482 63.1253C100.161 62.0341 100.001 60.9021 100.006 59.7648C100.007 58.797 100.139 57.8339 100.4 56.9017C100.627 56.0225 101.053 55.2073 101.645 54.5186C102.551 53.4688 103.818 52.7987 105.196 52.6416C106.51 52.4343 107.856 52.5516 109.114 52.9833C110.421 53.4836 111.483 54.4711 112.077 55.7383C112.701 57.0055 113.009 58.4046 112.977 59.8167C112.997 60.7997 112.873 61.7804 112.609 62.7274C112.398 63.4614 112.076 64.1587 111.653 64.7947C110.889 65.8992 109.735 66.6722 108.422 66.9572C107.273 67.2748 106.064 67.3016 104.902 67.0351C103.858 66.8403 102.882 66.3784 102.069 65.6943ZM104.595 56.387C103.851 57.2001 103.518 58.4068 103.587 60.0157C103.656 61.6245 103.959 62.7404 104.487 63.3762C104.782 63.7172 105.17 63.9663 105.602 64.0941C106.12 64.2883 106.687 64.3066 107.216 64.146C107.828 63.9341 108.345 63.5108 108.673 62.9523C109.106 62.3165 109.322 61.2958 109.361 59.8816C109.361 58.61 109.158 57.6571 108.751 57.0228C108.437 56.4679 107.943 56.0373 107.35 55.8031C106.835 55.6303 106.279 55.6212 105.758 55.7772C105.327 55.8845 104.928 56.0936 104.595 56.387Z" fill="#0065A5"></path><path d="M24.3884 66.4341C23.647 66.8239 22.8383 67.069 22.0053 67.1564C21.2685 67.2383 20.528 67.2831 19.7866 67.2905C18.5867 67.3096 17.4122 66.9444 16.4348 66.2481C15.4746 65.5518 14.9902 64.4014 14.9902 62.7882C14.9902 61.2874 15.4227 60.2191 16.2877 59.5747C17.281 58.8787 18.4281 58.4335 19.6309 58.2772C19.8465 58.271 20.0609 58.2434 20.271 58.1951C20.5219 58.1432 20.8073 58.0956 21.136 58.061C22.706 57.8491 23.4888 57.382 23.4888 56.6684C23.4993 56.4244 23.4216 56.1847 23.2699 55.9933C23.1182 55.8019 22.9027 55.6715 22.6627 55.626C22.1676 55.4745 21.6537 55.3929 21.136 55.3838C20.6813 55.3773 20.229 55.4505 19.7996 55.6001C19.6071 55.6661 19.4307 55.7719 19.2817 55.9105C19.1327 56.049 19.0144 56.2174 18.9346 56.4045H15.3449C15.467 55.334 16.0043 54.354 16.8413 53.6755C17.8072 52.8537 19.1811 52.4429 20.963 52.4429C22.9611 52.4429 24.459 52.7817 25.4566 53.4592C25.9498 53.7847 26.3515 54.231 26.6233 54.7556C26.8951 55.2803 27.028 55.8658 27.0093 56.4564V61.3263C27.0727 62.4915 26.8043 63.6508 26.2351 64.6695C25.7931 65.416 25.1542 66.0265 24.3884 66.4341ZM23.5234 59.8515C22.8549 60.16 22.1543 60.3935 21.4344 60.5478L20.2061 60.816C19.6908 60.9273 19.2118 61.1668 18.8135 61.5123C18.5779 61.86 18.4487 62.2688 18.4416 62.6887C18.428 62.9264 18.4636 63.1643 18.5462 63.3875C18.6288 63.6108 18.7566 63.8146 18.9216 63.9862C19.3146 64.2977 19.8095 64.4519 20.3099 64.4187C20.7412 64.457 21.1756 64.4003 21.5825 64.2526C21.9895 64.105 22.3592 63.8699 22.6655 63.564C22.9718 63.2581 23.2074 62.8887 23.3556 62.4819C23.5038 62.0752 23.5611 61.6409 23.5234 61.2096V59.8515Z" fill="#0065A5"></path><path d="M169.789 66.4341C169.047 66.8233 168.239 67.0684 167.406 67.1564C166.668 67.2385 165.926 67.2832 165.183 67.2905C163.977 67.3133 162.796 66.9479 161.814 66.2481C160.851 65.5504 160.369 64.3971 160.369 62.7882C160.369 61.2874 160.802 60.2191 161.667 59.5747C162.661 58.8802 163.807 58.4352 165.01 58.2772C165.227 58.271 165.443 58.2435 165.654 58.1951C165.94 58.1357 166.229 58.0909 166.519 58.061C168.089 57.8491 168.872 57.382 168.872 56.6684C168.882 56.4237 168.804 56.1836 168.651 55.9921C168.499 55.8006 168.282 55.6706 168.042 55.626C167.548 55.4745 167.036 55.393 166.519 55.3838C166.063 55.3768 165.609 55.45 165.179 55.6001C164.987 55.6673 164.811 55.7735 164.662 55.9119C164.513 56.0504 164.394 56.2181 164.314 56.4045H160.732C160.853 55.3334 161.39 54.3528 162.229 53.6755C163.195 52.8537 164.569 52.4429 166.351 52.4429C168.343 52.4429 169.841 52.7817 170.844 53.4592C171.337 53.7847 171.739 54.231 172.011 54.7556C172.283 55.2803 172.415 55.8658 172.397 56.4564V61.3263C172.461 62.4921 172.191 63.652 171.618 64.6695C171.181 65.414 170.549 66.0243 169.789 66.4341ZM168.924 59.8515C168.257 60.1607 167.558 60.3943 166.839 60.5478L165.607 60.816C165.093 60.9282 164.616 61.1676 164.218 61.5123C163.981 61.8595 163.85 62.2683 163.842 62.6887C163.829 62.9264 163.864 63.1643 163.947 63.3875C164.029 63.6108 164.157 63.8146 164.322 63.9862C164.717 64.2969 165.213 64.4509 165.715 64.4187C166.146 64.4563 166.58 64.3991 166.986 64.2512C167.392 64.1032 167.762 63.868 168.067 63.5622C168.373 63.2563 168.608 62.8872 168.756 62.4808C168.904 62.0744 168.962 61.6405 168.924 61.2096V59.8515Z" fill="#0065A5"></path><path d="M228.886 55.9545C228.808 56.0867 228.703 56.2014 228.579 56.2918C228.448 56.3677 228.298 56.4038 228.146 56.3956C227.951 56.3914 227.759 56.3442 227.584 56.2572C227.394 56.1664 227.178 56.0669 226.94 55.9631C226.675 55.849 226.403 55.7508 226.127 55.669C225.781 55.5722 225.422 55.5256 225.063 55.5306C224.559 55.4997 224.059 55.6316 223.636 55.9069C223.476 56.0181 223.346 56.1672 223.258 56.3407C223.169 56.5143 223.125 56.707 223.129 56.9016C223.126 57.0338 223.149 57.1652 223.198 57.288C223.248 57.4107 223.321 57.5221 223.415 57.6153C223.637 57.8261 223.895 57.996 224.176 58.117C224.528 58.2693 224.887 58.4021 225.253 58.5149C225.655 58.6359 226.07 58.77 226.494 58.9171C226.917 59.0633 227.331 59.2322 227.736 59.4231C228.128 59.6097 228.491 59.8531 228.813 60.1454C229.132 60.4395 229.391 60.7937 229.574 61.1877C229.776 61.6524 229.873 62.1559 229.859 62.6625C229.865 63.3145 229.737 63.9607 229.483 64.5611C229.234 65.1387 228.857 65.6519 228.38 66.0619C227.849 66.5076 227.234 66.8428 226.572 67.048C224.839 67.5738 222.981 67.5237 221.278 66.9053C220.862 66.7508 220.459 66.5643 220.072 66.3473C219.722 66.1578 219.396 65.9285 219.099 65.664L219.964 64.2497C220.056 64.0937 220.185 63.9629 220.34 63.8692C220.518 63.7689 220.72 63.7209 220.924 63.7307C221.145 63.7286 221.362 63.7885 221.551 63.9038C221.746 64.0162 221.957 64.1416 222.195 64.2714C222.473 64.4195 222.762 64.544 223.06 64.6433C223.453 64.7657 223.864 64.8227 224.276 64.812C224.596 64.8184 224.915 64.7776 225.223 64.6909C225.459 64.6241 225.678 64.5092 225.867 64.3535C226.018 64.2273 226.14 64.0692 226.223 63.8905C226.306 63.7118 226.348 63.5169 226.347 63.3199C226.352 63.1797 226.329 63.0399 226.279 62.909C226.228 62.7782 226.151 62.659 226.053 62.5587C225.829 62.3434 225.568 62.1692 225.283 62.044C224.93 61.8847 224.566 61.7517 224.193 61.6461C223.761 61.5293 223.363 61.3953 222.939 61.2482C222.512 61.1006 222.095 60.9273 221.689 60.7292C221.292 60.5316 220.928 60.275 220.608 59.968C220.281 59.6436 220.019 59.2588 219.838 58.8349C219.629 58.3173 219.529 57.7623 219.544 57.2044C219.543 56.6318 219.659 56.0651 219.886 55.5393C220.122 55.0048 220.474 54.5293 220.915 54.1466C221.423 53.7165 222.011 53.3903 222.645 53.1865C223.408 52.9365 224.208 52.8166 225.011 52.8319C225.948 52.82 226.879 52.9873 227.753 53.3249C228.511 53.6133 229.202 54.055 229.781 54.6224L228.886 55.9545Z" fill="#0065A5"></path><path d="M63.4641 72.3891V69.4481H64.4848C65.0908 69.4809 65.6887 69.2969 66.1715 68.9291C66.5824 68.5875 66.6646 68.0641 66.4137 67.2986L61.4141 53.1301H65.5357L68.4248 63.1899L70.942 54.4146C71.0101 54.0183 71.2272 53.6631 71.5489 53.4218C71.8706 53.1805 72.2724 53.0715 72.6719 53.1171H75.2539L69.7785 69.3616C69.4867 70.3329 68.9313 71.2042 68.174 71.8788C67.5339 72.3112 66.4786 72.5188 65.0168 72.5188H64.2685C64.137 72.4801 64.0025 72.4526 63.8663 72.4367C63.7332 72.4138 63.5989 72.3979 63.4641 72.3891Z" fill="#0065A5"></path><path d="M3.67621 61.4386C4.02654 63.3373 5.22887 64.1893 7.17943 64.2239C9.12999 64.2585 9.97335 63.4108 9.9993 62.0311C10.0253 60.4958 9.22514 59.8167 6.35336 59.0037C1.78188 57.7062 0.679018 55.8291 0.730918 53.2861C0.791467 49.9991 3.02747 47.802 7.02373 47.8712C11.5001 47.9491 13.2387 50.6738 13.4333 53.4374L11.0978 53.3942C10.7623 53.396 10.4332 53.3017 10.1496 53.1223C9.86603 52.943 9.63976 52.6861 9.49761 52.3821C9.15161 51.582 8.42934 50.929 6.87236 50.8987C5.39322 50.8987 4.48931 51.5431 4.46336 52.8838C4.43741 54.2246 5.15103 54.7392 7.86277 55.4788C12.7457 56.8585 13.788 58.9172 13.7404 61.577C13.6798 65.037 11.3098 67.3422 6.85073 67.2643C2.56038 67.1994 0.345997 64.8164 0 61.3737L3.67621 61.4386Z" fill="#0065A5"></path><path d="M29.9286 67.0221L29.9546 55.9848L28.9166 55.7988C28.6776 55.7571 28.453 55.656 28.2635 55.5047C28.1774 55.4294 28.1099 55.3351 28.0663 55.2293C28.0228 55.1235 28.0044 55.009 28.0126 54.8949V53.4374H29.9589V52.5378C29.9531 51.8168 30.0761 51.1006 30.3222 50.4229C30.5435 49.8226 30.8933 49.2779 31.3472 48.827C31.8099 48.3762 32.3646 48.031 32.9734 47.8149C33.6671 47.5685 34.3998 47.4498 35.1359 47.4646C35.4339 47.4643 35.7316 47.4845 36.0268 47.5252C36.3192 47.5646 36.6083 47.6253 36.8918 47.7068L36.8096 49.506C36.8143 49.6202 36.7836 49.733 36.7217 49.829C36.6597 49.925 36.5696 49.9995 36.4636 50.0423C36.2391 50.1298 35.9996 50.1724 35.7587 50.1677C35.4277 50.1637 35.0977 50.2029 34.7769 50.2845C34.5017 50.354 34.2486 50.4924 34.0416 50.6867C33.8367 50.9024 33.6881 51.1653 33.6091 51.4522C33.4926 51.8405 33.4386 52.2449 33.4491 52.6502V53.446H36.775V55.9891H33.527L33.4967 67.0221H29.9286Z" fill="#0065A5"></path><path d="M132.59 67.0219L132.62 55.9847L131.582 55.7987C131.342 55.757 131.116 55.6559 130.925 55.5046C130.84 55.4281 130.774 55.3336 130.73 55.2281C130.687 55.1226 130.668 55.0087 130.674 54.8948V53.4372H132.62V52.5377C132.61 51.8163 132.733 51.0994 132.984 50.4228C133.203 49.8227 133.552 49.278 134.004 48.8268C134.468 48.3779 135.023 48.0329 135.63 47.8148C136.324 47.5692 137.057 47.4505 137.793 47.4645C138.089 47.4642 138.386 47.4845 138.68 47.525C138.972 47.5647 139.261 47.6254 139.545 47.7067L139.462 49.5059C139.467 49.62 139.436 49.7329 139.374 49.8289C139.312 49.9249 139.222 49.9994 139.116 50.0422C138.89 50.1297 138.649 50.1723 138.407 50.1676C138.078 50.1635 137.749 50.2028 137.43 50.2844C137.154 50.3539 136.901 50.4923 136.694 50.6866C136.48 50.9008 136.322 51.1655 136.236 51.4564C136.124 51.8456 136.07 52.2494 136.076 52.6544V53.4502H139.397V55.9933H136.188L136.162 67.0263L132.59 67.0219Z" fill="#0065A5"></path><path d="M59.5552 64.4313C59.503 64.3387 59.4323 64.2577 59.3476 64.1934C59.2712 64.1419 59.1803 64.1161 59.0881 64.1199C59.0094 64.1217 58.9322 64.1424 58.8632 64.1805L58.6254 64.3059C58.5259 64.3589 58.4216 64.4023 58.314 64.4356C58.1737 64.4775 58.0279 64.498 57.8815 64.4962C57.7394 64.5045 57.5974 64.4795 57.4667 64.4232C57.3361 64.3669 57.2204 64.2808 57.1289 64.1718C56.9419 63.9233 56.8471 63.6175 56.8608 63.3068V56.0495H58.3486C58.7225 56.0495 59.0811 55.901 59.3455 55.6366C59.6099 55.3722 59.7585 55.0135 59.7585 54.6396V53.567H56.8608V49.3372H54.1707C53.9905 49.3165 53.8092 49.3648 53.6632 49.4723C53.5172 49.5798 53.4173 49.7386 53.3835 49.9167L53.3576 53.4589L51.4676 53.7919L51.4416 55.2235C51.432 55.325 51.4445 55.4274 51.4781 55.5237C51.5116 55.6199 51.5656 55.7078 51.6362 55.7814C51.7648 55.9064 51.937 55.9762 52.1163 55.976L53.3186 55.9976L53.2797 61.4601L53.2494 63.363C53.2452 63.6773 53.2684 63.9913 53.3186 64.3016C53.357 64.5811 53.4221 64.8563 53.5133 65.1233C53.663 65.5703 53.912 65.9776 54.2415 66.3147C54.5711 66.6517 54.9727 66.9098 55.4162 67.0695C55.9291 67.2544 56.4714 67.3438 57.0165 67.3333C57.6708 67.3363 58.3217 67.2371 58.9454 67.0393C59.5482 66.854 60.1124 66.561 60.6105 66.1743L59.5552 64.4313Z" fill="#0065A5"></path><path d="M121.964 64.4314C121.912 64.34 121.843 64.2593 121.761 64.1935C121.684 64.1419 121.593 64.1162 121.501 64.12C121.421 64.121 121.342 64.1418 121.272 64.1805L121.034 64.3059C120.935 64.359 120.83 64.4024 120.723 64.4357C120.582 64.4783 120.437 64.4988 120.29 64.4962C120.147 64.5046 120.005 64.4796 119.873 64.4233C119.742 64.367 119.626 64.2809 119.533 64.1719C119.347 63.923 119.254 63.6171 119.269 63.3069V56.0496H120.753C121.119 56.0429 121.469 55.8937 121.727 55.6338C121.985 55.3738 122.132 55.0234 122.137 54.657V53.5844H119.243V49.3373H116.549C116.369 49.3176 116.188 49.3663 116.042 49.4737C115.897 49.581 115.797 49.7391 115.762 49.9168L115.74 53.4589L113.872 53.7703L113.85 55.2019C113.84 55.3031 113.852 55.4053 113.885 55.5016C113.917 55.5978 113.971 55.6859 114.041 55.7598C114.171 55.8851 114.344 55.9548 114.525 55.9544L115.723 55.9761L115.688 61.4385L115.654 63.3415C115.651 63.6559 115.675 63.9699 115.727 64.28C115.764 64.5594 115.828 64.8346 115.918 65.1017C116.067 65.5487 116.316 65.956 116.646 66.2931C116.975 66.6302 117.377 66.8882 117.821 67.048C118.335 67.2332 118.879 67.3226 119.425 67.3118C120.078 67.3145 120.727 67.2152 121.35 67.0177C121.952 66.8325 122.517 66.5394 123.015 66.1527L121.964 64.4314Z" fill="#0065A5"></path><path d="M182.081 64.4314C182.029 64.3387 181.958 64.2578 181.873 64.1935C181.797 64.1419 181.706 64.1162 181.614 64.12C181.535 64.1212 181.458 64.142 181.389 64.1805L181.147 64.3059C181.049 64.3598 180.946 64.4032 180.84 64.4357C180.699 64.4776 180.554 64.498 180.407 64.4962C180.265 64.5046 180.122 64.4796 179.99 64.4233C179.859 64.367 179.743 64.2809 179.65 64.1719C179.465 63.923 179.371 63.6171 179.386 63.3069V56.0496H180.874C181.248 56.0496 181.607 55.901 181.871 55.6366C182.136 55.3722 182.284 55.0136 182.284 54.6397V53.5671H179.386V49.3372H176.696C176.516 49.3165 176.334 49.3646 176.187 49.472C176.04 49.5795 175.94 49.7383 175.905 49.9168L175.883 53.4589L174.019 53.7703L173.993 55.2019C173.984 55.303 173.996 55.405 174.029 55.5012C174.062 55.5973 174.114 55.6854 174.184 55.7598C174.314 55.8843 174.488 55.9539 174.668 55.9544L175.866 55.9761L175.831 61.4385L175.797 63.3415C175.794 63.6559 175.819 63.9699 175.87 64.28C175.907 64.5599 175.972 64.8353 176.065 65.1017C176.214 65.547 176.461 65.9534 176.787 66.2911C177.119 66.6273 177.52 66.8858 177.964 67.048C178.478 67.2328 179.022 67.3222 179.568 67.3118C180.221 67.3148 180.87 67.2155 181.493 67.0177C182.097 66.8325 182.662 66.5394 183.162 66.1527L182.081 64.4314Z" fill="#0065A5"></path><path d="M158.324 55.8164C158.228 55.9483 158.113 56.0649 157.982 56.1624C157.838 56.2504 157.67 56.2926 157.502 56.2835C157.308 56.2817 157.119 56.2247 156.957 56.1192C156.78 56.011 156.581 55.8943 156.351 55.7645C156.094 55.6232 155.825 55.5046 155.547 55.4099C155.171 55.2932 154.778 55.2391 154.384 55.2498C153.859 55.2362 153.338 55.3443 152.861 55.5656C152.433 55.7753 152.065 56.0909 151.793 56.4825C151.489 56.9175 151.274 57.4085 151.161 57.927C151.011 58.5559 150.937 59.2006 150.941 59.8473C150.941 61.3394 151.244 62.4812 151.84 63.277C152.123 63.6607 152.495 63.9696 152.923 64.1769C153.352 64.3842 153.825 64.4835 154.301 64.4663C154.612 64.4712 154.923 64.4407 155.227 64.3755C155.462 64.3241 155.689 64.2457 155.906 64.1419C156.085 64.0563 156.255 63.952 156.412 63.8306C156.553 63.7123 156.687 63.6085 156.814 63.5192C156.935 63.429 157.064 63.3495 157.199 63.2813C157.334 63.2184 157.482 63.1873 157.632 63.1905C157.768 63.1846 157.904 63.2128 158.027 63.2724C158.15 63.332 158.257 63.4213 158.337 63.5321L159.457 64.9464C159.069 65.4045 158.621 65.8076 158.125 66.1444C157.668 66.4528 157.175 66.7054 156.659 66.8969C156.162 67.0779 155.647 67.2055 155.123 67.2775C154.612 67.3497 154.096 67.3858 153.579 67.3857C152.704 67.3894 151.836 67.2189 151.027 66.884C150.228 66.5494 149.509 66.0498 148.917 65.4178C148.284 64.731 147.795 63.9254 147.477 63.0477C147.106 62.0221 146.926 60.9375 146.945 59.8473C146.936 58.8365 147.093 57.8311 147.412 56.8717C147.703 55.9933 148.171 55.1839 148.787 54.493C149.413 53.8079 150.18 53.2676 151.036 52.91C152.018 52.5125 153.07 52.3183 154.128 52.3391C155.132 52.3174 156.13 52.4998 157.061 52.8754C157.914 53.2402 158.685 53.771 159.331 54.4367L158.324 55.8164Z" fill="#0065A5"></path><path d="M82.1963 67.0175V47.7974H86.1925C86.5108 47.7975 86.8231 47.883 87.097 48.0451C87.3709 48.2071 87.5962 48.4397 87.7495 48.7186C90.1715 53.143 94.0034 60.0413 94.8122 61.9919H94.8641C94.6522 59.9851 94.6565 56.6506 94.6565 53.4933V49.2203C94.6565 48.8429 94.8064 48.481 95.0733 48.2141C95.3401 47.9473 95.702 47.7974 96.0794 47.7974H98.3457V67.0218H94.4792C94.2004 67.0219 93.9268 66.9463 93.6877 66.8031C93.4485 66.6599 93.2527 66.4545 93.1211 66.2087C90.9154 62.113 86.6553 54.1767 85.7687 52.1007H85.7168C85.8552 53.7831 85.8985 57.7231 85.8985 61.1831V67.0261L82.1963 67.0175Z" fill="#0065A5"></path></g><defs><clipPath id="clip0"><rect width="236" height="74.5017" fill="white"></rect></clipPath></defs></svg> 