<?xml version="1.0" encoding="UTF-8"?> <svg xmlns="http://www.w3.org/2000/svg" width="236" height="73" viewBox="0 0 236 73" fill="none"><g clip-path="url(#clip0)"><path d="M146.726 8.46509C144.845 8.46509 143.686 9.33298 143.25 11.0688L139.24 28.4383L135.335 8.46509H127.631L123.504 28.4383L118.948 8.46509H111.57L119.491 37.3268H127.075L131.524 16.709L135.973 37.3268H143.557L151.478 8.46509H146.726Z" fill="#9C9EA1"></path><path d="M174.298 8.46509C172.415 8.46509 171.256 9.33298 170.822 11.0688L165.726 28.8648L159.867 8.46509H151.51L161.602 37.2194C162.108 38.7382 161.945 39.841 161.115 40.5277C160.281 41.2165 158.31 41.561 157.008 41.561C154.41 41.561 149.721 41.4883 149.721 47.7447H158.78C161.749 47.7447 163.882 47.3108 165.182 46.4429C166.484 45.4296 167.569 43.7296 168.437 41.3429L179.496 8.48089L174.298 8.46509Z" fill="#9C9EA1"></path><path d="M216.447 7.81421C212.324 7.81421 209.106 9.15186 206.79 11.8272C204.547 14.4309 203.425 18.0478 203.425 22.678C203.425 27.523 204.584 31.2484 206.901 33.8542C209.218 36.5337 212.437 37.8724 216.557 37.8703C219.96 37.8703 222.781 37.0382 225.023 35.3741C227.266 33.7836 228.786 31.4664 229.582 28.4225H224.166C223.455 28.3785 222.749 28.5695 222.157 28.966C221.686 29.3294 220.15 31.5697 217.003 31.5697C215.12 31.5697 213.709 30.9914 212.772 29.8349C211.757 28.748 211.213 27.0838 211.142 24.8424H229.914C230.004 24.6003 230.042 24.3418 230.025 24.0841V22.896C230.025 18.1226 228.866 14.3971 226.549 11.7197C224.166 9.11605 220.799 7.81421 216.447 7.81421ZM211.142 19.9668C211.215 18.0878 211.759 16.6406 212.772 15.6253C213.285 15.1192 213.896 14.7234 214.568 14.462C215.239 14.2007 215.957 14.0793 216.678 14.1054C218.413 14.1054 219.751 14.612 220.691 15.6253C221.561 16.5669 222.067 18.0141 222.21 19.9668H211.142Z" fill="#9C9EA1"></path><path d="M203.175 14.6488C203.175 14.6488 205.757 11.9883 205.757 8.46509H179.531V10.8507C179.52 11.3283 179.611 11.8027 179.798 12.2423C179.985 12.682 180.263 13.0768 180.614 13.4007C180.959 13.7362 181.366 14 181.813 14.1769C182.26 14.3537 182.737 14.44 183.218 14.4308H194.179L178.646 31.576C177.273 33.1781 176.516 35.2169 176.51 37.3268H203.713V31.0356H187.869L203.175 14.6488Z" fill="#9C9EA1"></path><path d="M37.8705 11.6126C36.3644 12.8425 35.1865 14.4264 34.4421 16.2228C33.6122 18.1397 33.1909 20.5096 33.1782 23.3323V37.3272H40.7618V22.476C40.7618 20.3042 41.2684 18.7127 42.2816 17.7016C43.2949 16.6904 44.8495 16.1838 46.9455 16.1817H49.4418V8.46544C47.1584 8.42981 44.8799 8.68464 42.6608 9.22379C40.9061 9.68455 39.2635 10.4973 37.8326 11.6126" fill="#0065A5"></path><path d="M54.7976 8.46509H50.8921V37.3268H58.4756V12.1526C58.4707 11.1756 58.0801 10.2401 57.389 9.54953C56.6978 8.85898 55.762 8.46924 54.785 8.46509" fill="#0065A5"></path><path d="M57.2717 3.6907C57.2781 3.20575 57.1852 2.72463 56.9988 2.27688C56.8125 1.82914 56.5365 1.42422 56.1879 1.08701C55.8511 0.73772 55.4463 0.461084 54.9986 0.274144C54.5508 0.0872048 54.0695 -0.00607906 53.5842 3.83917e-05H50.8921V5.96892H57.2717V3.6907Z" fill="#0065A5"></path><path d="M81.166 8.46509C79.4281 8.46509 78.2695 9.33298 77.6902 11.0688L72.5934 28.7542L66.8426 8.46509H58.8135L68.9028 37.3268H76.6064L86.8094 8.46509H81.166Z" fill="#0065A5"></path><path d="M107.611 11.7197C105.222 9.11605 101.858 7.81421 97.5182 7.81421C93.3936 7.81421 90.1748 9.15186 87.8618 11.8272C85.6183 14.4309 84.4966 18.0478 84.4966 22.678C84.4966 27.523 85.6552 31.2484 87.9724 33.8542C90.2896 36.5337 93.5094 37.8724 97.6319 37.8703C101.03 37.8703 103.85 37.0382 106.094 35.3741C108.333 33.7836 109.852 31.4664 110.65 28.4225H105.222C102.937 28.4225 102.805 30.0024 101.209 30.8113C100.232 31.3159 99.1481 31.5761 98.049 31.5697C96.1658 31.5697 94.7554 30.9914 93.818 29.8349C92.8048 28.748 92.2623 27.0838 92.1907 24.8424H110.96C111.05 24.6003 111.088 24.3418 111.071 24.0841V22.896C111.071 18.1226 109.912 14.3971 107.595 11.7197H107.611ZM92.2034 19.9668C92.2729 18.0878 92.8153 16.6406 93.8307 15.6253C94.3438 15.1192 94.9549 14.7234 95.6265 14.462C96.2981 14.2007 97.016 14.0793 97.7362 14.1054C99.472 14.1054 100.81 14.612 101.749 15.6253C102.619 16.5669 103.126 18.0141 103.269 19.9668H92.2034Z" fill="#0065A5"></path><path d="M14.6489 0H5.43172C2.50573 0 0 1.57991 0 5.46015V37.3269H12.5887C16.1308 37.3269 18.8104 37.1878 20.5072 36.5685C26.495 34.3882 29.0071 30.4195 30.1667 27.6705C31.2149 24.7856 31.7299 21.7341 31.6866 18.665C31.6866 12.4444 30.2752 7.74154 27.4524 4.55645C24.6318 1.51882 20.3639 0 14.6489 0ZM21.4867 27.7779C19.8247 29.6612 17.221 30.6017 13.6757 30.5996H11.9441C8.43354 30.5996 7.48559 28.4857 7.48559 26.8331V6.50921H14.6489C17.8319 6.50921 20.1491 7.48665 21.6005 9.44152C23.1214 11.3943 23.8808 14.4688 23.8787 18.665C23.8787 23.0024 23.0824 26.04 21.4899 27.7779" fill="#0065A5"></path><path d="M232.878 5.19782C233.158 5.19601 233.437 5.23323 233.706 5.30841C233.97 5.38029 234.222 5.48653 234.458 5.62439C234.921 5.89749 235.307 6.28342 235.58 6.74612C235.86 7.22552 236.007 7.77085 236.006 8.32603C236.007 8.60699 235.969 8.8867 235.893 9.15706C235.818 9.4184 235.712 9.66982 235.577 9.90594C235.441 10.1366 235.276 10.349 235.087 10.5379C234.897 10.7263 234.685 10.8908 234.455 11.0277C234.219 11.1657 233.966 11.2719 233.703 11.3437C233.16 11.4914 232.587 11.4914 232.044 11.3437C231.781 11.2719 231.53 11.1657 231.295 11.0277C231.066 10.89 230.854 10.7256 230.663 10.5379C230.475 10.3482 230.31 10.1359 230.173 9.90594C230.036 9.67111 229.93 9.41936 229.857 9.15706C229.71 8.61396 229.71 8.04126 229.857 7.49816C229.929 7.23464 230.035 6.98177 230.173 6.74612C230.448 6.28419 230.835 5.89935 231.298 5.62755C231.533 5.48971 231.785 5.38347 232.047 5.31157C232.318 5.23618 232.597 5.19895 232.878 5.20098V5.19782ZM232.878 11.0024C233.348 11.0058 233.809 10.8824 234.215 10.6453C234.409 10.529 234.589 10.3889 234.749 10.2282C234.909 10.0674 235.048 9.88566 235.16 9.68791C235.274 9.48969 235.363 9.27721 235.422 9.05595C235.486 8.82225 235.518 8.58095 235.517 8.33867C235.517 8.09536 235.486 7.85304 235.422 7.61823C235.362 7.39705 235.274 7.1846 235.16 6.98627C235.047 6.78763 234.909 6.60486 234.749 6.44278C234.589 6.27309 234.407 6.1254 234.208 6.00357C233.805 5.76528 233.346 5.63774 232.878 5.63387C232.531 5.63295 232.187 5.70216 231.867 5.83736C231.548 5.97256 231.258 6.17096 231.017 6.42066C230.777 6.66431 230.586 6.9518 230.455 7.26749C230.318 7.60141 230.25 7.95905 230.252 8.31971C230.249 8.67943 230.317 9.03623 230.455 9.36877C230.581 9.68447 230.769 9.97205 231.007 10.215C231.245 10.4579 231.529 10.6514 231.842 10.7844C232.167 10.9246 232.518 10.9956 232.872 10.9929L232.878 11.0024ZM232.843 6.4175C233.239 6.38797 233.633 6.483 233.971 6.68925C234.093 6.78393 234.19 6.90678 234.253 7.04718C234.316 7.18757 234.344 7.34128 234.335 7.495C234.341 7.73571 234.267 7.97162 234.123 8.16488C233.965 8.36786 233.742 8.51058 233.491 8.56934C233.546 8.60159 233.596 8.6433 233.637 8.69257C233.677 8.7475 233.713 8.80562 233.744 8.86636L234.613 10.2251H233.826C233.779 10.2293 233.731 10.22 233.688 10.1982C233.646 10.1764 233.61 10.143 233.586 10.1018L232.878 8.90744C232.853 8.87171 232.821 8.84158 232.783 8.81896C232.734 8.79332 232.678 8.78132 232.622 8.7842H232.338V10.2251H231.545V6.4333L232.843 6.4175ZM232.764 8.21544C232.891 8.21716 233.017 8.20337 233.14 8.17436C233.228 8.15294 233.31 8.11308 233.381 8.05745C233.441 8.00706 233.485 7.94 233.507 7.8647C233.555 7.69642 233.555 7.51792 233.507 7.34965C233.488 7.28105 233.45 7.21948 233.396 7.1727C233.333 7.12089 233.258 7.08416 233.178 7.06527C233.065 7.04026 232.95 7.0286 232.834 7.03051H232.328V8.21544H232.764Z" fill="#9C9EA1"></path><path d="M178.359 58.6682C178.342 57.9059 178.62 57.1666 179.136 56.6049C179.381 56.3648 179.673 56.1771 179.992 56.0532C180.312 55.9294 180.654 55.8719 180.997 55.8844C181.349 55.8625 181.701 55.9154 182.03 56.0396C182.36 56.1638 182.659 56.3564 182.909 56.6049C183.33 57.0515 183.571 57.7392 183.632 58.6682H178.359ZM180.887 52.8952C178.921 52.8952 177.388 53.5272 176.286 54.7911C175.216 56.0298 174.681 57.7477 174.681 59.9448C174.681 62.2493 175.233 64.0188 176.336 65.2533C177.44 66.5172 178.974 67.1492 180.937 67.1492C182.559 67.1492 183.903 66.7542 184.969 65.9642C186.068 65.1627 186.84 63.9911 187.143 62.6654H184.565C184.229 62.6461 183.897 62.7359 183.617 62.9213C183.454 63.0242 183.32 63.1667 183.228 63.3353L182.944 63.6165C182.865 63.7 182.768 63.7629 182.659 63.7998C182.201 64.051 181.684 64.1754 181.161 64.16C180.264 64.16 179.592 63.8851 179.145 63.3353C178.663 62.8213 178.404 62.0313 178.368 60.9654H187.314C187.354 60.8487 187.371 60.7253 187.364 60.602V60.0364C187.364 57.7677 186.812 55.9982 185.708 54.7279C184.605 53.4577 183.003 52.8394 180.902 52.8731L180.887 52.8952Z" fill="#0065A5"></path><path d="M161.331 59.9924C160.687 60.2921 160.012 60.5189 159.318 60.6686L158.13 60.9277C157.634 61.0349 157.173 61.2653 156.79 61.5975C156.561 61.931 156.434 62.3243 156.427 62.7288C156.416 62.9555 156.452 63.182 156.531 63.3944C156.611 63.6068 156.734 63.8007 156.891 63.9642C157.273 64.2621 157.751 64.4085 158.234 64.375C158.649 64.4138 159.068 64.3607 159.461 64.2194C159.854 64.0781 160.211 63.8521 160.506 63.5575C160.802 63.2628 161.029 62.9068 161.171 62.5145C161.314 62.1223 161.368 61.7035 161.331 61.2879V59.9987V59.9924ZM162.158 66.312C161.444 66.6883 160.664 66.9243 159.861 67.0071C159.15 67.0873 158.435 67.1305 157.719 67.1367C156.554 67.16 155.413 66.8077 154.464 66.1319C153.535 65.462 153.071 64.355 153.071 62.8109C153.071 61.37 153.492 60.341 154.335 59.7238C155.297 59.0602 156.404 58.6366 157.564 58.4883C157.777 58.4846 157.988 58.4592 158.196 58.4125C158.468 58.3547 158.744 58.3114 159.021 58.2829C160.533 58.0722 161.291 57.6257 161.293 56.9431C161.303 56.7077 161.228 56.4764 161.081 56.2922C160.934 56.1079 160.725 55.9833 160.493 55.9415C160.016 55.7948 159.52 55.7161 159.021 55.7077C158.582 55.7005 158.146 55.7711 157.732 55.9162C157.547 55.98 157.379 56.0816 157.236 56.2143C157.094 56.3471 156.98 56.5082 156.904 56.6872H153.431C153.552 55.6565 154.071 54.714 154.878 54.0614C155.807 53.2714 157.132 52.8765 158.853 52.8765C160.781 52.8765 162.227 53.203 163.192 53.856C163.669 54.1664 164.057 54.5948 164.32 55.0998C164.582 55.6048 164.71 56.169 164.689 56.7378V61.4238C164.689 62.7951 164.437 63.8663 163.941 64.6404C163.51 65.3493 162.893 65.9272 162.158 66.312Z" fill="#0065A5"></path><path d="M199.868 72.0595V69.2157H200.847C201.43 69.2486 202.006 69.0752 202.474 68.7259C202.869 68.41 202.948 67.8759 202.708 67.146L197.905 53.5051H201.88L204.67 63.1963L207.097 54.7533C207.303 53.9317 207.852 53.5178 208.75 53.5178H211.227L205.96 69.1146C205.874 69.3547 205.78 69.5791 205.685 69.7908C205.424 70.3592 205.021 70.8501 204.513 71.2152C204.006 71.5803 203.412 71.807 202.79 71.8731C201.498 72.009 199.947 72.0501 199.868 72.0501V72.0595Z" fill="#0065A5"></path><path d="M142.173 61.5184C142.511 63.3448 143.671 64.1663 145.554 64.1979C147.437 64.2295 148.253 63.4174 148.275 62.0903C148.3 60.6115 147.526 59.9575 144.755 59.1865C140.347 57.951 139.282 56.1372 139.323 53.6884C139.38 50.5286 141.535 48.4147 145.393 48.481C149.716 48.5568 151.397 51.1763 151.58 53.8337L149.327 53.7958C149.003 53.7965 148.685 53.7046 148.412 53.5311C148.138 53.3576 147.919 53.1096 147.782 52.8163C147.45 52.0516 146.748 51.4196 145.254 51.3944C143.826 51.3691 142.95 52.0263 142.928 53.2902C142.906 54.5542 143.589 55.0755 146.208 55.8023C150.919 57.1263 151.924 59.1075 151.88 61.6669C151.823 64.9784 149.532 67.2124 145.244 67.1365C141.115 67.067 138.978 64.7604 138.644 61.4489L142.192 61.5121L142.173 61.5184Z" fill="#0065A5"></path><path d="M167.504 66.89L167.53 56.273L166.528 56.0929C166.297 56.054 166.08 55.9573 165.896 55.8117C165.814 55.7386 165.749 55.6477 165.707 55.5459C165.664 55.444 165.646 55.334 165.653 55.224V53.821H167.549V52.9552C167.542 52.2623 167.661 51.574 167.899 50.9235C168.112 50.344 168.449 49.8178 168.885 49.3815C169.337 48.9495 169.876 48.6188 170.465 48.4114C171.137 48.1745 171.845 48.06 172.557 48.0733C172.844 48.0717 173.132 48.0918 173.416 48.1333C173.693 48.1719 173.966 48.2299 174.235 48.3071L174.156 50.0387C174.16 50.1483 174.131 50.2567 174.072 50.3489C174.012 50.4412 173.926 50.5127 173.824 50.5538C173.606 50.637 173.375 50.6778 173.141 50.6738C172.822 50.6698 172.503 50.7081 172.194 50.7876C171.929 50.8539 171.685 50.9866 171.486 51.1731C171.279 51.3788 171.127 51.6329 171.043 51.9125C170.933 52.2867 170.882 52.6758 170.892 53.0658V53.8305H174.099V56.2793H171.005L170.977 66.8963H167.533L167.504 66.89Z" fill="#0065A5"></path><path d="M196.095 64.397C196.043 64.3085 195.975 64.2312 195.893 64.1695C195.819 64.1204 195.732 64.0961 195.643 64.1C195.567 64.1009 195.492 64.1204 195.425 64.1569L195.195 64.2801C195.099 64.3294 195 64.3706 194.898 64.4033C194.759 64.4443 194.615 64.4634 194.471 64.4602C194.333 64.4672 194.196 64.4423 194.069 64.3875C193.942 64.3327 193.83 64.2494 193.741 64.1442C193.559 63.9007 193.468 63.601 193.485 63.2974V56.3363H194.92C195.098 56.3367 195.275 56.3019 195.441 56.2338C195.606 56.1657 195.756 56.0657 195.882 55.9395C196.009 55.8133 196.109 55.6634 196.178 55.4983C196.246 55.3332 196.282 55.1563 196.282 54.9776V53.9475H193.485V49.8777H190.888C190.714 49.8586 190.54 49.9056 190.399 50.0092C190.259 50.1128 190.162 50.2655 190.129 50.437L190.107 53.8432L188.306 54.1434L188.281 55.5179C188.272 55.616 188.285 55.7148 188.317 55.8079C188.349 55.9009 188.4 55.9862 188.467 56.0583C188.592 56.1784 188.759 56.2452 188.932 56.2447L190.091 56.2637L190.057 61.5184L190.025 63.3511C190.02 63.6528 190.043 63.9543 190.095 64.2517C190.129 64.5218 190.191 64.7877 190.281 65.0448C190.425 65.4751 190.664 65.8671 190.982 66.1912C191.299 66.5153 191.686 66.7629 192.114 66.9154C192.61 67.0942 193.135 67.1809 193.662 67.1713C194.292 67.1726 194.919 67.0766 195.52 66.8869C196.102 66.7029 196.647 66.4161 197.128 66.0401L196.095 64.397Z" fill="#0065A5"></path><path d="M220.024 53.5273H218.343V65.8506H221.594V55.1072C221.594 54.6882 221.428 54.2864 221.131 53.9901C220.835 53.6938 220.433 53.5273 220.014 53.5273H220.024Z" fill="#9C9EA1"></path><path d="M213.805 59.6385V61.3006H226.151V58.0649H215.382C214.963 58.0649 214.561 58.2314 214.265 58.5277C213.969 58.824 213.802 59.2258 213.802 59.6448L213.805 59.6385Z" fill="#9C9EA1"></path></g><defs><clipPath id="clip0"><rect width="236" height="72.0595" fill="white"></rect></clipPath></defs></svg> 