<?xml version="1.0" encoding="UTF-8"?> <svg xmlns="http://www.w3.org/2000/svg" width="477" height="475" viewBox="0 0 477 475" fill="none"><g style="mix-blend-mode:multiply"><path d="M0.999776 237.337C132.077 106.259 344.596 106.259 475.673 237.337L238.336 474.673L0.999776 237.337Z" fill="#ECF6FC"></path></g><g style="mix-blend-mode:multiply"><path d="M41.9685 278.148C150.419 169.697 326.253 169.697 434.704 278.148L238.336 474.515L41.9685 278.148Z" fill="#ECF6FC"></path></g><g style="mix-blend-mode:multiply" opacity="0.5"><path d="M1.08203 237.252C62.1546 176.939 146.009 139.718 238.541 139.718C331.073 139.718 414.928 176.939 476 237.252" stroke="#0099EF" stroke-width="2"></path></g><g style="mix-blend-mode:multiply" opacity="0.5"><path d="M15.3374 251.507C72.7437 193.514 151.564 157.724 238.541 157.724C325.519 157.724 404.339 193.514 461.745 251.507" stroke="#0099EF" stroke-width="2"></path></g><g style="mix-blend-mode:multiply" opacity="0.5"><path d="M28.8418 265.012C82.7748 210.73 156.826 177.231 238.541 177.231C320.256 177.231 394.307 210.73 448.24 265.012" stroke="#0099EF" stroke-width="2"></path></g><g style="mix-blend-mode:multiply" opacity="0.5"><path d="M41.5972 278.517C92.1533 227.946 161.568 196.738 238.167 196.738C314.765 196.738 384.18 227.946 434.736 278.517" stroke="#0099EF" stroke-width="2"></path></g></svg> 