<?xml version="1.0" encoding="UTF-8"?> <svg xmlns="http://www.w3.org/2000/svg" width="128" height="128" viewBox="0 0 128 128" fill="none"><circle cx="64" cy="64" r="64" fill="white"></circle><path d="M47.0451 97.4493H37.9906C37.4834 97.4493 36.9969 97.2478 36.6383 96.8891C36.2796 96.5304 36.0781 96.044 36.0781 95.5368V74.32C36.0781 73.8127 36.2796 73.3263 36.6383 72.9676C36.9969 72.609 37.4834 72.4075 37.9906 72.4075H47.0451C47.5521 72.4083 48.038 72.6101 48.3965 72.9686C48.755 73.3271 48.9567 73.813 48.9576 74.32V95.5368C48.9567 96.0437 48.755 96.5297 48.3965 96.8881C48.038 97.2466 47.5521 97.4484 47.0451 97.4493ZM37.9906 73.875C37.9313 73.875 37.8726 73.8867 37.8178 73.9094C37.763 73.9321 37.7133 73.9654 37.6713 74.0073C37.6294 74.0492 37.5961 74.099 37.5734 74.1538C37.5507 74.2086 37.5391 74.2673 37.5391 74.3266V95.5434C37.5391 95.6632 37.5866 95.778 37.6713 95.8627C37.756 95.9474 37.8709 95.995 37.9906 95.995H47.0451C47.1649 95.995 47.2797 95.9474 47.3644 95.8627C47.4491 95.778 47.4967 95.6632 47.4967 95.5434V74.3266C47.4967 74.2673 47.485 74.2086 47.4623 74.1538C47.4396 74.099 47.4064 74.0492 47.3644 74.0073C47.3225 73.9654 47.2727 73.9321 47.2179 73.9094C47.1631 73.8867 47.1044 73.875 47.0451 73.875H37.9906Z" fill="#0066A4"></path><path d="M62.7879 97.4492H54.2148C53.6427 97.4483 53.0943 97.2207 52.6897 96.8161C52.2852 96.4116 52.0575 95.8631 52.0566 95.291V63.7481C52.0566 63.1754 52.2839 62.6261 52.6886 62.2208C53.0932 61.8155 53.6421 61.5874 54.2148 61.5865H62.7779C63.3506 61.5874 63.8996 61.8155 64.3042 62.2208C64.7089 62.6261 64.9361 63.1754 64.9361 63.7481V95.291C64.9353 95.8614 64.709 96.4084 64.3066 96.8126C63.9042 97.2169 63.3583 97.4457 62.7879 97.4492ZM54.2148 63.0442C54.0299 63.0442 53.8526 63.1176 53.7218 63.2484C53.591 63.3792 53.5176 63.5565 53.5176 63.7414V95.2844C53.5176 95.4693 53.591 95.6467 53.7218 95.7774C53.8526 95.9082 54.0299 95.9816 54.2148 95.9816H62.7779C62.9626 95.9808 63.1394 95.907 63.27 95.7765C63.4006 95.6459 63.4743 95.469 63.4752 95.2844V63.7414C63.4743 63.5568 63.4006 63.3799 63.27 63.2494C63.1394 63.1188 62.9626 63.045 62.7779 63.0442H54.2148Z" fill="#0066A4"></path><path d="M78.5602 97.4493H70.4287C69.7994 97.4484 69.196 97.198 68.751 96.753C68.306 96.3079 68.0556 95.7046 68.0547 95.0753V52.8309C68.0547 52.2013 68.3048 51.5975 68.75 51.1522C69.1952 50.707 69.7991 50.4569 70.4287 50.4569H78.5602C78.8719 50.4569 79.1806 50.5183 79.4687 50.6376C79.7567 50.7569 80.0184 50.9318 80.2388 51.1522C80.4593 51.3727 80.6342 51.6344 80.7535 51.9224C80.8728 52.2105 80.9342 52.5192 80.9342 52.8309V95.0753C80.9333 95.7046 80.6829 96.3079 80.2379 96.753C79.7928 97.198 79.1895 97.4484 78.5602 97.4493ZM70.4287 51.9178C70.1865 51.9178 69.9543 52.014 69.7831 52.1853C69.6118 52.3565 69.5156 52.5888 69.5156 52.8309V95.0753C69.5156 95.3174 69.6118 95.5497 69.7831 95.7209C69.9543 95.8921 70.1865 95.9883 70.4287 95.9883H78.5602C78.8023 95.9883 79.0346 95.8921 79.2058 95.7209C79.377 95.5497 79.4732 95.3174 79.4732 95.0753V52.8309C79.4732 52.5888 79.377 52.3565 79.2058 52.1853C79.0346 52.014 78.8023 51.9178 78.5602 51.9178H70.4287Z" fill="#0066A4"></path><path d="M94.2234 97.4492H86.7527C86.038 97.4483 85.3527 97.164 84.8473 96.6586C84.3419 96.1532 84.0575 95.4679 84.0566 94.7531V33.6063C84.0575 32.8915 84.3419 32.2062 84.8473 31.7008C85.3527 31.1954 86.038 30.911 86.7527 30.9102H94.2234C94.9382 30.911 95.6235 31.1954 96.1289 31.7008C96.6343 32.2062 96.9186 32.8915 96.9195 33.6063V94.7531C96.9186 95.4679 96.6343 96.1532 96.1289 96.6586C95.6235 97.164 94.9382 97.4483 94.2234 97.4492ZM86.7527 32.3711C86.4254 32.372 86.1118 32.5024 85.8803 32.7338C85.6489 32.9653 85.5185 33.2789 85.5176 33.6063V94.7531C85.5185 95.0805 85.6489 95.3941 85.8803 95.6256C86.1118 95.857 86.4254 95.9874 86.7527 95.9883H94.2234C94.5507 95.9874 94.8644 95.857 95.0959 95.6256C95.3273 95.3941 95.4577 95.0805 95.4586 94.7531V33.6063C95.4577 33.2789 95.3273 32.9653 95.0959 32.7338C94.8644 32.5024 94.5507 32.372 94.2234 32.3711H86.7527Z" fill="#0066A4"></path><path d="M37.6134 66.9024C37.4644 66.9028 37.3189 66.8577 37.1963 66.773C37.0737 66.6884 36.9799 66.5682 36.9275 66.4288C36.8751 66.2893 36.8666 66.1372 36.9032 65.9927C36.9397 65.8483 37.0195 65.7185 37.132 65.6207L72.8585 34.4098C73.0047 34.2821 73.1956 34.2177 73.3893 34.2308C73.5829 34.2439 73.7635 34.3333 73.8911 34.4795C74.0188 34.6257 74.0832 34.8166 74.0701 35.0103C74.0571 35.2039 73.9676 35.3844 73.8214 35.5121L38.0949 66.7231C37.9609 66.8384 37.7901 66.902 37.6134 66.9024Z" fill="#0066A4"></path><path d="M102.498 102.247H30.5C30.404 102.248 30.3088 102.229 30.22 102.192C30.1311 102.156 30.0504 102.102 29.9825 102.034C29.9146 101.966 29.8608 101.886 29.8242 101.797C29.7877 101.708 29.7691 101.613 29.7695 101.517V31.5012C29.7695 31.3075 29.8465 31.1217 29.9835 30.9847C30.1205 30.8477 30.3063 30.7708 30.5 30.7708C30.6937 30.7708 30.8795 30.8477 31.0165 30.9847C31.1535 31.1217 31.2305 31.3075 31.2305 31.5012V100.786H102.498C102.691 100.786 102.877 100.863 103.014 101C103.151 101.137 103.228 101.323 103.228 101.517C103.228 101.71 103.151 101.896 103.014 102.033C102.877 102.17 102.691 102.247 102.498 102.247Z" fill="#0066A4"></path><path d="M71.7223 40.4926L67.7379 36.1762C67.6826 36.1212 67.645 36.0509 67.6302 35.9744C67.6153 35.8978 67.6238 35.8186 67.6546 35.7469C67.6854 35.6753 67.7371 35.6146 67.8029 35.5727C67.8687 35.5308 67.9455 35.5097 68.0235 35.5121L74.4449 33.3008C74.5477 33.3016 74.646 33.3429 74.7187 33.4155C74.7914 33.4882 74.8326 33.5865 74.8334 33.6893L72.3963 40.227C72.3968 40.3053 72.3735 40.382 72.3296 40.4469C72.2857 40.5118 72.2232 40.5619 72.1503 40.5906C72.0774 40.6193 71.9975 40.6254 71.9211 40.6079C71.8447 40.5904 71.7754 40.5502 71.7223 40.4926Z" fill="#0066A4"></path></svg> 