<?xml version="1.0" encoding="UTF-8"?> <svg xmlns="http://www.w3.org/2000/svg" width="128" height="128" viewBox="0 0 128 128" fill="none"><circle cx="64" cy="64" r="64" fill="white"></circle><path d="M78.3807 78.8663H47.926C47.6654 78.8674 47.4087 78.8022 47.1803 78.6768C46.9518 78.5515 46.7589 78.37 46.6199 78.1496C46.4808 77.9292 46.4001 77.677 46.3853 77.4168C46.3705 77.1566 46.4222 76.8969 46.5354 76.6621L61.4463 46.5899C61.5714 46.327 61.7685 46.105 62.0146 45.9496C62.2607 45.7942 62.5459 45.7117 62.837 45.7117C63.1281 45.7117 63.4132 45.7942 63.6593 45.9496C63.9054 46.105 64.1025 46.327 64.2276 46.5899L79.7609 76.6343V76.6552C79.8741 76.8899 79.9257 77.1496 79.911 77.4098C79.8962 77.6701 79.8155 77.9222 79.6764 78.1427C79.5373 78.3631 79.3445 78.5445 79.116 78.6699C78.8875 78.7952 78.6309 78.8604 78.3702 78.8593L78.3807 78.8663ZM62.8509 47.2817L47.919 77.3331H78.3876L62.8509 47.2817Z" fill="#0066A4"></path><path d="M62.238 57.2874H63.6947C63.7554 57.2873 63.8154 57.2995 63.8714 57.323C63.9273 57.3465 63.978 57.381 64.0204 57.4244C64.0629 57.4678 64.0962 57.5193 64.1185 57.5757C64.1407 57.6322 64.1515 57.6925 64.1501 57.7532L63.872 68.7218C63.8692 68.8398 63.8204 68.9521 63.736 69.0346C63.6515 69.1171 63.5381 69.1633 63.42 69.1633H62.8047C62.6886 69.1626 62.5771 69.1175 62.4931 69.0374C62.4091 68.9573 62.3589 68.8481 62.3527 68.7322L61.8034 57.7636C61.8001 57.7037 61.8088 57.6437 61.829 57.5872C61.8491 57.5307 61.8804 57.4787 61.9208 57.4344C61.9613 57.39 62.0102 57.3542 62.0646 57.329C62.1191 57.3037 62.178 57.2896 62.238 57.2874ZM64.0319 71.8889V70.9746C64.0319 70.8685 63.9898 70.7669 63.9148 70.6919C63.8398 70.6169 63.7381 70.5748 63.6321 70.5748H62.7247C62.6187 70.5748 62.517 70.6169 62.442 70.6919C62.367 70.7669 62.3249 70.8685 62.3249 70.9746V71.8889C62.3249 71.9953 62.3669 72.0973 62.4418 72.1729C62.5167 72.2484 62.6183 72.2913 62.7247 72.2922H63.6321C63.685 72.2917 63.7374 72.2809 63.7861 72.2602C63.8349 72.2395 63.8791 72.2094 63.9162 72.1716C63.9534 72.1339 63.9827 72.0891 64.0025 72.04C64.0224 71.9909 64.0323 71.9384 64.0319 71.8854V71.8889Z" fill="#0066A4"></path><path d="M94.976 94.9351H32.0224C30.2103 94.9333 28.4728 94.2126 27.1914 92.9312C25.91 91.6498 25.1893 89.9123 25.1875 88.1002V38.8999C25.1893 37.0877 25.91 35.3503 27.1914 34.0689C28.4728 32.7875 30.2103 32.0668 32.0224 32.0649H94.976C96.7882 32.0668 98.5256 32.7875 99.807 34.0689C101.088 35.3503 101.809 37.0877 101.811 38.8999V88.1002C101.809 89.9123 101.088 91.6498 99.807 92.9312C98.5256 94.2126 96.7882 94.9333 94.976 94.9351ZM32.0224 33.6016C30.6169 33.6025 29.2691 34.1608 28.2745 35.154C27.28 36.1472 26.7199 37.4943 26.7172 38.8999V88.1002C26.7199 89.5057 27.28 90.8528 28.2745 91.846C29.2691 92.8393 30.6169 93.3975 32.0224 93.3985H94.976C96.3822 93.3975 97.7305 92.8388 98.7251 91.8448C99.7198 90.8508 100.279 89.5028 100.281 88.0967V38.8999C100.278 37.4943 99.7184 36.1472 98.7239 35.154C97.7294 34.1608 96.3816 33.6025 94.976 33.6016H32.0224Z" fill="#0066A4"></path><path d="M92.1078 87.2866H34.8906C33.2398 87.2848 31.6571 86.6282 30.4898 85.4609C29.3225 84.2936 28.6659 82.7109 28.6641 81.0601V44.7022C28.6641 43.0502 29.3198 41.4658 30.4873 40.2969C31.6548 39.1281 33.2386 38.4706 34.8906 38.4688H92.1078C93.7599 38.4706 95.3436 39.1281 96.5111 40.2969C97.6786 41.4658 98.3344 43.0502 98.3344 44.7022V81.0601C98.3325 82.7109 97.6759 84.2936 96.5086 85.4609C95.3413 86.6282 93.7587 87.2848 92.1078 87.2866ZM34.8906 40.0054C33.6452 40.0063 32.4511 40.5015 31.5704 41.3821C30.6898 42.2627 30.1947 43.4568 30.1938 44.7022V81.0601C30.1965 82.3043 30.6925 83.4966 31.5729 84.3758C32.4533 85.2549 33.6464 85.7491 34.8906 85.75H92.1078C93.3526 85.7491 94.5462 85.2544 95.4268 84.3745C96.3073 83.4947 96.8028 82.3014 96.8047 81.0566V44.7022C96.8038 43.4568 96.3086 42.2627 95.428 41.3821C94.5474 40.5015 93.3532 40.0063 92.1078 40.0054H34.8906Z" fill="#0066A4"></path></svg> 