<?xml version="1.0" encoding="UTF-8"?> <svg xmlns="http://www.w3.org/2000/svg" width="635" height="650" viewBox="0 0 635 650" fill="none"><path opacity="0.5" d="M0.999075 316.337C175.707 141.629 458.965 141.629 633.673 316.337L317.336 632.674L0.999075 316.337Z" fill="#0099EF"></path><path opacity="0.5" d="M55.6046 370.732C200.155 226.182 434.517 226.182 579.067 370.732L317.336 632.463L55.6046 370.732Z" fill="#0099EF"></path><g><path d="M1.11133 316.225C82.5126 235.836 194.279 186.225 317.611 186.225C440.944 186.225 552.71 235.836 634.111 316.225" stroke="#116ab6" stroke-width="2"></path></g><g><path d="M20.1113 335.224C96.6259 257.927 201.683 210.224 317.611 210.224C433.54 210.224 538.597 257.927 615.111 335.224" stroke="#116ab6" stroke-width="2"></path></g><g><path d="M38.1113 353.225C109.996 280.875 208.697 236.225 317.611 236.225C426.526 236.225 525.226 280.875 597.111 353.225" stroke="#116ab6" stroke-width="2"></path></g><g><path d="M55.1113 371.225C122.496 303.822 215.016 262.225 317.111 262.225C419.206 262.225 511.727 303.822 579.111 371.225" stroke="#116ab6" stroke-width="2"></path></g><ellipse opacity="0.3" cx="317.113" cy="632.352" rx="18" ry="17.3517" fill="#0099EF"></ellipse><ellipse cx="317.113" cy="632.352" rx="12" ry="11.5678" fill="#0099EF"></ellipse></svg> 