<?xml version="1.0" encoding="UTF-8"?> <svg xmlns="http://www.w3.org/2000/svg" width="128" height="128" viewBox="0 0 128 128" fill="none"><circle cx="64" cy="64" r="64" fill="white"></circle><path d="M98.7344 105.55H83.5195C83.303 105.55 83.0953 105.464 82.9422 105.311C82.7891 105.158 82.7031 104.951 82.7031 104.734V84.5392C82.7031 84.3227 82.7891 84.115 82.9422 83.9619C83.0953 83.8088 83.303 83.7228 83.5195 83.7228C83.7361 83.7228 83.9437 83.8088 84.0968 83.9619C84.2499 84.115 84.3359 84.3227 84.3359 84.5392V103.918H97.9142V25.0825H84.3396V40.379C84.3396 40.5955 84.2536 40.8032 84.1005 40.9563C83.9474 41.1094 83.7398 41.1954 83.5232 41.1954C83.3067 41.1954 83.0991 41.1094 82.946 40.9563C82.7928 40.8032 82.7068 40.5955 82.7068 40.379V24.2661C82.7068 24.0496 82.7928 23.8419 82.946 23.6888C83.0991 23.5357 83.3067 23.4497 83.5232 23.4497H98.7381C98.8454 23.4492 98.9518 23.47 99.0511 23.5109C99.1504 23.5517 99.2405 23.6118 99.3165 23.6877C99.3924 23.7636 99.4525 23.8538 99.4933 23.9531C99.5342 24.0524 99.555 24.1588 99.5545 24.2661V104.734C99.555 104.842 99.5341 104.948 99.493 105.048C99.4519 105.147 99.3915 105.238 99.3152 105.314C99.2388 105.39 99.1482 105.45 99.0485 105.49C98.9488 105.531 98.842 105.551 98.7344 105.55Z" fill="#0066A4"></path><path d="M45.9466 90.5804C45.4975 90.5804 45.0411 90.5804 44.5809 90.5507C31.3737 90.0126 17.3093 78.6683 17.4503 62.6444C17.5393 51.6378 24.4454 41.1989 34.6356 36.6679C47.7389 30.8454 62.6384 36.0964 71.0436 49.4372H91.3722C91.5887 49.4372 91.7963 49.5232 91.9494 49.6763C92.1025 49.8294 92.1886 50.0371 92.1886 50.2536C92.1886 50.4701 92.1025 50.6778 91.9494 50.8309C91.7963 50.984 91.5887 51.07 91.3722 51.07H70.5909C70.4533 51.0717 70.3176 51.0385 70.1963 50.9736C70.0749 50.9087 69.972 50.8142 69.897 50.6989C61.9741 37.7812 47.7389 32.623 35.2999 38.1523C25.6848 42.4273 19.1684 52.2538 19.0831 62.6444C18.9606 77.7294 32.205 88.4021 44.6477 88.9105C51.2346 89.1776 56.3298 87.5189 61.1651 83.5296C63.5216 81.5851 66.7315 78.2081 68.2864 75.5177C68.5519 75.0608 68.9118 74.6659 69.3422 74.3593C69.7726 74.0528 70.2635 73.8417 70.782 73.7401C71.3006 73.6386 71.8348 73.649 72.3491 73.7706C72.8633 73.8922 73.3456 74.1222 73.7638 74.4452L77.5378 77.362C77.8945 77.6349 78.3295 77.7859 78.7785 77.7926C79.2276 77.7993 79.6669 77.6613 80.0315 77.3991L85.0561 73.7439C85.5921 73.3511 86.2237 73.1095 86.885 73.0442C87.5462 72.9789 88.2129 73.0924 88.8153 73.3728C88.9228 73.4214 89.018 73.4937 89.0936 73.5843L91.9993 77.0429C92.1386 77.2087 92.2062 77.4231 92.1875 77.6388C92.1687 77.8546 92.0649 78.054 91.8991 78.1933C91.7333 78.3325 91.5189 78.4002 91.3032 78.3814C91.0874 78.3626 90.888 78.2589 90.7487 78.0931L87.9692 74.7866C87.6475 74.6657 87.3007 74.6264 86.96 74.6724C86.6194 74.7184 86.2954 74.8482 86.0173 75.0501L80.9927 78.7054C80.3424 79.1752 79.5579 79.4229 78.7556 79.4115C77.9534 79.4001 77.1763 79.1304 76.5395 78.6423L72.7618 75.7218C72.5279 75.5413 72.2583 75.4129 71.9708 75.3451C71.6833 75.2773 71.3846 75.2716 71.0948 75.3285C70.805 75.3855 70.5306 75.5036 70.2901 75.6751C70.0496 75.8466 69.8485 76.0675 69.7003 76.323C68.0415 79.1804 64.6757 82.7392 62.2042 84.7765C57.4468 88.7249 52.2477 90.5804 45.9466 90.5804Z" fill="#0066A4"></path><path d="M32.3373 68.8901C30.9186 68.8901 29.5317 68.4694 28.3521 67.6812C27.1724 66.893 26.253 65.7726 25.7101 64.4619C25.1672 63.1512 25.0251 61.7089 25.3019 60.3174C25.5787 58.9259 26.2619 57.6478 27.2651 56.6446C28.2683 55.6414 29.5464 54.9582 30.9379 54.6814C32.3294 54.4046 33.7717 54.5467 35.0824 55.0896C36.3931 55.6325 37.5134 56.552 38.3016 57.7316C39.0898 58.9112 39.5106 60.2981 39.5106 61.7168C39.5086 63.6187 38.7522 65.4421 37.4074 66.7869C36.0626 68.1317 34.2392 68.8881 32.3373 68.8901ZM32.3373 55.9018C31.1872 55.9018 30.0629 56.2428 29.1066 56.8818C28.1504 57.5208 27.405 58.4289 26.9649 59.4915C26.5248 60.5541 26.4096 61.7233 26.634 62.8513C26.8584 63.9793 27.4122 65.0154 28.2255 65.8287C29.0387 66.6419 30.0748 67.1958 31.2029 67.4201C32.3309 67.6445 33.5001 67.5293 34.5626 67.0892C35.6252 66.6491 36.5334 65.9038 37.1723 64.9475C37.8113 63.9912 38.1523 62.8669 38.1523 61.7168C38.1504 60.1752 37.5371 58.6972 36.447 57.6071C35.3569 56.517 33.879 55.9038 32.3373 55.9018Z" fill="#0066A4"></path><path d="M91.5273 59.75H62.9531C62.7366 59.75 62.5289 59.664 62.3758 59.5109C62.2227 59.3578 62.1367 59.1501 62.1367 58.9336C62.1367 58.7171 62.2227 58.5094 62.3758 58.3563C62.5289 58.2032 62.7366 58.1172 62.9531 58.1172H91.5273C91.7439 58.1172 91.9515 58.2032 92.1046 58.3563C92.2577 58.5094 92.3437 58.7171 92.3437 58.9336C92.3437 59.1501 92.2577 59.3578 92.1046 59.5109C91.9515 59.664 91.7439 59.75 91.5273 59.75Z" fill="#0066A4"></path></svg> 