<?xml version="1.0" encoding="UTF-8"?> <svg xmlns="http://www.w3.org/2000/svg" width="128" height="128" viewBox="0 0 128 128" fill="none"><circle cx="64" cy="64" r="64" fill="white"></circle><path d="M64.0005 57.687C60.1713 57.6877 56.428 56.5528 53.2439 54.4258C50.0598 52.2988 47.5781 49.2753 46.1126 45.7377C44.6471 42.2001 44.2636 38.3074 45.0107 34.5518C45.7578 30.7963 47.602 27.3466 50.3098 24.6393C53.0177 21.9319 56.4677 20.0885 60.2234 19.342C63.9791 18.5956 67.8718 18.9798 71.4091 20.446C74.9464 21.9122 77.9694 24.3945 80.0958 27.579C82.2222 30.7635 83.3564 34.507 83.3549 38.3362C83.3472 43.4666 81.3054 48.3846 77.6773 52.012C74.0492 55.6394 69.1309 57.6802 64.0005 57.687ZM64.0005 20.601C60.4909 20.6003 57.0599 21.6404 54.1415 23.5899C51.2231 25.5394 48.9485 28.3105 47.6052 31.5529C46.262 34.7953 45.9105 38.3632 46.5953 41.8054C47.2801 45.2475 48.9703 48.4093 51.4523 50.8907C53.9342 53.3721 57.0963 55.0617 60.5386 55.7457C63.9809 56.4298 67.5487 56.0776 70.7908 54.7337C74.0329 53.3898 76.8036 51.1146 78.7525 48.1958C80.7013 45.277 81.7408 41.8458 81.7393 38.3362C81.7354 33.6317 79.8656 29.1209 76.5401 25.7933C73.2146 22.4657 68.7049 20.5931 64.0005 20.5863V20.601Z" fill="#0066A4"></path><path d="M50.0463 62.5704C49.9353 62.5711 49.8254 62.5486 49.7236 62.5043C49.6218 62.46 49.5304 62.395 49.4552 62.3133C49.3828 62.2357 49.3265 62.1446 49.2893 62.0452C49.2522 61.9458 49.235 61.84 49.2388 61.734C49.2425 61.6279 49.2671 61.5237 49.3112 61.4271C49.3553 61.3306 49.4179 61.2437 49.4956 61.1714C49.5323 61.1347 51.9998 58.7516 52.9765 53.9745C52.9977 53.8704 53.0392 53.7714 53.0987 53.6833C53.1582 53.5952 53.2344 53.5197 53.323 53.461C53.4117 53.4024 53.511 53.3618 53.6154 53.3415C53.7197 53.3212 53.827 53.3217 53.9312 53.3429C54.0353 53.3642 54.1343 53.4057 54.2224 53.4651C54.3105 53.5246 54.386 53.6008 54.4447 53.6895C54.5033 53.7781 54.544 53.8775 54.5642 53.9818C54.5845 54.0862 54.584 54.1935 54.5628 54.2976C53.4612 59.6292 50.7146 62.2436 50.5971 62.3537C50.4484 62.4943 50.251 62.5719 50.0463 62.5704Z" fill="#0066A4"></path><path d="M77.271 62.5704C77.0666 62.5704 76.8698 62.493 76.7202 62.3537C76.6027 62.2436 73.8451 59.6292 72.7546 54.2976C72.7117 54.0873 72.7542 53.8685 72.8726 53.6895C72.9911 53.5105 73.1758 53.3858 73.3861 53.343C73.5965 53.3001 73.8152 53.3426 73.9943 53.461C74.1733 53.5795 74.298 53.7642 74.3408 53.9745C75.3175 58.748 77.7997 61.1494 77.8218 61.1714C77.8992 61.244 77.9615 61.3311 78.0052 61.4277C78.049 61.5244 78.0733 61.6287 78.0767 61.7348C78.0801 61.8408 78.0626 61.9465 78.0251 62.0458C77.9877 62.145 77.9311 62.236 77.8585 62.3133C77.7838 62.3947 77.693 62.4596 77.5919 62.5039C77.4907 62.5481 77.3814 62.5708 77.271 62.5704Z" fill="#0066A4"></path><path d="M79.8065 35.2147C67.7848 35.2147 53.1413 24.5663 52.4841 24.0669C52.3112 23.9398 52.1959 23.7493 52.1636 23.5372C52.1312 23.3251 52.1844 23.1088 52.3115 22.936C52.4386 22.7631 52.6291 22.6478 52.8412 22.6155C53.0533 22.5831 53.2696 22.6363 53.4424 22.7634C53.6077 22.8882 70.267 35.0311 81.9913 33.4596C82.204 33.4313 82.4193 33.4888 82.5898 33.6193C82.7602 33.7498 82.8718 33.9426 82.9 34.1554C82.9283 34.3682 82.8708 34.5835 82.7403 34.7539C82.6099 34.9243 82.417 35.0359 82.2042 35.0642C81.4091 35.1664 80.6082 35.2167 79.8065 35.2147Z" fill="#0066A4"></path><path d="M59.7515 64.9204L60.9889 63.3708C61.1922 63.1164 61.4504 62.9112 61.7441 62.7707C62.0379 62.6302 62.3597 62.5579 62.6853 62.5593H65.1014C65.408 62.56 65.7108 62.6258 65.99 62.7524C66.2692 62.879 66.5183 63.0635 66.7207 63.2937L68.1124 64.891C68.3051 65.1123 68.4507 65.3705 68.5403 65.65C68.6298 65.9294 68.6615 66.2242 68.6333 66.5163C68.6051 66.8084 68.5177 67.0917 68.3764 67.3489C68.235 67.606 68.0427 67.8317 67.8113 68.0121L65.3254 69.9472C64.9464 70.2419 64.48 70.402 63.9999 70.402C63.5197 70.402 63.0533 70.2419 62.6743 69.9472L60.104 67.9533C59.8817 67.7773 59.6962 67.5593 59.5582 67.3116C59.4202 67.0639 59.3323 66.7915 59.2996 66.5099C59.2669 66.2282 59.2899 65.9429 59.3675 65.6702C59.445 65.3974 59.5755 65.1427 59.7515 64.9204Z" fill="#0066A4"></path><path d="M61.5251 69.1798L58.0919 89.8818C58.0514 90.1248 58.0633 90.3737 58.1266 90.6117C58.1899 90.8498 58.3032 91.0716 58.459 91.2624L62.645 96.4324C62.8081 96.6348 63.0145 96.798 63.2489 96.9101C63.4834 97.0223 63.74 97.0805 63.9999 97.0805C64.2598 97.0805 64.5164 97.0223 64.7509 96.9101C64.9853 96.798 65.1917 96.6348 65.3548 96.4324L69.5408 91.2624C69.6966 91.0716 69.8099 90.8498 69.8732 90.6117C69.9365 90.3737 69.9484 90.1248 69.908 89.8818L66.4821 69.1798C66.4161 68.767 66.2041 68.3917 65.8847 68.1221C65.5652 67.8526 65.1596 67.7067 64.7416 67.711L63.2251 67.7294C62.8164 67.7324 62.4218 67.8796 62.1109 68.1448C61.7999 68.4101 61.5925 68.7766 61.5251 69.1798Z" fill="#0066A4"></path><path d="M102.003 99.4323H25.8117C25.7055 99.4328 25.6002 99.4122 25.502 99.3718C25.4038 99.3314 25.3145 99.2719 25.2394 99.1968C25.1643 99.1217 25.1048 99.0324 25.0644 98.9342C25.024 98.836 25.0034 98.7307 25.0039 98.6245V86.7093C25.0039 78.6311 28.2168 71.1515 33.5961 66.6535L33.743 66.5323C38.098 62.8689 43.6211 60.8863 49.3117 60.9437C50.141 60.938 50.9561 61.159 51.6691 61.5826C55.4051 63.785 59.6649 64.9417 64.0018 64.9313C68.3386 64.921 72.5929 63.744 76.3184 61.5239C76.9684 61.1421 77.7089 60.9417 78.4627 60.9437H78.4848C84.1771 60.8832 89.7024 62.8661 94.0572 66.5323L94.2041 66.6535C99.5834 71.1515 102.796 78.6495 102.796 86.7093V98.6245C102.797 98.8365 102.714 99.0403 102.566 99.1916C102.417 99.3429 102.215 99.4294 102.003 99.4323ZM26.6195 97.8204H101.195V86.7093C101.195 79.1195 98.1991 72.0879 93.1833 67.8946L93.0438 67.7808C88.9813 64.3616 83.8273 62.5129 78.5178 62.5704C78.0404 62.5609 77.5702 62.6883 77.1629 62.9376C73.1875 65.3062 68.6482 66.5619 64.0206 66.5728C59.3931 66.5838 54.8478 65.3498 50.8613 63C50.3987 62.7218 49.8698 62.5734 49.3301 62.5704C44.01 62.5095 38.8445 64.3582 34.7711 67.7808L34.6316 67.8946C29.6158 72.0879 26.6195 79.1195 26.6195 86.7093V97.8204Z" fill="#0066A4"></path><path d="M45.8612 35.2149C45.6595 35.217 45.4644 35.1436 45.3141 35.0091C45.1638 34.8747 45.0693 34.6888 45.049 34.4882C45.0288 34.2876 45.0843 34.0866 45.2047 33.9248C45.3251 33.763 45.5016 33.6521 45.6996 33.6139C50.7479 32.4939 55.5161 30.3603 59.7152 27.3424C59.7991 27.2773 59.895 27.2293 59.9974 27.2013C60.0998 27.1733 60.2068 27.1657 60.3121 27.179C60.4175 27.1923 60.5192 27.2262 60.6114 27.2788C60.7037 27.3314 60.7847 27.4017 60.8498 27.4856C60.9149 27.5695 60.9628 27.6654 60.9908 27.7678C61.0189 27.8702 61.0265 27.9772 61.0132 28.0825C60.9999 28.1879 60.9659 28.2896 60.9133 28.3818C60.8607 28.4741 60.7905 28.5551 60.7066 28.6202C56.3195 31.8066 51.3178 34.0461 46.0191 35.1965C45.9674 35.2092 45.9144 35.2154 45.8612 35.2149Z" fill="#0066A4"></path></svg> 