<?xml version="1.0" encoding="UTF-8"?> <svg xmlns="http://www.w3.org/2000/svg" width="128" height="128" viewBox="0 0 128 128" fill="none"><circle cx="64" cy="64" r="64" fill="white"></circle><path d="M102.418 55.8281C103.422 60.1758 103.351 64.0977 102.761 68.7812C101.8 76.4323 98.5903 83.6263 93.5397 89.4535C88.4891 95.2806 81.8239 99.4792 74.3871 101.518C66.9502 103.557 59.0757 103.345 51.7594 100.909C44.4431 98.4724 38.0136 93.9212 33.284 87.8306C28.5543 81.74 25.737 74.3837 25.1883 66.692C24.6396 59.0002 26.3841 51.3185 30.2012 44.6182C34.0184 37.9179 39.7367 32.5 46.6331 29.0497C53.5294 25.5995 61.2941 24.2717 68.9451 25.2344C80.324 26.6641 89.5505 32.0938 95.6443 40.8047C95.6443 40.8047 98.2146 39.1602 98.1521 38.9062C91.9955 30.5459 82.9678 24.7542 72.802 22.6431C62.6362 20.532 52.0489 22.2502 43.0726 27.468C34.0962 32.6857 27.3635 41.0352 24.1669 50.9135C20.9703 60.7918 21.5352 71.5028 25.753 80.9901C29.9708 90.4774 37.5444 98.0725 47.0197 102.317C56.4951 106.562 67.2044 107.157 77.0917 103.988C86.9791 100.82 95.3476 94.1107 100.591 85.1492C105.834 76.1877 107.582 65.6053 105.5 55.4336C104.808 55.5078 102.847 55.9453 102.418 55.8281Z" fill="#0066A4"></path><path d="M42.9342 65.8555C43.3691 65.2852 43.7766 64.7526 44.1568 64.2578C44.537 63.763 44.8834 63.2773 45.1959 62.8008C44.3794 63.6463 43.4018 64.3197 42.3209 64.7812C41.2614 65.2444 40.1178 65.4837 38.9615 65.4844C38.0432 65.4967 37.1319 65.324 36.2818 64.9766C35.4924 64.6488 34.7804 64.1591 34.192 63.5391C33.5909 62.8934 33.1306 62.1299 32.8404 61.2969C32.5111 60.3665 32.3485 59.3853 32.3599 58.3984C32.346 57.0678 32.6025 55.7481 33.1138 54.5195C33.5933 53.3636 34.2924 52.3116 35.1724 51.4219C36.0634 50.526 37.1242 49.8168 38.2926 49.3359C39.461 48.855 40.7136 48.612 41.9771 48.6211C42.9737 48.6069 43.9623 48.8011 44.8795 49.1914C45.7218 49.5569 46.4758 50.0991 47.0904 50.7812C47.7203 51.4937 48.2011 52.3252 48.5045 53.2266C48.85 54.2424 49.0191 55.3099 49.0045 56.3828C49.0117 57.2466 48.916 58.1081 48.7193 58.9492C48.524 59.7588 48.2411 60.5447 47.8756 61.293C47.4721 62.1051 47.0127 62.8883 46.5006 63.6367C45.9589 64.418 45.3339 65.2839 44.6256 66.2344L36.3326 77.3281C36.2214 77.4792 36.0698 77.5957 35.8951 77.6641C35.7098 77.7373 35.5123 77.7744 35.3131 77.7734H33.6021L42.9342 65.8555ZM39.6724 64.0234C40.7516 64.0393 41.8202 63.8096 42.7974 63.3516C43.6939 62.9259 44.4991 62.3302 45.1685 61.5977C45.8231 60.8771 46.3383 60.0413 46.6881 59.1328C47.0424 58.2374 47.2253 57.2833 47.2271 56.3203C47.2274 55.4775 47.0875 54.6406 46.8131 53.8437C46.5801 53.1239 46.2026 52.4593 45.7037 51.8906C45.2075 51.3435 44.6003 50.9086 43.9227 50.6149C43.245 50.3212 42.5125 50.1755 41.774 50.1875C40.7526 50.1778 39.7399 50.3758 38.7974 50.7695C37.9022 51.1467 37.0949 51.7054 36.4263 52.4102C35.7435 53.1439 35.2124 54.0055 34.8638 54.9453C34.4735 55.9906 34.2801 57.0991 34.2935 58.2148C34.2841 59.036 34.4163 59.8526 34.6842 60.6289C34.904 61.2978 35.2605 61.9137 35.731 62.4375C36.2056 62.9505 36.7888 63.3509 37.4381 63.6094C38.1485 63.8927 38.9077 64.0334 39.6724 64.0234Z" fill="#0066A4"></path><path d="M62.6126 62.7383C63.3275 62.9164 64.0138 63.1938 64.6517 63.5625C65.2438 63.9121 65.7722 64.3599 66.2142 64.8867C66.6612 65.4356 67.0065 66.06 67.2337 66.7305C67.4889 67.4999 67.613 68.3066 67.6009 69.1172C67.6196 70.4034 67.3694 71.6793 66.8665 72.8633C66.4016 73.9447 65.7056 74.9114 64.8274 75.6953C63.9302 76.4869 62.8855 77.0935 61.7532 77.4804C60.5137 77.9038 59.2114 78.1139 57.9017 78.1015C56.8196 78.1143 55.7428 77.9494 54.7142 77.6133C53.8167 77.3166 52.9888 76.8408 52.2806 76.2148C51.6049 75.6097 51.0714 74.8627 50.7181 74.0273C50.3403 73.1166 50.1528 72.1382 50.1673 71.1523C50.1494 70.0492 50.3212 68.9512 50.6751 67.9062C51.2818 66.1065 52.5554 64.6078 54.2337 63.7187C55.0948 63.2611 56.0149 62.9246 56.9681 62.7187C55.7176 62.3482 54.6298 61.5647 53.8821 60.4961C53.1711 59.423 52.8057 58.158 52.8353 56.8711C52.8286 55.767 53.0424 54.6727 53.4642 53.6523C53.8724 52.6662 54.4801 51.7751 55.2493 51.0351C56.0393 50.2779 56.9676 49.6798 57.9837 49.2734C59.1008 48.8253 60.2958 48.6035 61.4993 48.6211C62.4916 48.6037 63.478 48.776 64.4056 49.1289C65.2107 49.4406 65.9442 49.9124 66.5618 50.5156C67.1527 51.1001 67.611 51.8048 67.9056 52.582C68.2132 53.3929 68.3682 54.2538 68.3626 55.1211C68.3671 56.0045 68.2353 56.8833 67.972 57.7265C67.4701 59.3293 66.4296 60.7094 65.0267 61.6328C64.2841 62.1241 63.4697 62.4971 62.6126 62.7383ZM58.0892 76.5937C59.125 76.6061 60.1542 76.4259 61.1243 76.0625C62.0195 75.7326 62.8355 75.2187 63.5198 74.5539C64.2041 73.8892 64.7414 73.0883 65.097 72.2031C65.4905 71.2226 65.6844 70.1735 65.6673 69.1172C65.6995 68.1928 65.5107 67.2742 65.1165 66.4375C64.7856 65.7609 64.2965 65.174 63.6907 64.7265C63.1114 64.2988 62.4548 63.9871 61.7571 63.8086C61.0789 63.6293 60.3805 63.5374 59.679 63.5351C59.1227 63.5373 58.5676 63.5844 58.0189 63.6758C57.4318 63.7728 56.8578 63.9367 56.3079 64.164C55.7364 64.3991 55.1958 64.7034 54.6985 65.0703C54.176 65.456 53.724 65.9291 53.3626 66.4687C52.9606 67.0702 52.6511 67.7285 52.4446 68.4219C52.2033 69.2555 52.0874 70.1205 52.1009 70.9883C52.0885 71.7726 52.2305 72.5517 52.5188 73.2812C52.7832 73.95 53.1928 74.5518 53.7181 75.043C54.263 75.5473 54.905 75.9354 55.6048 76.1836C56.4018 76.4676 57.2432 76.6065 58.0892 76.5937ZM54.7063 56.8515C54.7038 57.514 54.8039 58.1729 55.0032 58.8047C55.1931 59.4128 55.5085 59.9744 55.929 60.4531C56.3724 60.9529 56.9224 61.3467 57.5384 61.6054C58.2812 61.9102 59.0795 62.0566 59.8821 62.0351C60.8761 62.0562 61.863 61.8645 62.7767 61.4726C63.5694 61.1267 64.2772 60.6121 64.8509 59.9648C65.4133 59.3295 65.8435 58.5885 66.1165 57.7851C66.4012 56.9636 66.5452 56.0999 66.5423 55.2304C66.5497 54.5428 66.436 53.8592 66.2064 53.2109C65.9966 52.5933 65.6549 52.0288 65.205 51.5566C64.755 51.0844 64.2076 50.7158 63.6009 50.4765C62.8901 50.2018 62.1323 50.069 61.3704 50.0859C60.4179 50.0716 59.4723 50.2483 58.5892 50.6054C57.7985 50.9311 57.0862 51.4211 56.4993 52.0429C55.9226 52.6642 55.4763 53.3947 55.1868 54.1914C54.8674 55.0418 54.7046 55.9431 54.7063 56.8515Z" fill="#0066A4"></path><path d="M96.7852 47.6718C96.8965 47.5587 97.0196 47.4579 97.1523 47.371C97.3085 47.2886 97.4838 47.2495 97.6602 47.2578H99.1562L73.6328 79.4296C73.5421 79.5513 73.4245 79.6502 73.2891 79.7187C73.1459 79.7898 72.9879 79.8259 72.8281 79.8242H71.3086L96.7852 47.6718ZM84.6562 53.6562C84.6824 55.07 84.4684 56.478 84.0234 57.8203C83.6604 58.9136 83.0945 59.9287 82.3555 60.8125C81.706 61.5776 80.8966 62.1909 79.9844 62.6093C79.1169 63.0031 78.1753 63.2069 77.2227 63.207C76.475 63.2126 75.7342 63.0637 75.0469 62.7695C74.3856 62.4796 73.7991 62.0427 73.332 61.4921C72.8269 60.8742 72.4486 60.1627 72.2187 59.3984C71.9394 58.4609 71.8076 57.4857 71.8281 56.5078C71.8032 55.0967 72.005 53.6908 72.4258 52.3437C72.7671 51.2495 73.3132 50.2301 74.0352 49.3398C74.6695 48.5654 75.4707 47.9445 76.3789 47.5234C77.2746 47.1133 78.2492 46.904 79.2344 46.9101C79.9783 46.9037 80.7154 47.0527 81.3984 47.3476C82.059 47.6422 82.644 48.083 83.1094 48.6367C83.6217 49.2584 84.009 49.9734 84.25 50.7421C84.5397 51.6857 84.6768 52.6694 84.6562 53.6562ZM82.9531 53.6796C82.9689 52.8752 82.8689 52.0728 82.6562 51.2968C82.4901 50.6951 82.2089 50.1313 81.8281 49.6367C81.4972 49.2206 81.0748 48.8864 80.5937 48.6601C80.114 48.4435 79.5928 48.3342 79.0664 48.3398C78.3336 48.3386 77.6094 48.4986 76.9453 48.8085C76.2422 49.1497 75.6313 49.6547 75.1641 50.2812C74.6001 51.0469 74.1829 51.9104 73.9336 52.8281C73.6034 54.026 73.4481 55.2654 73.4727 56.5078C73.4562 57.3083 73.5562 58.107 73.7695 58.8789C73.9356 59.4723 74.217 60.0271 74.5977 60.5117C74.9335 60.9276 75.365 61.256 75.8555 61.4687C76.3494 61.6784 76.8814 61.7835 77.418 61.7773C78.1447 61.7799 78.8632 61.6239 79.5234 61.3203C80.2207 60.9873 80.8256 60.4883 81.2852 59.8671C81.8428 59.1094 82.256 58.2552 82.5039 57.3476C82.8308 56.1532 82.9821 54.9176 82.9531 53.6796ZM98.8125 70.664C98.8391 72.074 98.6251 73.4783 98.1797 74.8164C97.8145 75.906 97.2473 76.9171 96.5078 77.7968C95.859 78.564 95.0513 79.1811 94.1406 79.6054C93.275 80.006 92.3327 80.2139 91.3789 80.2148C90.6312 80.2208 89.8904 80.0718 89.2031 79.7773C88.5367 79.4851 87.9461 79.0441 87.4766 78.4882C86.9659 77.8716 86.5822 77.16 86.3477 76.3945C86.0677 75.4612 85.9359 74.4897 85.957 73.5156C85.9325 72.1007 86.1343 70.691 86.5547 69.3398C86.8964 68.2414 87.4439 67.218 88.168 66.3242C88.8091 65.5454 89.6202 64.924 90.5391 64.5078C91.4348 64.1019 92.4072 63.8927 93.3906 63.8945C94.1346 63.8881 94.8717 64.0371 95.5547 64.332C96.2185 64.6283 96.8053 65.0734 97.2695 65.6328C97.7805 66.2598 98.1676 66.9783 98.4102 67.75C98.6968 68.6941 98.8326 69.6775 98.8125 70.664ZM97.1094 70.664C97.1238 69.8648 97.0238 69.0677 96.8125 68.2968C96.6465 67.6963 96.3652 67.1337 95.9844 66.6406C95.6553 66.2214 95.2289 65.8888 94.7422 65.6718C94.2547 65.4633 93.7293 65.3583 93.1992 65.3632C92.4677 65.3625 91.7449 65.5225 91.082 65.832C90.3777 66.1729 89.7654 66.6779 89.2969 67.3046C88.7369 68.0711 88.3237 68.9346 88.0781 69.8515C87.758 71.0512 87.6068 72.2897 87.6289 73.5312C87.615 74.3229 87.7163 75.1124 87.9297 75.875C88.0942 76.4667 88.3715 77.0211 88.7461 77.5078C89.0737 77.9256 89.5007 78.2546 89.9883 78.4648C90.4821 78.6752 91.014 78.7816 91.5508 78.7773C92.2777 78.7778 92.996 78.6205 93.6562 78.3164C94.3547 77.9819 94.9628 77.4849 95.4297 76.8671C95.9907 76.1083 96.4077 75.253 96.6602 74.3437C96.9864 73.1452 97.1377 71.9058 97.1094 70.664Z" fill="#0066A4"></path></svg> 