<?xml version="1.0" encoding="UTF-8"?> <svg xmlns="http://www.w3.org/2000/svg" width="128" height="128" viewBox="0 0 128 128" fill="none"><circle cx="64" cy="64" r="64" fill="white"></circle><path d="M62.8037 87.9298C62.2524 87.9305 61.7186 87.7368 61.2959 87.3829L44.0772 72.9024C43.8311 72.7078 43.6267 72.4658 43.4759 72.1907C43.3252 71.9156 43.2312 71.613 43.1995 71.301C43.1678 70.9889 43.1991 70.6736 43.2915 70.3738C43.3839 70.074 43.5356 69.7959 43.7375 69.5558C43.9394 69.3157 44.1874 69.1186 44.4669 68.9761C44.7464 68.8337 45.0516 68.7488 45.3645 68.7265C45.6774 68.7041 45.9916 68.7449 46.2885 68.8462C46.5854 68.9476 46.8589 69.1075 47.0928 69.3165L62.3272 82.129L97.2608 31.0626C97.4344 30.8084 97.6564 30.5909 97.9141 30.4225C98.1718 30.2542 98.4601 30.1382 98.7626 30.0812C99.0652 30.0243 99.3759 30.0275 99.6772 30.0906C99.9785 30.1538 100.264 30.2757 100.519 30.4493C100.773 30.623 100.99 30.845 101.159 31.1027C101.327 31.3603 101.443 31.6487 101.5 31.9512C101.557 32.2537 101.554 32.5645 101.491 32.8658C101.427 33.167 101.305 33.4529 101.132 33.7071L64.7373 86.922C64.5526 87.1924 64.3132 87.4211 64.0347 87.5933C63.7561 87.7656 63.4446 87.8775 63.1201 87.922C63.015 87.9323 62.9092 87.9349 62.8037 87.9298Z" fill="#0066A4"></path><path d="M64.1728 107.398H63.8056C54.1885 107.315 44.9057 103.859 37.5752 97.6328C29.4083 90.9193 24.0673 81.378 22.6142 70.9062C21.1494 60.4843 23.5908 50.1797 29.4892 41.8867C35.6845 33.1757 45.5283 27.2265 56.5009 25.5937C62.1002 24.723 67.8181 24.999 73.3075 26.4051C78.7969 27.8112 83.9433 30.318 88.4345 33.7734C88.6158 33.9122 88.7346 34.1174 88.7646 34.3437C88.7946 34.5701 88.7335 34.7991 88.5947 34.9804C88.4559 35.1617 88.2507 35.2805 88.0243 35.3105C87.798 35.3405 87.5689 35.2794 87.3876 35.1406C83.0807 31.8215 78.144 29.4125 72.8774 28.0601C67.6108 26.7077 62.1242 26.44 56.7509 27.2734C46.2431 28.8593 36.8291 34.5507 30.8837 42.8984C19.0556 59.5312 22.4853 83.0156 38.6962 96.3164C45.6836 102.31 54.562 105.645 63.7674 105.735C72.9727 105.824 81.9143 102.662 89.0166 96.8046C103.352 84.9648 107.317 64.4453 98.4423 48.0117C98.3885 47.9124 98.3547 47.8035 98.3429 47.6912C98.3311 47.5789 98.3416 47.4654 98.3737 47.3571C98.4058 47.2488 98.4589 47.1479 98.53 47.0602C98.6011 46.9724 98.6888 46.8995 98.788 46.8457C98.8873 46.7918 98.9962 46.758 99.1085 46.7462C99.2208 46.7345 99.3344 46.7449 99.4426 46.777C99.5509 46.8091 99.6518 46.8622 99.7396 46.9333C99.8273 47.0044 99.9002 47.0921 99.9541 47.1914C109.22 64.3476 105.079 85.7695 90.1103 98.1328C82.8019 104.138 73.632 107.414 64.1728 107.398Z" fill="#0066A4"></path></svg> 