<?xml version="1.0" encoding="UTF-8"?> <svg xmlns="http://www.w3.org/2000/svg" width="162" height="46" viewBox="0 0 162 46" fill="none"><path d="M18.8496 9.67818C20.009 9.34902 21.1486 8.9512 22.2625 8.48675C22.3105 8.45297 22.3527 8.41138 22.3873 8.36363C22.6721 7.78777 22.9373 7.21191 23.1674 6.63208C23.3157 7.02923 23.4756 7.42637 23.6511 7.79969L23.6784 7.83146C24.4273 7.478 25.1333 7.13248 25.8276 6.7274C25.8321 6.70513 25.8321 6.68215 25.8276 6.65988C24.9435 4.7931 24.4634 2.75484 24.4195 0.682861H21.9973C21.9778 3.52641 20.753 6.67577 18.8184 9.64244C18.8262 9.65644 18.8368 9.66862 18.8496 9.67818Z" fill="#F79720"></path><path d="M30.9205 23.447L30.9985 23.0499C31.1429 21.9299 31.0321 20.7912 30.6748 19.7218C30.1217 17.7972 28.9711 16.1069 27.3952 14.9041C25.8194 13.7012 23.9032 13.0507 21.9337 13.0498H21.8596C20.8841 13.0585 19.9162 13.2261 18.9927 13.5462C17.3655 15.5884 15.5048 17.4256 13.4501 19.0189C12.7251 20.8999 12.6332 22.9726 13.1887 24.9125C13.4028 25.6378 13.7028 26.334 14.0819 26.9856C14.9379 27.72 15.7567 28.4981 16.5354 29.3168C16.9254 29.6743 17.2765 30.0714 17.6743 30.5321C18.9826 31.2351 20.4388 31.6044 21.9181 31.6083H21.9961C23.4094 31.6379 24.808 31.3115 26.0675 30.6581C27.3271 30.0048 28.4086 29.0447 29.216 27.8633L29.3564 27.6051C28.2249 29.1183 26.6024 30.1732 24.7781 30.5819C22.9538 30.9905 21.0463 30.7262 19.3956 29.8363C17.7448 28.9463 16.4581 27.4884 15.7647 25.7224C15.0713 23.9564 15.0164 21.9972 15.6096 20.1938C16.2029 18.3904 17.4058 16.8601 19.004 15.8757C20.6022 14.8912 22.4918 14.5166 24.336 14.8185C26.1802 15.1205 27.8592 16.0794 29.0737 17.5244C30.2882 18.9694 30.9592 20.8065 30.9673 22.7083C30.9673 22.9585 30.9673 23.2048 30.94 23.447H30.9205Z" fill="#F79720"></path><path d="M25.0052 35.0164C25.3641 34.4326 25.7073 33.9123 26.1754 33.257L26.2924 33.0902L26.5811 32.6931L26.6942 32.5422L26.5186 32.6097C25.435 33.016 24.2915 33.2323 23.1369 33.2491C22.8717 33.2491 22.6025 33.2491 22.3568 33.2133C21.3582 33.1428 20.3752 32.9233 19.4392 32.562L19.2637 32.4866L19.3768 32.6375C19.7239 33.1101 20.0321 33.543 20.309 33.96H20.3441H20.3207L20.3558 34.0156C20.8239 34.7384 21.2139 35.4493 21.604 36.2038H21.6898C22.7234 35.7789 23.7961 35.4096 24.8921 35.072C24.9312 35.0566 24.9691 35.038 25.0052 35.0164Z" fill="#7FB342"></path><path d="M18.1728 35.0879C18.1533 35.0879 18.1962 35.1355 18.1962 35.1355C18.9139 34.7582 19.655 34.4008 20.4351 34.0712V34.0434L20.322 33.8766C20.322 33.8766 17.6618 33.2411 16.4488 32.566L16.2889 32.4548L16.1757 32.3833L16.1445 32.4548C16.8677 33.2938 17.5449 34.1728 18.1728 35.0879Z" fill="#F79720"></path><path d="M32.6051 26.5329L32.57 26.5845C32.4035 27.0437 32.204 27.4897 31.9732 27.919C31.8426 28.2001 31.6831 28.4663 31.4973 28.7132C29.3403 31.3145 28.3418 31.7037 28.3418 31.7037L28.9815 31.6283C29.5744 31.5409 30.1048 31.4853 30.8888 31.4138L30.9981 31.3423C32.3142 29.9919 33.7505 28.7688 35.2886 27.6886L35.3354 27.6052C34.9454 26.938 34.5826 26.2549 34.1653 25.405C34.1474 25.4106 34.1303 25.4186 34.1146 25.4289C33.6387 25.7466 33.1693 26.0828 32.7065 26.4376C32.6757 26.4726 32.6418 26.5045 32.6051 26.5329Z" fill="#F79720"></path><path d="M44.6189 24.1594H44.7632V21.6772C41.2527 21.6534 37.3249 19.7471 33.8417 16.9115C33.8237 16.9078 33.8051 16.9078 33.7871 16.9115C33.947 17.6462 34.0952 18.2578 34.2552 18.8416C34.4151 19.4254 34.8051 20.6605 34.8051 20.6605L34.8832 20.7281C36.1562 21.5693 37.5039 22.2873 38.9085 22.8726C37.9871 23.2408 37.0895 23.6679 36.221 24.1514C36.1937 24.1951 36.1742 24.1753 36.1742 24.1753C36.5253 24.9497 36.9075 25.7043 37.3093 26.4191L37.3561 26.3874C39.8056 25.0132 42.3097 24.1792 44.6189 24.1594Z" fill="#F79720"></path><path d="M34.8659 20.6401C34.2067 20.2111 33.6723 19.8458 33.0989 19.3851L32.8415 19.1825L32.6426 19.0237L32.7089 19.2064C33.1107 20.3226 33.3217 21.5006 33.333 22.6893C33.333 22.9594 33.333 23.2414 33.2979 23.6306C33.2985 23.6438 33.2985 23.657 33.2979 23.6703L33.333 23.7537C33.3352 23.7193 33.3352 23.6848 33.333 23.6504C33.5787 24.262 33.8361 24.8418 34.1131 25.4376L34.1677 25.4614C34.8542 24.9967 35.49 24.6314 36.1921 24.2422C36.1872 24.2119 36.1872 24.1811 36.1921 24.1508C35.6872 23.0345 35.2406 21.8917 34.8542 20.7274C34.8554 20.698 34.8594 20.6688 34.8659 20.6401Z" fill="#7FB342"></path><path d="M37.3093 26.3503C36.6155 26.7352 35.9412 27.1554 35.2888 27.6093C35.2888 27.6093 35.2888 27.7086 35.2888 27.6967C36.0458 29.0435 36.9149 30.3217 37.8866 31.5172C36.4902 31.3002 35.0787 31.2006 33.6662 31.2193C32.7613 31.2193 31.8759 31.2749 30.9983 31.3504L30.932 31.3782C30.932 31.3782 30.2572 31.9421 28.4863 34.1582L28.5292 34.19C30.2358 33.8836 31.9646 33.7228 33.6974 33.7094C37.2547 33.6816 40.3517 34.3647 42.6686 35.6951L43.8388 33.5228C41.4049 32.1209 39.1582 29.6149 37.3561 26.3742C37.3395 26.3685 37.3237 26.3605 37.3093 26.3503Z" fill="#7FB342"></path><path d="M25.7949 6.71571C26.1207 7.44894 26.488 8.16235 26.8949 8.85234C26.8949 8.85234 26.8949 8.85234 26.9495 8.85234C28.3675 8.0301 29.7119 7.08257 30.967 6.0207C30.5772 8.70934 30.5575 11.4402 30.9085 14.1344C30.9397 14.2098 30.9982 14.317 30.9748 14.2932C30.9514 14.2694 32.7964 16.0963 33.8222 16.9422C33.8222 16.9422 33.8807 16.9183 33.8573 16.8985C32.5272 10.7666 32.9524 5.01196 35.0509 1.22718L32.9173 0C31.5248 2.51789 28.9817 4.81339 25.8183 6.64025C25.8199 6.66747 25.8115 6.69433 25.7949 6.71571Z" fill="#7FB342"></path><path d="M19.5038 37.1453C19.1138 36.4463 18.751 35.8109 18.2673 35.092C18.2362 35.0891 18.2049 35.0891 18.1737 35.092C16.2784 36.0795 14.4966 37.2783 12.8612 38.6663C13.2845 35.5784 13.2372 32.4424 12.7208 29.3692C13.6471 30.6216 14.8119 31.6711 16.1455 32.455L16.1806 32.4113C15.732 31.8871 15.3029 31.4185 14.8817 30.9816C14.1991 30.2787 13.4619 29.5876 12.6935 28.9323C12.5375 28.8013 12.3815 28.6663 12.2215 28.5352C11.4399 27.895 10.6248 27.2984 9.77981 26.748C9.77981 26.748 9.77981 26.7878 9.7486 26.7957C11.2308 32.8522 11.1333 39.2065 8.79688 43.4241L10.9266 44.6473C12.5297 41.7601 15.6423 39.1588 19.4765 37.2168C19.4857 37.2074 19.4928 37.1962 19.4975 37.1839C19.5022 37.1716 19.5044 37.1585 19.5038 37.1453Z" fill="#7FB342"></path><path d="M22.2673 8.41935C21.9031 9.17009 21.5021 9.90175 21.0659 10.6116C20.8202 11.0087 20.5706 11.4059 20.317 11.7554C20.0635 12.1048 19.7788 12.5218 19.5369 12.8515L19.4238 13.0024L19.5994 12.9389C21.8879 12.0919 24.3994 12.1116 26.6749 12.9945L26.8504 13.062L26.7373 12.9111C26.3239 12.3511 25.6374 11.3423 25.6179 11.3225C25.5814 11.2669 25.5381 11.2161 25.4891 11.1716C24.7762 10.9331 24.042 10.7668 23.297 10.6751C23.8041 10.4567 24.2956 10.2303 24.7792 9.99601C24.7792 9.93644 24.826 9.96424 24.826 9.96424C24.4204 9.27361 24.0506 8.56174 23.7183 7.83158C23.7183 7.83158 23.7183 7.83158 23.6481 7.7998C23.2346 7.99441 22.8134 8.19695 22.3843 8.36375L22.2673 8.41935Z" fill="#7FB342"></path><path d="M10.1648 10.9418C6.60358 10.9696 3.50657 10.2825 1.19356 8.95605L0 11.1245C2.93709 12.8203 5.46073 16.0411 7.30958 19.9013C7.31287 19.8972 7.31703 19.8939 7.32175 19.8916C7.32648 19.8893 7.33165 19.8881 7.33688 19.8881C7.34212 19.8881 7.34729 19.8893 7.35201 19.8916C7.35674 19.8939 7.3609 19.8972 7.36419 19.9013C8.08151 19.5779 8.7796 19.2119 9.45487 18.8052C9.45487 18.8052 9.45487 18.7337 9.45487 18.7417C8.50395 16.7343 7.3258 14.8469 5.9444 13.1181C7.35102 13.338 8.77295 13.4403 10.196 13.4239C11.7626 13.4115 13.3265 13.2894 14.8766 13.0586C13.6249 14.0446 12.5865 15.283 11.8264 16.6964C11.7133 16.9069 11.6197 17.1253 11.5182 17.3398L11.5611 17.3755C13.3409 16.0485 14.9743 14.5291 16.4329 12.8441C16.7761 12.447 17.1155 12.0498 17.4743 11.5732C17.9658 10.9457 18.4261 10.2984 18.8473 9.65503C18.8288 9.65211 18.8121 9.64218 18.8005 9.62723C15.9931 10.4588 13.0883 10.901 10.1648 10.9418Z" fill="#7FB342"></path><path d="M13.3212 26.402L13.4733 26.5212L13.4148 26.3424C12.5717 24.0082 12.5717 21.4447 13.4148 19.1105L13.4577 18.9556L13.3485 19.0549C12.4299 19.7555 11.4713 20.4 10.4777 20.985L10.4231 21.0167C9.73723 21.4126 9.03158 21.7719 8.30901 22.093C8.30901 22.093 8.28171 22.2042 8.30901 22.1963C8.46113 22.5934 8.61325 22.9906 8.75367 23.3877C8.78487 23.4393 8.84338 23.5227 8.84338 23.5227C8.84338 23.5227 9.98233 24.1145 10.5752 24.4759C11.0043 24.742 11.4294 25.016 11.8273 25.294C12.3148 25.6316 12.818 26.0049 13.3212 26.402Z" fill="#7FB342"></path><path d="M1.50565 21.3902H1.36133V23.8724C3.94347 23.8724 6.88057 24.9367 9.77085 26.7993C9.77085 26.8232 9.82546 26.7993 9.82546 26.7993C9.56205 25.6887 9.24309 24.5925 8.86983 23.5149C8.8314 23.4856 8.79725 23.4508 8.76842 23.4117C8.24965 23.1456 7.73088 22.8994 7.20821 22.6849C7.59826 22.5419 7.94931 22.3791 8.31986 22.2083C8.34279 22.1824 8.35889 22.151 8.36667 22.117C8.06243 21.3227 7.76599 20.6595 7.40714 19.9128H7.32133C5.50644 20.8164 3.5247 21.3198 1.50565 21.3902Z" fill="#F79720"></path><path d="M28.5221 34.1506C27.2935 34.3691 24.9493 34.9926 24.9493 34.9926C24.9365 35.0204 24.9194 35.0459 24.8985 35.068C24.1408 36.294 23.4883 37.5842 22.9483 38.9243C22.5875 37.9903 22.1693 37.0804 21.6962 36.1999C21.6807 36.1999 21.6655 36.1949 21.6529 36.1856C21.6403 36.1763 21.6309 36.1633 21.626 36.1483C20.8732 36.458 20.2062 36.7797 19.4807 37.1451C19.4778 37.1688 19.4778 37.1929 19.4807 37.2166C20.9278 39.8695 21.7157 42.5145 21.7001 44.8656H24.1379C24.1613 41.47 25.9049 37.6336 28.5338 34.1904C28.526 34.1705 28.5221 34.1506 28.5221 34.1506Z" fill="#F79720"></path><path d="M25.5068 11.1869L25.6082 11.2862C26.2394 11.4898 26.8494 11.7559 27.4297 12.0805C28.8321 12.862 30.0573 13.935 31.026 15.2299L31.1235 15.1862L31.0806 14.9797C31.0377 14.6937 31.0065 14.515 30.9714 14.233C30.9469 14.2017 30.9247 14.1685 30.9051 14.1338C29.3944 12.5328 28.0675 10.7621 26.9499 8.85571C26.9499 8.85571 26.8953 8.85571 26.8953 8.85571C26.2244 9.25286 25.5458 9.60234 24.7852 9.97169C24.7852 9.97169 24.7852 10.0392 24.7852 10.0313C25.0114 10.4046 25.2493 10.7938 25.5068 11.1869Z" fill="#F79720"></path><path d="M11.5184 17.3628C10.8398 17.8672 10.1494 18.3398 9.44727 18.7647V18.8283C9.44727 18.8283 10.1143 20.2699 10.4341 21.0562C10.4341 21.0562 10.4341 21.0562 10.4653 21.0801C10.4768 21.0615 10.486 21.0414 10.4926 21.0205C10.6291 19.7814 11.5067 17.4462 11.5067 17.4462C11.5168 17.4197 11.5208 17.3911 11.5184 17.3628Z" fill="#F79720"></path><path d="M13.4141 19.0189C13.5567 18.6274 13.7261 18.2465 13.9211 17.8791C15.0151 15.8344 16.8256 14.2845 18.9918 13.5383H19.062L18.9879 13.6217C17.3667 15.6463 15.5124 17.465 13.4648 19.0388L13.4141 19.0666V19.0189Z" fill="#F26B24"></path><path d="M14.1016 26.9656C14.1367 27.0291 14.1484 27.1641 14.1874 27.2237C15.0141 28.5884 16.1791 29.7074 17.5652 30.4684C17.6081 30.4922 17.6588 30.4684 17.6978 30.4684C17.339 30.0712 16.9684 29.6741 16.5862 29.277C15.7964 28.4647 14.9672 27.6933 14.1016 26.9656Z" fill="#F26B24"></path><path d="M33.3066 23.9918C33.3066 23.8764 33.3457 23.765 33.3574 23.6496V23.6138C33.3379 23.7411 33.3066 23.8684 33.3066 23.9918Z" fill="#7FB541"></path><path d="M13.2277 24.9086C12.6673 22.975 12.751 20.907 13.4656 19.0269L13.3876 19.0864C12.5145 21.4227 12.5034 24.0022 13.3564 26.3462C13.606 26.5448 13.8518 26.7434 14.1014 26.9539C13.7299 26.3106 13.4365 25.6238 13.2277 24.9086Z" fill="#877931"></path><path d="M34.1348 25.4369C34.5014 26.2312 34.8837 26.9738 35.3049 27.6966C35.9875 27.2201 36.6857 26.7832 37.3839 26.3861C36.973 25.6659 36.5895 24.9206 36.2332 24.1501C35.5273 24.5393 34.8252 24.9683 34.1348 25.4369Z" fill="#847932"></path><path d="M24.7893 10.0119C25.5278 9.64652 26.2481 9.26129 26.9502 8.8562C26.5333 8.13935 26.1557 7.39953 25.8191 6.64014C25.1248 7.03728 24.3993 7.43443 23.6504 7.77994C23.9819 8.52657 24.3642 9.26923 24.7893 10.0119Z" fill="#847932"></path><path d="M10.4563 21.0649C10.1404 20.2706 9.80883 19.5001 9.44608 18.7495C8.75475 19.1728 8.04119 19.5573 7.30859 19.9012C7.66744 20.6479 7.99899 21.4104 8.30713 22.1967C9.02872 21.8631 9.74642 21.4819 10.4563 21.0649Z" fill="#847932"></path><path d="M20.403 34.019C19.6229 34.3566 18.8857 34.7101 18.1719 35.0874C18.6516 35.7943 19.0885 36.5052 19.4746 37.2161C20.1923 36.8547 20.9334 36.5131 21.694 36.1994C21.304 35.4686 20.8736 34.7418 20.403 34.019Z" fill="#847932"></path><path d="M32.7572 19.1857C32.7143 19.154 32.6753 19.0865 32.6324 19.0507C32.3086 18.7926 31.9888 18.5265 31.665 18.2564C30.9395 17.625 30.2531 16.9776 29.5588 16.2707C28.5955 15.2478 27.6841 14.1755 26.8284 13.0578C26.805 13.03 26.7426 12.9903 26.7192 12.9585C24.4261 12.0628 21.8923 12.0416 19.5851 12.899L19.4837 12.9466L19.0235 13.5423C19.0249 13.5648 19.0249 13.5874 19.0235 13.6098C20.4731 13.1112 22.0232 12.9945 23.5291 13.2706C25.0351 13.5467 26.4478 14.2066 27.6356 15.1888C28.8234 16.171 29.7475 17.4434 30.3218 18.8875C30.8962 20.3315 31.102 21.9002 30.92 23.4471C30.7959 24.9565 30.255 26.3994 29.3598 27.6092C28.0949 29.4522 26.2114 30.7604 24.0645 31.2871C21.9177 31.8138 19.6557 31.5227 17.7051 30.4686C18.3175 31.1596 18.8752 31.8705 19.4174 32.5854C20.3551 32.9522 21.3409 33.1757 22.3428 33.2486C22.608 33.2486 22.8694 33.2844 23.1229 33.2844C24.2832 33.2712 25.4331 33.0591 26.5242 32.6569C26.753 32.4234 26.9654 32.1739 27.1599 31.9102C28.7253 29.9727 30.5039 28.2244 32.4608 26.6997C32.538 26.6386 32.6075 26.5679 32.6675 26.4892C32.9724 25.6837 33.1869 24.8457 33.3072 23.9912C33.3072 23.8681 33.3345 23.741 33.3462 23.594C33.3696 23.2882 33.3852 22.9824 33.3813 22.6687C33.3692 21.48 33.1581 20.3022 32.7572 19.1857Z" fill="#847932"></path><path d="M28.3894 31.6877C27.831 32.0368 27.2389 32.3269 26.6225 32.5534C26.482 32.7401 26.2714 33.038 26.1388 33.2206C25.7019 33.8283 25.2807 34.4399 24.8984 35.0674C26.0926 34.712 27.3048 34.423 28.5298 34.2016C29.2956 33.2012 30.1201 32.249 30.9989 31.3501C30.3163 31.4097 29.6376 31.4851 28.9745 31.5804L28.3894 31.6877Z" fill="#847932"></path><path d="M19.4082 32.602C19.3419 32.5367 19.2654 32.483 19.182 32.4431C17.8888 31.9171 16.717 31.1234 15.7408 30.1123C14.7646 29.1012 14.0051 27.8948 13.5106 26.5694C13.4747 26.4882 13.4214 26.4163 13.3546 26.3589C12.8592 25.9617 12.3599 25.5964 11.8568 25.2508C11.4394 24.9609 11.0221 24.6869 10.6008 24.4288C9.98842 24.0316 9.36824 23.7099 8.75195 23.4001C9.14201 24.5122 9.47355 25.648 9.75439 26.7997C10.5986 27.348 11.4125 27.9433 12.1922 28.5829C12.3521 28.71 12.5082 28.841 12.6642 28.98C13.4053 29.6115 14.1386 30.2906 14.8485 31.0253C15.3048 31.49 15.7534 31.9665 16.1434 32.455C16.2293 32.5067 16.3073 32.5662 16.397 32.6139C17.6207 33.2938 18.9555 33.7419 20.3365 33.9364C20.044 33.4836 19.7319 33.0428 19.4082 32.602Z" fill="#847932"></path><path d="M18.8022 9.62638C18.3784 10.283 17.922 10.9211 17.4331 11.5406C17.0977 11.9695 16.7545 12.3905 16.3956 12.8075C14.9338 14.4978 13.2994 16.0248 11.52 17.3627C10.9718 18.5313 10.6197 19.7851 10.4785 21.0721C11.4861 20.4794 12.4578 19.8255 13.3883 19.1142C13.4329 19.0322 13.472 18.9473 13.5053 18.86C14.035 17.533 14.828 16.3317 15.8348 15.3312C16.8416 14.3307 18.0403 13.5527 19.3561 13.0458C19.4434 13.0264 19.5201 12.9738 19.5706 12.8988C19.8476 12.5374 20.1089 12.1721 20.3507 11.7988C20.5926 11.4254 20.8578 11.0402 21.0996 10.651C21.5677 9.90041 21.989 9.13789 22.3712 8.36743C21.2049 8.85272 20.0134 9.27299 18.8022 9.62638Z" fill="#847932"></path><path d="M34.3171 18.8248C34.1416 18.1814 33.9895 17.538 33.853 16.8986C32.8114 16.0385 31.8264 15.1099 30.9042 14.1186C30.9471 14.4721 31.0056 14.8335 31.0602 15.1909C30.0874 13.8851 28.8554 12.8026 27.4444 12.0138C26.8214 11.669 26.1685 11.3831 25.4941 11.1599C25.8686 11.7503 26.2703 12.3355 26.6994 12.9153C26.7345 12.9153 26.7891 12.9788 26.8242 12.9947C28.5748 13.6973 30.1003 14.8794 31.2318 16.4102C31.8334 17.21 32.3158 18.0959 32.6633 19.0392C32.6633 19.075 32.7374 19.1227 32.753 19.1584L33.0573 19.4007C33.6618 19.8653 34.2781 20.2942 34.8905 20.6993C34.6916 20.1036 34.477 19.4721 34.3171 18.8248Z" fill="#847932"></path><path d="M13.3867 19.0984L13.4647 19.0388C13.6072 18.6472 13.7767 18.2663 13.9718 17.899C15.0632 15.8724 16.8615 14.3362 19.0113 13.5939C19.1985 13.3557 19.4013 13.1213 19.5691 12.8831C18.1584 13.4022 16.8752 14.2268 15.8079 15.2998C14.7406 16.3728 13.9145 17.6688 13.3867 19.0984Z" fill="#8B5E31"></path><path d="M31.2648 16.409C30.092 14.8432 28.5126 13.6423 26.7051 12.9419C27.5731 14.1136 28.5165 15.2254 29.5291 16.27C30.2233 16.9848 30.9371 17.656 31.6626 18.2835C32.0254 18.5972 32.392 18.8951 32.7587 19.185C32.4001 18.1887 31.8965 17.2529 31.2648 16.409Z" fill="#895D32"></path><path d="M27.1358 31.9106C26.933 32.1608 26.7458 32.411 26.5391 32.6652C27.2508 32.4077 27.9324 32.0707 28.5712 31.6604C29.7429 30.9051 30.7536 29.9179 31.5434 28.7573C31.7112 28.4992 31.8711 28.2331 32.0193 27.963C32.2687 27.4907 32.4851 27.001 32.6668 26.4976C30.6213 28.0752 28.7649 29.892 27.1358 31.9106Z" fill="#895D32"></path><path d="M14.1005 26.966C13.8508 26.7595 13.6051 26.5689 13.3555 26.3584C13.865 27.7806 14.6694 29.0744 15.714 30.1517C16.7586 31.229 18.0189 32.0646 19.4091 32.6015C18.8747 31.8866 18.3091 31.1758 17.7046 30.4688L17.5836 30.4053C16.1344 29.6064 14.9292 28.4164 14.1005 26.966Z" fill="#895D32"></path><path d="M62.9524 22.7364C62.9601 24.1185 62.5648 25.4717 61.8166 26.6248C61.0683 27.7779 60.0008 28.679 58.7492 29.2139C57.4976 29.7487 56.1183 29.8934 54.7859 29.6294C53.4535 29.3655 52.228 28.7049 51.2647 27.7313C50.3013 26.7576 49.6435 25.5148 49.3744 24.1602C49.1053 22.8056 49.2371 21.4001 49.7532 20.1218C50.2692 18.8436 51.1462 17.75 52.2732 16.9796C53.4001 16.2092 54.7262 15.7967 56.0836 15.7944C56.9854 15.7795 57.881 15.9485 58.7176 16.2915C59.5542 16.6344 60.315 17.1444 60.9551 17.7913C61.5952 18.4382 62.1017 19.209 62.4447 20.0583C62.7877 20.9076 62.9603 21.8182 62.9524 22.7364ZM56.0797 17.7602C55.114 17.7437 54.1653 18.0198 53.354 18.5535C52.5428 19.0872 51.9057 19.8543 51.5236 20.7575C51.1415 21.6607 51.0316 22.6591 51.2081 23.6259C51.3845 24.5928 51.8392 25.4844 52.5144 26.1876C53.1896 26.8907 54.0548 27.3737 55.0002 27.5751C55.9456 27.7764 56.9284 27.6872 57.8238 27.3186C58.7193 26.95 59.4869 26.3187 60.0292 25.505C60.5715 24.6912 60.864 23.7317 60.8695 22.7484C60.8862 22.098 60.7746 21.4509 60.5412 20.8454C60.3077 20.2398 59.9573 19.6881 59.5107 19.2229C59.064 18.7578 58.5302 18.3886 57.9408 18.1374C57.3515 17.8861 56.7186 17.7579 56.0797 17.7602Z" fill="#6D6F70"></path><path d="M83.1835 29.3209H81.1591V20.7545C81.1591 18.316 79.6418 17.7997 78.339 17.7997C77.9595 17.797 77.5834 17.8719 77.2329 18.02C76.8824 18.1682 76.5647 18.3866 76.2987 18.6622C76.0328 18.9378 75.8239 19.2651 75.6846 19.6245C75.5453 19.9839 75.4783 20.3682 75.4878 20.7545V29.3209H73.4829V20.7545C73.4829 18.316 71.9656 17.7997 70.6628 17.7997C70.285 17.7979 69.9107 17.8737 69.5624 18.0226C69.214 18.1716 68.8988 18.3905 68.6355 18.6664C68.3722 18.9422 68.1663 19.2693 68.0301 19.6281C67.8938 19.9869 67.8301 20.37 67.8427 20.7545V29.3209H65.8184V16.096H67.8427V17.4224C68.7711 16.4733 69.7306 15.7942 71.2752 15.7942C71.9618 15.787 72.6386 15.9606 73.24 16.2981C73.8413 16.6355 74.3469 17.1254 74.7077 17.7203C76.065 16.2548 77.1845 15.7942 78.889 15.7942C81.2566 15.7942 83.1796 17.7799 83.1796 20.8101L83.1835 29.3209Z" fill="#6D6F70"></path><path d="M97.6643 29.3214H95.6438V21.1085C95.6438 18.3285 93.9393 17.7486 92.422 17.7486C91.987 17.7547 91.5576 17.8491 91.1589 18.0264C90.7602 18.2036 90.4003 18.4601 90.1003 18.7808C89.8002 19.1014 89.566 19.4799 89.4115 19.8939C89.2569 20.3079 89.1851 20.7492 89.2001 21.1919V29.3214H87.1719V16.0965H89.1962V17.423C89.6749 16.8917 90.2601 16.4714 90.9122 16.1905C91.5643 15.9095 92.2681 15.7746 92.9759 15.7947C95.558 15.7947 97.6565 17.8281 97.6565 21.1919L97.6643 29.3214Z" fill="#6D6F70"></path><path d="M104.094 11.1354C104.091 11.4109 104.009 11.6795 103.857 11.9076C103.706 12.1356 103.491 12.313 103.241 12.4173C102.99 12.5216 102.715 12.5483 102.45 12.494C102.185 12.4397 101.941 12.3068 101.75 12.112C101.558 11.9172 101.428 11.6692 101.375 11.3991C101.321 11.1291 101.347 10.849 101.45 10.594C101.552 10.3391 101.727 10.1207 101.951 9.96614C102.175 9.81163 102.438 9.72794 102.709 9.72559C103.076 9.72663 103.427 9.87551 103.687 10.1397C103.946 10.4039 104.093 10.7619 104.094 11.1354ZM103.746 16.0958V29.3207H101.667V16.0958H103.746Z" fill="#6D6F70"></path><path d="M114.099 28.8325C113.473 29.3475 112.693 29.628 111.888 29.6268C111.433 29.6244 110.984 29.5293 110.566 29.3471C110.149 29.165 109.771 28.8995 109.456 28.5664C109.141 28.2332 108.894 27.8391 108.731 27.4073C108.568 26.9755 108.491 26.5149 108.506 26.0525V17.9904H107.281V16.0961H108.506V11.1357H110.538V16.0961H113.202V17.9904H110.538V26.0406C110.538 26.8348 110.963 27.6688 111.923 27.6688C112.336 27.6693 112.734 27.5153 113.042 27.236L114.099 28.8325Z" fill="#6D6F70"></path><path d="M125.234 16.446L124.224 18.4C123.61 17.9385 122.856 17.7121 122.094 17.7606C121.687 17.7563 121.284 17.8348 120.907 17.9914C120.53 18.1479 120.188 18.3795 119.9 18.6724C119.613 18.9653 119.385 19.3137 119.231 19.6973C119.078 20.0808 119.001 20.4917 119.005 20.906V29.3215H116.98V16.0966H119.005V17.6851C119.417 17.0985 119.961 16.6208 120.591 16.292C121.222 15.9631 121.92 15.7926 122.628 15.7947C123.538 15.7789 124.435 16.0033 125.234 16.446Z" fill="#6D6F70"></path><path d="M136.886 29.3212H134.862V27.8319C134.311 28.4421 133.633 28.9193 132.878 29.2285C132.123 29.5378 131.309 29.6712 130.497 29.619C128.207 29.619 125.816 28.0304 125.816 25.2504C125.817 24.5734 125.967 23.9052 126.257 23.2958C126.547 22.6864 126.968 22.1517 127.49 21.7317C129.007 20.4847 131.39 20.2702 134.807 20.9374C134.624 18.5824 133.77 17.7603 131.562 17.7603C130.165 17.7665 128.791 18.1297 127.568 18.8167L126.741 17.0296C128.242 16.2318 129.908 15.8085 131.601 15.7944C136.203 15.7944 136.898 18.9954 136.898 22.113L136.886 29.3212ZM134.862 22.8437C131.082 22.0495 129.538 22.6253 128.738 23.2409C128.452 23.484 128.226 23.7922 128.078 24.1406C127.93 24.4889 127.865 24.8677 127.888 25.2465C127.888 25.5999 128.126 27.7683 130.735 27.6611C133.465 27.5539 134.862 26.279 134.862 23.8922V22.8437Z" fill="#6D6F70"></path><path d="M150.583 28.2926C149.72 28.9434 148.719 29.3771 147.66 29.5584C146.601 29.7397 145.515 29.6634 144.491 29.3358C143.467 29.0081 142.533 28.4384 141.766 27.6731C141 26.9079 140.422 25.9688 140.079 24.9326C139.737 23.8965 139.641 22.7926 139.798 21.7112C139.955 20.6297 140.361 19.6015 140.982 18.7103C141.604 17.8192 142.424 17.0905 143.376 16.5837C144.327 16.0769 145.383 15.8065 146.456 15.7945C147.865 15.7551 149.248 16.1845 150.396 17.0177L149.409 18.7492C148.57 18.0752 147.524 17.725 146.456 17.7603C145.825 17.7633 145.202 17.8944 144.621 18.146C144.041 18.3976 143.516 18.7645 143.077 19.2254C142.638 19.6863 142.293 20.2318 142.064 20.8299C141.834 21.428 141.724 22.0668 141.74 22.7088C141.74 25.4888 143.788 27.6691 146.452 27.6691C147.551 27.7028 148.627 27.3383 149.487 26.6405L150.583 28.2926Z" fill="#6D6F70"></path><path d="M162 25.826C162 28.4551 159.66 29.6188 157.343 29.6188C155.652 29.6062 154.035 28.9122 152.846 27.6886L153.989 26.0603C154.409 26.5506 154.923 26.9479 155.5 27.228C156.077 27.508 156.704 27.6648 157.343 27.6886C157.795 27.6886 159.98 27.5814 159.98 25.8459C159.98 24.4082 159.367 24.2573 157.21 23.6497C155.693 23.2168 153.216 22.6211 153.216 19.6107C153.216 17.1167 155.479 15.814 157.663 15.814C159.201 15.8074 160.682 16.4114 161.79 17.4979L160.592 19.0428C160.213 18.6402 159.758 18.3193 159.255 18.0989C158.752 17.8786 158.211 17.7633 157.663 17.76C156.813 17.76 155.241 18.1572 155.241 19.6028C155.241 21.0484 156.251 21.2549 157.741 21.6878C159.82 22.2756 162 22.8157 162 25.826Z" fill="#6D6F70"></path><path d="M115.495 37.9066C115.374 37.697 115.191 37.5316 114.972 37.434C114.757 37.3364 114.525 37.2863 114.289 37.2871C114.116 37.2855 113.942 37.3082 113.775 37.3546C113.613 37.3961 113.459 37.4631 113.318 37.5532C113.185 37.6436 113.074 37.7646 112.994 37.9066C112.915 38.0623 112.875 38.2356 112.877 38.411C112.876 38.5467 112.9 38.6814 112.948 38.8081C113 38.9304 113.078 39.039 113.178 39.1258C113.308 39.2362 113.454 39.3259 113.611 39.3919C113.826 39.4892 114.048 39.5714 114.274 39.6382C114.527 39.7216 114.777 39.8129 115.019 39.9082C115.247 39.9965 115.461 40.1183 115.655 40.2696C115.839 40.4173 115.99 40.6043 116.095 40.8177C116.281 41.2091 116.327 41.6541 116.226 42.0765C116.125 42.4989 115.883 42.8724 115.542 43.133C115.317 43.2995 115.065 43.4221 114.797 43.4944C114.324 43.6259 113.828 43.6489 113.346 43.5619C113.155 43.5277 112.968 43.4732 112.788 43.3991C112.61 43.3266 112.442 43.2304 112.288 43.1132C112.135 42.993 112.003 42.8465 111.898 42.6803L112.573 42.1203C112.713 42.3636 112.92 42.5587 113.17 42.6803C113.424 42.8064 113.703 42.8716 113.985 42.8709C114.158 42.8709 114.33 42.8455 114.496 42.7955C114.662 42.7467 114.819 42.6702 114.96 42.5691C115.097 42.4737 115.212 42.349 115.296 42.2037C115.385 42.0512 115.431 41.8767 115.428 41.6993C115.436 41.5236 115.4 41.3487 115.323 41.191C115.249 41.0509 115.14 40.9331 115.007 40.8495C114.837 40.7424 114.655 40.657 114.465 40.5953L113.685 40.3252C113.46 40.2551 113.241 40.1674 113.03 40.0631C112.838 39.9717 112.661 39.8497 112.507 39.7017C112.36 39.5563 112.243 39.382 112.164 39.1894C112.005 38.8145 111.975 38.3963 112.077 38.0017C112.18 37.6071 112.409 37.259 112.729 37.013C112.947 36.8497 113.191 36.7261 113.451 36.6477C113.724 36.5641 114.008 36.5226 114.293 36.5246C114.643 36.5211 114.99 36.5803 115.319 36.6993C115.643 36.828 115.928 37.0401 116.146 37.3149L115.495 37.9066Z" fill="#6D6F70"></path><path d="M119.82 39.6309H118.529V41.8629C118.529 42.0098 118.529 42.1449 118.529 42.26C118.532 42.3717 118.559 42.4813 118.607 42.5817C118.647 42.6747 118.716 42.7525 118.802 42.8041C118.922 42.8661 119.057 42.8936 119.192 42.8836C119.302 42.8836 119.412 42.8703 119.52 42.8438C119.63 42.8212 119.738 42.7838 119.839 42.7326L119.867 43.4078C119.734 43.4689 119.593 43.5103 119.449 43.5309C119.305 43.5572 119.159 43.5705 119.012 43.5706C118.799 43.5784 118.585 43.5433 118.384 43.4674C118.239 43.4033 118.114 43.3004 118.022 43.1695C117.928 43.028 117.868 42.8662 117.846 42.6969C117.818 42.4903 117.805 42.2819 117.807 42.0734V39.623H116.852V38.9955H117.807V37.7366H118.537V39.0035H119.828L119.82 39.6309Z" fill="#6D6F70"></path><path d="M120.677 39.5755C120.901 39.3418 121.175 39.1637 121.477 39.0553C121.779 38.9454 122.097 38.889 122.417 38.8885C122.671 38.8637 122.927 38.8926 123.169 38.9732C123.411 39.0539 123.635 39.1845 123.825 39.3571C124.14 39.7569 124.294 40.2639 124.254 40.7749V42.6931C124.253 42.8258 124.259 42.9584 124.274 43.0902C124.274 43.2292 124.301 43.3524 124.321 43.4874H123.618C123.591 43.377 123.577 43.2637 123.576 43.1498C123.576 43.0267 123.576 42.9155 123.576 42.8202H123.556C123.41 43.052 123.212 43.2453 122.979 43.3841C122.715 43.5352 122.416 43.6107 122.113 43.6026C121.899 43.6044 121.686 43.575 121.481 43.5152C121.296 43.4647 121.121 43.3799 120.966 43.265C120.823 43.1588 120.704 43.0236 120.615 42.8678C120.526 42.6911 120.482 42.4945 120.486 42.296C120.469 41.9816 120.569 41.6721 120.767 41.4302C120.957 41.218 121.196 41.057 121.461 40.9615C121.753 40.86 122.056 40.796 122.362 40.7709C122.682 40.7471 122.979 40.7352 123.248 40.7352H123.529V40.6001C123.537 40.4639 123.516 40.3274 123.467 40.2005C123.418 40.0735 123.342 39.9591 123.244 39.8654C123.013 39.6893 122.728 39.602 122.44 39.6192C122.204 39.6193 121.97 39.6596 121.746 39.7383C121.522 39.8157 121.316 39.9402 121.142 40.1037L120.677 39.5755ZM122.792 41.319C122.411 41.3033 122.032 41.371 121.68 41.5176C121.553 41.5716 121.446 41.6636 121.372 41.7814C121.298 41.8992 121.261 42.0371 121.266 42.1768C121.257 42.2922 121.277 42.4081 121.326 42.5127C121.375 42.6173 121.45 42.707 121.543 42.7725C121.752 42.8985 121.992 42.9605 122.234 42.9512C122.424 42.954 122.613 42.9161 122.788 42.84C122.936 42.7721 123.069 42.6733 123.178 42.5501C123.286 42.4262 123.37 42.2819 123.423 42.1252C123.479 41.9573 123.511 41.782 123.517 41.6049V41.319H122.792Z" fill="#6D6F70"></path><path d="M127.188 44.484C127.114 44.6746 127.036 44.8454 126.958 45.0043C126.885 45.1508 126.791 45.2848 126.677 45.4014C126.567 45.5155 126.434 45.6036 126.287 45.6596C126.109 45.7238 125.922 45.7548 125.733 45.7509C125.622 45.7586 125.509 45.7586 125.398 45.7509C125.286 45.7398 125.178 45.7075 125.078 45.6556L125.168 45.0082C125.244 45.0391 125.324 45.0605 125.406 45.0718C125.484 45.0718 125.577 45.0718 125.686 45.0718C125.783 45.0802 125.879 45.0667 125.97 45.0323C126.06 44.998 126.142 44.9436 126.209 44.8732C126.337 44.7142 126.435 44.5324 126.498 44.3371L126.798 43.4991L124.969 39.0034H125.819L127.176 42.5023H127.196L128.495 39.0034H129.275L127.188 44.484Z" fill="#6D6F70"></path><path d="M132.045 36.7163H134.592C134.825 36.7171 135.058 36.7424 135.286 36.7918C135.536 36.8454 135.779 36.9267 136.012 37.034C136.259 37.1511 136.492 37.2978 136.706 37.4709C136.932 37.6539 137.129 37.8708 137.291 38.1143C137.462 38.3817 137.594 38.6734 137.681 38.98C137.879 39.7064 137.879 40.4737 137.681 41.2001C137.593 41.5076 137.462 41.8006 137.291 42.0698C137.128 42.3112 136.931 42.5267 136.706 42.7092C136.492 42.8823 136.259 43.029 136.012 43.1461C135.779 43.2534 135.536 43.3347 135.286 43.3883C135.058 43.4377 134.825 43.463 134.592 43.4638H132.045V36.7163ZM132.825 42.7211H134.331C134.688 42.7239 135.045 42.6731 135.388 42.5702C135.698 42.4738 135.985 42.3128 136.23 42.0976C136.476 41.8723 136.669 41.5924 136.792 41.2795C137.067 40.51 137.067 39.6662 136.792 38.8966C136.665 38.5926 136.473 38.3212 136.23 38.1023C135.985 37.8871 135.698 37.7262 135.388 37.6297C135.045 37.5201 134.689 37.4626 134.331 37.459H132.833L132.825 42.7211Z" fill="#6D6F70"></path><path d="M138.977 40.0596C138.977 39.857 138.977 39.6624 138.957 39.4877C138.937 39.3129 138.938 39.1501 138.938 39.0032H139.632C139.632 39.1223 139.632 39.2454 139.632 39.3646C139.632 39.4837 139.632 39.6108 139.632 39.7379H139.651C139.705 39.6228 139.776 39.5169 139.862 39.4241C139.956 39.3174 140.065 39.2251 140.186 39.1501C140.464 38.9762 140.784 38.8854 141.11 38.888H141.262C141.313 38.8956 141.363 38.9089 141.41 38.9277L141.364 39.6823C141.237 39.6423 141.106 39.6222 140.974 39.6227C140.787 39.6064 140.6 39.6386 140.429 39.7165C140.259 39.7943 140.11 39.9151 139.998 40.0675C139.777 40.4312 139.671 40.8555 139.694 41.2828V43.4552H138.965L138.977 40.0596Z" fill="#6D6F70"></path><path d="M142.166 37.2606C142.163 37.187 142.176 37.1135 142.203 37.045C142.229 36.9765 142.27 36.9147 142.323 36.8635C142.372 36.8093 142.433 36.7666 142.5 36.7385C142.567 36.7104 142.64 36.6975 142.713 36.7007C142.785 36.698 142.858 36.7111 142.925 36.7392C142.992 36.7673 143.053 36.8097 143.103 36.8635C143.154 36.9153 143.194 36.9772 143.221 37.0455C143.248 37.1139 143.261 37.1871 143.259 37.2606C143.263 37.3341 143.251 37.4075 143.225 37.4759C143.198 37.5444 143.158 37.6064 143.107 37.6578C143.056 37.71 142.995 37.7507 142.928 37.7774C142.86 37.8041 142.789 37.8161 142.716 37.8127C142.646 37.8155 142.575 37.8033 142.509 37.7769C142.443 37.7506 142.383 37.7106 142.333 37.6595C142.282 37.6084 142.243 37.5473 142.217 37.4801C142.191 37.4128 142.179 37.3408 142.182 37.2686L142.166 37.2606ZM142.334 39.0041H143.064V43.464H142.334V39.0041Z" fill="#6D6F70"></path><path d="M146.508 43.4633H145.704L143.918 39.0034H144.768L146.133 42.5023H146.153L147.456 39.0034H148.236L146.508 43.4633Z" fill="#6D6F70"></path><path d="M152.941 42.6531C152.72 42.9646 152.423 43.2122 152.079 43.3719C151.736 43.5171 151.366 43.5874 150.995 43.5785C150.677 43.5831 150.362 43.5195 150.07 43.3918C149.805 43.2777 149.567 43.107 149.372 42.8914C149.178 42.6767 149.028 42.4241 148.931 42.1487C148.827 41.8546 148.774 41.5441 148.775 41.2313C148.774 40.9084 148.83 40.5879 148.943 40.2861C149.047 40.0117 149.204 39.7615 149.405 39.5506C149.606 39.3397 149.847 39.1724 150.113 39.059C150.399 38.9441 150.703 38.8861 151.01 38.8882C151.299 38.8838 151.585 38.9378 151.853 39.047C152.104 39.1482 152.33 39.304 152.516 39.5038C152.706 39.716 152.851 39.9662 152.941 40.2385C153.044 40.5562 153.094 40.889 153.089 41.2234V41.4617H149.552C149.579 41.8388 149.735 42.1943 149.992 42.4665C150.121 42.6013 150.275 42.7084 150.445 42.7815C150.616 42.8545 150.798 42.8918 150.983 42.8914C151.262 42.9007 151.539 42.8422 151.791 42.7206C152.019 42.5956 152.219 42.4239 152.38 42.2163L152.941 42.6531ZM152.317 40.8342C152.318 40.4913 152.186 40.1618 151.95 39.9168C151.821 39.7987 151.67 39.7078 151.506 39.6492C151.342 39.5906 151.168 39.5654 150.995 39.5753C150.642 39.5511 150.293 39.6698 150.025 39.9054C149.757 40.1411 149.591 40.4748 149.563 40.8342H152.317Z" fill="#6D6F70"></path><path d="M154.223 40.0602C154.223 39.8577 154.223 39.6631 154.223 39.4883C154.223 39.3136 154.203 39.1508 154.203 39.0038H154.897C154.897 39.123 154.897 39.2461 154.897 39.3652C154.897 39.4844 154.897 39.6115 154.897 39.7385H154.917C154.971 39.6234 155.042 39.5176 155.128 39.4248C155.222 39.3181 155.331 39.2258 155.451 39.1508C155.729 38.9769 156.05 38.8861 156.376 38.8887C156.63 38.8816 156.884 38.9275 157.121 39.0237C157.32 39.1043 157.499 39.2307 157.643 39.393C157.785 39.5617 157.888 39.7595 157.948 39.9729C158.014 40.2133 158.047 40.4619 158.045 40.7115V43.4637H157.343V40.7949C157.361 40.48 157.274 40.1681 157.097 39.9093C157.006 39.7968 156.89 39.7084 156.758 39.6517C156.627 39.595 156.483 39.5716 156.341 39.5837C156.129 39.5779 155.918 39.6199 155.724 39.7068C155.558 39.7881 155.413 39.9094 155.303 40.0602C155.191 40.2253 155.109 40.4096 155.061 40.6043C155.006 40.8315 154.979 41.0652 154.983 41.2993V43.4717H154.223V40.0602Z" fill="#6D6F70"></path><path d="M160.046 42.3835C160.193 42.3848 160.333 42.4447 160.436 42.5503C160.488 42.6022 160.529 42.664 160.557 42.7322C160.585 42.8003 160.6 42.8735 160.6 42.9474C160.601 43.0226 160.585 43.097 160.555 43.1656C160.525 43.2342 160.48 43.2952 160.424 43.3446C160.374 43.3976 160.313 43.4397 160.246 43.4683C160.179 43.497 160.107 43.5116 160.034 43.5114C159.888 43.5101 159.748 43.4502 159.644 43.3446C159.59 43.2945 159.546 43.2332 159.517 43.1648C159.487 43.0963 159.472 43.0222 159.473 42.9474C159.473 42.8735 159.487 42.8003 159.516 42.7322C159.544 42.664 159.585 42.6022 159.637 42.5503C159.69 42.4956 159.754 42.4526 159.824 42.4239C159.895 42.3952 159.97 42.3815 160.046 42.3835Z" fill="#6D6F70"></path></svg> 