<?xml version="1.0" encoding="UTF-8"?> <svg xmlns="http://www.w3.org/2000/svg" width="87" height="87" viewBox="0 0 87 87" fill="none"><path d="M78.4599 79.996H8.54048C8.11394 79.9957 7.69445 79.8872 7.32124 79.6807C6.94803 79.4742 6.63331 79.1764 6.40651 78.8152C6.17972 78.4539 6.04826 78.041 6.02444 77.6152C6.00062 77.1893 6.08522 76.7643 6.27033 76.3801L40.5062 7.3476C40.7104 6.92118 41.0315 6.56156 41.4323 6.31065C41.833 6.05975 42.2968 5.92789 42.7695 5.93046C43.2435 5.92827 43.7084 6.061 44.1098 6.31314C44.5112 6.56528 44.8325 6.92643 45.0363 7.3544L80.7199 76.3631V76.3801C80.905 76.7643 80.9896 77.1893 80.9658 77.6152C80.942 78.041 80.8105 78.4539 80.5837 78.8152C80.3569 79.1764 80.0422 79.4742 79.669 79.6807C79.2958 79.8872 78.8763 79.9957 78.4497 79.996H78.4599ZM42.7763 7.42577C42.5836 7.42567 42.3948 7.48021 42.2318 7.58307C42.0688 7.68593 41.9382 7.83288 41.8554 8.0069L7.61611 77.0394C7.54117 77.1952 7.5071 77.3675 7.51711 77.5402C7.52712 77.7128 7.58087 77.8801 7.67331 78.0262C7.76576 78.1723 7.89385 78.2926 8.04555 78.3756C8.19724 78.4586 8.36756 78.5016 8.54048 78.5007H78.4599C78.6329 78.5016 78.8032 78.4586 78.9549 78.3756C79.1066 78.2926 79.2347 78.1723 79.3271 78.0262C79.4195 77.8801 79.4733 77.7128 79.4833 77.5402C79.4933 77.3675 79.4592 77.1952 79.3843 77.0394L43.7041 8.02389C43.623 7.84513 43.4919 7.69359 43.3267 7.58749C43.1616 7.48138 42.9693 7.42523 42.7729 7.42577H42.7763Z" fill="#0066A4"></path><path d="M41.3997 31.4626H44.7505C44.8882 31.4624 45.0245 31.4902 45.1512 31.5442C45.2778 31.5982 45.3922 31.6772 45.4875 31.7766C45.5828 31.876 45.6569 31.9937 45.7055 32.1225C45.7541 32.2514 45.776 32.3887 45.77 32.5263L45.1379 57.7087C45.1317 57.9807 45.0195 58.2395 44.8253 58.4299C44.631 58.6204 44.3701 58.7274 44.098 58.7282H42.6469C42.3803 58.7277 42.1241 58.6248 41.9312 58.4407C41.7383 58.2567 41.6234 58.0056 41.6104 57.7393L40.3427 32.5569C40.3353 32.4144 40.3572 32.2718 40.4072 32.1382C40.4571 32.0045 40.5341 31.8825 40.6332 31.7799C40.7324 31.6772 40.8516 31.5961 40.9834 31.5415C41.1153 31.4869 41.257 31.46 41.3997 31.4626ZM45.5186 64.978V62.8709C45.5186 62.6267 45.4215 62.3924 45.2488 62.2197C45.0761 62.047 44.8418 61.9499 44.5976 61.9499H42.5211C42.2769 61.9499 42.0426 62.047 41.8699 62.2197C41.6972 62.3924 41.6002 62.6267 41.6002 62.8709V64.9712C41.6002 65.2154 41.6972 65.4497 41.8699 65.6224C42.0426 65.7951 42.2769 65.8921 42.5211 65.8921H44.5976C44.8407 65.8921 45.0739 65.796 45.2464 65.6248C45.4189 65.4535 45.5168 65.221 45.5186 64.978Z" fill="#0066A4"></path></svg> 