<?xml version="1.0" encoding="UTF-8"?> <svg xmlns="http://www.w3.org/2000/svg" width="93" height="93" viewBox="0 0 93 93" fill="none"><path d="M23.3877 58.5608H13.5028C12.945 58.5608 12.4099 58.3392 12.0155 57.9448C11.621 57.5503 11.3994 57.0153 11.3994 56.4574V32.9095C11.3994 32.3517 11.621 31.8167 12.0155 31.4222C12.4099 31.0278 12.945 30.8062 13.5028 30.8062H23.3877C23.9453 30.8071 24.4797 31.029 24.874 31.4233C25.2682 31.8175 25.4901 32.352 25.4911 32.9095V56.4574C25.4901 57.015 25.2682 57.5494 24.874 57.9437C24.4797 58.338 23.9453 58.5599 23.3877 58.5608ZM13.5028 32.4046C13.4365 32.4046 13.3708 32.4177 13.3096 32.443C13.2483 32.4684 13.1926 32.5056 13.1458 32.5525C13.0989 32.5994 13.0617 32.655 13.0363 32.7163C13.0109 32.7776 12.9979 32.8432 12.9979 32.9095V56.4574C12.9979 56.5914 13.0511 56.7198 13.1458 56.8145C13.2405 56.9092 13.3689 56.9624 13.5028 56.9624H23.3877C23.5216 56.9624 23.6501 56.9092 23.7448 56.8145C23.8395 56.7198 23.8927 56.5914 23.8927 56.4574V32.9095C23.8927 32.7756 23.8395 32.6472 23.7448 32.5525C23.6501 32.4578 23.5216 32.4046 23.3877 32.4046H13.5028Z" fill="#0065A4"></path><path d="M41.6935 58.5611H32.0157C31.4308 58.5611 30.87 58.3288 30.4564 57.9152C30.0429 57.5017 29.8105 56.9408 29.8105 56.356V28.6521C29.8105 28.0673 30.0429 27.5064 30.4564 27.0929C30.87 26.6793 31.4308 26.447 32.0157 26.447H41.6935C42.2786 26.447 42.8399 26.6792 43.254 27.0927C43.6681 27.5061 43.9013 28.067 43.9022 28.6521V56.356C43.9013 56.9411 43.6681 57.502 43.254 57.9154C42.8399 58.3289 42.2786 58.5611 41.6935 58.5611ZM32.0157 28.0455C31.8548 28.0455 31.7005 28.1094 31.5867 28.2232C31.4729 28.3369 31.409 28.4912 31.409 28.6521V56.356C31.409 56.5169 31.4729 56.6712 31.5867 56.785C31.7005 56.8987 31.8548 56.9626 32.0157 56.9626H41.6935C41.8544 56.9626 42.0087 56.8987 42.1225 56.785C42.2362 56.6712 42.3002 56.5169 42.3002 56.356V28.6521C42.3002 28.4912 42.2362 28.3369 42.1225 28.2232C42.0087 28.1094 41.8544 28.0455 41.6935 28.0455H32.0157Z" fill="#0065A4"></path><path d="M60.4712 58.5608H50.0596C49.5714 58.5599 49.1035 58.3655 48.7583 58.0203C48.4131 57.6751 48.2187 57.2072 48.2178 56.719V42.0933C48.2187 41.6051 48.4131 41.1372 48.7583 40.792C49.1035 40.4468 49.5714 40.2524 50.0596 40.2515H60.4712C60.9591 40.2524 61.4267 40.4469 61.7713 40.7922C62.1159 41.1375 62.3095 41.6054 62.3095 42.0933V56.719C62.3095 57.2069 62.1159 57.6748 61.7713 58.0201C61.4267 58.3654 60.9591 58.5599 60.4712 58.5608ZM50.0596 41.8499C50.0278 41.8499 49.9963 41.8562 49.967 41.8685C49.9377 41.8808 49.9111 41.8988 49.8888 41.9214C49.8665 41.9441 49.8489 41.9709 49.837 42.0004C49.8252 42.0299 49.8194 42.0615 49.8198 42.0933V56.719C49.8194 56.7508 49.8252 56.7824 49.837 56.8119C49.8489 56.8414 49.8665 56.8682 49.8888 56.8909C49.9111 56.9135 49.9377 56.9315 49.967 56.9438C49.9963 56.9561 50.0278 56.9624 50.0596 56.9624H60.4712C60.5352 56.9614 60.5961 56.9354 60.641 56.8898C60.6859 56.8443 60.711 56.7829 60.711 56.719V42.0933C60.711 42.0294 60.6859 41.968 60.641 41.9225C60.5961 41.8769 60.5352 41.8509 60.4712 41.8499H50.0596Z" fill="#0065A4"></path><path d="M78.7407 58.5608H68.6088C68.0837 58.5608 67.5801 58.3522 67.2088 57.9809C66.8375 57.6096 66.6289 57.1061 66.6289 56.581V37.5087C66.6289 36.9836 66.8375 36.48 67.2088 36.1087C67.5801 35.7374 68.0837 35.5288 68.6088 35.5288H78.7407C79.2658 35.5288 79.7694 35.7374 80.1407 36.1087C80.512 36.48 80.7206 36.9836 80.7206 37.5087V56.581C80.7206 57.1061 80.512 57.6096 80.1407 57.9809C79.7694 58.3522 79.2658 58.5608 78.7407 58.5608ZM68.6088 37.1272C68.5596 37.1248 68.5104 37.1324 68.4642 37.1495C68.418 37.1667 68.3758 37.193 68.3401 37.227C68.3044 37.261 68.276 37.3019 68.2566 37.3472C68.2372 37.3925 68.2273 37.4413 68.2273 37.4905V56.5628C68.2247 56.6136 68.2328 56.6643 68.2511 56.7118C68.2693 56.7593 68.2973 56.8024 68.3333 56.8383C68.3692 56.8743 68.4123 56.9023 68.4598 56.9205C68.5072 56.9388 68.558 56.9468 68.6088 56.9442H78.7407C78.7915 56.9468 78.8422 56.9388 78.8897 56.9205C78.9372 56.9023 78.9803 56.8743 79.0162 56.8383C79.0522 56.8024 79.0802 56.7593 79.0984 56.7118C79.1167 56.6643 79.1248 56.6136 79.1221 56.5628V37.4905C79.1222 37.4413 79.1122 37.3925 79.0929 37.3472C79.0735 37.3019 79.0451 37.261 79.0094 37.227C78.9737 37.193 78.9315 37.1667 78.8853 37.1495C78.8391 37.1324 78.7899 37.1248 78.7407 37.1272H68.6088Z" fill="#0065A4"></path><path d="M79.49 70.1861H13.5108C11.6432 70.1842 9.85266 69.4414 8.53207 68.1208C7.21147 66.8002 6.46872 65.0097 6.4668 63.1421V13.5106C6.46872 11.643 7.21147 9.85242 8.53207 8.53182C9.85266 7.21123 11.6432 6.46848 13.5108 6.46655H79.49C81.3576 6.46848 83.1481 7.21123 84.4687 8.53182C85.7893 9.85242 86.5321 11.643 86.534 13.5106V63.1421C86.5321 65.0097 85.7893 66.8002 84.4687 68.1208C83.1481 69.4414 81.3576 70.1842 79.49 70.1861ZM13.5108 8.06499C12.0656 8.06499 10.6796 8.6391 9.65764 9.66103C8.63571 10.683 8.0616 12.069 8.0616 13.5142V63.1421C8.0616 64.5873 8.63571 65.9733 9.65764 66.9952C10.6796 68.0172 12.0656 68.5913 13.5108 68.5913H79.49C80.9352 68.5913 82.3212 68.0172 83.3431 66.9952C84.3651 65.9733 84.9392 64.5873 84.9392 63.1421V13.5106C84.9392 12.0654 84.3651 10.6793 83.3431 9.6574C82.3212 8.63547 80.9352 8.06136 79.49 8.06136L13.5108 8.06499Z" fill="#0065A4"></path><path d="M85.7348 62.3755H7.26602C7.16094 62.376 7.05679 62.3557 6.95961 62.3157C6.86243 62.2757 6.77413 62.2168 6.69982 62.1425C6.62551 62.0682 6.56666 61.9799 6.52666 61.8827C6.48667 61.7856 6.46632 61.6814 6.46681 61.5763V13.0783C6.46537 12.2096 6.63541 11.3492 6.96717 10.5464C7.29893 9.74357 7.78589 9.01413 8.40013 8.39989C9.01437 7.78565 9.74381 7.29869 10.5466 6.96693C11.3495 6.63516 12.2099 6.46513 13.0785 6.46656H79.9586C81.7067 6.47329 83.3808 7.1732 84.6135 8.41272C85.8462 9.65225 86.5369 11.3301 86.534 13.0783V61.5763C86.5345 61.6814 86.5141 61.7856 86.4741 61.8827C86.4341 61.9799 86.3753 62.0682 86.301 62.1425C86.2267 62.2168 86.1384 62.2757 86.0412 62.3157C85.944 62.3557 85.8399 62.376 85.7348 62.3755ZM8.06524 60.7771H84.9356V13.0783C84.937 12.4211 84.8089 11.77 84.5586 11.1623C84.3083 10.5546 83.9407 10.0022 83.4768 9.53658C83.0129 9.07101 82.4618 8.70141 81.855 8.44891C81.2483 8.19641 80.5977 8.06595 79.9404 8.065H13.0785C12.4198 8.06356 11.7672 8.19225 11.1583 8.44369C10.5494 8.69512 9.99621 9.06434 9.5304 9.53015C9.06458 9.99596 8.69536 10.5492 8.44393 11.1581C8.1925 11.767 8.06381 12.4195 8.06524 13.0783V60.7771Z" fill="#0065A4"></path><path d="M64.9804 86.3156H28.0202C27.8646 86.3164 27.7121 86.2717 27.5815 86.1871C27.4509 86.1025 27.3478 85.9816 27.2849 85.8393C27.2221 85.6969 27.2021 85.5393 27.2275 85.3858C27.2529 85.2323 27.3226 85.0895 27.428 84.975C29.7651 82.4069 31.8344 79.6073 33.6038 76.6196C34.9041 74.4178 36.0371 72.1215 36.9932 69.7499C37.0326 69.6526 37.0907 69.564 37.1643 69.4891C37.2379 69.4143 37.3255 69.3547 37.4222 69.3137C37.5188 69.2727 37.6226 69.2512 37.7276 69.2503C37.8326 69.2494 37.9367 69.2692 38.034 69.3086C38.1313 69.3479 38.2199 69.4061 38.2948 69.4797C38.3697 69.5533 38.4293 69.6409 38.4703 69.7375C38.5112 69.8342 38.5328 69.938 38.5337 70.0429C38.5346 70.1479 38.5148 70.252 38.4754 70.3494C37.4915 72.7887 36.3258 75.1506 34.9879 77.4152C33.466 79.9915 31.7268 82.4331 29.7893 84.7135H63.2112C59.5602 80.4272 56.6259 75.5791 54.5215 70.3566C54.4822 70.2593 54.4624 70.1552 54.4633 70.0502C54.4641 69.9452 54.4857 69.8415 54.5267 69.7448C54.5677 69.6482 54.6273 69.5605 54.7021 69.4869C54.777 69.4133 54.8656 69.3552 54.9629 69.3158C55.0602 69.2765 55.1644 69.2567 55.2693 69.2575C55.3743 69.2584 55.4781 69.28 55.5747 69.321C55.6714 69.3619 55.759 69.4216 55.8326 69.4964C55.9062 69.5713 55.9644 69.6599 56.0037 69.7572C58.2619 75.3582 61.501 80.5115 65.5689 84.975C65.6743 85.0895 65.744 85.2323 65.7694 85.3858C65.7948 85.5393 65.7749 85.6969 65.712 85.8393C65.6491 85.9816 65.546 86.1025 65.4154 86.1871C65.2848 86.2717 65.1324 86.3164 64.9768 86.3156H64.9804Z" fill="#0065A4"></path><path d="M55.9451 30.5881C55.7625 30.5883 55.5854 30.5254 55.4438 30.4101L36.8983 15.432L19.5153 21.4624C19.4161 21.4968 19.311 21.5113 19.2062 21.505C19.1014 21.4988 18.9988 21.472 18.9044 21.4261C18.7136 21.3334 18.5675 21.1688 18.4981 20.9684C18.4287 20.768 18.4418 20.5482 18.5345 20.3575C18.6271 20.1667 18.7918 20.0206 18.9922 19.9512L36.7929 13.7754C36.921 13.7306 37.0584 13.7194 37.1919 13.743C37.3255 13.7665 37.4508 13.824 37.5558 13.9098L56.1231 28.9061L74.6141 23.5695C74.8138 23.5248 75.023 23.558 75.1989 23.6624C75.3749 23.7667 75.5044 23.9343 75.561 24.1309C75.6175 24.3276 75.5969 24.5383 75.5033 24.7203C75.4097 24.9022 75.2502 25.0415 75.0573 25.1098L56.1667 30.559C56.0943 30.5776 56.0199 30.5874 55.9451 30.5881Z" fill="#0065A4"></path><path d="M19.1088 23.1736C20.6537 23.1736 21.9061 21.9213 21.9061 20.3764C21.9061 18.8315 20.6537 17.5791 19.1088 17.5791C17.5639 17.5791 16.3115 18.8315 16.3115 20.3764C16.3115 21.9213 17.5639 23.1736 19.1088 23.1736Z" fill="#0065A4"></path><path d="M36.9096 17.3611C38.4545 17.3611 39.7068 16.1088 39.7068 14.5639C39.7068 13.019 38.4545 11.7666 36.9096 11.7666C35.3647 11.7666 34.1123 13.019 34.1123 14.5639C34.1123 16.1088 35.3647 17.3611 36.9096 17.3611Z" fill="#0065A4"></path><path d="M55.4369 32.6189C56.9818 32.6189 58.2342 31.3666 58.2342 29.8217C58.2342 28.2768 56.9818 27.0244 55.4369 27.0244C53.892 27.0244 52.6396 28.2768 52.6396 29.8217C52.6396 31.3666 53.892 32.6189 55.4369 32.6189Z" fill="#0065A4"></path><path d="M74.6908 27.1697C76.2357 27.1697 77.4881 25.9173 77.4881 24.3725C77.4881 22.8276 76.2357 21.5752 74.6908 21.5752C73.1459 21.5752 71.8936 22.8276 71.8936 24.3725C71.8936 25.9173 73.1459 27.1697 74.6908 27.1697Z" fill="#0065A4"></path></svg> 