<?xml version="1.0" encoding="UTF-8"?> <svg xmlns="http://www.w3.org/2000/svg" width="90" height="90" viewBox="0 0 90 90" fill="none"><path d="M71.3673 69.7746H71.3216C71.1133 69.763 70.9097 69.7086 70.7234 69.6148C70.5371 69.5211 70.3722 69.39 70.2388 69.2296L59.3614 56.9812L59.3368 56.9496C59.141 56.7123 59.022 56.4209 58.9958 56.1144C58.9695 55.8078 59.0372 55.5005 59.1899 55.2334C59.3425 54.9662 59.5729 54.7519 59.8503 54.6188C60.1278 54.4858 60.4392 54.4404 60.7431 54.4886L65.2009 54.9949V7.62534C65.2009 7.22348 65.3605 6.83807 65.6447 6.55391C65.9288 6.26975 66.3142 6.11011 66.7161 6.11011H76.029C76.4312 6.11011 76.8169 6.26963 77.1017 6.5537C77.3864 6.83776 77.5468 7.22315 77.5477 7.62534V55.0406L82.9196 54.4921C83.2209 54.4519 83.5274 54.503 83.7994 54.6388C84.0713 54.7746 84.2963 54.9889 84.4451 55.254C84.5939 55.5191 84.6598 55.8227 84.6341 56.1256C84.6085 56.4286 84.4925 56.7168 84.3012 56.9531C84.2876 56.9731 84.271 56.9909 84.252 57.0058L72.4852 69.2578C72.354 69.4125 72.1931 69.5392 72.0119 69.6304C71.8307 69.7216 71.633 69.7754 71.4305 69.7886L71.3673 69.7746ZM60.6024 56.039L71.3673 68.1644L83.0286 56.039L77.6954 56.5453C77.4815 56.5727 77.2643 56.5543 77.058 56.4913C76.8518 56.4282 76.6614 56.322 76.4994 56.1797C76.3375 56.0373 76.2077 55.8621 76.1187 55.6657C76.0297 55.4693 75.9835 55.2562 75.9833 55.0406V7.65698H66.7442V55.0406C66.7444 55.2578 66.6979 55.4725 66.6078 55.6701C66.5177 55.8678 66.3862 56.0438 66.2222 56.1861C66.0581 56.3285 65.8654 56.4339 65.657 56.4953C65.4487 56.5567 65.2296 56.5725 65.0145 56.5418L60.6024 56.039Z" fill="#0066A4"></path><path d="M17.7047 56.0636H17.659C17.4507 56.052 17.2471 55.9976 17.0608 55.9039C16.8745 55.8101 16.7096 55.679 16.5762 55.5187L5.69881 43.2668L5.67421 43.2351C5.47836 42.9978 5.35941 42.7065 5.33316 42.3999C5.30691 42.0933 5.37462 41.786 5.52728 41.5189C5.67994 41.2517 5.91031 41.0374 6.18775 40.9044C6.4652 40.7713 6.77657 40.7259 7.08046 40.7742L11.5383 41.2804V7.62534C11.5383 7.22348 11.6979 6.83807 11.9821 6.55391C12.2662 6.26975 12.6516 6.11011 13.0535 6.11011H22.3594C22.7615 6.11011 23.1473 6.26963 23.432 6.5537C23.7168 6.83776 23.8772 7.22315 23.8781 7.62534V41.3296L29.2535 40.7812C29.5548 40.7409 29.8613 40.792 30.1333 40.9278C30.4052 41.0637 30.6302 41.278 30.779 41.5431C30.9278 41.8081 30.9937 42.1118 30.968 42.4147C30.9424 42.7176 30.8264 43.0059 30.6351 43.2421C30.6206 43.2614 30.6041 43.279 30.5859 43.2949L18.8191 55.5468C18.6879 55.7015 18.527 55.8283 18.3458 55.9195C18.1646 56.0107 17.9669 56.0645 17.7644 56.0777L17.7047 56.0636ZM6.93632 42.3281L17.7047 54.4535L29.3625 42.3281L24.0398 42.8343C23.826 42.8618 23.6087 42.8434 23.4025 42.7803C23.1963 42.7173 23.0058 42.6111 22.8439 42.4687C22.6819 42.3264 22.5521 42.1512 22.4631 41.9548C22.3741 41.7584 22.328 41.5453 22.3277 41.3296V7.65698H13.0781V41.3296C13.0778 41.547 13.0308 41.7618 12.9403 41.9594C12.8498 42.1571 12.718 42.333 12.5537 42.4753C12.3894 42.6176 12.1964 42.723 11.9879 42.7843C11.7794 42.8456 11.5601 42.8615 11.3449 42.8308L6.93632 42.3281Z" fill="#0066A4"></path><path d="M44.5572 83.5312H44.5115C44.3037 83.5199 44.1005 83.4657 43.9147 83.3719C43.7289 83.2781 43.5647 83.1468 43.4322 82.9863L32.5514 70.7343L32.5267 70.7027C32.3309 70.4654 32.2119 70.174 32.1857 69.8675C32.1595 69.5609 32.2272 69.2536 32.3798 68.9865C32.5325 68.7193 32.7628 68.505 33.0403 68.3719C33.3177 68.2389 33.6291 68.1935 33.933 68.2417L38.3908 68.748V7.62534C38.3917 7.22315 38.5522 6.83776 38.8369 6.5537C39.1216 6.26963 39.5074 6.11011 39.9096 6.11011H49.2189C49.6211 6.11011 50.0069 6.26963 50.2916 6.5537C50.5763 6.83776 50.7368 7.22315 50.7377 7.62534V68.7972L56.1131 68.2523C56.415 68.2101 56.7225 68.26 56.9956 68.3954C57.2687 68.5308 57.4946 68.7454 57.6439 69.0112C57.7931 69.277 57.8587 69.5816 57.8321 69.8852C57.8055 70.1889 57.6879 70.4774 57.4947 70.7132C57.4813 70.7323 57.466 70.7499 57.449 70.766L45.6787 83.0074C45.5478 83.1624 45.3869 83.2893 45.2056 83.3806C45.0244 83.4718 44.8265 83.5254 44.624 83.5382L44.5572 83.5312ZM33.7889 69.7956L44.5572 81.914L56.2185 69.7886L50.8924 70.3124C50.6788 70.3394 50.4619 70.3205 50.2561 70.2573C50.0503 70.194 49.8603 70.0877 49.6988 69.9454C49.5372 69.8031 49.4077 69.6281 49.3189 69.4319C49.2302 69.2358 49.1841 69.023 49.1838 68.8078V7.65698H39.9307V68.7972C39.9314 69.0146 39.8853 69.2296 39.7954 69.4275C39.7055 69.6255 39.574 69.8017 39.4098 69.9442C39.2456 70.0866 39.0527 70.192 38.844 70.2532C38.6354 70.3143 38.4161 70.3297 38.201 70.2984L33.7889 69.7956Z" fill="#0066A4"></path></svg> 