<?xml version="1.0" encoding="UTF-8"?> <svg xmlns="http://www.w3.org/2000/svg" width="100" height="100" viewBox="0 0 100 100" fill="none"><path d="M38.8125 63.1133C38.8125 63.2898 38.8823 63.4591 39.0068 63.5842C39.1312 63.7094 39.3001 63.7802 39.4766 63.7812H60.7227C60.8905 63.7684 61.0473 63.6926 61.1617 63.5691C61.276 63.4457 61.3396 63.2835 61.3396 63.1152C61.3396 62.9469 61.276 62.7848 61.1617 62.6613C61.0473 62.5378 60.8905 62.4621 60.7227 62.4492H39.4766C39.3004 62.4492 39.1315 62.5192 39.007 62.6437C38.8825 62.7683 38.8125 62.9372 38.8125 63.1133Z" fill="#0066A4"></path><path d="M87.0117 48.8516C87.0117 39.0354 83.1123 29.6214 76.1712 22.6803C69.2302 15.7393 59.8161 11.8398 50 11.8398C40.1839 11.8398 30.7698 15.7393 23.8288 22.6803C16.8877 29.6214 12.9883 39.0354 12.9883 48.8516C12.9883 49.0664 13.0156 49.2695 13.0195 49.4805C13.0178 49.496 13.0178 49.5118 13.0195 49.5273C13.0173 49.552 13.0173 49.5769 13.0195 49.6016C13.1429 55.914 14.892 62.088 18.0977 67.5273L18.707 68.5313C18.7305 68.5703 25.8945 64.4141 25.8945 64.4141C25.9813 64.3768 26.0591 64.3214 26.1227 64.2516C26.1863 64.1819 26.2344 64.0993 26.2636 64.0095C26.2928 63.9198 26.3025 63.8248 26.2921 63.7309C26.2817 63.6371 26.2515 63.5465 26.2033 63.4653C26.1551 63.3841 26.0902 63.3141 26.0128 63.2599C25.9354 63.2058 25.8474 63.1688 25.7546 63.1514C25.6618 63.134 25.5664 63.1365 25.4746 63.1589C25.3829 63.1813 25.297 63.223 25.2227 63.2813L19.2031 66.7969C16.2507 61.7474 14.5959 56.0448 14.3867 50.1992H21.6797C21.8475 50.1864 22.0043 50.1106 22.1187 49.9871C22.2331 49.8636 22.2966 49.7015 22.2966 49.5332C22.2966 49.3649 22.2331 49.2028 22.1187 49.0793C22.0043 48.9558 21.8475 48.8801 21.6797 48.8672H14.3164C14.3213 43.3594 15.6121 37.9288 18.0859 33.0078L24.7812 36.6328C24.8582 36.6746 24.9426 36.7009 25.0297 36.71C25.1168 36.7192 25.2048 36.7112 25.2888 36.6863C25.3728 36.6615 25.451 36.6203 25.5191 36.5652C25.5872 36.5101 25.6437 36.4422 25.6855 36.3652C25.7274 36.2883 25.7536 36.2039 25.7628 36.1168C25.772 36.0297 25.7639 35.9416 25.739 35.8577C25.7142 35.7737 25.6731 35.6954 25.618 35.6274C25.5629 35.5593 25.4949 35.5027 25.418 35.4609L18.668 31.793C21.5332 26.5786 25.6468 22.1562 30.6406 18.9219L34.7344 25.6563C34.7931 25.754 34.8761 25.8349 34.9754 25.891C35.0746 25.9472 35.1867 25.9766 35.3008 25.9766C35.4188 25.9761 35.5346 25.9445 35.6364 25.8847C35.7382 25.825 35.8223 25.7394 35.8803 25.6366C35.9382 25.5338 35.9679 25.4175 35.9663 25.2995C35.9647 25.1815 35.9318 25.066 35.8711 24.9648L31.7773 18.2305C37.0956 15.0448 43.157 13.3113 49.3555 13.2031V21.1914C49.3555 21.3675 49.4254 21.5364 49.55 21.661C49.6745 21.7855 49.8434 21.8555 50.0195 21.8555C50.1957 21.8555 50.3646 21.7855 50.4891 21.661C50.6136 21.5364 50.6836 21.3675 50.6836 21.1914V13.2031C56.3631 13.2953 61.9374 14.7501 66.9375 17.4453L63.1133 24.3867C63.0293 24.5413 63.0097 24.7227 63.0587 24.8917C63.1077 25.0606 63.2214 25.2034 63.375 25.2891C63.464 25.347 63.566 25.3819 63.6719 25.3906C63.7908 25.3907 63.9075 25.3588 64.0099 25.2984C64.1123 25.2379 64.1966 25.151 64.2539 25.0469L68.0547 18.1484C73.2728 21.2312 77.6266 25.5836 80.7109 30.8008L74.1211 34.6602C73.9946 34.7336 73.896 34.8467 73.8404 34.982C73.7848 35.1173 73.7754 35.2671 73.8137 35.4083C73.852 35.5494 73.9358 35.6739 74.0522 35.7626C74.1685 35.8512 74.3108 35.899 74.457 35.8984C74.5749 35.8978 74.6905 35.8668 74.793 35.8086L81.3984 31.9414C84.2185 37.1387 85.6955 42.9581 85.6953 48.8711H78.3438C78.1759 48.884 78.0191 48.9597 77.9048 49.0832C77.7904 49.2067 77.7268 49.3688 77.7268 49.5371C77.7268 49.7054 77.7904 49.8675 77.9048 49.991C78.0191 50.1145 78.1759 50.1903 78.3438 50.2031H85.6133C85.4289 55.6517 83.9891 60.9842 81.4062 65.7852L75.2422 62.4453C75.1652 62.4038 75.0809 62.3778 74.9939 62.3688C74.9069 62.3599 74.819 62.3682 74.7352 62.3932C74.6514 62.4182 74.5734 62.4595 74.5055 62.5147C74.4377 62.5699 74.3814 62.6379 74.3398 62.7149C74.2983 62.7918 74.2723 62.8762 74.2634 62.9632C74.2544 63.0502 74.2627 63.1381 74.2877 63.2218C74.3128 63.3056 74.354 63.3837 74.4092 63.4515C74.4644 63.5193 74.5324 63.5756 74.6094 63.6172C74.6094 63.6172 81.9492 67.5234 81.9609 67.5234L82.5273 66.5313C85.3197 61.3795 86.8424 55.6358 86.9688 49.7773C86.995 49.7059 87.0095 49.6307 87.0117 49.5547C87.0087 49.5081 86.9995 49.4621 86.9844 49.418C86.9883 49.2188 87.0117 49.0352 87.0117 48.8516Z" fill="#0066A4"></path><path d="M50 93.211C41.4537 93.211 33.0993 90.6767 25.9933 85.9286C18.8873 81.1805 13.3489 74.4319 10.0783 66.5361C6.80778 58.6404 5.95206 49.9521 7.61937 41.57C9.28667 33.1879 13.4021 25.4884 19.4453 19.4453C25.4884 13.4021 33.1879 9.28667 41.57 7.61937C49.9521 5.95206 58.6404 6.80778 66.5361 10.0783C74.4319 13.3489 81.1805 18.8873 85.9286 25.9933C90.6767 33.0993 93.211 41.4537 93.211 50C93.1986 61.4565 88.642 72.4401 80.5411 80.5411C72.4401 88.642 61.4565 93.1986 50 93.211ZM50 8.50783C41.7936 8.50783 33.7716 10.9413 26.9482 15.5005C20.1248 20.0597 14.8067 26.5399 11.6662 34.1216C8.52579 41.7034 7.70411 50.0461 9.30509 58.0948C10.9061 66.1434 14.8578 73.5367 20.6606 79.3394C26.4634 85.1422 33.8566 89.094 41.9053 90.695C49.954 92.296 58.2967 91.4743 65.8784 88.3338C73.4601 85.1934 79.9403 79.8752 84.4995 73.0519C89.0587 66.2285 91.4922 58.2064 91.4922 50C91.4798 38.9994 87.1043 28.4529 79.3257 20.6743C71.5471 12.8957 61.0006 8.52024 50 8.50783Z" fill="#0066A4"></path><path d="M50 53.0078C51.6612 53.0078 53.0078 51.6612 53.0078 50C53.0078 48.3388 51.6612 46.9922 50 46.9922C48.3388 46.9922 46.9922 48.3388 46.9922 50C46.9922 51.6612 48.3388 53.0078 50 53.0078Z" fill="#0066A4"></path><path d="M50.0001 50.8593C49.8447 50.8597 49.6921 50.8179 49.5587 50.7382L30.3087 39.1991C30.212 39.1409 30.1277 39.0642 30.0607 38.9734C29.9936 38.8826 29.9451 38.7795 29.9179 38.6699C29.8907 38.5604 29.8854 38.4466 29.9021 38.3349C29.9189 38.2233 29.9575 38.1161 30.0158 38.0194C30.074 37.9227 30.1507 37.8384 30.2415 37.7714C30.3323 37.7043 30.4354 37.6558 30.5449 37.6286C30.6545 37.6014 30.7683 37.596 30.8799 37.6128C30.9915 37.6296 31.0987 37.6682 31.1954 37.7264L50.4415 49.2616C50.6033 49.358 50.7289 49.5048 50.7991 49.6796C50.8693 49.8543 50.8802 50.0472 50.83 50.2287C50.7799 50.4102 50.6715 50.5703 50.5216 50.6842C50.3716 50.7981 50.1884 50.8596 50.0001 50.8593Z" fill="#0066A4"></path></svg> 