<?xml version="1.0" encoding="UTF-8"?> <svg xmlns="http://www.w3.org/2000/svg" width="90" height="90" viewBox="0 0 90 90" fill="none"><path d="M37.5542 82.5961C37.4848 82.595 37.4161 82.5831 37.3503 82.5609C37.2023 82.5056 37.0822 82.3939 37.0163 82.2503C36.9505 82.1067 36.9441 81.9428 36.9988 81.7945C37.7338 79.7383 37.7338 77.491 36.9988 75.4348C36.9724 75.3611 36.9609 75.283 36.9647 75.2049C36.9686 75.1268 36.9878 75.0503 37.0213 74.9796C37.0889 74.8368 37.2104 74.7268 37.3591 74.6736C37.5078 74.6205 37.6716 74.6286 37.8143 74.6962C37.957 74.7638 38.0671 74.8853 38.1202 75.034C38.9563 77.3491 38.9563 79.8837 38.1202 82.1988C38.0787 82.3156 38.0019 82.4165 37.9005 82.4876C37.7991 82.5588 37.6781 82.5967 37.5542 82.5961Z" fill="#0066A4"></path><path d="M52.4743 82.4977C52.3595 82.4989 52.2469 82.4661 52.1506 82.4036C52.0543 82.3411 51.9786 82.2515 51.9329 82.1461C51.5283 81.1633 51.2976 80.1177 51.2509 79.0559C51.1965 77.7407 51.4293 76.4295 51.9329 75.2133C51.9917 75.0697 52.1051 74.9554 52.2481 74.8954C52.3912 74.8354 52.5522 74.8347 52.6958 74.8934C52.8394 74.9521 52.9538 75.0655 53.0138 75.2086C53.0738 75.3517 53.0745 75.5127 53.0157 75.6563C52.2145 77.5923 52.2145 79.7672 53.0157 81.7032C53.045 81.7742 53.06 81.8504 53.0597 81.9273C53.0595 82.0041 53.044 82.0802 53.0143 82.1511C52.9846 82.222 52.9411 82.2863 52.8865 82.3403C52.8318 82.3944 52.767 82.4371 52.6958 82.4661C52.6245 82.49 52.5495 82.5007 52.4743 82.4977Z" fill="#0066A4"></path><path d="M45.0003 42.0822C41.3341 42.0829 37.75 40.9963 34.7015 38.9598C31.6529 36.9233 29.2767 34.0285 27.8736 30.6414C26.4704 27.2544 26.1033 23.5272 26.8186 19.9315C27.534 16.3358 29.2996 13.0329 31.8922 10.4408C34.4849 7.84864 37.7881 6.08361 41.3839 5.36897C44.9798 4.65433 48.7068 5.02217 52.0936 6.42596C55.4804 7.82976 58.3748 10.2065 60.4107 13.2554C62.4466 16.3044 63.5326 19.8886 63.5312 23.5548C63.5237 28.4669 61.5689 33.1756 58.0952 36.6487C54.6215 40.1217 49.9124 42.0757 45.0003 42.0822ZM45.0003 6.57437C41.64 6.57368 38.3551 7.56956 35.5609 9.43606C32.7667 11.3026 30.5888 13.9558 29.3027 17.0602C28.0166 20.1646 27.6801 23.5807 28.3358 26.8764C28.9914 30.1721 30.6097 33.1993 32.9861 35.5751C35.3624 37.9509 38.3899 39.5686 41.6857 40.2236C44.9815 40.8785 48.3975 40.5413 51.5017 39.2546C54.6058 37.9679 57.2586 35.7895 59.1246 32.9949C60.9905 30.2003 61.9857 26.9151 61.9843 23.5548C61.9806 19.0506 60.1903 14.7317 57.0063 11.5457C53.8223 8.35974 49.5046 6.56683 45.0003 6.56031V6.57437Z" fill="#0066A4"></path><path d="M29.8266 20.5664C29.059 20.5682 28.2922 20.52 27.5309 20.4222C27.3271 20.3952 27.1425 20.2883 27.0175 20.1252C26.8926 19.962 26.8376 19.7558 26.8646 19.5521C26.8917 19.3484 26.9986 19.1637 27.1617 19.0388C27.3249 18.9139 27.531 18.8589 27.7348 18.8859C38.9848 20.373 54.9105 8.76442 55.0723 8.64489C55.1542 8.58464 55.2472 8.54112 55.346 8.51682C55.4448 8.49252 55.5473 8.4879 55.6479 8.50325C55.7484 8.51859 55.845 8.55359 55.932 8.60624C56.019 8.6589 56.0948 8.72818 56.1551 8.81012C56.2153 8.89207 56.2588 8.98508 56.2831 9.08385C56.3074 9.18262 56.3121 9.2852 56.2967 9.38575C56.2814 9.4863 56.2464 9.58284 56.1937 9.66986C56.1411 9.75689 56.0718 9.83269 55.9898 9.89294C55.3605 10.357 41.3367 20.5664 29.8266 20.5664Z" fill="#0066A4"></path><path d="M45.0002 59.7656C38.8779 59.7702 32.9979 62.1584 28.6063 66.424C24.2146 70.6897 21.6564 76.4976 21.4736 82.6172H24.5885C24.7589 77.3172 26.9841 72.2914 30.7934 68.6025C34.6027 64.9137 39.6975 62.8512 45.0002 62.8512C50.3029 62.8512 55.3977 64.9137 59.207 68.6025C63.0163 72.2914 65.2415 77.3172 65.4119 82.6172H68.5268C68.344 76.4976 65.7858 70.6897 61.3941 66.424C57.0024 62.1584 51.1225 59.7702 45.0002 59.7656Z" fill="#0066A4"></path><path d="M55.9336 72.8437C55.7753 72.843 55.6237 72.7798 55.5117 72.6679C52.9285 70.0794 49.4926 68.5177 45.8438 68.2734C39.7266 67.9219 35.6063 71.55 34.4883 72.6679C34.3763 72.7796 34.2246 72.8423 34.0664 72.8423C33.9083 72.8423 33.7566 72.7796 33.6446 72.6679C33.5884 72.613 33.5438 72.5473 33.5134 72.4749C33.483 72.4024 33.4673 72.3247 33.4673 72.2461C33.4673 72.1675 33.483 72.0897 33.5134 72.0173C33.5438 71.9448 33.5884 71.8792 33.6446 71.8242C34.8469 70.6148 39.2907 66.7019 45.9141 67.0781C49.8556 67.3432 53.5669 69.0296 56.359 71.8242C56.4425 71.908 56.4993 72.0147 56.5221 72.1307C56.5449 72.2468 56.5328 72.367 56.4873 72.4762C56.4417 72.5854 56.3648 72.6786 56.2662 72.744C56.1677 72.8094 56.0519 72.8441 55.9336 72.8437Z" fill="#0066A4"></path><path d="M81.3867 82.7542H8.43751C8.33581 82.7546 8.23502 82.735 8.14098 82.6962C8.04693 82.6575 7.96148 82.6006 7.88957 82.5287C7.81765 82.4568 7.7607 82.3713 7.722 82.2773C7.68329 82.1832 7.66361 82.0824 7.66407 81.9807V70.5725C7.66407 62.8382 10.7402 55.6768 15.8906 51.3702L16.0313 51.2542C20.2 47.745 25.4887 45.8466 30.9375 45.9034C31.7313 45.8997 32.5112 46.1111 33.1945 46.5151C36.7716 48.6238 40.8501 49.7312 45.0024 49.7213C49.1548 49.7114 53.2279 48.5845 56.7949 46.4589C57.4173 46.0933 58.1263 45.9015 58.8481 45.9034H58.8691C64.3192 45.8454 69.6094 47.7439 73.7789 51.2542L73.9195 51.3702C79.0699 55.6768 82.1461 62.8557 82.1461 70.5725V81.9807C82.147 82.1837 82.0678 82.3789 81.9256 82.5237C81.7834 82.6686 81.5897 82.7514 81.3867 82.7542ZM9.21095 81.2108H80.6133V70.5725C80.6133 63.3057 77.7445 56.5733 72.9422 52.5585L72.8086 52.4495C68.92 49.1742 63.9846 47.4039 58.9008 47.4608C58.4489 47.458 58.0049 47.5796 57.6176 47.8124C53.8114 50.0802 49.4652 51.2825 45.0346 51.293C40.604 51.3035 36.2521 50.1219 32.4352 47.8721C31.9882 47.6034 31.4766 47.4612 30.9551 47.4608C25.8611 47.4007 20.9148 49.1709 17.0156 52.4495L16.882 52.5585C12.0797 56.5733 9.21095 63.3057 9.21095 70.5725V81.2108Z" fill="#0066A4"></path><path d="M31.6404 47.461C31.5341 47.4616 31.4288 47.4401 31.3314 47.3977C31.2339 47.3553 31.1464 47.293 31.0744 47.2149C31.0051 47.1405 30.9511 47.0533 30.9156 46.9581C30.88 46.8629 30.8636 46.7617 30.8672 46.6602C30.8708 46.5586 30.8943 46.4588 30.9365 46.3664C30.9787 46.2739 31.0387 46.1907 31.113 46.1215C31.1482 46.0863 33.5107 43.8047 34.4458 39.2309C34.4662 39.1312 34.5059 39.0364 34.5628 38.9521C34.6198 38.8677 34.6928 38.7954 34.7776 38.7392C34.8625 38.6831 34.9576 38.6442 35.0575 38.6248C35.1574 38.6054 35.2602 38.6059 35.3599 38.6262C35.4596 38.6465 35.5544 38.6863 35.6387 38.7432C35.7231 38.8001 35.7954 38.8731 35.8516 38.958C35.9077 39.0429 35.9466 39.138 35.966 39.2379C35.9854 39.3378 35.9849 39.4405 35.9646 39.5403C34.9099 44.6449 32.2802 47.1481 32.1677 47.2535C32.0253 47.3881 31.8363 47.4624 31.6404 47.461Z" fill="#0066A4"></path><path d="M57.705 47.461C57.5094 47.461 57.3209 47.3869 57.1777 47.2535C57.0652 47.1481 54.425 44.6449 53.3808 39.5403C53.3398 39.3389 53.3805 39.1294 53.4939 38.958C53.6073 38.7866 53.7841 38.6672 53.9855 38.6262C54.1869 38.5852 54.3964 38.6258 54.5678 38.7392C54.7392 38.8526 54.8586 39.0295 54.8996 39.2309C55.8347 43.8012 58.2113 46.1004 58.2324 46.1215C58.3065 46.191 58.3662 46.2744 58.4081 46.3669C58.4499 46.4595 58.4732 46.5594 58.4764 46.6609C58.4797 46.7624 58.4629 46.8636 58.4271 46.9587C58.3913 47.0537 58.337 47.1408 58.2675 47.2149C58.1961 47.2928 58.1091 47.3549 58.0123 47.3973C57.9154 47.4397 57.8108 47.4614 57.705 47.461Z" fill="#0066A4"></path><path d="M62.3289 21.2696C62.2764 21.2765 62.2232 21.2765 62.1707 21.2696C57.0969 20.17 52.3077 18.0256 48.1082 14.9731C48.0279 14.9108 47.9606 14.8333 47.9103 14.7449C47.8599 14.6566 47.8274 14.5592 47.8147 14.4584C47.802 14.3575 47.8092 14.2551 47.8361 14.157C47.8629 14.0589 47.9088 13.9671 47.9711 13.8868C48.0334 13.8065 48.111 13.7392 48.1993 13.6888C48.2876 13.6385 48.385 13.606 48.4859 13.5933C48.5868 13.5805 48.6892 13.5878 48.7872 13.6146C48.8853 13.6415 48.9771 13.6874 49.0574 13.7497C53.0775 16.6398 57.6429 18.6827 62.4766 19.7544C62.6665 19.791 62.8358 19.8974 62.9512 20.0527C63.0665 20.208 63.1195 20.4008 63.0996 20.5932C63.0797 20.7856 62.9885 20.9636 62.8439 21.0921C62.6993 21.2205 62.5118 21.2901 62.3184 21.2872L62.3289 21.2696Z" fill="#0066A4"></path></svg> 