<?xml version="1.0" encoding="UTF-8"?> <svg xmlns="http://www.w3.org/2000/svg" width="100" height="100" viewBox="0 0 100 100" fill="none"><path d="M50 93.211C41.4537 93.211 33.0993 90.6767 25.9933 85.9286C18.8873 81.1805 13.3489 74.4319 10.0783 66.5361C6.80778 58.6404 5.95206 49.9521 7.61937 41.57C9.28667 33.1879 13.4021 25.4884 19.4453 19.4453C25.4884 13.4021 33.1879 9.28667 41.57 7.61937C49.9521 5.95206 58.6404 6.80778 66.5361 10.0783C74.4319 13.3489 81.1805 18.8873 85.9286 25.9933C90.6767 33.0993 93.211 41.4537 93.211 50C93.1985 61.4565 88.642 72.4401 80.5411 80.5411C72.4401 88.642 61.4565 93.1985 50 93.211ZM50 8.50783C41.7936 8.50783 33.7715 10.9413 26.9482 15.5005C20.1248 20.0597 14.8067 26.5399 11.6662 34.1216C8.52579 41.7034 7.70411 50.046 9.30509 58.0947C10.9061 66.1434 14.8578 73.5366 20.6606 79.3394C26.4634 85.1422 33.8566 89.094 41.9053 90.6949C49.954 92.2959 58.2967 91.4742 65.8784 88.3338C73.4601 85.1934 79.9403 79.8752 84.4995 73.0518C89.0587 66.2285 91.4922 58.2064 91.4922 50C91.4798 38.9994 87.1043 28.4529 79.3257 20.6743C71.5471 12.8957 61.0006 8.52024 50 8.50783Z" fill="#0066A4"></path><path d="M50 53.0078C51.6612 53.0078 53.0078 51.6612 53.0078 50C53.0078 48.3388 51.6612 46.9922 50 46.9922C48.3388 46.9922 46.9922 48.3388 46.9922 50C46.9922 51.6612 48.3388 53.0078 50 53.0078Z" fill="#0066A4"></path><path d="M50 50.8594C49.887 50.8599 49.775 50.838 49.6705 50.795C49.566 50.752 49.4711 50.6887 49.3912 50.6088C49.3113 50.5289 49.248 50.434 49.205 50.3295C49.162 50.225 49.1401 50.113 49.1406 50V18.8828C49.1406 18.77 49.1629 18.6582 49.2061 18.5539C49.2492 18.4497 49.3125 18.3549 49.3923 18.2751C49.4721 18.1953 49.5669 18.132 49.6711 18.0889C49.7754 18.0457 49.8872 18.0234 50 18.0234C50.1129 18.0234 50.2246 18.0457 50.3289 18.0889C50.4331 18.132 50.5279 18.1953 50.6077 18.2751C50.6875 18.3549 50.7508 18.4497 50.794 18.5539C50.8372 18.6582 50.8594 18.77 50.8594 18.8828V50C50.8599 50.113 50.838 50.225 50.795 50.3295C50.752 50.434 50.6887 50.5289 50.6088 50.6088C50.5289 50.6887 50.434 50.752 50.3295 50.795C50.225 50.838 50.113 50.8599 50 50.8594Z" fill="#0066A4"></path><path d="M50 13.1445C49.7721 13.1445 49.5535 13.054 49.3923 12.8928C49.2312 12.7317 49.1406 12.5131 49.1406 12.2852V7.64844C49.1406 7.53558 49.1629 7.42383 49.206 7.31957C49.2492 7.2153 49.3125 7.12057 49.3923 7.04077C49.4721 6.96097 49.5669 6.89767 49.6711 6.85448C49.7754 6.81129 49.8871 6.78906 50 6.78906C50.1129 6.78906 50.2246 6.81129 50.3289 6.85448C50.4331 6.89767 50.5279 6.96097 50.6077 7.04077C50.6875 7.12057 50.7508 7.2153 50.794 7.31957C50.8371 7.42383 50.8594 7.53558 50.8594 7.64844V12.2852C50.8594 12.5131 50.7688 12.7317 50.6077 12.8928C50.4465 13.054 50.2279 13.1445 50 13.1445Z" fill="#0066A4"></path><path d="M50 93.2109C49.887 93.2115 49.775 93.1896 49.6705 93.1466C49.566 93.1036 49.4711 93.0403 49.3912 92.9604C49.3113 92.8805 49.248 92.7855 49.205 92.681C49.162 92.5765 49.1401 92.4646 49.1406 92.3516V87.7148C49.1406 87.602 49.1629 87.4902 49.2061 87.386C49.2492 87.2817 49.3125 87.187 49.3923 87.1072C49.4721 87.0274 49.5669 86.9641 49.6711 86.9209C49.7754 86.8777 49.8872 86.8555 50 86.8555C50.1129 86.8555 50.2246 86.8777 50.3289 86.9209C50.4331 86.9641 50.5279 87.0274 50.6077 87.1072C50.6875 87.187 50.7508 87.2817 50.794 87.386C50.8372 87.4902 50.8594 87.602 50.8594 87.7148V92.3516C50.8599 92.4646 50.838 92.5765 50.795 92.681C50.752 92.7855 50.6887 92.8805 50.6088 92.9604C50.5289 93.0403 50.434 93.1036 50.3295 93.1466C50.225 93.1896 50.113 93.2115 50 93.2109Z" fill="#0066A4"></path><path d="M12.2852 50.8594H7.64844C7.42052 50.8594 7.20193 50.7688 7.04077 50.6077C6.8796 50.4465 6.78906 50.2279 6.78906 50C6.78906 49.7721 6.8796 49.5535 7.04077 49.3923C7.20193 49.2312 7.42052 49.1406 7.64844 49.1406H12.2852C12.5131 49.1406 12.7317 49.2312 12.8928 49.3923C13.054 49.5535 13.1445 49.7721 13.1445 50C13.1445 50.2279 13.054 50.4465 12.8928 50.6077C12.7317 50.7688 12.5131 50.8594 12.2852 50.8594Z" fill="#0066A4"></path><path d="M92.3516 50.8594H87.7148C87.4869 50.8594 87.2683 50.7688 87.1072 50.6077C86.946 50.4465 86.8555 50.2279 86.8555 50C86.8555 49.7721 86.946 49.5535 87.1072 49.3923C87.2683 49.2312 87.4869 49.1406 87.7148 49.1406H92.3516C92.5795 49.1406 92.7981 49.2312 92.9592 49.3923C93.1204 49.5535 93.2109 49.7721 93.2109 50C93.2109 50.2279 93.1204 50.4465 92.9592 50.6077C92.7981 50.7688 92.5795 50.8594 92.3516 50.8594Z" fill="#0066A4"></path><path d="M19.1172 79.8399C18.9451 79.8399 18.777 79.7882 18.6346 79.6916C18.4922 79.595 18.3821 79.4578 18.3186 79.2979C18.255 79.1379 18.2409 78.9626 18.2782 78.7946C18.3154 78.6266 18.4022 78.4736 18.5274 78.3555L21.9063 75.1836C21.9871 75.0995 22.0843 75.0326 22.1919 74.9873C22.2995 74.9419 22.4151 74.9189 22.5319 74.9197C22.6486 74.9205 22.764 74.9451 22.8709 74.992C22.9778 75.0388 23.0741 75.107 23.1538 75.1923C23.2335 75.2776 23.295 75.3782 23.3345 75.4881C23.3741 75.5979 23.3908 75.7146 23.3837 75.8312C23.3767 75.9477 23.3459 76.0616 23.2934 76.1658C23.2408 76.2701 23.1676 76.3625 23.0781 76.4375L19.6953 79.6094C19.5382 79.7558 19.3319 79.838 19.1172 79.8399Z" fill="#0066A4"></path><path d="M77.5039 25.0508C77.331 25.0517 77.1619 25.0003 77.0186 24.9035C76.8753 24.8067 76.7646 24.6688 76.7008 24.5081C76.6371 24.3473 76.6234 24.1711 76.6614 24.0024C76.6995 23.8337 76.7875 23.6804 76.9141 23.5625L80.2969 20.3907C80.3778 20.3065 80.475 20.2397 80.5826 20.1943C80.6901 20.1489 80.8058 20.1259 80.9225 20.1267C81.0393 20.1275 81.1546 20.1521 81.2616 20.199C81.3685 20.2458 81.4647 20.314 81.5445 20.3993C81.6242 20.4846 81.6857 20.5852 81.7252 20.6951C81.7647 20.8049 81.7815 20.9217 81.7744 21.0382C81.7673 21.1547 81.7366 21.2686 81.684 21.3728C81.6315 21.4771 81.5582 21.5696 81.4688 21.6446L78.0899 24.8164C77.9312 24.9657 77.7218 25.0494 77.5039 25.0508Z" fill="#0066A4"></path><path d="M82.4961 78.0194C82.2944 78.0185 82.0994 77.9466 81.9453 77.8163L78.3907 74.8437C78.2976 74.7735 78.2197 74.6852 78.1618 74.584C78.1039 74.4829 78.0672 74.371 78.0539 74.2552C78.0407 74.1394 78.0511 74.0221 78.0845 73.9104C78.118 73.7988 78.1738 73.6951 78.2486 73.6057C78.3235 73.5163 78.4157 73.4431 78.5196 73.3905C78.6236 73.3378 78.7373 73.3069 78.8536 73.2996C78.9699 73.2922 79.0865 73.3086 79.1963 73.3478C79.3061 73.3869 79.4068 73.448 79.4922 73.5272L83.0508 76.4999C83.1868 76.6132 83.2844 76.7657 83.3305 76.9367C83.3765 77.1076 83.3686 77.2885 83.3079 77.4548C83.2472 77.621 83.1367 77.7645 82.9914 77.8656C82.8461 77.9666 82.6731 78.0204 82.4961 78.0194Z" fill="#0066A4"></path><path d="M21.0587 26.6757C20.8567 26.6761 20.6613 26.604 20.5079 26.4725L16.9493 23.4999C16.8629 23.4273 16.7916 23.3384 16.7395 23.2383C16.6875 23.1381 16.6556 23.0287 16.6458 22.9163C16.636 22.8038 16.6485 22.6905 16.6825 22.5829C16.7164 22.4753 16.7713 22.3754 16.8439 22.2889C16.9165 22.2025 17.0054 22.1312 17.1055 22.0791C17.2056 22.0271 17.3151 21.9952 17.4275 21.9854C17.54 21.9756 17.6532 21.9881 17.7609 22.0221C17.8685 22.056 17.9684 22.1109 18.0548 22.1835L21.6095 25.1561C21.7452 25.2692 21.8428 25.4214 21.8889 25.5919C21.935 25.7625 21.9274 25.9431 21.8672 26.1091C21.807 26.2752 21.6971 26.4187 21.5525 26.5201C21.4078 26.6215 21.2354 26.6758 21.0587 26.6757Z" fill="#0066A4"></path><path d="M65.2891 63.1446C65.0927 63.1448 64.9023 63.0772 64.75 62.9532L49.461 50.6719C49.3641 50.6042 49.2822 50.5173 49.2203 50.4167C49.1584 50.316 49.1178 50.2038 49.101 50.0868C49.0843 49.9698 49.0917 49.8506 49.1229 49.7366C49.154 49.6227 49.2083 49.5163 49.2822 49.4241C49.3562 49.3319 49.4483 49.2559 49.5528 49.2008C49.6573 49.1457 49.772 49.1126 49.8899 49.1036C50.0077 49.0946 50.1261 49.1099 50.2378 49.1485C50.3494 49.1871 50.452 49.2483 50.5391 49.3282L65.8282 61.6133C66.0053 61.7571 66.1184 61.9653 66.1425 62.1922C66.1667 62.4191 66.1 62.6463 65.9571 62.8242C65.877 62.9245 65.7754 63.0054 65.6597 63.0608C65.5441 63.1163 65.4174 63.1449 65.2891 63.1446Z" fill="#0066A4"></path></svg> 