<?xml version="1.0" encoding="UTF-8"?> <svg xmlns="http://www.w3.org/2000/svg" width="106" height="106" viewBox="0 0 106 106" fill="none"><path d="M45.6669 66.2211C41.7781 66.166 37.9767 65.0601 34.6653 63.0204C30.5246 60.536 27.4109 56.9834 25.8292 52.9877C24.2185 48.9092 24.4131 44.8638 26.3757 41.5968C28.3384 38.3299 31.8165 36.2596 36.1725 35.7668C40.4456 35.2824 45.0665 36.3796 49.1823 38.8516C57.7575 44.0025 61.4758 53.6129 57.4635 60.2793C55.5009 63.5421 52.0228 65.6125 47.6627 66.1093C47 66.1839 46.3337 66.2212 45.6669 66.2211ZM38.1807 37.3858C37.5746 37.385 36.9691 37.4195 36.3671 37.4893C32.5577 37.9034 29.535 39.6963 27.8581 42.4871C26.1811 45.2778 26.0321 48.785 27.444 52.35C28.885 55.9979 31.7668 59.2607 35.5596 61.5381C39.3525 63.8154 43.5842 64.8257 47.4805 64.3868C51.2899 63.9728 54.3125 62.1799 55.9936 59.385C59.5049 53.5425 56.0516 44.9963 48.2962 40.3381C45.252 38.4604 41.7569 37.4404 38.1807 37.3858Z" fill="#0066A4"></path><path d="M40.5324 97.959C39.755 97.9543 38.9967 97.7179 38.3544 97.28C38.2257 97.1946 38.1207 97.0779 38.0494 96.9408C37.9782 96.8037 37.943 96.6507 37.9471 96.4963C37.9512 96.3418 37.9946 96.1909 38.0731 96.0579C38.1516 95.9248 38.2627 95.8139 38.3958 95.7355C38.7645 95.5143 39.0686 95.2002 39.2778 94.8246L74.97 32.297C75.3277 31.6501 75.4502 30.8993 75.3166 30.1722C75.1829 29.4452 74.8015 28.787 74.2371 28.3096L69.5623 24.7735C69.4468 24.6889 69.3529 24.5783 69.2881 24.4506C69.2233 24.3229 69.1896 24.1817 69.1896 24.0385C69.1896 23.8953 69.2233 23.7542 69.2881 23.6265C69.3529 23.4988 69.4468 23.3882 69.5623 23.3036L75.5207 19.047C75.9496 18.7374 76.4394 18.5226 76.9578 18.4169C77.4761 18.3112 78.0109 18.3171 78.5268 18.4342C79.127 18.5821 79.6892 18.8552 80.1766 19.2355C80.6639 19.6159 81.0655 20.0949 81.3548 20.6411L98.6295 51.7579C99.8386 53.9318 99.3045 56.7847 97.4453 58.1138L42.7104 97.2468C42.0772 97.7071 41.3152 97.9563 40.5324 97.959ZM71.6534 24.0654L75.3302 26.8314C76.2512 27.5741 76.8806 28.6178 77.1078 29.7788C77.335 30.9399 77.1455 32.1439 76.5724 33.179L40.8595 95.7272C40.7816 95.8708 40.6945 96.0091 40.5987 96.1413C40.9781 96.1261 41.3444 95.9977 41.6504 95.7728L96.3853 56.6563C97.495 55.8613 97.7931 54.0353 97.0354 52.6689L79.7607 21.5314C79.5954 21.2096 79.3645 20.9262 79.0827 20.6994C78.801 20.4726 78.4747 20.3074 78.1251 20.2147C77.8599 20.1536 77.5847 20.1505 77.3181 20.2055C77.0516 20.2605 76.8001 20.3724 76.5807 20.5335L71.6534 24.0654Z" fill="#0066A4"></path><path d="M62.5774 74.8295C59.5423 74.8295 56.4037 73.6494 53.5508 71.3762C53.3896 71.2474 53.2797 71.0652 53.241 70.8625C53.2022 70.6598 53.2372 70.4499 53.3397 70.2707L67.6289 45.2323C67.6971 45.1138 67.7923 45.013 67.9068 44.9381C68.0213 44.8633 68.1518 44.8165 68.2878 44.8016C68.4237 44.7867 68.5613 44.804 68.6892 44.8522C68.8172 44.9005 68.932 44.9782 69.0243 45.0791C70.864 47.1265 72.3099 49.4961 73.2892 52.0685C76.8915 61.3973 73.9268 71.2686 66.6642 74.0676C65.3607 74.5719 63.975 74.8302 62.5774 74.8295ZM55.2195 70.4736C58.7432 73.0408 62.6726 73.7861 66.0555 72.4528C72.4155 69.9974 74.9371 61.1323 71.6785 52.6937C70.9158 50.6993 69.8517 48.8336 68.5233 47.1619L55.2195 70.4736Z" fill="#0066A4"></path><path d="M40.6773 49.3479C41.2818 48.8138 41.9195 48.2879 42.5199 47.7786C43.1107 47.2871 43.7671 46.8802 44.4701 46.5696C45.1398 46.284 45.8622 46.1429 46.5901 46.1555C47.431 46.1961 48.2465 46.4575 48.9544 46.9133C49.7317 47.3636 50.4194 47.9531 50.9833 48.6523C51.5319 49.3216 51.9364 50.0969 52.1717 50.9297C52.4085 51.7906 52.4705 52.6903 52.3538 53.5755C52.2206 54.5819 51.9019 55.5548 51.4139 56.445L54.2751 58.3414C54.3839 58.4145 54.4665 58.5204 54.5111 58.6436C54.5328 58.7053 54.5396 58.7712 54.531 58.8359C54.5224 58.9007 54.4985 58.9625 54.4614 59.0163L54.1633 59.5215L50.8756 57.3518C50.2105 58.4176 49.3201 59.3249 48.267 60.01C47.2924 60.6204 46.2149 61.0484 45.087 61.2729L44.7641 60.5732C44.7275 60.491 44.7106 60.4013 44.715 60.3114C44.7193 60.2215 44.7446 60.1339 44.7889 60.0556C44.8729 59.9477 44.9913 59.8718 45.1243 59.8403C45.2982 59.7782 45.5135 59.7036 45.7703 59.6208C46.027 59.538 46.321 59.4221 46.6481 59.2854C47.003 59.1368 47.3439 58.9567 47.6667 58.7472C48.0493 58.5053 48.4083 58.228 48.7391 57.919C49.1378 57.5391 49.4908 57.1139 49.7908 56.652L41.1452 50.8883C40.5738 51.4072 39.9899 51.8986 39.3937 52.3623C38.8263 52.8073 38.1936 53.1621 37.518 53.414C36.8573 53.6618 36.1522 53.769 35.4477 53.7287C34.6118 53.654 33.8064 53.3784 33.0999 52.9254C32.4516 52.5431 31.8853 52.0365 31.4333 51.4346C30.9814 50.8328 30.6528 50.1475 30.4665 49.4183C30.2733 48.627 30.2368 47.8056 30.3588 47.0002C30.5043 46.0652 30.8186 45.1645 31.2863 44.3419L29.0173 42.8513C28.8979 42.7861 28.8077 42.6781 28.7647 42.549C28.7431 42.4883 28.7359 42.4234 28.7438 42.3594C28.7518 42.2954 28.7745 42.2342 28.8102 42.1805L29.1084 41.6795L31.837 43.4807C32.3836 42.6503 33.0868 41.9344 33.9074 41.3731C34.6926 40.8651 35.5555 40.4889 36.4621 40.2593L36.7561 40.8472C36.8037 40.9252 36.8288 41.0147 36.8288 41.106C36.8288 41.1973 36.8037 41.2869 36.7561 41.3648C36.6293 41.5175 36.4564 41.625 36.2634 41.6712C35.9424 41.7911 35.6286 41.9294 35.3235 42.0853C34.9056 42.3013 34.509 42.5564 34.1392 42.8472C33.6588 43.2344 33.24 43.6923 32.897 44.2053L40.6773 49.3479ZM32.396 45.1079C32.0438 45.7527 31.8043 46.4529 31.688 47.1783C31.5913 47.7856 31.6152 48.4061 31.7584 49.0043C31.8883 49.5528 32.1324 50.0677 32.4747 50.5156C32.8163 50.956 33.2377 51.3283 33.7169 51.6129C34.1877 51.9203 34.7242 52.1127 35.2831 52.1746C35.8419 52.2365 36.4075 52.166 36.9342 51.969C37.459 51.7757 37.956 51.5139 38.4124 51.1905C38.8927 50.8551 39.3771 50.4742 39.8657 50.0601L32.396 45.1079ZM50.3249 55.7038C50.6964 55.0015 50.9404 54.2388 51.0454 53.4513C51.1332 52.7586 51.0854 52.0554 50.9046 51.381C50.7298 50.7379 50.4223 50.1384 50.002 49.6212C49.5647 49.0797 49.0313 48.6235 48.4285 48.2755C47.8961 47.9367 47.2863 47.7387 46.6563 47.7C46.0898 47.6761 45.5248 47.775 45.0001 47.9898C44.4447 48.2195 43.9236 48.5247 43.4515 48.8966C42.9505 49.2858 42.4495 49.7247 41.9402 50.1636L50.3249 55.7038Z" fill="#0066A4"></path><path d="M69.4093 57.766C69.0844 56.9883 68.5585 56.3109 67.8856 55.8034C67.2886 55.3907 66.6114 55.1086 65.8981 54.9752C65.1439 54.8303 64.3728 54.794 63.6083 54.8676C63.4385 54.8676 63.2729 54.9049 63.1073 54.9173L62.2253 56.4659C62.7429 56.4079 63.2481 56.3582 63.7408 56.3292C64.3399 56.2854 64.9422 56.3272 65.5295 56.4534C66.0795 56.5711 66.5977 56.8055 67.0492 57.1408C67.5454 57.5315 67.9367 58.0395 68.1878 58.619C68.4859 59.2479 68.6682 59.9254 68.7261 60.6189C68.7778 61.2835 68.6919 61.9517 68.4735 62.5816C68.2413 63.2375 67.8842 63.8421 67.4218 64.362C66.8898 64.9527 66.2576 65.4447 65.5544 65.8154L61.952 56.9462L61.2813 58.0766L64.5938 66.2502C64.086 66.4619 63.5551 66.6134 63.012 66.7015C62.5602 66.7727 62.1029 66.8032 61.6456 66.7926C61.2615 66.7835 60.8789 66.7391 60.5028 66.6601C60.155 66.5897 59.8528 66.5152 59.5919 66.4406L58.9335 66.2543C58.7995 66.2076 58.6535 66.2076 58.5195 66.2543C58.4384 66.2935 58.3678 66.3515 58.3138 66.4235C58.2598 66.4956 58.2238 66.5795 58.2089 66.6684L58.0806 67.4302C59.1381 67.8823 60.2688 68.139 61.4179 68.188C62.6731 68.2157 63.9193 67.9699 65.0699 67.4675L66.5564 71.1154L67.0864 70.867C67.1474 70.8439 67.202 70.8067 67.2459 70.7585C67.2898 70.7103 67.3217 70.6524 67.339 70.5895C67.3718 70.4618 67.3631 70.3269 67.3142 70.2045L66.0264 67.0245C66.9321 66.5665 67.745 65.9446 68.4238 65.1902C69.0207 64.5259 69.4783 63.7487 69.7695 62.9045C70.0483 62.0892 70.1555 61.225 70.0842 60.3663C70.0206 59.4655 69.7919 58.5841 69.4093 57.766Z" fill="#0066A4"></path><path d="M37.3647 97.847C36.5084 97.8375 35.6791 97.5465 35.0046 97.0189L8.54599 77.1149C7.62506 76.3722 6.9956 75.3285 6.76839 74.1674C6.54117 73.0063 6.73077 71.8024 7.3038 70.7673L43.0167 8.23144C43.302 7.72183 43.6919 7.27834 44.1607 6.93009C44.6296 6.58184 45.1668 6.33672 45.7371 6.21082C46.2782 6.10023 46.8367 6.10656 47.3751 6.22939C47.9135 6.35222 48.4195 6.5887 48.8591 6.92301L75.3177 26.8311C76.2386 27.5738 76.8681 28.6175 77.0953 29.7786C77.3225 30.9397 77.1329 32.1437 76.5599 33.1787L40.8594 95.727C40.5764 96.2405 40.1875 96.6879 39.7185 97.0399C39.2495 97.3918 38.7112 97.6401 38.139 97.7683C37.8843 97.8209 37.6248 97.8473 37.3647 97.847ZM44.5984 9.1341L8.90622 71.6865C8.5485 72.3334 8.42603 73.0843 8.55966 73.8113C8.69329 74.5383 9.07475 75.1965 9.63911 75.6739L36.0977 95.5821C36.3285 95.7649 36.5956 95.8964 36.8812 95.9678C37.1668 96.0392 37.4643 96.0488 37.754 95.9961C38.0743 95.9227 38.3751 95.7811 38.6359 95.5811C38.8967 95.381 39.1113 95.1271 39.2653 94.8367L74.9699 32.2968C75.3276 31.6499 75.4501 30.899 75.3165 30.172C75.1828 29.445 74.8014 28.7867 74.237 28.3093L47.7743 8.38051C47.5435 8.1977 47.2764 8.06621 46.9908 7.9948C46.7052 7.9234 46.4077 7.91373 46.118 7.96644C45.799 8.04048 45.4995 8.18186 45.2395 8.3811C44.9796 8.58034 44.7652 8.83284 44.6108 9.12168L44.5984 9.1341Z" fill="#0066A4"></path><path d="M46.1057 19.5893C45.2193 19.5853 44.343 19.4007 43.5303 19.0469C43.4056 19.0111 43.2899 18.9492 43.1911 18.8652C43.0923 18.7812 43.0125 18.6771 42.9572 18.5598C42.9019 18.4425 42.8722 18.3147 42.8702 18.185C42.8682 18.0553 42.894 17.9267 42.9457 17.8077C42.9975 17.6888 43.074 17.5823 43.1702 17.4953C43.2665 17.4083 43.3802 17.3429 43.5037 17.3034C43.6272 17.2639 43.7578 17.2513 43.8866 17.2663C44.0155 17.2814 44.1396 17.3237 44.2507 17.3906C45.1206 17.7676 46.0849 17.8697 47.0144 17.6832C47.9439 17.4967 48.7942 17.0305 49.4514 16.3472C49.5342 16.258 49.6341 16.1864 49.7451 16.1365C49.8561 16.0866 49.9759 16.0594 50.0976 16.0566C50.2192 16.0538 50.3402 16.0754 50.4534 16.1201C50.5666 16.1649 50.6696 16.2318 50.7565 16.317C50.8434 16.4022 50.9123 16.504 50.9592 16.6163C51.0061 16.7286 51.03 16.8491 51.0295 16.9708C51.0291 17.0925 51.0042 17.2128 50.9565 17.3248C50.9087 17.4367 50.839 17.5379 50.7515 17.6225C49.7192 18.6759 48.3632 19.3524 46.9007 19.5437C46.6371 19.5767 46.3715 19.592 46.1057 19.5893Z" fill="#0066A4"></path><path d="M68.0553 35.7585C67.8735 35.7593 67.6957 35.7044 67.546 35.6011C66.3267 34.7719 65.4189 33.5596 64.9664 32.1561C64.6221 31.0532 64.5778 29.8783 64.8381 28.7526C64.8652 28.6359 64.9151 28.5258 64.9849 28.4284C65.0547 28.3311 65.1429 28.2484 65.2446 28.1852C65.3463 28.1219 65.4595 28.0793 65.5776 28.0598C65.6958 28.0403 65.8166 28.0442 65.9333 28.0714C66.0499 28.0986 66.16 28.1485 66.2574 28.2183C66.3547 28.288 66.4374 28.3763 66.5006 28.4779C66.5639 28.5796 66.6065 28.6928 66.626 28.811C66.6455 28.9291 66.6416 29.05 66.6144 29.1666C66.4292 29.9761 66.4606 30.8202 66.7055 31.6137C67.0329 32.6261 67.6886 33.5003 68.5688 34.0981C68.7265 34.2089 68.845 34.3669 68.9072 34.5493C68.9695 34.7317 68.9722 34.9291 68.9152 35.1132C68.8581 35.2973 68.7441 35.4585 68.5896 35.5737C68.4351 35.6889 68.248 35.7522 68.0553 35.7543V35.7585Z" fill="#0066A4"></path><path d="M89.7976 57.1406C89.6149 57.1399 89.4366 57.0847 89.2854 56.9822C89.1342 56.8797 89.017 56.7345 88.9487 56.5651C88.4002 55.1962 88.3258 53.6831 88.7376 52.2671C89.0694 51.1589 89.6896 50.1587 90.5346 49.3687C90.6203 49.2794 90.7234 49.2086 90.8374 49.1605C90.9514 49.1124 91.074 49.088 91.1978 49.0889C91.3215 49.0897 91.4438 49.1158 91.5571 49.1655C91.6705 49.2152 91.7725 49.2874 91.857 49.3778C91.9415 49.4682 92.0067 49.5749 92.0486 49.6913C92.0905 49.8078 92.1082 49.9315 92.1007 50.055C92.0932 50.1786 92.0606 50.2993 92.0049 50.4098C91.9492 50.5203 91.8716 50.6183 91.7768 50.6978C91.0781 51.3443 90.5946 52.1897 90.3918 53.1197C90.1889 54.0497 90.2763 55.0197 90.6423 55.8984C90.6867 56.0096 90.7087 56.1285 90.7071 56.2482C90.7055 56.3679 90.6804 56.4861 90.6331 56.5961C90.5858 56.7061 90.5173 56.8057 90.4315 56.8891C90.3456 56.9726 90.2442 57.0384 90.133 57.0826C90.0261 57.124 89.9121 57.1437 89.7976 57.1406Z" fill="#0066A4"></path><path d="M33.2739 88.3444C33.0937 88.3451 32.9174 88.2924 32.7672 88.1928C32.617 88.0933 32.4996 87.9515 32.43 87.7853C32.3605 87.619 32.3417 87.4359 32.3762 87.2591C32.4107 87.0822 32.4969 86.9195 32.6239 86.7917C33.6579 85.7406 35.013 85.0645 36.4746 84.8704C37.6208 84.7307 38.7836 84.8964 39.8451 85.3507C39.9552 85.3978 40.055 85.466 40.1387 85.5516C40.2224 85.6372 40.2885 85.7385 40.3331 85.8496C40.3777 85.9607 40.4 86.0795 40.3987 86.1992C40.3973 86.319 40.3725 86.4373 40.3254 86.5474C40.2784 86.6575 40.2101 86.7573 40.1245 86.841C40.0389 86.9247 39.9377 86.9908 39.8266 87.0354C39.7155 87.08 39.5966 87.1022 39.4769 87.1009C39.3572 87.0996 39.2389 87.0747 39.1288 87.0277C38.3645 86.7009 37.5277 86.5809 36.7024 86.6799C35.6477 86.823 34.6704 87.3123 33.924 88.0711C33.8394 88.1578 33.7383 88.2266 33.6266 88.2735C33.515 88.3205 33.3951 88.3446 33.2739 88.3444Z" fill="#0066A4"></path><path d="M16.8231 75.9515C16.7547 75.9514 16.6866 75.9431 16.6202 75.9267C16.5032 75.9003 16.3925 75.851 16.2946 75.7817C16.1966 75.7125 16.1133 75.6245 16.0494 75.5229C15.9856 75.4214 15.9424 75.3082 15.9224 75.1899C15.9024 75.0716 15.906 74.9505 15.9329 74.8335C16.1223 74.0244 16.0909 73.1792 15.8418 72.3864C15.5144 71.3741 14.8587 70.4999 13.9785 69.9021C13.7787 69.7659 13.6411 69.5559 13.596 69.3183C13.551 69.0807 13.6022 68.8349 13.7384 68.635C13.8745 68.4351 14.0845 68.2976 14.3221 68.2525C14.5598 68.2075 14.8055 68.2587 15.0054 68.3949C16.2231 69.2248 17.1294 70.437 17.5809 71.8399C17.9252 72.9414 17.9695 74.1149 17.7092 75.2393C17.6635 75.4406 17.551 75.6204 17.3902 75.7497C17.2293 75.879 17.0295 75.9501 16.8231 75.9515Z" fill="#0066A4"></path></svg> 