<svg width="210" height="345" viewBox="0 0 210 345" fill="none" xmlns="http://www.w3.org/2000/svg">
<circle cx="1.00012" cy="1.22461" r="1" fill="white"/>
<circle cx="1.00012" cy="11.2246" r="1" fill="white"/>
<circle cx="1.00012" cy="21.2246" r="1" fill="white"/>
<circle cx="1.00012" cy="31.2246" r="1" fill="white"/>
<circle cx="1.00012" cy="41.2246" r="1" fill="white"/>
<circle cx="1.00012" cy="51.2246" r="1" fill="white"/>
<circle cx="1.00012" cy="61.2246" r="1" fill="white"/>
<circle cx="1.00012" cy="71.2246" r="1" fill="white"/>
<circle cx="1.00012" cy="81.2246" r="1" fill="white"/>
<circle cx="1.00012" cy="91.2246" r="1" fill="white"/>
<circle cx="1.00012" cy="101.225" r="1" fill="white"/>
<circle cx="1.00012" cy="111.225" r="1" fill="white"/>
<circle cx="1.00012" cy="121.225" r="1" fill="white"/>
<circle cx="1.00012" cy="131.225" r="1" fill="white"/>
<circle cx="1.00012" cy="141.225" r="1" fill="white"/>
<circle cx="1.00012" cy="151.225" r="1" fill="white"/>
<circle cx="1.00012" cy="161.225" r="1" fill="white"/>
<circle cx="1.00012" cy="171.225" r="1" fill="white"/>
<circle cx="1.00012" cy="181.225" r="1" fill="white"/>
<circle cx="1.00012" cy="191.225" r="1" fill="white"/>
<circle cx="1.00012" cy="201.225" r="1" fill="white"/>
<circle cx="1.00012" cy="211.225" r="1" fill="white"/>
<circle cx="1.00012" cy="221.225" r="1" fill="white"/>
<circle cx="1.00012" cy="231.225" r="1" fill="white"/>
<circle cx="1.00012" cy="241.225" r="1" fill="white"/>
<circle cx="1.00012" cy="251.225" r="1" fill="white"/>
<circle cx="1.00012" cy="261.225" r="1" fill="white"/>
<circle cx="1.00012" cy="271.225" r="1" fill="white"/>
<circle cx="1.00012" cy="281.225" r="1" fill="white"/>
<circle cx="1.00012" cy="291.225" r="1" fill="white"/>
<circle cx="1.00012" cy="301.225" r="1" fill="white"/>
<circle cx="1.00012" cy="311.225" r="1" fill="white"/>
<circle cx="1.00012" cy="321.225" r="1" fill="white"/>
<circle cx="1.00012" cy="331.225" r="1" fill="white"/>
<circle cx="1.00012" cy="341.225" r="1" fill="white"/>
<circle cx="11.0001" cy="1.22461" r="1" fill="white"/>
<circle cx="11.0001" cy="11.2246" r="1" fill="white"/>
<circle cx="11.0001" cy="21.2246" r="1" fill="white"/>
<circle cx="11.0001" cy="31.2246" r="1" fill="white"/>
<circle cx="11.0001" cy="41.2246" r="1" fill="white"/>
<circle cx="11.0001" cy="51.2246" r="1" fill="white"/>
<circle cx="11.0001" cy="61.2246" r="1" fill="white"/>
<circle cx="11.0001" cy="71.2246" r="1" fill="white"/>
<circle cx="11.0001" cy="81.2246" r="1" fill="white"/>
<circle cx="11.0001" cy="91.2246" r="1" fill="white"/>
<circle cx="11.0001" cy="101.225" r="1" fill="white"/>
<circle cx="11.0001" cy="111.225" r="1" fill="white"/>
<circle cx="11.0001" cy="121.225" r="1" fill="white"/>
<circle cx="11.0001" cy="131.225" r="1" fill="white"/>
<circle cx="11.0001" cy="141.225" r="1" fill="white"/>
<circle cx="11.0001" cy="151.225" r="1" fill="white"/>
<circle cx="11.0001" cy="161.225" r="1" fill="white"/>
<circle cx="11.0001" cy="171.225" r="1" fill="white"/>
<circle cx="11.0001" cy="181.225" r="1" fill="white"/>
<circle cx="11.0001" cy="191.225" r="1" fill="white"/>
<circle cx="11.0001" cy="201.225" r="1" fill="white"/>
<circle cx="11.0001" cy="211.225" r="1" fill="white"/>
<circle cx="11.0001" cy="221.225" r="1" fill="white"/>
<circle cx="11.0001" cy="231.225" r="1" fill="white"/>
<circle cx="11.0001" cy="241.225" r="1" fill="white"/>
<circle cx="11.0001" cy="251.225" r="1" fill="white"/>
<circle cx="11.0001" cy="261.225" r="1" fill="white"/>
<circle cx="11.0001" cy="271.225" r="1" fill="white"/>
<circle cx="11.0001" cy="281.225" r="1" fill="white"/>
<circle cx="11.0001" cy="291.225" r="1" fill="white"/>
<circle cx="11.0001" cy="301.225" r="1" fill="white"/>
<circle cx="11.0001" cy="311.225" r="1" fill="white"/>
<circle cx="11.0001" cy="321.225" r="1" fill="white"/>
<circle cx="11.0001" cy="331.225" r="1" fill="white"/>
<circle cx="11.0001" cy="341.225" r="1" fill="white"/>
<circle cx="21.0001" cy="1.22461" r="1" fill="white"/>
<circle cx="21.0001" cy="11.2246" r="1" fill="white"/>
<circle cx="21.0001" cy="21.2246" r="1" fill="white"/>
<circle cx="21.0001" cy="31.2246" r="1" fill="white"/>
<circle cx="21.0001" cy="41.2246" r="1" fill="white"/>
<circle cx="21.0001" cy="51.2246" r="1" fill="white"/>
<circle cx="21.0001" cy="61.2246" r="1" fill="white"/>
<circle cx="21.0001" cy="71.2246" r="1" fill="white"/>
<circle cx="21.0001" cy="81.2246" r="1" fill="white"/>
<circle cx="21.0001" cy="91.2246" r="1" fill="white"/>
<circle cx="21.0001" cy="101.225" r="1" fill="white"/>
<circle cx="21.0001" cy="111.225" r="1" fill="white"/>
<circle cx="21.0001" cy="121.225" r="1" fill="white"/>
<circle cx="21.0001" cy="131.225" r="1" fill="white"/>
<circle cx="21.0001" cy="141.225" r="1" fill="white"/>
<circle cx="21.0001" cy="151.225" r="1" fill="white"/>
<circle cx="21.0001" cy="161.225" r="1" fill="white"/>
<circle cx="21.0001" cy="171.225" r="1" fill="white"/>
<circle cx="21.0001" cy="181.225" r="1" fill="white"/>
<circle cx="21.0001" cy="191.225" r="1" fill="white"/>
<circle cx="21.0001" cy="201.225" r="1" fill="white"/>
<circle cx="21.0001" cy="211.225" r="1" fill="white"/>
<circle cx="21.0001" cy="221.225" r="1" fill="white"/>
<circle cx="21.0001" cy="231.225" r="1" fill="white"/>
<circle cx="21.0001" cy="241.225" r="1" fill="white"/>
<circle cx="21.0001" cy="251.225" r="1" fill="white"/>
<circle cx="21.0001" cy="261.225" r="1" fill="white"/>
<circle cx="21.0001" cy="271.225" r="1" fill="white"/>
<circle cx="21.0001" cy="281.225" r="1" fill="white"/>
<circle cx="21.0001" cy="291.225" r="1" fill="white"/>
<circle cx="21.0001" cy="301.225" r="1" fill="white"/>
<circle cx="21.0001" cy="311.225" r="1" fill="white"/>
<circle cx="21.0001" cy="321.225" r="1" fill="white"/>
<circle cx="21.0001" cy="331.225" r="1" fill="white"/>
<circle cx="21.0001" cy="341.225" r="1" fill="white"/>
<circle cx="31.0001" cy="1.22461" r="1" fill="white"/>
<circle cx="31.0001" cy="11.2246" r="1" fill="white"/>
<circle cx="31.0001" cy="21.2246" r="1" fill="white"/>
<circle cx="31.0001" cy="31.2246" r="1" fill="white"/>
<circle cx="31.0001" cy="41.2246" r="1" fill="white"/>
<circle cx="31.0001" cy="51.2246" r="1" fill="white"/>
<circle cx="31.0001" cy="61.2246" r="1" fill="white"/>
<circle cx="31.0001" cy="71.2246" r="1" fill="white"/>
<circle cx="31.0001" cy="81.2246" r="1" fill="white"/>
<circle cx="31.0001" cy="91.2246" r="1" fill="white"/>
<circle cx="31.0001" cy="101.225" r="1" fill="white"/>
<circle cx="31.0001" cy="111.225" r="1" fill="white"/>
<circle cx="31.0001" cy="121.225" r="1" fill="white"/>
<circle cx="31.0001" cy="131.225" r="1" fill="white"/>
<circle cx="31.0001" cy="141.225" r="1" fill="white"/>
<circle cx="31.0001" cy="151.225" r="1" fill="white"/>
<circle cx="31.0001" cy="161.225" r="1" fill="white"/>
<circle cx="31.0001" cy="171.225" r="1" fill="white"/>
<circle cx="31.0001" cy="181.225" r="1" fill="white"/>
<circle cx="31.0001" cy="191.225" r="1" fill="white"/>
<circle cx="31.0001" cy="201.225" r="1" fill="white"/>
<circle cx="31.0001" cy="211.225" r="1" fill="white"/>
<circle cx="31.0001" cy="221.225" r="1" fill="white"/>
<circle cx="31.0001" cy="231.225" r="1" fill="white"/>
<circle cx="31.0001" cy="241.225" r="1" fill="white"/>
<circle cx="31.0001" cy="251.225" r="1" fill="white"/>
<circle cx="31.0001" cy="261.225" r="1" fill="white"/>
<circle cx="31.0001" cy="271.225" r="1" fill="white"/>
<circle cx="31.0001" cy="281.225" r="1" fill="white"/>
<circle cx="31.0001" cy="291.225" r="1" fill="white"/>
<circle cx="31.0001" cy="301.225" r="1" fill="white"/>
<circle cx="31.0001" cy="311.225" r="1" fill="white"/>
<circle cx="31.0001" cy="321.225" r="1" fill="white"/>
<circle cx="31.0001" cy="331.225" r="1" fill="white"/>
<circle cx="31.0001" cy="341.225" r="1" fill="white"/>
<circle cx="41.0001" cy="1.22461" r="1" fill="white"/>
<circle cx="41.0001" cy="11.2246" r="1" fill="white"/>
<circle cx="41.0001" cy="21.2246" r="1" fill="white"/>
<circle cx="41.0001" cy="31.2246" r="1" fill="white"/>
<circle cx="41.0001" cy="41.2246" r="1" fill="white"/>
<circle cx="41.0001" cy="51.2246" r="1" fill="white"/>
<circle cx="41.0001" cy="61.2246" r="1" fill="white"/>
<circle cx="41.0001" cy="71.2246" r="1" fill="white"/>
<circle cx="41.0001" cy="81.2246" r="1" fill="white"/>
<circle cx="41.0001" cy="91.2246" r="1" fill="white"/>
<circle cx="41.0001" cy="101.225" r="1" fill="white"/>
<circle cx="41.0001" cy="111.225" r="1" fill="white"/>
<circle cx="41.0001" cy="121.225" r="1" fill="white"/>
<circle cx="41.0001" cy="131.225" r="1" fill="white"/>
<circle cx="41.0001" cy="141.225" r="1" fill="white"/>
<circle cx="41.0001" cy="151.225" r="1" fill="white"/>
<circle cx="41.0001" cy="161.225" r="1" fill="white"/>
<circle cx="41.0001" cy="171.225" r="1" fill="white"/>
<circle cx="41.0001" cy="181.225" r="1" fill="white"/>
<circle cx="41.0001" cy="191.225" r="1" fill="white"/>
<circle cx="41.0001" cy="201.225" r="1" fill="white"/>
<circle cx="41.0001" cy="211.225" r="1" fill="white"/>
<circle cx="41.0001" cy="221.225" r="1" fill="white"/>
<circle cx="41.0001" cy="231.225" r="1" fill="white"/>
<circle cx="41.0001" cy="241.225" r="1" fill="white"/>
<circle cx="41.0001" cy="251.225" r="1" fill="white"/>
<circle cx="41.0001" cy="261.225" r="1" fill="white"/>
<circle cx="41.0001" cy="271.225" r="1" fill="white"/>
<circle cx="41.0001" cy="281.225" r="1" fill="white"/>
<circle cx="41.0001" cy="291.225" r="1" fill="white"/>
<circle cx="41.0001" cy="301.225" r="1" fill="white"/>
<circle cx="41.0001" cy="311.225" r="1" fill="white"/>
<circle cx="41.0001" cy="321.225" r="1" fill="white"/>
<circle cx="41.0001" cy="331.225" r="1" fill="white"/>
<circle cx="41.0001" cy="341.225" r="1" fill="white"/>
<circle cx="51.0001" cy="1.22461" r="1" fill="white"/>
<circle cx="51.0001" cy="11.2246" r="1" fill="white"/>
<circle cx="51.0001" cy="21.2246" r="1" fill="white"/>
<circle cx="51.0001" cy="31.2246" r="1" fill="white"/>
<circle cx="51.0001" cy="41.2246" r="1" fill="white"/>
<circle cx="51.0001" cy="51.2246" r="1" fill="white"/>
<circle cx="51.0001" cy="61.2246" r="1" fill="white"/>
<circle cx="51.0001" cy="71.2246" r="1" fill="white"/>
<circle cx="51.0001" cy="81.2246" r="1" fill="white"/>
<circle cx="51.0001" cy="91.2246" r="1" fill="white"/>
<circle cx="51.0001" cy="101.225" r="1" fill="white"/>
<circle cx="51.0001" cy="111.225" r="1" fill="white"/>
<circle cx="51.0001" cy="121.225" r="1" fill="white"/>
<circle cx="51.0001" cy="131.225" r="1" fill="white"/>
<circle cx="51.0001" cy="141.225" r="1" fill="white"/>
<circle cx="51.0001" cy="151.225" r="1" fill="white"/>
<circle cx="51.0001" cy="161.225" r="1" fill="white"/>
<circle cx="51.0001" cy="171.225" r="1" fill="white"/>
<circle cx="51.0001" cy="181.225" r="1" fill="white"/>
<circle cx="51.0001" cy="191.225" r="1" fill="white"/>
<circle cx="51.0001" cy="201.225" r="1" fill="white"/>
<circle cx="51.0001" cy="211.225" r="1" fill="white"/>
<circle cx="51.0001" cy="221.225" r="1" fill="white"/>
<circle cx="51.0001" cy="231.225" r="1" fill="white"/>
<circle cx="51.0001" cy="241.225" r="1" fill="white"/>
<circle cx="51.0001" cy="251.225" r="1" fill="white"/>
<circle cx="51.0001" cy="261.225" r="1" fill="white"/>
<circle cx="51.0001" cy="271.225" r="1" fill="white"/>
<circle cx="51.0001" cy="281.225" r="1" fill="white"/>
<circle cx="51.0001" cy="291.225" r="1" fill="white"/>
<circle cx="51.0001" cy="301.225" r="1" fill="white"/>
<circle cx="51.0001" cy="311.225" r="1" fill="white"/>
<circle cx="51.0001" cy="321.225" r="1" fill="white"/>
<circle cx="51.0001" cy="331.225" r="1" fill="white"/>
<circle cx="51.0001" cy="341.225" r="1" fill="white"/>
<circle cx="61.0001" cy="1.22461" r="1" fill="white"/>
<circle cx="61.0001" cy="11.2246" r="1" fill="white"/>
<circle cx="61.0001" cy="21.2246" r="1" fill="white"/>
<circle cx="61.0001" cy="31.2246" r="1" fill="white"/>
<circle cx="61.0001" cy="41.2246" r="1" fill="white"/>
<circle cx="61.0001" cy="51.2246" r="1" fill="white"/>
<circle cx="61.0001" cy="61.2246" r="1" fill="white"/>
<circle cx="61.0001" cy="71.2246" r="1" fill="white"/>
<circle cx="61.0001" cy="81.2246" r="1" fill="white"/>
<circle cx="61.0001" cy="91.2246" r="1" fill="white"/>
<circle cx="61.0001" cy="101.225" r="1" fill="white"/>
<circle cx="61.0001" cy="111.225" r="1" fill="white"/>
<circle cx="61.0001" cy="121.225" r="1" fill="white"/>
<circle cx="61.0001" cy="131.225" r="1" fill="white"/>
<circle cx="61.0001" cy="141.225" r="1" fill="white"/>
<circle cx="61.0001" cy="151.225" r="1" fill="white"/>
<circle cx="61.0001" cy="161.225" r="1" fill="white"/>
<circle cx="61.0001" cy="171.225" r="1" fill="white"/>
<circle cx="61.0001" cy="181.225" r="1" fill="white"/>
<circle cx="61.0001" cy="191.225" r="1" fill="white"/>
<circle cx="61.0001" cy="201.225" r="1" fill="white"/>
<circle cx="61.0001" cy="211.225" r="1" fill="white"/>
<circle cx="61.0001" cy="221.225" r="1" fill="white"/>
<circle cx="61.0001" cy="231.225" r="1" fill="white"/>
<circle cx="61.0001" cy="241.225" r="1" fill="white"/>
<circle cx="61.0001" cy="251.225" r="1" fill="white"/>
<circle cx="61.0001" cy="261.225" r="1" fill="white"/>
<circle cx="61.0001" cy="271.225" r="1" fill="white"/>
<circle cx="61.0001" cy="281.225" r="1" fill="white"/>
<circle cx="61.0001" cy="291.225" r="1" fill="white"/>
<circle cx="61.0001" cy="301.225" r="1" fill="white"/>
<circle cx="61.0001" cy="311.225" r="1" fill="white"/>
<circle cx="61.0001" cy="321.225" r="1" fill="white"/>
<circle cx="61.0001" cy="331.225" r="1" fill="white"/>
<circle cx="61.0001" cy="341.225" r="1" fill="white"/>
<circle cx="71.0001" cy="1.22461" r="1" fill="white"/>
<circle cx="71.0001" cy="11.2246" r="1" fill="white"/>
<circle cx="71.0001" cy="21.2246" r="1" fill="white"/>
<circle cx="71.0001" cy="31.2246" r="1" fill="white"/>
<circle cx="71.0001" cy="41.2246" r="1" fill="white"/>
<circle cx="71.0001" cy="51.2246" r="1" fill="white"/>
<circle cx="71.0001" cy="61.2246" r="1" fill="white"/>
<circle cx="71.0001" cy="71.2246" r="1" fill="white"/>
<circle cx="71.0001" cy="81.2246" r="1" fill="white"/>
<circle cx="71.0001" cy="91.2246" r="1" fill="white"/>
<circle cx="71.0001" cy="101.225" r="1" fill="white"/>
<circle cx="71.0001" cy="111.225" r="1" fill="white"/>
<circle cx="71.0001" cy="121.225" r="1" fill="white"/>
<circle cx="71.0001" cy="131.225" r="1" fill="white"/>
<circle cx="71.0001" cy="141.225" r="1" fill="white"/>
<circle cx="71.0001" cy="151.225" r="1" fill="white"/>
<circle cx="71.0001" cy="161.225" r="1" fill="white"/>
<circle cx="71.0001" cy="171.225" r="1" fill="white"/>
<circle cx="71.0001" cy="181.225" r="1" fill="white"/>
<circle cx="71.0001" cy="191.225" r="1" fill="white"/>
<circle cx="71.0001" cy="201.225" r="1" fill="white"/>
<circle cx="71.0001" cy="211.225" r="1" fill="white"/>
<circle cx="71.0001" cy="221.225" r="1" fill="white"/>
<circle cx="71.0001" cy="231.225" r="1" fill="white"/>
<circle cx="71.0001" cy="241.225" r="1" fill="white"/>
<circle cx="71.0001" cy="251.225" r="1" fill="white"/>
<circle cx="71.0001" cy="261.225" r="1" fill="white"/>
<circle cx="71.0001" cy="271.225" r="1" fill="white"/>
<circle cx="71.0001" cy="281.225" r="1" fill="white"/>
<circle cx="71.0001" cy="291.225" r="1" fill="white"/>
<circle cx="71.0001" cy="301.225" r="1" fill="white"/>
<circle cx="71.0001" cy="311.225" r="1" fill="white"/>
<circle cx="71.0001" cy="321.225" r="1" fill="white"/>
<circle cx="71.0001" cy="331.225" r="1" fill="white"/>
<circle cx="71.0001" cy="341.225" r="1" fill="white"/>
<circle cx="81.0001" cy="1.22461" r="1" fill="white"/>
<circle cx="81.0001" cy="11.2246" r="1" fill="white"/>
<circle cx="81.0001" cy="21.2246" r="1" fill="white"/>
<circle cx="81.0001" cy="31.2246" r="1" fill="white"/>
<circle cx="81.0001" cy="41.2246" r="1" fill="white"/>
<circle cx="81.0001" cy="51.2246" r="1" fill="white"/>
<circle cx="81.0001" cy="61.2246" r="1" fill="white"/>
<circle cx="81.0001" cy="71.2246" r="1" fill="white"/>
<circle cx="81.0001" cy="81.2246" r="1" fill="white"/>
<circle cx="81.0001" cy="91.2246" r="1" fill="white"/>
<circle cx="81.0001" cy="101.225" r="1" fill="white"/>
<circle cx="81.0001" cy="111.225" r="1" fill="white"/>
<circle cx="81.0001" cy="121.225" r="1" fill="white"/>
<circle cx="81.0001" cy="131.225" r="1" fill="white"/>
<circle cx="81.0001" cy="141.225" r="1" fill="white"/>
<circle cx="81.0001" cy="151.225" r="1" fill="white"/>
<circle cx="81.0001" cy="161.225" r="1" fill="white"/>
<circle cx="81.0001" cy="171.225" r="1" fill="white"/>
<circle cx="81.0001" cy="181.225" r="1" fill="white"/>
<circle cx="81.0001" cy="191.225" r="1" fill="white"/>
<circle cx="81.0001" cy="201.225" r="1" fill="white"/>
<circle cx="81.0001" cy="211.225" r="1" fill="white"/>
<circle cx="81.0001" cy="221.225" r="1" fill="white"/>
<circle cx="81.0001" cy="231.225" r="1" fill="white"/>
<circle cx="81.0001" cy="241.225" r="1" fill="white"/>
<circle cx="81.0001" cy="251.225" r="1" fill="white"/>
<circle cx="81.0001" cy="261.225" r="1" fill="white"/>
<circle cx="81.0001" cy="271.225" r="1" fill="white"/>
<circle cx="81.0001" cy="281.225" r="1" fill="white"/>
<circle cx="81.0001" cy="291.225" r="1" fill="white"/>
<circle cx="81.0001" cy="301.225" r="1" fill="white"/>
<circle cx="81.0001" cy="311.225" r="1" fill="white"/>
<circle cx="81.0001" cy="321.225" r="1" fill="white"/>
<circle cx="81.0001" cy="331.225" r="1" fill="white"/>
<circle cx="81.0001" cy="341.225" r="1" fill="white"/>
<circle cx="91.0001" cy="1.22461" r="1" fill="white"/>
<circle cx="91.0001" cy="11.2246" r="1" fill="white"/>
<circle cx="91.0001" cy="21.2246" r="1" fill="white"/>
<circle cx="91.0001" cy="31.2246" r="1" fill="white"/>
<circle cx="91.0001" cy="41.2246" r="1" fill="white"/>
<circle cx="91.0001" cy="51.2246" r="1" fill="white"/>
<circle cx="91.0001" cy="61.2246" r="1" fill="white"/>
<circle cx="91.0001" cy="71.2246" r="1" fill="white"/>
<circle cx="91.0001" cy="81.2246" r="1" fill="white"/>
<circle cx="91.0001" cy="91.2246" r="1" fill="white"/>
<circle cx="91.0001" cy="101.225" r="1" fill="white"/>
<circle cx="91.0001" cy="111.225" r="1" fill="white"/>
<circle cx="91.0001" cy="121.225" r="1" fill="white"/>
<circle cx="91.0001" cy="131.225" r="1" fill="white"/>
<circle cx="91.0001" cy="141.225" r="1" fill="white"/>
<circle cx="91.0001" cy="151.225" r="1" fill="white"/>
<circle cx="91.0001" cy="161.225" r="1" fill="white"/>
<circle cx="91.0001" cy="171.225" r="1" fill="white"/>
<circle cx="91.0001" cy="181.225" r="1" fill="white"/>
<circle cx="91.0001" cy="191.225" r="1" fill="white"/>
<circle cx="91.0001" cy="201.225" r="1" fill="white"/>
<circle cx="91.0001" cy="211.225" r="1" fill="white"/>
<circle cx="91.0001" cy="221.225" r="1" fill="white"/>
<circle cx="91.0001" cy="231.225" r="1" fill="white"/>
<circle cx="91.0001" cy="241.225" r="1" fill="white"/>
<circle cx="91.0001" cy="251.225" r="1" fill="white"/>
<circle cx="91.0001" cy="261.225" r="1" fill="white"/>
<circle cx="91.0001" cy="271.225" r="1" fill="white"/>
<circle cx="91.0001" cy="281.225" r="1" fill="white"/>
<circle cx="91.0001" cy="291.225" r="1" fill="white"/>
<circle cx="91.0001" cy="301.225" r="1" fill="white"/>
<circle cx="91.0001" cy="311.225" r="1" fill="white"/>
<circle cx="91.0001" cy="321.225" r="1" fill="white"/>
<circle cx="91.0001" cy="331.225" r="1" fill="white"/>
<circle cx="91.0001" cy="341.225" r="1" fill="white"/>
<circle cx="101" cy="1.22461" r="1" fill="white"/>
<circle cx="101" cy="11.2246" r="1" fill="white"/>
<circle cx="101" cy="21.2246" r="1" fill="white"/>
<circle cx="101" cy="31.2246" r="1" fill="white"/>
<circle cx="101" cy="41.2246" r="1" fill="white"/>
<circle cx="101" cy="51.2246" r="1" fill="white"/>
<circle cx="101" cy="61.2246" r="1" fill="white"/>
<circle cx="101" cy="71.2246" r="1" fill="white"/>
<circle cx="101" cy="81.2246" r="1" fill="white"/>
<circle cx="101" cy="91.2246" r="1" fill="white"/>
<circle cx="101" cy="101.225" r="1" fill="white"/>
<circle cx="101" cy="111.225" r="1" fill="white"/>
<circle cx="101" cy="121.225" r="1" fill="white"/>
<circle cx="101" cy="131.225" r="1" fill="white"/>
<circle cx="101" cy="141.225" r="1" fill="white"/>
<circle cx="101" cy="151.225" r="1" fill="white"/>
<circle cx="101" cy="161.225" r="1" fill="white"/>
<circle cx="101" cy="171.225" r="1" fill="white"/>
<circle cx="101" cy="181.225" r="1" fill="white"/>
<circle cx="101" cy="191.225" r="1" fill="white"/>
<circle cx="101" cy="201.225" r="1" fill="white"/>
<circle cx="101" cy="211.225" r="1" fill="white"/>
<circle cx="101" cy="221.225" r="1" fill="white"/>
<circle cx="101" cy="231.225" r="1" fill="white"/>
<circle cx="101" cy="241.225" r="1" fill="white"/>
<circle cx="101" cy="251.225" r="1" fill="white"/>
<circle cx="101" cy="261.225" r="1" fill="white"/>
<circle cx="101" cy="271.225" r="1" fill="white"/>
<circle cx="101" cy="281.225" r="1" fill="white"/>
<circle cx="101" cy="291.225" r="1" fill="white"/>
<circle cx="101" cy="301.225" r="1" fill="white"/>
<circle cx="101" cy="311.225" r="1" fill="white"/>
<circle cx="101" cy="321.225" r="1" fill="white"/>
<circle cx="101" cy="331.225" r="1" fill="white"/>
<circle cx="101" cy="341.225" r="1" fill="white"/>
<circle cx="111" cy="1.22461" r="1" fill="white"/>
<circle cx="111" cy="11.2246" r="1" fill="white"/>
<circle cx="111" cy="21.2246" r="1" fill="white"/>
<circle cx="111" cy="31.2246" r="1" fill="white"/>
<circle cx="111" cy="41.2246" r="1" fill="white"/>
<circle cx="111" cy="51.2246" r="1" fill="white"/>
<circle cx="111" cy="61.2246" r="1" fill="white"/>
<circle cx="111" cy="71.2246" r="1" fill="white"/>
<circle cx="111" cy="81.2246" r="1" fill="white"/>
<circle cx="111" cy="91.2246" r="1" fill="white"/>
<circle cx="111" cy="101.225" r="1" fill="white"/>
<circle cx="111" cy="111.225" r="1" fill="white"/>
<circle cx="111" cy="121.225" r="1" fill="white"/>
<circle cx="111" cy="131.225" r="1" fill="white"/>
<circle cx="111" cy="141.225" r="1" fill="white"/>
<circle cx="111" cy="151.225" r="1" fill="white"/>
<circle cx="111" cy="161.225" r="1" fill="white"/>
<circle cx="111" cy="171.225" r="1" fill="white"/>
<circle cx="111" cy="181.225" r="1" fill="white"/>
<circle cx="111" cy="191.225" r="1" fill="white"/>
<circle cx="111" cy="201.225" r="1" fill="white"/>
<circle cx="111" cy="211.225" r="1" fill="white"/>
<circle cx="111" cy="221.225" r="1" fill="white"/>
<circle cx="111" cy="231.225" r="1" fill="white"/>
<circle cx="111" cy="241.225" r="1" fill="white"/>
<circle cx="111" cy="251.225" r="1" fill="white"/>
<circle cx="111" cy="261.225" r="1" fill="white"/>
<circle cx="111" cy="271.225" r="1" fill="white"/>
<circle cx="111" cy="281.225" r="1" fill="white"/>
<circle cx="111" cy="291.225" r="1" fill="white"/>
<circle cx="111" cy="301.225" r="1" fill="white"/>
<circle cx="111" cy="311.225" r="1" fill="white"/>
<circle cx="111" cy="321.225" r="1" fill="white"/>
<circle cx="111" cy="331.225" r="1" fill="white"/>
<circle cx="111" cy="341.225" r="1" fill="white"/>
<circle cx="121" cy="1.22461" r="1" fill="white"/>
<circle cx="121" cy="11.2246" r="1" fill="white"/>
<circle cx="121" cy="21.2246" r="1" fill="white"/>
<circle cx="121" cy="31.2246" r="1" fill="white"/>
<circle cx="121" cy="41.2246" r="1" fill="white"/>
<circle cx="121" cy="51.2246" r="1" fill="white"/>
<circle cx="121" cy="61.2246" r="1" fill="white"/>
<circle cx="121" cy="71.2246" r="1" fill="white"/>
<circle cx="121" cy="81.2246" r="1" fill="white"/>
<circle cx="121" cy="91.2246" r="1" fill="white"/>
<circle cx="121" cy="101.225" r="1" fill="white"/>
<circle cx="121" cy="111.225" r="1" fill="white"/>
<circle cx="121" cy="121.225" r="1" fill="white"/>
<circle cx="121" cy="131.225" r="1" fill="white"/>
<circle cx="121" cy="141.225" r="1" fill="white"/>
<circle cx="121" cy="151.225" r="1" fill="white"/>
<circle cx="121" cy="161.225" r="1" fill="white"/>
<circle cx="121" cy="171.225" r="1" fill="white"/>
<circle cx="121" cy="181.225" r="1" fill="white"/>
<circle cx="121" cy="191.225" r="1" fill="white"/>
<circle cx="121" cy="201.225" r="1" fill="white"/>
<circle cx="121" cy="211.225" r="1" fill="white"/>
<circle cx="121" cy="221.225" r="1" fill="white"/>
<circle cx="121" cy="231.225" r="1" fill="white"/>
<circle cx="121" cy="241.225" r="1" fill="white"/>
<circle cx="121" cy="251.225" r="1" fill="white"/>
<circle cx="121" cy="261.225" r="1" fill="white"/>
<circle cx="121" cy="271.225" r="1" fill="white"/>
<circle cx="121" cy="281.225" r="1" fill="white"/>
<circle cx="121" cy="291.225" r="1" fill="white"/>
<circle cx="121" cy="301.225" r="1" fill="white"/>
<circle cx="121" cy="311.225" r="1" fill="white"/>
<circle cx="121" cy="321.225" r="1" fill="white"/>
<circle cx="121" cy="331.225" r="1" fill="white"/>
<circle cx="121" cy="341.225" r="1" fill="white"/>
<circle cx="131" cy="1.22461" r="1" fill="white"/>
<circle cx="131" cy="11.2246" r="1" fill="white"/>
<circle cx="131" cy="21.2246" r="1" fill="white"/>
<circle cx="131" cy="31.2246" r="1" fill="white"/>
<circle cx="131" cy="41.2246" r="1" fill="white"/>
<circle cx="131" cy="51.2246" r="1" fill="white"/>
<circle cx="131" cy="61.2246" r="1" fill="white"/>
<circle cx="131" cy="71.2246" r="1" fill="white"/>
<circle cx="131" cy="81.2246" r="1" fill="white"/>
<circle cx="131" cy="91.2246" r="1" fill="white"/>
<circle cx="131" cy="101.225" r="1" fill="white"/>
<circle cx="131" cy="111.225" r="1" fill="white"/>
<circle cx="131" cy="121.225" r="1" fill="white"/>
<circle cx="131" cy="131.225" r="1" fill="white"/>
<circle cx="131" cy="141.225" r="1" fill="white"/>
<circle cx="131" cy="151.225" r="1" fill="white"/>
<circle cx="131" cy="161.225" r="1" fill="white"/>
<circle cx="131" cy="171.225" r="1" fill="white"/>
<circle cx="131" cy="181.225" r="1" fill="white"/>
<circle cx="131" cy="191.225" r="1" fill="white"/>
<circle cx="131" cy="201.225" r="1" fill="white"/>
<circle cx="131" cy="211.225" r="1" fill="white"/>
<circle cx="131" cy="221.225" r="1" fill="white"/>
<circle cx="131" cy="231.225" r="1" fill="white"/>
<circle cx="131" cy="241.225" r="1" fill="white"/>
<circle cx="131" cy="251.225" r="1" fill="white"/>
<circle cx="131" cy="261.225" r="1" fill="white"/>
<circle cx="131" cy="271.225" r="1" fill="white"/>
<circle cx="131" cy="281.225" r="1" fill="white"/>
<circle cx="131" cy="291.225" r="1" fill="white"/>
<circle cx="131" cy="301.225" r="1" fill="white"/>
<circle cx="131" cy="311.225" r="1" fill="white"/>
<circle cx="131" cy="321.225" r="1" fill="white"/>
<circle cx="131" cy="331.225" r="1" fill="white"/>
<circle cx="131" cy="341.225" r="1" fill="white"/>
<circle cx="141" cy="1.22461" r="1" fill="white"/>
<circle cx="141" cy="11.2246" r="1" fill="white"/>
<circle cx="141" cy="21.2246" r="1" fill="white"/>
<circle cx="141" cy="31.2246" r="1" fill="white"/>
<circle cx="141" cy="41.2246" r="1" fill="white"/>
<circle cx="141" cy="51.2246" r="1" fill="white"/>
<circle cx="141" cy="61.2246" r="1" fill="white"/>
<circle cx="141" cy="71.2246" r="1" fill="white"/>
<circle cx="141" cy="81.2246" r="1" fill="white"/>
<circle cx="141" cy="91.2246" r="1" fill="white"/>
<circle cx="141" cy="101.225" r="1" fill="white"/>
<circle cx="141" cy="111.225" r="1" fill="white"/>
<circle cx="141" cy="121.225" r="1" fill="white"/>
<circle cx="141" cy="131.225" r="1" fill="white"/>
<circle cx="141" cy="141.225" r="1" fill="white"/>
<circle cx="141" cy="151.225" r="1" fill="white"/>
<circle cx="141" cy="161.225" r="1" fill="white"/>
<circle cx="141" cy="171.225" r="1" fill="white"/>
<circle cx="141" cy="181.225" r="1" fill="white"/>
<circle cx="141" cy="191.225" r="1" fill="white"/>
<circle cx="141" cy="201.225" r="1" fill="white"/>
<circle cx="141" cy="211.225" r="1" fill="white"/>
<circle cx="141" cy="221.225" r="1" fill="white"/>
<circle cx="141" cy="231.225" r="1" fill="white"/>
<circle cx="141" cy="241.225" r="1" fill="white"/>
<circle cx="141" cy="251.225" r="1" fill="white"/>
<circle cx="141" cy="261.225" r="1" fill="white"/>
<circle cx="141" cy="271.225" r="1" fill="white"/>
<circle cx="141" cy="281.225" r="1" fill="white"/>
<circle cx="141" cy="291.225" r="1" fill="white"/>
<circle cx="141" cy="301.225" r="1" fill="white"/>
<circle cx="141" cy="311.225" r="1" fill="white"/>
<circle cx="141" cy="321.225" r="1" fill="white"/>
<circle cx="141" cy="331.225" r="1" fill="white"/>
<circle cx="141" cy="341.225" r="1" fill="white"/>
<circle cx="151" cy="1.22461" r="1" fill="white"/>
<circle cx="151" cy="11.2246" r="1" fill="white"/>
<circle cx="151" cy="21.2246" r="1" fill="white"/>
<circle cx="151" cy="31.2246" r="1" fill="white"/>
<circle cx="151" cy="41.2246" r="1" fill="white"/>
<circle cx="151" cy="51.2246" r="1" fill="white"/>
<circle cx="151" cy="61.2246" r="1" fill="white"/>
<circle cx="151" cy="71.2246" r="1" fill="white"/>
<circle cx="151" cy="81.2246" r="1" fill="white"/>
<circle cx="151" cy="91.2246" r="1" fill="white"/>
<circle cx="151" cy="101.225" r="1" fill="white"/>
<circle cx="151" cy="111.225" r="1" fill="white"/>
<circle cx="151" cy="121.225" r="1" fill="white"/>
<circle cx="151" cy="131.225" r="1" fill="white"/>
<circle cx="151" cy="141.225" r="1" fill="white"/>
<circle cx="151" cy="151.225" r="1" fill="white"/>
<circle cx="151" cy="161.225" r="1" fill="white"/>
<circle cx="151" cy="171.225" r="1" fill="white"/>
<circle cx="151" cy="181.225" r="1" fill="white"/>
<circle cx="151" cy="191.225" r="1" fill="white"/>
<circle cx="151" cy="201.225" r="1" fill="white"/>
<circle cx="151" cy="211.225" r="1" fill="white"/>
<circle cx="151" cy="221.225" r="1" fill="white"/>
<circle cx="151" cy="231.225" r="1" fill="white"/>
<circle cx="151" cy="241.225" r="1" fill="white"/>
<circle cx="151" cy="251.225" r="1" fill="white"/>
<circle cx="151" cy="261.225" r="1" fill="white"/>
<circle cx="151" cy="271.225" r="1" fill="white"/>
<circle cx="151" cy="281.225" r="1" fill="white"/>
<circle cx="151" cy="291.225" r="1" fill="white"/>
<circle cx="151" cy="301.225" r="1" fill="white"/>
<circle cx="151" cy="311.225" r="1" fill="white"/>
<circle cx="151" cy="321.225" r="1" fill="white"/>
<circle cx="151" cy="331.225" r="1" fill="white"/>
<circle cx="151" cy="341.225" r="1" fill="white"/>
<circle cx="161" cy="1.22461" r="1" fill="white"/>
<circle cx="161" cy="11.2246" r="1" fill="white"/>
<circle cx="161" cy="21.2246" r="1" fill="white"/>
<circle cx="161" cy="31.2246" r="1" fill="white"/>
<circle cx="161" cy="41.2246" r="1" fill="white"/>
<circle cx="161" cy="51.2246" r="1" fill="white"/>
<circle cx="161" cy="61.2246" r="1" fill="white"/>
<circle cx="161" cy="71.2246" r="1" fill="white"/>
<circle cx="161" cy="81.2246" r="1" fill="white"/>
<circle cx="161" cy="91.2246" r="1" fill="white"/>
<circle cx="161" cy="101.225" r="1" fill="white"/>
<circle cx="161" cy="111.225" r="1" fill="white"/>
<circle cx="161" cy="121.225" r="1" fill="white"/>
<circle cx="161" cy="131.225" r="1" fill="white"/>
<circle cx="161" cy="141.225" r="1" fill="white"/>
<circle cx="161" cy="151.225" r="1" fill="white"/>
<circle cx="161" cy="161.225" r="1" fill="white"/>
<circle cx="161" cy="171.225" r="1" fill="white"/>
<circle cx="161" cy="181.225" r="1" fill="white"/>
<circle cx="161" cy="191.225" r="1" fill="white"/>
<circle cx="161" cy="201.225" r="1" fill="white"/>
<circle cx="161" cy="211.225" r="1" fill="white"/>
<circle cx="161" cy="221.225" r="1" fill="white"/>
<circle cx="161" cy="231.225" r="1" fill="white"/>
<circle cx="161" cy="241.225" r="1" fill="white"/>
<circle cx="161" cy="251.225" r="1" fill="white"/>
<circle cx="161" cy="261.225" r="1" fill="white"/>
<circle cx="161" cy="271.225" r="1" fill="white"/>
<circle cx="161" cy="281.225" r="1" fill="white"/>
<circle cx="161" cy="291.225" r="1" fill="white"/>
<circle cx="161" cy="301.225" r="1" fill="white"/>
<circle cx="161" cy="311.225" r="1" fill="white"/>
<circle cx="161" cy="321.225" r="1" fill="white"/>
<circle cx="161" cy="331.225" r="1" fill="white"/>
<circle cx="161" cy="341.225" r="1" fill="white"/>
<circle cx="171" cy="1.22461" r="1" fill="white"/>
<circle cx="171" cy="11.2246" r="1" fill="white"/>
<circle cx="171" cy="21.2246" r="1" fill="white"/>
<circle cx="171" cy="31.2246" r="1" fill="white"/>
<circle cx="171" cy="41.2246" r="1" fill="white"/>
<circle cx="171" cy="51.2246" r="1" fill="white"/>
<circle cx="171" cy="61.2246" r="1" fill="white"/>
<circle cx="171" cy="71.2246" r="1" fill="white"/>
<circle cx="171" cy="81.2246" r="1" fill="white"/>
<circle cx="171" cy="91.2246" r="1" fill="white"/>
<circle cx="171" cy="101.225" r="1" fill="white"/>
<circle cx="171" cy="111.225" r="1" fill="white"/>
<circle cx="171" cy="121.225" r="1" fill="white"/>
<circle cx="171" cy="131.225" r="1" fill="white"/>
<circle cx="171" cy="141.225" r="1" fill="white"/>
<circle cx="171" cy="151.225" r="1" fill="white"/>
<circle cx="171" cy="161.225" r="1" fill="white"/>
<circle cx="171" cy="171.225" r="1" fill="white"/>
<circle cx="171" cy="181.225" r="1" fill="white"/>
<circle cx="171" cy="191.225" r="1" fill="white"/>
<circle cx="171" cy="201.225" r="1" fill="white"/>
<circle cx="171" cy="211.225" r="1" fill="white"/>
<circle cx="171" cy="221.225" r="1" fill="white"/>
<circle cx="171" cy="231.225" r="1" fill="white"/>
<circle cx="171" cy="241.225" r="1" fill="white"/>
<circle cx="171" cy="251.225" r="1" fill="white"/>
<circle cx="171" cy="261.225" r="1" fill="white"/>
<circle cx="171" cy="271.225" r="1" fill="white"/>
<circle cx="171" cy="281.225" r="1" fill="white"/>
<circle cx="171" cy="291.225" r="1" fill="white"/>
<circle cx="171" cy="301.225" r="1" fill="white"/>
<circle cx="171" cy="311.225" r="1" fill="white"/>
<circle cx="171" cy="321.225" r="1" fill="white"/>
<circle cx="171" cy="331.225" r="1" fill="white"/>
<circle cx="171" cy="341.225" r="1" fill="white"/>
<circle cx="181" cy="1.22461" r="1" fill="white"/>
<circle cx="181" cy="11.2246" r="1" fill="white"/>
<circle cx="181" cy="21.2246" r="1" fill="white"/>
<circle cx="181" cy="31.2246" r="1" fill="white"/>
<circle cx="181" cy="41.2246" r="1" fill="white"/>
<circle cx="181" cy="51.2246" r="1" fill="white"/>
<circle cx="181" cy="61.2246" r="1" fill="white"/>
<circle cx="181" cy="71.2246" r="1" fill="white"/>
<circle cx="181" cy="81.2246" r="1" fill="white"/>
<circle cx="181" cy="91.2246" r="1" fill="white"/>
<circle cx="181" cy="101.225" r="1" fill="white"/>
<circle cx="181" cy="111.225" r="1" fill="white"/>
<circle cx="181" cy="121.225" r="1" fill="white"/>
<circle cx="181" cy="131.225" r="1" fill="white"/>
<circle cx="181" cy="141.225" r="1" fill="white"/>
<circle cx="181" cy="151.225" r="1" fill="white"/>
<circle cx="181" cy="161.225" r="1" fill="white"/>
<circle cx="181" cy="171.225" r="1" fill="white"/>
<circle cx="181" cy="181.225" r="1" fill="white"/>
<circle cx="181" cy="191.225" r="1" fill="white"/>
<circle cx="181" cy="201.225" r="1" fill="white"/>
<circle cx="181" cy="211.225" r="1" fill="white"/>
<circle cx="181" cy="221.225" r="1" fill="white"/>
<circle cx="181" cy="231.225" r="1" fill="white"/>
<circle cx="181" cy="241.225" r="1" fill="white"/>
<circle cx="181" cy="251.225" r="1" fill="white"/>
<circle cx="181" cy="261.225" r="1" fill="white"/>
<circle cx="181" cy="271.225" r="1" fill="white"/>
<circle cx="181" cy="281.225" r="1" fill="white"/>
<circle cx="181" cy="291.225" r="1" fill="white"/>
<circle cx="181" cy="301.225" r="1" fill="white"/>
<circle cx="181" cy="311.225" r="1" fill="white"/>
<circle cx="181" cy="321.225" r="1" fill="white"/>
<circle cx="181" cy="331.225" r="1" fill="white"/>
<circle cx="181" cy="341.225" r="1" fill="white"/>
<circle cx="191" cy="1.22461" r="1" fill="white"/>
<circle cx="191" cy="11.2246" r="1" fill="white"/>
<circle cx="191" cy="21.2246" r="1" fill="white"/>
<circle cx="191" cy="31.2246" r="1" fill="white"/>
<circle cx="191" cy="41.2246" r="1" fill="white"/>
<circle cx="191" cy="51.2246" r="1" fill="white"/>
<circle cx="191" cy="61.2246" r="1" fill="white"/>
<circle cx="191" cy="71.2246" r="1" fill="white"/>
<circle cx="191" cy="81.2246" r="1" fill="white"/>
<circle cx="191" cy="91.2246" r="1" fill="white"/>
<circle cx="191" cy="101.225" r="1" fill="white"/>
<circle cx="191" cy="111.225" r="1" fill="white"/>
<circle cx="191" cy="121.225" r="1" fill="white"/>
<circle cx="191" cy="131.225" r="1" fill="white"/>
<circle cx="191" cy="141.225" r="1" fill="white"/>
<circle cx="191" cy="151.225" r="1" fill="white"/>
<circle cx="191" cy="161.225" r="1" fill="white"/>
<circle cx="191" cy="171.225" r="1" fill="white"/>
<circle cx="191" cy="181.225" r="1" fill="white"/>
<circle cx="191" cy="191.225" r="1" fill="white"/>
<circle cx="191" cy="201.225" r="1" fill="white"/>
<circle cx="191" cy="211.225" r="1" fill="white"/>
<circle cx="191" cy="221.225" r="1" fill="white"/>
<circle cx="191" cy="231.225" r="1" fill="white"/>
<circle cx="191" cy="241.225" r="1" fill="white"/>
<circle cx="191" cy="251.225" r="1" fill="white"/>
<circle cx="191" cy="261.225" r="1" fill="white"/>
<circle cx="191" cy="271.225" r="1" fill="white"/>
<circle cx="191" cy="281.225" r="1" fill="white"/>
<circle cx="191" cy="291.225" r="1" fill="white"/>
<circle cx="191" cy="301.225" r="1" fill="white"/>
<circle cx="191" cy="311.225" r="1" fill="white"/>
<circle cx="191" cy="321.225" r="1" fill="white"/>
<circle cx="191" cy="331.225" r="1" fill="white"/>
<circle cx="191" cy="341.225" r="1" fill="white"/>
<circle cx="201" cy="1.22461" r="1" fill="white"/>
<circle cx="201" cy="11.2246" r="1" fill="white"/>
<circle cx="201" cy="21.2246" r="1" fill="white"/>
<circle cx="201" cy="31.2246" r="1" fill="white"/>
<circle cx="201" cy="41.2246" r="1" fill="white"/>
<circle cx="201" cy="51.2246" r="1" fill="white"/>
<circle cx="201" cy="61.2246" r="1" fill="white"/>
<circle cx="201" cy="71.2246" r="1" fill="white"/>
<circle cx="201" cy="81.2246" r="1" fill="white"/>
<circle cx="201" cy="91.2246" r="1" fill="white"/>
<circle cx="201" cy="101.225" r="1" fill="white"/>
<circle cx="201" cy="111.225" r="1" fill="white"/>
<circle cx="201" cy="121.225" r="1" fill="white"/>
<circle cx="201" cy="131.225" r="1" fill="white"/>
<circle cx="201" cy="141.225" r="1" fill="white"/>
<circle cx="201" cy="151.225" r="1" fill="white"/>
<circle cx="201" cy="161.225" r="1" fill="white"/>
<circle cx="201" cy="171.225" r="1" fill="white"/>
<circle cx="201" cy="181.225" r="1" fill="white"/>
<circle cx="201" cy="191.225" r="1" fill="white"/>
<circle cx="201" cy="201.225" r="1" fill="white"/>
<circle cx="201" cy="211.225" r="1" fill="white"/>
<circle cx="201" cy="221.225" r="1" fill="white"/>
<circle cx="201" cy="231.225" r="1" fill="white"/>
<circle cx="201" cy="241.225" r="1" fill="white"/>
<circle cx="201" cy="251.225" r="1" fill="white"/>
<circle cx="201" cy="261.225" r="1" fill="white"/>
<circle cx="201" cy="271.225" r="1" fill="white"/>
<circle cx="201" cy="281.225" r="1" fill="white"/>
<circle cx="201" cy="291.225" r="1" fill="white"/>
<circle cx="201" cy="301.225" r="1" fill="white"/>
<circle cx="201" cy="311.225" r="1" fill="white"/>
<circle cx="201" cy="321.225" r="1" fill="white"/>
<circle cx="201" cy="331.225" r="1" fill="white"/>
<circle cx="201" cy="341.225" r="1" fill="white"/>
</svg>
