<svg width="152" height="135" viewBox="0 0 152 135" fill="none" xmlns="http://www.w3.org/2000/svg">
<mask id="mask0" mask-type="alpha" maskUnits="userSpaceOnUse" x="0" y="-1" width="152" height="136">
<rect x="152" y="-0.000488281" width="135" height="152" transform="rotate(90 152 -0.000488281)" fill="#C4C4C4"/>
</mask>
<g mask="url(#mask0)">
<circle cx="146" cy="7.9995" r="1" transform="rotate(90 146 7.9995)" fill="#1589D4"/>
<circle cx="136" cy="7.9995" r="1" transform="rotate(90 136 7.9995)" fill="#1589D4"/>
<circle cx="126" cy="7.9995" r="1" transform="rotate(90 126 7.9995)" fill="#1589D4"/>
<circle cx="116" cy="7.9995" r="1" transform="rotate(90 116 7.9995)" fill="#1589D4"/>
<circle cx="106" cy="7.9995" r="1" transform="rotate(90 106 7.9995)" fill="#1589D4"/>
<circle cx="96" cy="7.9995" r="1" transform="rotate(90 96 7.9995)" fill="#1589D4"/>
<circle cx="86" cy="7.9995" r="1" transform="rotate(90 86 7.9995)" fill="#1589D4"/>
<circle cx="76" cy="7.9995" r="1" transform="rotate(90 76 7.9995)" fill="#1589D4"/>
<circle cx="66" cy="7.9995" r="1" transform="rotate(90 66 7.9995)" fill="#1589D4"/>
<circle cx="56" cy="7.9995" r="1" transform="rotate(90 56 7.9995)" fill="#1589D4"/>
<circle cx="46" cy="7.9995" r="1" transform="rotate(90 46 7.9995)" fill="#1589D4"/>
<circle cx="36" cy="7.9995" r="1" transform="rotate(90 36 7.9995)" fill="#1589D4"/>
<circle cx="26" cy="7.9995" r="1" transform="rotate(90 26 7.9995)" fill="#1589D4"/>
<circle cx="16" cy="7.9995" r="1" transform="rotate(90 16 7.9995)" fill="#1589D4"/>
<circle cx="6" cy="7.9995" r="1" transform="rotate(90 6 7.9995)" fill="#1589D4"/>
<circle cx="146" cy="17.9995" r="1" transform="rotate(90 146 17.9995)" fill="#1589D4"/>
<circle cx="136" cy="17.9995" r="1" transform="rotate(90 136 17.9995)" fill="#1589D4"/>
<circle cx="126" cy="17.9995" r="1" transform="rotate(90 126 17.9995)" fill="#1589D4"/>
<circle cx="116" cy="17.9995" r="1" transform="rotate(90 116 17.9995)" fill="#1589D4"/>
<circle cx="106" cy="17.9995" r="1" transform="rotate(90 106 17.9995)" fill="#1589D4"/>
<circle cx="96" cy="17.9995" r="1" transform="rotate(90 96 17.9995)" fill="#1589D4"/>
<circle cx="86" cy="17.9995" r="1" transform="rotate(90 86 17.9995)" fill="#1589D4"/>
<circle cx="76" cy="17.9995" r="1" transform="rotate(90 76 17.9995)" fill="#1589D4"/>
<circle cx="66" cy="17.9995" r="1" transform="rotate(90 66 17.9995)" fill="#1589D4"/>
<circle cx="56" cy="17.9995" r="1" transform="rotate(90 56 17.9995)" fill="#1589D4"/>
<circle cx="46" cy="17.9995" r="1" transform="rotate(90 46 17.9995)" fill="#1589D4"/>
<circle cx="36" cy="17.9995" r="1" transform="rotate(90 36 17.9995)" fill="#1589D4"/>
<circle cx="26" cy="17.9995" r="1" transform="rotate(90 26 17.9995)" fill="#1589D4"/>
<circle cx="16" cy="17.9995" r="1" transform="rotate(90 16 17.9995)" fill="#1589D4"/>
<circle cx="6" cy="17.9995" r="1" transform="rotate(90 6 17.9995)" fill="#1589D4"/>
<circle cx="146" cy="27.9995" r="1" transform="rotate(90 146 27.9995)" fill="#1589D4"/>
<circle cx="136" cy="27.9995" r="1" transform="rotate(90 136 27.9995)" fill="#1589D4"/>
<circle cx="126" cy="27.9995" r="1" transform="rotate(90 126 27.9995)" fill="#1589D4"/>
<circle cx="116" cy="27.9995" r="1" transform="rotate(90 116 27.9995)" fill="#1589D4"/>
<circle cx="106" cy="27.9995" r="1" transform="rotate(90 106 27.9995)" fill="#1589D4"/>
<circle cx="96" cy="27.9995" r="1" transform="rotate(90 96 27.9995)" fill="#1589D4"/>
<circle cx="86" cy="27.9995" r="1" transform="rotate(90 86 27.9995)" fill="#1589D4"/>
<circle cx="76" cy="27.9995" r="1" transform="rotate(90 76 27.9995)" fill="#1589D4"/>
<circle cx="66" cy="27.9995" r="1" transform="rotate(90 66 27.9995)" fill="#1589D4"/>
<circle cx="56" cy="27.9995" r="1" transform="rotate(90 56 27.9995)" fill="#1589D4"/>
<circle cx="46" cy="27.9995" r="1" transform="rotate(90 46 27.9995)" fill="#1589D4"/>
<circle cx="36" cy="27.9995" r="1" transform="rotate(90 36 27.9995)" fill="#1589D4"/>
<circle cx="26" cy="27.9995" r="1" transform="rotate(90 26 27.9995)" fill="#1589D4"/>
<circle cx="16" cy="27.9995" r="1" transform="rotate(90 16 27.9995)" fill="#1589D4"/>
<circle cx="6" cy="27.9995" r="1" transform="rotate(90 6 27.9995)" fill="#1589D4"/>
<circle cx="146" cy="37.9995" r="1" transform="rotate(90 146 37.9995)" fill="#1589D4"/>
<circle cx="136" cy="37.9995" r="1" transform="rotate(90 136 37.9995)" fill="#1589D4"/>
<circle cx="126" cy="37.9995" r="1" transform="rotate(90 126 37.9995)" fill="#1589D4"/>
<circle cx="116" cy="37.9995" r="1" transform="rotate(90 116 37.9995)" fill="#1589D4"/>
<circle cx="106" cy="37.9995" r="1" transform="rotate(90 106 37.9995)" fill="#1589D4"/>
<circle cx="96" cy="37.9995" r="1" transform="rotate(90 96 37.9995)" fill="#1589D4"/>
<circle cx="86" cy="37.9995" r="1" transform="rotate(90 86 37.9995)" fill="#1589D4"/>
<circle cx="76" cy="37.9995" r="1" transform="rotate(90 76 37.9995)" fill="#1589D4"/>
<circle cx="66" cy="37.9995" r="1" transform="rotate(90 66 37.9995)" fill="#1589D4"/>
<circle cx="56" cy="37.9995" r="1" transform="rotate(90 56 37.9995)" fill="#1589D4"/>
<circle cx="46" cy="37.9995" r="1" transform="rotate(90 46 37.9995)" fill="#1589D4"/>
<circle cx="36" cy="37.9995" r="1" transform="rotate(90 36 37.9995)" fill="#1589D4"/>
<circle cx="26" cy="37.9995" r="1" transform="rotate(90 26 37.9995)" fill="#1589D4"/>
<circle cx="16" cy="37.9995" r="1" transform="rotate(90 16 37.9995)" fill="#1589D4"/>
<circle cx="6" cy="37.9995" r="1" transform="rotate(90 6 37.9995)" fill="#1589D4"/>
<circle cx="146" cy="47.9995" r="1" transform="rotate(90 146 47.9995)" fill="#1589D4"/>
<circle cx="136" cy="47.9995" r="1" transform="rotate(90 136 47.9995)" fill="#1589D4"/>
<circle cx="126" cy="47.9995" r="1" transform="rotate(90 126 47.9995)" fill="#1589D4"/>
<circle cx="116" cy="47.9995" r="1" transform="rotate(90 116 47.9995)" fill="#1589D4"/>
<circle cx="106" cy="47.9995" r="1" transform="rotate(90 106 47.9995)" fill="#1589D4"/>
<circle cx="96" cy="47.9995" r="1" transform="rotate(90 96 47.9995)" fill="#1589D4"/>
<circle cx="86" cy="47.9995" r="1" transform="rotate(90 86 47.9995)" fill="#1589D4"/>
<circle cx="76" cy="47.9995" r="1" transform="rotate(90 76 47.9995)" fill="#1589D4"/>
<circle cx="66" cy="47.9995" r="1" transform="rotate(90 66 47.9995)" fill="#1589D4"/>
<circle cx="56" cy="47.9995" r="1" transform="rotate(90 56 47.9995)" fill="#1589D4"/>
<circle cx="46" cy="47.9995" r="1" transform="rotate(90 46 47.9995)" fill="#1589D4"/>
<circle cx="36" cy="47.9995" r="1" transform="rotate(90 36 47.9995)" fill="#1589D4"/>
<circle cx="26" cy="47.9995" r="1" transform="rotate(90 26 47.9995)" fill="#1589D4"/>
<circle cx="16" cy="47.9995" r="1" transform="rotate(90 16 47.9995)" fill="#1589D4"/>
<circle cx="6" cy="47.9995" r="1" transform="rotate(90 6 47.9995)" fill="#1589D4"/>
<circle cx="146" cy="57.9995" r="1" transform="rotate(90 146 57.9995)" fill="#1589D4"/>
<circle cx="136" cy="57.9995" r="1" transform="rotate(90 136 57.9995)" fill="#1589D4"/>
<circle cx="126" cy="57.9995" r="1" transform="rotate(90 126 57.9995)" fill="#1589D4"/>
<circle cx="116" cy="57.9995" r="1" transform="rotate(90 116 57.9995)" fill="#1589D4"/>
<circle cx="106" cy="57.9995" r="1" transform="rotate(90 106 57.9995)" fill="#1589D4"/>
<circle cx="96" cy="57.9995" r="1" transform="rotate(90 96 57.9995)" fill="#1589D4"/>
<circle cx="86" cy="57.9995" r="1" transform="rotate(90 86 57.9995)" fill="#1589D4"/>
<circle cx="76" cy="57.9995" r="1" transform="rotate(90 76 57.9995)" fill="#1589D4"/>
<circle cx="66" cy="57.9995" r="1" transform="rotate(90 66 57.9995)" fill="#1589D4"/>
<circle cx="56" cy="57.9995" r="1" transform="rotate(90 56 57.9995)" fill="#1589D4"/>
<circle cx="46" cy="57.9995" r="1" transform="rotate(90 46 57.9995)" fill="#1589D4"/>
<circle cx="36" cy="57.9995" r="1" transform="rotate(90 36 57.9995)" fill="#1589D4"/>
<circle cx="26" cy="57.9995" r="1" transform="rotate(90 26 57.9995)" fill="#1589D4"/>
<circle cx="16" cy="57.9995" r="1" transform="rotate(90 16 57.9995)" fill="#1589D4"/>
<circle cx="6" cy="57.9995" r="1" transform="rotate(90 6 57.9995)" fill="#1589D4"/>
<circle cx="146" cy="67.9995" r="1" transform="rotate(90 146 67.9995)" fill="#1589D4"/>
<circle cx="136" cy="67.9995" r="1" transform="rotate(90 136 67.9995)" fill="#1589D4"/>
<circle cx="126" cy="67.9995" r="1" transform="rotate(90 126 67.9995)" fill="#1589D4"/>
<circle cx="116" cy="67.9995" r="1" transform="rotate(90 116 67.9995)" fill="#1589D4"/>
<circle cx="106" cy="67.9995" r="1" transform="rotate(90 106 67.9995)" fill="#1589D4"/>
<circle cx="96" cy="67.9995" r="1" transform="rotate(90 96 67.9995)" fill="#1589D4"/>
<circle cx="86" cy="67.9995" r="1" transform="rotate(90 86 67.9995)" fill="#1589D4"/>
<circle cx="76" cy="67.9995" r="1" transform="rotate(90 76 67.9995)" fill="#1589D4"/>
<circle cx="66" cy="67.9995" r="1" transform="rotate(90 66 67.9995)" fill="#1589D4"/>
<circle cx="56" cy="67.9995" r="1" transform="rotate(90 56 67.9995)" fill="#1589D4"/>
<circle cx="46" cy="67.9995" r="1" transform="rotate(90 46 67.9995)" fill="#1589D4"/>
<circle cx="36" cy="67.9995" r="1" transform="rotate(90 36 67.9995)" fill="#1589D4"/>
<circle cx="26" cy="67.9995" r="1" transform="rotate(90 26 67.9995)" fill="#1589D4"/>
<circle cx="16" cy="67.9995" r="1" transform="rotate(90 16 67.9995)" fill="#1589D4"/>
<circle cx="6" cy="67.9995" r="1" transform="rotate(90 6 67.9995)" fill="#1589D4"/>
<circle cx="146" cy="77.9995" r="1" transform="rotate(90 146 77.9995)" fill="#1589D4"/>
<circle cx="136" cy="77.9995" r="1" transform="rotate(90 136 77.9995)" fill="#1589D4"/>
<circle cx="126" cy="77.9995" r="1" transform="rotate(90 126 77.9995)" fill="#1589D4"/>
<circle cx="116" cy="77.9995" r="1" transform="rotate(90 116 77.9995)" fill="#1589D4"/>
<circle cx="106" cy="77.9995" r="1" transform="rotate(90 106 77.9995)" fill="#1589D4"/>
<circle cx="96" cy="77.9995" r="1" transform="rotate(90 96 77.9995)" fill="#1589D4"/>
<circle cx="86" cy="77.9995" r="1" transform="rotate(90 86 77.9995)" fill="#1589D4"/>
<circle cx="76" cy="77.9995" r="1" transform="rotate(90 76 77.9995)" fill="#1589D4"/>
<circle cx="66" cy="77.9995" r="1" transform="rotate(90 66 77.9995)" fill="#1589D4"/>
<circle cx="56" cy="77.9995" r="1" transform="rotate(90 56 77.9995)" fill="#1589D4"/>
<circle cx="46" cy="77.9995" r="1" transform="rotate(90 46 77.9995)" fill="#1589D4"/>
<circle cx="36" cy="77.9995" r="1" transform="rotate(90 36 77.9995)" fill="#1589D4"/>
<circle cx="26" cy="77.9995" r="1" transform="rotate(90 26 77.9995)" fill="#1589D4"/>
<circle cx="16" cy="77.9995" r="1" transform="rotate(90 16 77.9995)" fill="#1589D4"/>
<circle cx="6" cy="77.9995" r="1" transform="rotate(90 6 77.9995)" fill="#1589D4"/>
<circle cx="146" cy="87.9995" r="1" transform="rotate(90 146 87.9995)" fill="#1589D4"/>
<circle cx="136" cy="87.9995" r="1" transform="rotate(90 136 87.9995)" fill="#1589D4"/>
<circle cx="126" cy="87.9995" r="1" transform="rotate(90 126 87.9995)" fill="#1589D4"/>
<circle cx="116" cy="87.9995" r="1" transform="rotate(90 116 87.9995)" fill="#1589D4"/>
<circle cx="106" cy="87.9995" r="1" transform="rotate(90 106 87.9995)" fill="#1589D4"/>
<circle cx="96" cy="87.9995" r="1" transform="rotate(90 96 87.9995)" fill="#1589D4"/>
<circle cx="86" cy="87.9995" r="1" transform="rotate(90 86 87.9995)" fill="#1589D4"/>
<circle cx="76" cy="87.9995" r="1" transform="rotate(90 76 87.9995)" fill="#1589D4"/>
<circle cx="66" cy="87.9995" r="1" transform="rotate(90 66 87.9995)" fill="#1589D4"/>
<circle cx="56" cy="87.9995" r="1" transform="rotate(90 56 87.9995)" fill="#1589D4"/>
<circle cx="46" cy="87.9995" r="1" transform="rotate(90 46 87.9995)" fill="#1589D4"/>
<circle cx="36" cy="87.9995" r="1" transform="rotate(90 36 87.9995)" fill="#1589D4"/>
<circle cx="26" cy="87.9995" r="1" transform="rotate(90 26 87.9995)" fill="#1589D4"/>
<circle cx="16" cy="87.9995" r="1" transform="rotate(90 16 87.9995)" fill="#1589D4"/>
<circle cx="6" cy="87.9995" r="1" transform="rotate(90 6 87.9995)" fill="#1589D4"/>
<circle cx="146" cy="97.9995" r="1" transform="rotate(90 146 97.9995)" fill="#1589D4"/>
<circle cx="136" cy="97.9995" r="1" transform="rotate(90 136 97.9995)" fill="#1589D4"/>
<circle cx="126" cy="97.9995" r="1" transform="rotate(90 126 97.9995)" fill="#1589D4"/>
<circle cx="116" cy="97.9995" r="1" transform="rotate(90 116 97.9995)" fill="#1589D4"/>
<circle cx="106" cy="97.9995" r="1" transform="rotate(90 106 97.9995)" fill="#1589D4"/>
<circle cx="96" cy="97.9995" r="1" transform="rotate(90 96 97.9995)" fill="#1589D4"/>
<circle cx="86" cy="97.9995" r="1" transform="rotate(90 86 97.9995)" fill="#1589D4"/>
<circle cx="76" cy="97.9995" r="1" transform="rotate(90 76 97.9995)" fill="#1589D4"/>
<circle cx="66" cy="97.9995" r="1" transform="rotate(90 66 97.9995)" fill="#1589D4"/>
<circle cx="56" cy="97.9995" r="1" transform="rotate(90 56 97.9995)" fill="#1589D4"/>
<circle cx="46" cy="97.9995" r="1" transform="rotate(90 46 97.9995)" fill="#1589D4"/>
<circle cx="36" cy="97.9995" r="1" transform="rotate(90 36 97.9995)" fill="#1589D4"/>
<circle cx="26" cy="97.9995" r="1" transform="rotate(90 26 97.9995)" fill="#1589D4"/>
<circle cx="16" cy="97.9995" r="1" transform="rotate(90 16 97.9995)" fill="#1589D4"/>
<circle cx="6" cy="97.9995" r="1" transform="rotate(90 6 97.9995)" fill="#1589D4"/>
<circle cx="146" cy="107.999" r="1" transform="rotate(90 146 107.999)" fill="#1589D4"/>
<circle cx="136" cy="107.999" r="1" transform="rotate(90 136 107.999)" fill="#1589D4"/>
<circle cx="126" cy="107.999" r="1" transform="rotate(90 126 107.999)" fill="#1589D4"/>
<circle cx="116" cy="107.999" r="1" transform="rotate(90 116 107.999)" fill="#1589D4"/>
<circle cx="106" cy="107.999" r="1" transform="rotate(90 106 107.999)" fill="#1589D4"/>
<circle cx="96" cy="107.999" r="1" transform="rotate(90 96 107.999)" fill="#1589D4"/>
<circle cx="86" cy="107.999" r="1" transform="rotate(90 86 107.999)" fill="#1589D4"/>
<circle cx="76" cy="107.999" r="1" transform="rotate(90 76 107.999)" fill="#1589D4"/>
<circle cx="66" cy="107.999" r="1" transform="rotate(90 66 107.999)" fill="#1589D4"/>
<circle cx="56" cy="107.999" r="1" transform="rotate(90 56 107.999)" fill="#1589D4"/>
<circle cx="46" cy="107.999" r="1" transform="rotate(90 46 107.999)" fill="#1589D4"/>
<circle cx="36" cy="107.999" r="1" transform="rotate(90 36 107.999)" fill="#1589D4"/>
<circle cx="26" cy="107.999" r="1" transform="rotate(90 26 107.999)" fill="#1589D4"/>
<circle cx="16" cy="107.999" r="1" transform="rotate(90 16 107.999)" fill="#1589D4"/>
<circle cx="6" cy="107.999" r="1" transform="rotate(90 6 107.999)" fill="#1589D4"/>
<circle cx="146" cy="117.999" r="1" transform="rotate(90 146 117.999)" fill="#1589D4"/>
<circle cx="136" cy="117.999" r="1" transform="rotate(90 136 117.999)" fill="#1589D4"/>
<circle cx="126" cy="117.999" r="1" transform="rotate(90 126 117.999)" fill="#1589D4"/>
<circle cx="116" cy="117.999" r="1" transform="rotate(90 116 117.999)" fill="#1589D4"/>
<circle cx="106" cy="117.999" r="1" transform="rotate(90 106 117.999)" fill="#1589D4"/>
<circle cx="96" cy="117.999" r="1" transform="rotate(90 96 117.999)" fill="#1589D4"/>
<circle cx="86" cy="117.999" r="1" transform="rotate(90 86 117.999)" fill="#1589D4"/>
<circle cx="76" cy="117.999" r="1" transform="rotate(90 76 117.999)" fill="#1589D4"/>
<circle cx="66" cy="117.999" r="1" transform="rotate(90 66 117.999)" fill="#1589D4"/>
<circle cx="56" cy="117.999" r="1" transform="rotate(90 56 117.999)" fill="#1589D4"/>
<circle cx="46" cy="117.999" r="1" transform="rotate(90 46 117.999)" fill="#1589D4"/>
<circle cx="36" cy="117.999" r="1" transform="rotate(90 36 117.999)" fill="#1589D4"/>
<circle cx="26" cy="117.999" r="1" transform="rotate(90 26 117.999)" fill="#1589D4"/>
<circle cx="16" cy="117.999" r="1" transform="rotate(90 16 117.999)" fill="#1589D4"/>
<circle cx="6" cy="117.999" r="1" transform="rotate(90 6 117.999)" fill="#1589D4"/>
<circle cx="146" cy="127.999" r="1" transform="rotate(90 146 127.999)" fill="#1589D4"/>
<circle cx="136" cy="127.999" r="1" transform="rotate(90 136 127.999)" fill="#1589D4"/>
<circle cx="126" cy="127.999" r="1" transform="rotate(90 126 127.999)" fill="#1589D4"/>
<circle cx="116" cy="127.999" r="1" transform="rotate(90 116 127.999)" fill="#1589D4"/>
<circle cx="106" cy="127.999" r="1" transform="rotate(90 106 127.999)" fill="#1589D4"/>
<circle cx="96" cy="127.999" r="1" transform="rotate(90 96 127.999)" fill="#1589D4"/>
<circle cx="86" cy="127.999" r="1" transform="rotate(90 86 127.999)" fill="#1589D4"/>
<circle cx="76" cy="127.999" r="1" transform="rotate(90 76 127.999)" fill="#1589D4"/>
<circle cx="66" cy="127.999" r="1" transform="rotate(90 66 127.999)" fill="#1589D4"/>
<circle cx="56" cy="127.999" r="1" transform="rotate(90 56 127.999)" fill="#1589D4"/>
<circle cx="46" cy="127.999" r="1" transform="rotate(90 46 127.999)" fill="#1589D4"/>
<circle cx="36" cy="127.999" r="1" transform="rotate(90 36 127.999)" fill="#1589D4"/>
<circle cx="26" cy="127.999" r="1" transform="rotate(90 26 127.999)" fill="#1589D4"/>
<circle cx="16" cy="127.999" r="1" transform="rotate(90 16 127.999)" fill="#1589D4"/>
<circle cx="6" cy="127.999" r="1" transform="rotate(90 6 127.999)" fill="#1589D4"/>
</g>
</svg>
