<svg width="184" height="53" viewBox="0 0 184 53" fill="none" xmlns="http://www.w3.org/2000/svg">
<mask id="mask0" mask-type="alpha" maskUnits="userSpaceOnUse" x="0" y="0" width="184" height="53">
<rect width="184" height="53" fill="#C4C4C4"/>
</mask>
<g mask="url(#mask0)">
<ellipse cx="6" cy="5.17394" rx="1" ry="1.03478" fill="#1589D4"/>
<ellipse cx="6" cy="15.5217" rx="1" ry="1.03478" fill="#1589D4"/>
<ellipse cx="6" cy="25.8695" rx="1" ry="1.03478" fill="#1589D4"/>
<ellipse cx="6" cy="36.2173" rx="1" ry="1.03478" fill="#1589D4"/>
<ellipse cx="6" cy="46.5651" rx="1" ry="1.03478" fill="#1589D4"/>
<ellipse cx="16" cy="5.17394" rx="1" ry="1.03478" fill="#1589D4"/>
<ellipse cx="16" cy="15.5217" rx="1" ry="1.03478" fill="#1589D4"/>
<ellipse cx="16" cy="25.8695" rx="1" ry="1.03478" fill="#1589D4"/>
<ellipse cx="16" cy="36.2173" rx="1" ry="1.03478" fill="#1589D4"/>
<ellipse cx="16" cy="46.5651" rx="1" ry="1.03478" fill="#1589D4"/>
<ellipse cx="26" cy="5.17394" rx="1" ry="1.03478" fill="#1589D4"/>
<ellipse cx="26" cy="15.5217" rx="1" ry="1.03478" fill="#1589D4"/>
<ellipse cx="26" cy="25.8695" rx="1" ry="1.03478" fill="#1589D4"/>
<ellipse cx="26" cy="36.2173" rx="1" ry="1.03478" fill="#1589D4"/>
<ellipse cx="26" cy="46.5651" rx="1" ry="1.03478" fill="#1589D4"/>
<ellipse cx="36" cy="5.17394" rx="1" ry="1.03478" fill="#1589D4"/>
<ellipse cx="36" cy="15.5217" rx="1" ry="1.03478" fill="#1589D4"/>
<ellipse cx="36" cy="25.8695" rx="1" ry="1.03478" fill="#1589D4"/>
<ellipse cx="36" cy="36.2173" rx="1" ry="1.03478" fill="#1589D4"/>
<ellipse cx="36" cy="46.5651" rx="1" ry="1.03478" fill="#1589D4"/>
<ellipse cx="46" cy="5.17394" rx="1" ry="1.03478" fill="#1589D4"/>
<ellipse cx="46" cy="15.5217" rx="1" ry="1.03478" fill="#1589D4"/>
<ellipse cx="46" cy="25.8695" rx="1" ry="1.03478" fill="#1589D4"/>
<ellipse cx="46" cy="36.2173" rx="1" ry="1.03478" fill="#1589D4"/>
<ellipse cx="46" cy="46.5651" rx="1" ry="1.03478" fill="#1589D4"/>
<ellipse cx="56" cy="5.17394" rx="1" ry="1.03478" fill="#1589D4"/>
<ellipse cx="56" cy="15.5217" rx="1" ry="1.03478" fill="#1589D4"/>
<ellipse cx="56" cy="25.8695" rx="1" ry="1.03478" fill="#1589D4"/>
<ellipse cx="56" cy="36.2173" rx="1" ry="1.03478" fill="#1589D4"/>
<ellipse cx="56" cy="46.5651" rx="1" ry="1.03478" fill="#1589D4"/>
<ellipse cx="66" cy="5.17394" rx="1" ry="1.03478" fill="#1589D4"/>
<ellipse cx="66" cy="15.5217" rx="1" ry="1.03478" fill="#1589D4"/>
<ellipse cx="66" cy="25.8695" rx="1" ry="1.03478" fill="#1589D4"/>
<ellipse cx="66" cy="36.2173" rx="1" ry="1.03478" fill="#1589D4"/>
<ellipse cx="66" cy="46.5651" rx="1" ry="1.03478" fill="#1589D4"/>
<ellipse cx="76" cy="5.17394" rx="1" ry="1.03478" fill="#1589D4"/>
<ellipse cx="76" cy="15.5217" rx="1" ry="1.03478" fill="#1589D4"/>
<ellipse cx="76" cy="25.8695" rx="1" ry="1.03478" fill="#1589D4"/>
<ellipse cx="76" cy="36.2173" rx="1" ry="1.03478" fill="#1589D4"/>
<ellipse cx="76" cy="46.5651" rx="1" ry="1.03478" fill="#1589D4"/>
<ellipse cx="86" cy="5.17394" rx="1" ry="1.03478" fill="#1589D4"/>
<ellipse cx="86" cy="15.5217" rx="1" ry="1.03478" fill="#1589D4"/>
<ellipse cx="86" cy="25.8695" rx="1" ry="1.03478" fill="#1589D4"/>
<ellipse cx="86" cy="36.2173" rx="1" ry="1.03478" fill="#1589D4"/>
<ellipse cx="86" cy="46.5651" rx="1" ry="1.03478" fill="#1589D4"/>
<ellipse cx="96" cy="5.17394" rx="1" ry="1.03478" fill="#1589D4"/>
<ellipse cx="96" cy="15.5217" rx="1" ry="1.03478" fill="#1589D4"/>
<ellipse cx="96" cy="25.8695" rx="1" ry="1.03478" fill="#1589D4"/>
<ellipse cx="96" cy="36.2173" rx="1" ry="1.03478" fill="#1589D4"/>
<ellipse cx="96" cy="46.5651" rx="1" ry="1.03478" fill="#1589D4"/>
<ellipse cx="106" cy="5.17394" rx="1" ry="1.03478" fill="#1589D4"/>
<ellipse cx="106" cy="15.5217" rx="1" ry="1.03478" fill="#1589D4"/>
<ellipse cx="106" cy="25.8695" rx="1" ry="1.03478" fill="#1589D4"/>
<ellipse cx="106" cy="36.2173" rx="1" ry="1.03478" fill="#1589D4"/>
<ellipse cx="106" cy="46.5651" rx="1" ry="1.03478" fill="#1589D4"/>
<ellipse cx="116" cy="5.17394" rx="1" ry="1.03478" fill="#1589D4"/>
<ellipse cx="116" cy="15.5217" rx="1" ry="1.03478" fill="#1589D4"/>
<ellipse cx="116" cy="25.8695" rx="1" ry="1.03478" fill="#1589D4"/>
<ellipse cx="116" cy="36.2173" rx="1" ry="1.03478" fill="#1589D4"/>
<ellipse cx="116" cy="46.5651" rx="1" ry="1.03478" fill="#1589D4"/>
<ellipse cx="126" cy="5.17394" rx="1" ry="1.03478" fill="#1589D4"/>
<ellipse cx="126" cy="15.5217" rx="1" ry="1.03478" fill="#1589D4"/>
<ellipse cx="126" cy="25.8695" rx="1" ry="1.03478" fill="#1589D4"/>
<ellipse cx="126" cy="36.2173" rx="1" ry="1.03478" fill="#1589D4"/>
<ellipse cx="126" cy="46.5651" rx="1" ry="1.03478" fill="#1589D4"/>
<ellipse cx="136" cy="5.17394" rx="1" ry="1.03478" fill="#1589D4"/>
<ellipse cx="136" cy="15.5217" rx="1" ry="1.03478" fill="#1589D4"/>
<ellipse cx="136" cy="25.8695" rx="1" ry="1.03478" fill="#1589D4"/>
<ellipse cx="136" cy="36.2173" rx="1" ry="1.03478" fill="#1589D4"/>
<ellipse cx="136" cy="46.5651" rx="1" ry="1.03478" fill="#1589D4"/>
<ellipse cx="146" cy="5.17394" rx="1" ry="1.03478" fill="#1589D4"/>
<ellipse cx="146" cy="15.5217" rx="1" ry="1.03478" fill="#1589D4"/>
<ellipse cx="146" cy="25.8695" rx="1" ry="1.03478" fill="#1589D4"/>
<ellipse cx="146" cy="36.2173" rx="1" ry="1.03478" fill="#1589D4"/>
<ellipse cx="146" cy="46.5651" rx="1" ry="1.03478" fill="#1589D4"/>
<ellipse cx="156" cy="5.17394" rx="1" ry="1.03478" fill="#1589D4"/>
<ellipse cx="156" cy="15.5217" rx="1" ry="1.03478" fill="#1589D4"/>
<ellipse cx="156" cy="25.8695" rx="1" ry="1.03478" fill="#1589D4"/>
<ellipse cx="156" cy="36.2173" rx="1" ry="1.03478" fill="#1589D4"/>
<ellipse cx="156" cy="46.5651" rx="1" ry="1.03478" fill="#1589D4"/>
<ellipse cx="166" cy="5.17394" rx="1" ry="1.03478" fill="#1589D4"/>
<ellipse cx="166" cy="15.5217" rx="1" ry="1.03478" fill="#1589D4"/>
<ellipse cx="166" cy="25.8695" rx="1" ry="1.03478" fill="#1589D4"/>
<ellipse cx="166" cy="36.2173" rx="1" ry="1.03478" fill="#1589D4"/>
<ellipse cx="166" cy="46.5651" rx="1" ry="1.03478" fill="#1589D4"/>
<ellipse cx="176" cy="5.17394" rx="1" ry="1.03478" fill="#1589D4"/>
<ellipse cx="176" cy="15.5217" rx="1" ry="1.03478" fill="#1589D4"/>
<ellipse cx="176" cy="25.8695" rx="1" ry="1.03478" fill="#1589D4"/>
<ellipse cx="176" cy="36.2173" rx="1" ry="1.03478" fill="#1589D4"/>
<ellipse cx="176" cy="46.5651" rx="1" ry="1.03478" fill="#1589D4"/>
</g>
</svg>
