<svg width="368" height="164" viewBox="0 0 368 164" fill="none" xmlns="http://www.w3.org/2000/svg">
<mask id="mask0" mask-type="alpha" maskUnits="userSpaceOnUse" x="0" y="0" width="368" height="164">
<rect x="368" y="0.224609" width="163" height="368" transform="rotate(90 368 0.224609)" fill="#C4C4C4"/>
</mask>
<g mask="url(#mask0)">
<circle cx="365" cy="8.22461" r="1" transform="rotate(90 365 8.22461)" fill="#1589D4"/>
<circle cx="355" cy="8.22461" r="1" transform="rotate(90 355 8.22461)" fill="#1589D4"/>
<circle cx="345" cy="8.22461" r="1" transform="rotate(90 345 8.22461)" fill="#1589D4"/>
<circle cx="335" cy="8.22461" r="1" transform="rotate(90 335 8.22461)" fill="#1589D4"/>
<circle cx="325" cy="8.22461" r="1" transform="rotate(90 325 8.22461)" fill="#1589D4"/>
<circle cx="315" cy="8.2246" r="1" transform="rotate(90 315 8.2246)" fill="#1589D4"/>
<circle cx="305" cy="8.2246" r="1" transform="rotate(90 305 8.2246)" fill="#1589D4"/>
<circle cx="295" cy="8.2246" r="1" transform="rotate(90 295 8.2246)" fill="#1589D4"/>
<circle cx="285" cy="8.2246" r="1" transform="rotate(90 285 8.2246)" fill="#1589D4"/>
<circle cx="275" cy="8.2246" r="1" transform="rotate(90 275 8.2246)" fill="#1589D4"/>
<circle cx="265" cy="8.2246" r="1" transform="rotate(90 265 8.2246)" fill="#1589D4"/>
<circle cx="255" cy="8.2246" r="1" transform="rotate(90 255 8.2246)" fill="#1589D4"/>
<circle cx="245" cy="8.2246" r="1" transform="rotate(90 245 8.2246)" fill="#1589D4"/>
<circle cx="235" cy="8.2246" r="1" transform="rotate(90 235 8.2246)" fill="#1589D4"/>
<circle cx="225" cy="8.2246" r="1" transform="rotate(90 225 8.2246)" fill="#1589D4"/>
<circle cx="215" cy="8.2246" r="1" transform="rotate(90 215 8.2246)" fill="#1589D4"/>
<circle cx="205" cy="8.2246" r="1" transform="rotate(90 205 8.2246)" fill="#1589D4"/>
<circle cx="195" cy="8.2246" r="1" transform="rotate(90 195 8.2246)" fill="#1589D4"/>
<circle cx="185" cy="8.2246" r="1" transform="rotate(90 185 8.2246)" fill="#1589D4"/>
<circle cx="175" cy="8.2246" r="1" transform="rotate(90 175 8.2246)" fill="#1589D4"/>
<circle cx="165" cy="8.2246" r="1" transform="rotate(90 165 8.2246)" fill="#1589D4"/>
<circle cx="155" cy="8.2246" r="1" transform="rotate(90 155 8.2246)" fill="#1589D4"/>
<circle cx="145" cy="8.22459" r="1" transform="rotate(90 145 8.22459)" fill="#1589D4"/>
<circle cx="135" cy="8.22459" r="1" transform="rotate(90 135 8.22459)" fill="#1589D4"/>
<circle cx="125" cy="8.22459" r="1" transform="rotate(90 125 8.22459)" fill="#1589D4"/>
<circle cx="115" cy="8.22459" r="1" transform="rotate(90 115 8.22459)" fill="#1589D4"/>
<circle cx="105" cy="8.22459" r="1" transform="rotate(90 105 8.22459)" fill="#1589D4"/>
<circle cx="95" cy="8.22459" r="1" transform="rotate(90 95 8.22459)" fill="#1589D4"/>
<circle cx="85" cy="8.22459" r="1" transform="rotate(90 85 8.22459)" fill="#1589D4"/>
<circle cx="75" cy="8.22459" r="1" transform="rotate(90 75 8.22459)" fill="#1589D4"/>
<circle cx="65" cy="8.22459" r="1" transform="rotate(90 65 8.22459)" fill="#1589D4"/>
<circle cx="55" cy="8.22459" r="1" transform="rotate(90 55 8.22459)" fill="#1589D4"/>
<circle cx="45" cy="8.22459" r="1" transform="rotate(90 45 8.22459)" fill="#1589D4"/>
<circle cx="35" cy="8.22459" r="1" transform="rotate(90 35 8.22459)" fill="#1589D4"/>
<circle cx="25" cy="8.22459" r="1" transform="rotate(90 25 8.22459)" fill="#1589D4"/>
<circle cx="15" cy="8.22459" r="1" transform="rotate(90 15 8.22459)" fill="#1589D4"/>
<circle cx="5" cy="8.22459" r="1" transform="rotate(90 5 8.22459)" fill="#1589D4"/>
<circle cx="365" cy="18.2246" r="1" transform="rotate(90 365 18.2246)" fill="#1589D4"/>
<circle cx="355" cy="18.2246" r="1" transform="rotate(90 355 18.2246)" fill="#1589D4"/>
<circle cx="345" cy="18.2246" r="1" transform="rotate(90 345 18.2246)" fill="#1589D4"/>
<circle cx="335" cy="18.2246" r="1" transform="rotate(90 335 18.2246)" fill="#1589D4"/>
<circle cx="325" cy="18.2246" r="1" transform="rotate(90 325 18.2246)" fill="#1589D4"/>
<circle cx="315" cy="18.2246" r="1" transform="rotate(90 315 18.2246)" fill="#1589D4"/>
<circle cx="305" cy="18.2246" r="1" transform="rotate(90 305 18.2246)" fill="#1589D4"/>
<circle cx="295" cy="18.2246" r="1" transform="rotate(90 295 18.2246)" fill="#1589D4"/>
<circle cx="285" cy="18.2246" r="1" transform="rotate(90 285 18.2246)" fill="#1589D4"/>
<circle cx="275" cy="18.2246" r="1" transform="rotate(90 275 18.2246)" fill="#1589D4"/>
<circle cx="265" cy="18.2246" r="1" transform="rotate(90 265 18.2246)" fill="#1589D4"/>
<circle cx="255" cy="18.2246" r="1" transform="rotate(90 255 18.2246)" fill="#1589D4"/>
<circle cx="245" cy="18.2246" r="1" transform="rotate(90 245 18.2246)" fill="#1589D4"/>
<circle cx="235" cy="18.2246" r="1" transform="rotate(90 235 18.2246)" fill="#1589D4"/>
<circle cx="225" cy="18.2246" r="1" transform="rotate(90 225 18.2246)" fill="#1589D4"/>
<circle cx="215" cy="18.2246" r="1" transform="rotate(90 215 18.2246)" fill="#1589D4"/>
<circle cx="205" cy="18.2246" r="1" transform="rotate(90 205 18.2246)" fill="#1589D4"/>
<circle cx="195" cy="18.2246" r="1" transform="rotate(90 195 18.2246)" fill="#1589D4"/>
<circle cx="185" cy="18.2246" r="1" transform="rotate(90 185 18.2246)" fill="#1589D4"/>
<circle cx="175" cy="18.2246" r="1" transform="rotate(90 175 18.2246)" fill="#1589D4"/>
<circle cx="165" cy="18.2246" r="1" transform="rotate(90 165 18.2246)" fill="#1589D4"/>
<circle cx="155" cy="18.2246" r="1" transform="rotate(90 155 18.2246)" fill="#1589D4"/>
<circle cx="145" cy="18.2246" r="1" transform="rotate(90 145 18.2246)" fill="#1589D4"/>
<circle cx="135" cy="18.2246" r="1" transform="rotate(90 135 18.2246)" fill="#1589D4"/>
<circle cx="125" cy="18.2246" r="1" transform="rotate(90 125 18.2246)" fill="#1589D4"/>
<circle cx="115" cy="18.2246" r="1" transform="rotate(90 115 18.2246)" fill="#1589D4"/>
<circle cx="105" cy="18.2246" r="1" transform="rotate(90 105 18.2246)" fill="#1589D4"/>
<circle cx="95" cy="18.2246" r="1" transform="rotate(90 95 18.2246)" fill="#1589D4"/>
<circle cx="85" cy="18.2246" r="1" transform="rotate(90 85 18.2246)" fill="#1589D4"/>
<circle cx="75" cy="18.2246" r="1" transform="rotate(90 75 18.2246)" fill="#1589D4"/>
<circle cx="65" cy="18.2246" r="1" transform="rotate(90 65 18.2246)" fill="#1589D4"/>
<circle cx="55" cy="18.2246" r="1" transform="rotate(90 55 18.2246)" fill="#1589D4"/>
<circle cx="45" cy="18.2246" r="1" transform="rotate(90 45 18.2246)" fill="#1589D4"/>
<circle cx="35" cy="18.2246" r="1" transform="rotate(90 35 18.2246)" fill="#1589D4"/>
<circle cx="25" cy="18.2246" r="1" transform="rotate(90 25 18.2246)" fill="#1589D4"/>
<circle cx="15" cy="18.2246" r="1" transform="rotate(90 15 18.2246)" fill="#1589D4"/>
<circle cx="5" cy="18.2246" r="1" transform="rotate(90 5 18.2246)" fill="#1589D4"/>
<circle cx="365" cy="28.2246" r="1" transform="rotate(90 365 28.2246)" fill="#1589D4"/>
<circle cx="355" cy="28.2246" r="1" transform="rotate(90 355 28.2246)" fill="#1589D4"/>
<circle cx="345" cy="28.2246" r="1" transform="rotate(90 345 28.2246)" fill="#1589D4"/>
<circle cx="335" cy="28.2246" r="1" transform="rotate(90 335 28.2246)" fill="#1589D4"/>
<circle cx="325" cy="28.2246" r="1" transform="rotate(90 325 28.2246)" fill="#1589D4"/>
<circle cx="315" cy="28.2246" r="1" transform="rotate(90 315 28.2246)" fill="#1589D4"/>
<circle cx="305" cy="28.2246" r="1" transform="rotate(90 305 28.2246)" fill="#1589D4"/>
<circle cx="295" cy="28.2246" r="1" transform="rotate(90 295 28.2246)" fill="#1589D4"/>
<circle cx="285" cy="28.2246" r="1" transform="rotate(90 285 28.2246)" fill="#1589D4"/>
<circle cx="275" cy="28.2246" r="1" transform="rotate(90 275 28.2246)" fill="#1589D4"/>
<circle cx="265" cy="28.2246" r="1" transform="rotate(90 265 28.2246)" fill="#1589D4"/>
<circle cx="255" cy="28.2246" r="1" transform="rotate(90 255 28.2246)" fill="#1589D4"/>
<circle cx="245" cy="28.2246" r="1" transform="rotate(90 245 28.2246)" fill="#1589D4"/>
<circle cx="235" cy="28.2246" r="1" transform="rotate(90 235 28.2246)" fill="#1589D4"/>
<circle cx="225" cy="28.2246" r="1" transform="rotate(90 225 28.2246)" fill="#1589D4"/>
<circle cx="215" cy="28.2246" r="1" transform="rotate(90 215 28.2246)" fill="#1589D4"/>
<circle cx="205" cy="28.2246" r="1" transform="rotate(90 205 28.2246)" fill="#1589D4"/>
<circle cx="195" cy="28.2246" r="1" transform="rotate(90 195 28.2246)" fill="#1589D4"/>
<circle cx="185" cy="28.2246" r="1" transform="rotate(90 185 28.2246)" fill="#1589D4"/>
<circle cx="175" cy="28.2246" r="1" transform="rotate(90 175 28.2246)" fill="#1589D4"/>
<circle cx="165" cy="28.2246" r="1" transform="rotate(90 165 28.2246)" fill="#1589D4"/>
<circle cx="155" cy="28.2246" r="1" transform="rotate(90 155 28.2246)" fill="#1589D4"/>
<circle cx="145" cy="28.2246" r="1" transform="rotate(90 145 28.2246)" fill="#1589D4"/>
<circle cx="135" cy="28.2246" r="1" transform="rotate(90 135 28.2246)" fill="#1589D4"/>
<circle cx="125" cy="28.2246" r="1" transform="rotate(90 125 28.2246)" fill="#1589D4"/>
<circle cx="115" cy="28.2246" r="1" transform="rotate(90 115 28.2246)" fill="#1589D4"/>
<circle cx="105" cy="28.2246" r="1" transform="rotate(90 105 28.2246)" fill="#1589D4"/>
<circle cx="95" cy="28.2246" r="1" transform="rotate(90 95 28.2246)" fill="#1589D4"/>
<circle cx="85" cy="28.2246" r="1" transform="rotate(90 85 28.2246)" fill="#1589D4"/>
<circle cx="75" cy="28.2246" r="1" transform="rotate(90 75 28.2246)" fill="#1589D4"/>
<circle cx="65" cy="28.2246" r="1" transform="rotate(90 65 28.2246)" fill="#1589D4"/>
<circle cx="55" cy="28.2246" r="1" transform="rotate(90 55 28.2246)" fill="#1589D4"/>
<circle cx="45" cy="28.2246" r="1" transform="rotate(90 45 28.2246)" fill="#1589D4"/>
<circle cx="35" cy="28.2246" r="1" transform="rotate(90 35 28.2246)" fill="#1589D4"/>
<circle cx="25" cy="28.2246" r="1" transform="rotate(90 25 28.2246)" fill="#1589D4"/>
<circle cx="15" cy="28.2246" r="1" transform="rotate(90 15 28.2246)" fill="#1589D4"/>
<circle cx="5" cy="28.2246" r="1" transform="rotate(90 5 28.2246)" fill="#1589D4"/>
<circle cx="365" cy="38.2246" r="1" transform="rotate(90 365 38.2246)" fill="#1589D4"/>
<circle cx="355" cy="38.2246" r="1" transform="rotate(90 355 38.2246)" fill="#1589D4"/>
<circle cx="345" cy="38.2246" r="1" transform="rotate(90 345 38.2246)" fill="#1589D4"/>
<circle cx="335" cy="38.2246" r="1" transform="rotate(90 335 38.2246)" fill="#1589D4"/>
<circle cx="325" cy="38.2246" r="1" transform="rotate(90 325 38.2246)" fill="#1589D4"/>
<circle cx="315" cy="38.2246" r="1" transform="rotate(90 315 38.2246)" fill="#1589D4"/>
<circle cx="305" cy="38.2246" r="1" transform="rotate(90 305 38.2246)" fill="#1589D4"/>
<circle cx="295" cy="38.2246" r="1" transform="rotate(90 295 38.2246)" fill="#1589D4"/>
<circle cx="285" cy="38.2246" r="1" transform="rotate(90 285 38.2246)" fill="#1589D4"/>
<circle cx="275" cy="38.2246" r="1" transform="rotate(90 275 38.2246)" fill="#1589D4"/>
<circle cx="265" cy="38.2246" r="1" transform="rotate(90 265 38.2246)" fill="#1589D4"/>
<circle cx="255" cy="38.2246" r="1" transform="rotate(90 255 38.2246)" fill="#1589D4"/>
<circle cx="245" cy="38.2246" r="1" transform="rotate(90 245 38.2246)" fill="#1589D4"/>
<circle cx="235" cy="38.2246" r="1" transform="rotate(90 235 38.2246)" fill="#1589D4"/>
<circle cx="225" cy="38.2246" r="1" transform="rotate(90 225 38.2246)" fill="#1589D4"/>
<circle cx="215" cy="38.2246" r="1" transform="rotate(90 215 38.2246)" fill="#1589D4"/>
<circle cx="205" cy="38.2246" r="1" transform="rotate(90 205 38.2246)" fill="#1589D4"/>
<circle cx="195" cy="38.2246" r="1" transform="rotate(90 195 38.2246)" fill="#1589D4"/>
<circle cx="185" cy="38.2246" r="1" transform="rotate(90 185 38.2246)" fill="#1589D4"/>
<circle cx="175" cy="38.2246" r="1" transform="rotate(90 175 38.2246)" fill="#1589D4"/>
<circle cx="165" cy="38.2246" r="1" transform="rotate(90 165 38.2246)" fill="#1589D4"/>
<circle cx="155" cy="38.2246" r="1" transform="rotate(90 155 38.2246)" fill="#1589D4"/>
<circle cx="145" cy="38.2246" r="1" transform="rotate(90 145 38.2246)" fill="#1589D4"/>
<circle cx="135" cy="38.2246" r="1" transform="rotate(90 135 38.2246)" fill="#1589D4"/>
<circle cx="125" cy="38.2246" r="1" transform="rotate(90 125 38.2246)" fill="#1589D4"/>
<circle cx="115" cy="38.2246" r="1" transform="rotate(90 115 38.2246)" fill="#1589D4"/>
<circle cx="105" cy="38.2246" r="1" transform="rotate(90 105 38.2246)" fill="#1589D4"/>
<circle cx="95" cy="38.2246" r="1" transform="rotate(90 95 38.2246)" fill="#1589D4"/>
<circle cx="85" cy="38.2246" r="1" transform="rotate(90 85 38.2246)" fill="#1589D4"/>
<circle cx="75" cy="38.2246" r="1" transform="rotate(90 75 38.2246)" fill="#1589D4"/>
<circle cx="65" cy="38.2246" r="1" transform="rotate(90 65 38.2246)" fill="#1589D4"/>
<circle cx="55" cy="38.2246" r="1" transform="rotate(90 55 38.2246)" fill="#1589D4"/>
<circle cx="45" cy="38.2246" r="1" transform="rotate(90 45 38.2246)" fill="#1589D4"/>
<circle cx="35" cy="38.2246" r="1" transform="rotate(90 35 38.2246)" fill="#1589D4"/>
<circle cx="25" cy="38.2246" r="1" transform="rotate(90 25 38.2246)" fill="#1589D4"/>
<circle cx="15" cy="38.2246" r="1" transform="rotate(90 15 38.2246)" fill="#1589D4"/>
<circle cx="5" cy="38.2246" r="1" transform="rotate(90 5 38.2246)" fill="#1589D4"/>
<circle cx="365" cy="48.2246" r="1" transform="rotate(90 365 48.2246)" fill="#1589D4"/>
<circle cx="355" cy="48.2246" r="1" transform="rotate(90 355 48.2246)" fill="#1589D4"/>
<circle cx="345" cy="48.2246" r="1" transform="rotate(90 345 48.2246)" fill="#1589D4"/>
<circle cx="335" cy="48.2246" r="1" transform="rotate(90 335 48.2246)" fill="#1589D4"/>
<circle cx="325" cy="48.2246" r="1" transform="rotate(90 325 48.2246)" fill="#1589D4"/>
<circle cx="315" cy="48.2246" r="1" transform="rotate(90 315 48.2246)" fill="#1589D4"/>
<circle cx="305" cy="48.2246" r="1" transform="rotate(90 305 48.2246)" fill="#1589D4"/>
<circle cx="295" cy="48.2246" r="1" transform="rotate(90 295 48.2246)" fill="#1589D4"/>
<circle cx="285" cy="48.2246" r="1" transform="rotate(90 285 48.2246)" fill="#1589D4"/>
<circle cx="275" cy="48.2246" r="1" transform="rotate(90 275 48.2246)" fill="#1589D4"/>
<circle cx="265" cy="48.2246" r="1" transform="rotate(90 265 48.2246)" fill="#1589D4"/>
<circle cx="255" cy="48.2246" r="1" transform="rotate(90 255 48.2246)" fill="#1589D4"/>
<circle cx="245" cy="48.2246" r="1" transform="rotate(90 245 48.2246)" fill="#1589D4"/>
<circle cx="235" cy="48.2246" r="1" transform="rotate(90 235 48.2246)" fill="#1589D4"/>
<circle cx="225" cy="48.2246" r="1" transform="rotate(90 225 48.2246)" fill="#1589D4"/>
<circle cx="215" cy="48.2246" r="1" transform="rotate(90 215 48.2246)" fill="#1589D4"/>
<circle cx="205" cy="48.2246" r="1" transform="rotate(90 205 48.2246)" fill="#1589D4"/>
<circle cx="195" cy="48.2246" r="1" transform="rotate(90 195 48.2246)" fill="#1589D4"/>
<circle cx="185" cy="48.2246" r="1" transform="rotate(90 185 48.2246)" fill="#1589D4"/>
<circle cx="175" cy="48.2246" r="1" transform="rotate(90 175 48.2246)" fill="#1589D4"/>
<circle cx="165" cy="48.2246" r="1" transform="rotate(90 165 48.2246)" fill="#1589D4"/>
<circle cx="155" cy="48.2246" r="1" transform="rotate(90 155 48.2246)" fill="#1589D4"/>
<circle cx="145" cy="48.2246" r="1" transform="rotate(90 145 48.2246)" fill="#1589D4"/>
<circle cx="135" cy="48.2246" r="1" transform="rotate(90 135 48.2246)" fill="#1589D4"/>
<circle cx="125" cy="48.2246" r="1" transform="rotate(90 125 48.2246)" fill="#1589D4"/>
<circle cx="115" cy="48.2246" r="1" transform="rotate(90 115 48.2246)" fill="#1589D4"/>
<circle cx="105" cy="48.2246" r="1" transform="rotate(90 105 48.2246)" fill="#1589D4"/>
<circle cx="95" cy="48.2246" r="1" transform="rotate(90 95 48.2246)" fill="#1589D4"/>
<circle cx="85" cy="48.2246" r="1" transform="rotate(90 85 48.2246)" fill="#1589D4"/>
<circle cx="75" cy="48.2246" r="1" transform="rotate(90 75 48.2246)" fill="#1589D4"/>
<circle cx="65" cy="48.2246" r="1" transform="rotate(90 65 48.2246)" fill="#1589D4"/>
<circle cx="55" cy="48.2246" r="1" transform="rotate(90 55 48.2246)" fill="#1589D4"/>
<circle cx="45" cy="48.2246" r="1" transform="rotate(90 45 48.2246)" fill="#1589D4"/>
<circle cx="35" cy="48.2246" r="1" transform="rotate(90 35 48.2246)" fill="#1589D4"/>
<circle cx="25" cy="48.2246" r="1" transform="rotate(90 25 48.2246)" fill="#1589D4"/>
<circle cx="15" cy="48.2246" r="1" transform="rotate(90 15 48.2246)" fill="#1589D4"/>
<circle cx="5" cy="48.2246" r="1" transform="rotate(90 5 48.2246)" fill="#1589D4"/>
<circle cx="365" cy="58.2246" r="1" transform="rotate(90 365 58.2246)" fill="#1589D4"/>
<circle cx="355" cy="58.2246" r="1" transform="rotate(90 355 58.2246)" fill="#1589D4"/>
<circle cx="345" cy="58.2246" r="1" transform="rotate(90 345 58.2246)" fill="#1589D4"/>
<circle cx="335" cy="58.2246" r="1" transform="rotate(90 335 58.2246)" fill="#1589D4"/>
<circle cx="325" cy="58.2246" r="1" transform="rotate(90 325 58.2246)" fill="#1589D4"/>
<circle cx="315" cy="58.2246" r="1" transform="rotate(90 315 58.2246)" fill="#1589D4"/>
<circle cx="305" cy="58.2246" r="1" transform="rotate(90 305 58.2246)" fill="#1589D4"/>
<circle cx="295" cy="58.2246" r="1" transform="rotate(90 295 58.2246)" fill="#1589D4"/>
<circle cx="285" cy="58.2246" r="1" transform="rotate(90 285 58.2246)" fill="#1589D4"/>
<circle cx="275" cy="58.2246" r="1" transform="rotate(90 275 58.2246)" fill="#1589D4"/>
<circle cx="265" cy="58.2246" r="1" transform="rotate(90 265 58.2246)" fill="#1589D4"/>
<circle cx="255" cy="58.2246" r="1" transform="rotate(90 255 58.2246)" fill="#1589D4"/>
<circle cx="245" cy="58.2246" r="1" transform="rotate(90 245 58.2246)" fill="#1589D4"/>
<circle cx="235" cy="58.2246" r="1" transform="rotate(90 235 58.2246)" fill="#1589D4"/>
<circle cx="225" cy="58.2246" r="1" transform="rotate(90 225 58.2246)" fill="#1589D4"/>
<circle cx="215" cy="58.2246" r="1" transform="rotate(90 215 58.2246)" fill="#1589D4"/>
<circle cx="205" cy="58.2246" r="1" transform="rotate(90 205 58.2246)" fill="#1589D4"/>
<circle cx="195" cy="58.2246" r="1" transform="rotate(90 195 58.2246)" fill="#1589D4"/>
<circle cx="185" cy="58.2246" r="1" transform="rotate(90 185 58.2246)" fill="#1589D4"/>
<circle cx="175" cy="58.2246" r="1" transform="rotate(90 175 58.2246)" fill="#1589D4"/>
<circle cx="165" cy="58.2246" r="1" transform="rotate(90 165 58.2246)" fill="#1589D4"/>
<circle cx="155" cy="58.2246" r="1" transform="rotate(90 155 58.2246)" fill="#1589D4"/>
<circle cx="145" cy="58.2246" r="1" transform="rotate(90 145 58.2246)" fill="#1589D4"/>
<circle cx="135" cy="58.2246" r="1" transform="rotate(90 135 58.2246)" fill="#1589D4"/>
<circle cx="125" cy="58.2246" r="1" transform="rotate(90 125 58.2246)" fill="#1589D4"/>
<circle cx="115" cy="58.2246" r="1" transform="rotate(90 115 58.2246)" fill="#1589D4"/>
<circle cx="105" cy="58.2246" r="1" transform="rotate(90 105 58.2246)" fill="#1589D4"/>
<circle cx="95" cy="58.2246" r="1" transform="rotate(90 95 58.2246)" fill="#1589D4"/>
<circle cx="85" cy="58.2246" r="1" transform="rotate(90 85 58.2246)" fill="#1589D4"/>
<circle cx="75" cy="58.2246" r="1" transform="rotate(90 75 58.2246)" fill="#1589D4"/>
<circle cx="65" cy="58.2246" r="1" transform="rotate(90 65 58.2246)" fill="#1589D4"/>
<circle cx="55" cy="58.2246" r="1" transform="rotate(90 55 58.2246)" fill="#1589D4"/>
<circle cx="45" cy="58.2246" r="1" transform="rotate(90 45 58.2246)" fill="#1589D4"/>
<circle cx="35" cy="58.2246" r="1" transform="rotate(90 35 58.2246)" fill="#1589D4"/>
<circle cx="25" cy="58.2246" r="1" transform="rotate(90 25 58.2246)" fill="#1589D4"/>
<circle cx="15" cy="58.2246" r="1" transform="rotate(90 15 58.2246)" fill="#1589D4"/>
<circle cx="5" cy="58.2246" r="1" transform="rotate(90 5 58.2246)" fill="#1589D4"/>
<circle cx="365" cy="68.2246" r="1" transform="rotate(90 365 68.2246)" fill="#1589D4"/>
<circle cx="355" cy="68.2246" r="1" transform="rotate(90 355 68.2246)" fill="#1589D4"/>
<circle cx="345" cy="68.2246" r="1" transform="rotate(90 345 68.2246)" fill="#1589D4"/>
<circle cx="335" cy="68.2246" r="1" transform="rotate(90 335 68.2246)" fill="#1589D4"/>
<circle cx="325" cy="68.2246" r="1" transform="rotate(90 325 68.2246)" fill="#1589D4"/>
<circle cx="315" cy="68.2246" r="1" transform="rotate(90 315 68.2246)" fill="#1589D4"/>
<circle cx="305" cy="68.2246" r="1" transform="rotate(90 305 68.2246)" fill="#1589D4"/>
<circle cx="295" cy="68.2246" r="1" transform="rotate(90 295 68.2246)" fill="#1589D4"/>
<circle cx="285" cy="68.2246" r="1" transform="rotate(90 285 68.2246)" fill="#1589D4"/>
<circle cx="275" cy="68.2246" r="1" transform="rotate(90 275 68.2246)" fill="#1589D4"/>
<circle cx="265" cy="68.2246" r="1" transform="rotate(90 265 68.2246)" fill="#1589D4"/>
<circle cx="255" cy="68.2246" r="1" transform="rotate(90 255 68.2246)" fill="#1589D4"/>
<circle cx="245" cy="68.2246" r="1" transform="rotate(90 245 68.2246)" fill="#1589D4"/>
<circle cx="235" cy="68.2246" r="1" transform="rotate(90 235 68.2246)" fill="#1589D4"/>
<circle cx="225" cy="68.2246" r="1" transform="rotate(90 225 68.2246)" fill="#1589D4"/>
<circle cx="215" cy="68.2246" r="1" transform="rotate(90 215 68.2246)" fill="#1589D4"/>
<circle cx="205" cy="68.2246" r="1" transform="rotate(90 205 68.2246)" fill="#1589D4"/>
<circle cx="195" cy="68.2246" r="1" transform="rotate(90 195 68.2246)" fill="#1589D4"/>
<circle cx="185" cy="68.2246" r="1" transform="rotate(90 185 68.2246)" fill="#1589D4"/>
<circle cx="175" cy="68.2246" r="1" transform="rotate(90 175 68.2246)" fill="#1589D4"/>
<circle cx="165" cy="68.2246" r="1" transform="rotate(90 165 68.2246)" fill="#1589D4"/>
<circle cx="155" cy="68.2246" r="1" transform="rotate(90 155 68.2246)" fill="#1589D4"/>
<circle cx="145" cy="68.2246" r="1" transform="rotate(90 145 68.2246)" fill="#1589D4"/>
<circle cx="135" cy="68.2246" r="1" transform="rotate(90 135 68.2246)" fill="#1589D4"/>
<circle cx="125" cy="68.2246" r="1" transform="rotate(90 125 68.2246)" fill="#1589D4"/>
<circle cx="115" cy="68.2246" r="1" transform="rotate(90 115 68.2246)" fill="#1589D4"/>
<circle cx="105" cy="68.2246" r="1" transform="rotate(90 105 68.2246)" fill="#1589D4"/>
<circle cx="95" cy="68.2246" r="1" transform="rotate(90 95 68.2246)" fill="#1589D4"/>
<circle cx="85" cy="68.2246" r="1" transform="rotate(90 85 68.2246)" fill="#1589D4"/>
<circle cx="75" cy="68.2246" r="1" transform="rotate(90 75 68.2246)" fill="#1589D4"/>
<circle cx="65" cy="68.2246" r="1" transform="rotate(90 65 68.2246)" fill="#1589D4"/>
<circle cx="55" cy="68.2246" r="1" transform="rotate(90 55 68.2246)" fill="#1589D4"/>
<circle cx="45" cy="68.2246" r="1" transform="rotate(90 45 68.2246)" fill="#1589D4"/>
<circle cx="35" cy="68.2246" r="1" transform="rotate(90 35 68.2246)" fill="#1589D4"/>
<circle cx="25" cy="68.2246" r="1" transform="rotate(90 25 68.2246)" fill="#1589D4"/>
<circle cx="15" cy="68.2246" r="1" transform="rotate(90 15 68.2246)" fill="#1589D4"/>
<circle cx="5" cy="68.2246" r="1" transform="rotate(90 5 68.2246)" fill="#1589D4"/>
<circle cx="365" cy="78.2246" r="1" transform="rotate(90 365 78.2246)" fill="#1589D4"/>
<circle cx="355" cy="78.2246" r="1" transform="rotate(90 355 78.2246)" fill="#1589D4"/>
<circle cx="345" cy="78.2246" r="1" transform="rotate(90 345 78.2246)" fill="#1589D4"/>
<circle cx="335" cy="78.2246" r="1" transform="rotate(90 335 78.2246)" fill="#1589D4"/>
<circle cx="325" cy="78.2246" r="1" transform="rotate(90 325 78.2246)" fill="#1589D4"/>
<circle cx="315" cy="78.2246" r="1" transform="rotate(90 315 78.2246)" fill="#1589D4"/>
<circle cx="305" cy="78.2246" r="1" transform="rotate(90 305 78.2246)" fill="#1589D4"/>
<circle cx="295" cy="78.2246" r="1" transform="rotate(90 295 78.2246)" fill="#1589D4"/>
<circle cx="285" cy="78.2246" r="1" transform="rotate(90 285 78.2246)" fill="#1589D4"/>
<circle cx="275" cy="78.2246" r="1" transform="rotate(90 275 78.2246)" fill="#1589D4"/>
<circle cx="265" cy="78.2246" r="1" transform="rotate(90 265 78.2246)" fill="#1589D4"/>
<circle cx="255" cy="78.2246" r="1" transform="rotate(90 255 78.2246)" fill="#1589D4"/>
<circle cx="245" cy="78.2246" r="1" transform="rotate(90 245 78.2246)" fill="#1589D4"/>
<circle cx="235" cy="78.2246" r="1" transform="rotate(90 235 78.2246)" fill="#1589D4"/>
<circle cx="225" cy="78.2246" r="1" transform="rotate(90 225 78.2246)" fill="#1589D4"/>
<circle cx="215" cy="78.2246" r="1" transform="rotate(90 215 78.2246)" fill="#1589D4"/>
<circle cx="205" cy="78.2246" r="1" transform="rotate(90 205 78.2246)" fill="#1589D4"/>
<circle cx="195" cy="78.2246" r="1" transform="rotate(90 195 78.2246)" fill="#1589D4"/>
<circle cx="185" cy="78.2246" r="1" transform="rotate(90 185 78.2246)" fill="#1589D4"/>
<circle cx="175" cy="78.2246" r="1" transform="rotate(90 175 78.2246)" fill="#1589D4"/>
<circle cx="165" cy="78.2246" r="1" transform="rotate(90 165 78.2246)" fill="#1589D4"/>
<circle cx="155" cy="78.2246" r="1" transform="rotate(90 155 78.2246)" fill="#1589D4"/>
<circle cx="145" cy="78.2246" r="1" transform="rotate(90 145 78.2246)" fill="#1589D4"/>
<circle cx="135" cy="78.2246" r="1" transform="rotate(90 135 78.2246)" fill="#1589D4"/>
<circle cx="125" cy="78.2246" r="1" transform="rotate(90 125 78.2246)" fill="#1589D4"/>
<circle cx="115" cy="78.2246" r="1" transform="rotate(90 115 78.2246)" fill="#1589D4"/>
<circle cx="105" cy="78.2246" r="1" transform="rotate(90 105 78.2246)" fill="#1589D4"/>
<circle cx="95" cy="78.2246" r="1" transform="rotate(90 95 78.2246)" fill="#1589D4"/>
<circle cx="85" cy="78.2246" r="1" transform="rotate(90 85 78.2246)" fill="#1589D4"/>
<circle cx="75" cy="78.2246" r="1" transform="rotate(90 75 78.2246)" fill="#1589D4"/>
<circle cx="65" cy="78.2246" r="1" transform="rotate(90 65 78.2246)" fill="#1589D4"/>
<circle cx="55" cy="78.2246" r="1" transform="rotate(90 55 78.2246)" fill="#1589D4"/>
<circle cx="45" cy="78.2246" r="1" transform="rotate(90 45 78.2246)" fill="#1589D4"/>
<circle cx="35" cy="78.2246" r="1" transform="rotate(90 35 78.2246)" fill="#1589D4"/>
<circle cx="25" cy="78.2246" r="1" transform="rotate(90 25 78.2246)" fill="#1589D4"/>
<circle cx="15" cy="78.2246" r="1" transform="rotate(90 15 78.2246)" fill="#1589D4"/>
<circle cx="5" cy="78.2246" r="1" transform="rotate(90 5 78.2246)" fill="#1589D4"/>
<circle cx="365" cy="88.2246" r="1" transform="rotate(90 365 88.2246)" fill="#1589D4"/>
<circle cx="355" cy="88.2246" r="1" transform="rotate(90 355 88.2246)" fill="#1589D4"/>
<circle cx="345" cy="88.2246" r="1" transform="rotate(90 345 88.2246)" fill="#1589D4"/>
<circle cx="335" cy="88.2246" r="1" transform="rotate(90 335 88.2246)" fill="#1589D4"/>
<circle cx="325" cy="88.2246" r="1" transform="rotate(90 325 88.2246)" fill="#1589D4"/>
<circle cx="315" cy="88.2246" r="1" transform="rotate(90 315 88.2246)" fill="#1589D4"/>
<circle cx="305" cy="88.2246" r="1" transform="rotate(90 305 88.2246)" fill="#1589D4"/>
<circle cx="295" cy="88.2246" r="1" transform="rotate(90 295 88.2246)" fill="#1589D4"/>
<circle cx="285" cy="88.2246" r="1" transform="rotate(90 285 88.2246)" fill="#1589D4"/>
<circle cx="275" cy="88.2246" r="1" transform="rotate(90 275 88.2246)" fill="#1589D4"/>
<circle cx="265" cy="88.2246" r="1" transform="rotate(90 265 88.2246)" fill="#1589D4"/>
<circle cx="255" cy="88.2246" r="1" transform="rotate(90 255 88.2246)" fill="#1589D4"/>
<circle cx="245" cy="88.2246" r="1" transform="rotate(90 245 88.2246)" fill="#1589D4"/>
<circle cx="235" cy="88.2246" r="1" transform="rotate(90 235 88.2246)" fill="#1589D4"/>
<circle cx="225" cy="88.2246" r="1" transform="rotate(90 225 88.2246)" fill="#1589D4"/>
<circle cx="215" cy="88.2246" r="1" transform="rotate(90 215 88.2246)" fill="#1589D4"/>
<circle cx="205" cy="88.2246" r="1" transform="rotate(90 205 88.2246)" fill="#1589D4"/>
<circle cx="195" cy="88.2246" r="1" transform="rotate(90 195 88.2246)" fill="#1589D4"/>
<circle cx="185" cy="88.2246" r="1" transform="rotate(90 185 88.2246)" fill="#1589D4"/>
<circle cx="175" cy="88.2246" r="1" transform="rotate(90 175 88.2246)" fill="#1589D4"/>
<circle cx="165" cy="88.2246" r="1" transform="rotate(90 165 88.2246)" fill="#1589D4"/>
<circle cx="155" cy="88.2246" r="1" transform="rotate(90 155 88.2246)" fill="#1589D4"/>
<circle cx="145" cy="88.2246" r="1" transform="rotate(90 145 88.2246)" fill="#1589D4"/>
<circle cx="135" cy="88.2246" r="1" transform="rotate(90 135 88.2246)" fill="#1589D4"/>
<circle cx="125" cy="88.2246" r="1" transform="rotate(90 125 88.2246)" fill="#1589D4"/>
<circle cx="115" cy="88.2246" r="1" transform="rotate(90 115 88.2246)" fill="#1589D4"/>
<circle cx="105" cy="88.2246" r="1" transform="rotate(90 105 88.2246)" fill="#1589D4"/>
<circle cx="95" cy="88.2246" r="1" transform="rotate(90 95 88.2246)" fill="#1589D4"/>
<circle cx="85" cy="88.2246" r="1" transform="rotate(90 85 88.2246)" fill="#1589D4"/>
<circle cx="75" cy="88.2246" r="1" transform="rotate(90 75 88.2246)" fill="#1589D4"/>
<circle cx="65" cy="88.2246" r="1" transform="rotate(90 65 88.2246)" fill="#1589D4"/>
<circle cx="55" cy="88.2246" r="1" transform="rotate(90 55 88.2246)" fill="#1589D4"/>
<circle cx="45" cy="88.2246" r="1" transform="rotate(90 45 88.2246)" fill="#1589D4"/>
<circle cx="35" cy="88.2246" r="1" transform="rotate(90 35 88.2246)" fill="#1589D4"/>
<circle cx="25" cy="88.2246" r="1" transform="rotate(90 25 88.2246)" fill="#1589D4"/>
<circle cx="15" cy="88.2246" r="1" transform="rotate(90 15 88.2246)" fill="#1589D4"/>
<circle cx="5" cy="88.2246" r="1" transform="rotate(90 5 88.2246)" fill="#1589D4"/>
<circle cx="365" cy="98.2246" r="1" transform="rotate(90 365 98.2246)" fill="#1589D4"/>
<circle cx="355" cy="98.2246" r="1" transform="rotate(90 355 98.2246)" fill="#1589D4"/>
<circle cx="345" cy="98.2246" r="1" transform="rotate(90 345 98.2246)" fill="#1589D4"/>
<circle cx="335" cy="98.2246" r="1" transform="rotate(90 335 98.2246)" fill="#1589D4"/>
<circle cx="325" cy="98.2246" r="1" transform="rotate(90 325 98.2246)" fill="#1589D4"/>
<circle cx="315" cy="98.2246" r="1" transform="rotate(90 315 98.2246)" fill="#1589D4"/>
<circle cx="305" cy="98.2246" r="1" transform="rotate(90 305 98.2246)" fill="#1589D4"/>
<circle cx="295" cy="98.2246" r="1" transform="rotate(90 295 98.2246)" fill="#1589D4"/>
<circle cx="285" cy="98.2246" r="1" transform="rotate(90 285 98.2246)" fill="#1589D4"/>
<circle cx="275" cy="98.2246" r="1" transform="rotate(90 275 98.2246)" fill="#1589D4"/>
<circle cx="265" cy="98.2246" r="1" transform="rotate(90 265 98.2246)" fill="#1589D4"/>
<circle cx="255" cy="98.2246" r="1" transform="rotate(90 255 98.2246)" fill="#1589D4"/>
<circle cx="245" cy="98.2246" r="1" transform="rotate(90 245 98.2246)" fill="#1589D4"/>
<circle cx="235" cy="98.2246" r="1" transform="rotate(90 235 98.2246)" fill="#1589D4"/>
<circle cx="225" cy="98.2246" r="1" transform="rotate(90 225 98.2246)" fill="#1589D4"/>
<circle cx="215" cy="98.2246" r="1" transform="rotate(90 215 98.2246)" fill="#1589D4"/>
<circle cx="205" cy="98.2246" r="1" transform="rotate(90 205 98.2246)" fill="#1589D4"/>
<circle cx="195" cy="98.2246" r="1" transform="rotate(90 195 98.2246)" fill="#1589D4"/>
<circle cx="185" cy="98.2246" r="1" transform="rotate(90 185 98.2246)" fill="#1589D4"/>
<circle cx="175" cy="98.2246" r="1" transform="rotate(90 175 98.2246)" fill="#1589D4"/>
<circle cx="165" cy="98.2246" r="1" transform="rotate(90 165 98.2246)" fill="#1589D4"/>
<circle cx="155" cy="98.2246" r="1" transform="rotate(90 155 98.2246)" fill="#1589D4"/>
<circle cx="145" cy="98.2246" r="1" transform="rotate(90 145 98.2246)" fill="#1589D4"/>
<circle cx="135" cy="98.2246" r="1" transform="rotate(90 135 98.2246)" fill="#1589D4"/>
<circle cx="125" cy="98.2246" r="1" transform="rotate(90 125 98.2246)" fill="#1589D4"/>
<circle cx="115" cy="98.2246" r="1" transform="rotate(90 115 98.2246)" fill="#1589D4"/>
<circle cx="105" cy="98.2246" r="1" transform="rotate(90 105 98.2246)" fill="#1589D4"/>
<circle cx="95" cy="98.2246" r="1" transform="rotate(90 95 98.2246)" fill="#1589D4"/>
<circle cx="85" cy="98.2246" r="1" transform="rotate(90 85 98.2246)" fill="#1589D4"/>
<circle cx="75" cy="98.2246" r="1" transform="rotate(90 75 98.2246)" fill="#1589D4"/>
<circle cx="65" cy="98.2246" r="1" transform="rotate(90 65 98.2246)" fill="#1589D4"/>
<circle cx="55" cy="98.2246" r="1" transform="rotate(90 55 98.2246)" fill="#1589D4"/>
<circle cx="45" cy="98.2246" r="1" transform="rotate(90 45 98.2246)" fill="#1589D4"/>
<circle cx="35" cy="98.2246" r="1" transform="rotate(90 35 98.2246)" fill="#1589D4"/>
<circle cx="25" cy="98.2246" r="1" transform="rotate(90 25 98.2246)" fill="#1589D4"/>
<circle cx="15" cy="98.2246" r="1" transform="rotate(90 15 98.2246)" fill="#1589D4"/>
<circle cx="5" cy="98.2246" r="1" transform="rotate(90 5 98.2246)" fill="#1589D4"/>
<circle cx="365" cy="108.225" r="1" transform="rotate(90 365 108.225)" fill="#1589D4"/>
<circle cx="355" cy="108.225" r="1" transform="rotate(90 355 108.225)" fill="#1589D4"/>
<circle cx="345" cy="108.225" r="1" transform="rotate(90 345 108.225)" fill="#1589D4"/>
<circle cx="335" cy="108.225" r="1" transform="rotate(90 335 108.225)" fill="#1589D4"/>
<circle cx="325" cy="108.225" r="1" transform="rotate(90 325 108.225)" fill="#1589D4"/>
<circle cx="315" cy="108.225" r="1" transform="rotate(90 315 108.225)" fill="#1589D4"/>
<circle cx="305" cy="108.225" r="1" transform="rotate(90 305 108.225)" fill="#1589D4"/>
<circle cx="295" cy="108.225" r="1" transform="rotate(90 295 108.225)" fill="#1589D4"/>
<circle cx="285" cy="108.225" r="1" transform="rotate(90 285 108.225)" fill="#1589D4"/>
<circle cx="275" cy="108.225" r="1" transform="rotate(90 275 108.225)" fill="#1589D4"/>
<circle cx="265" cy="108.225" r="1" transform="rotate(90 265 108.225)" fill="#1589D4"/>
<circle cx="255" cy="108.225" r="1" transform="rotate(90 255 108.225)" fill="#1589D4"/>
<circle cx="245" cy="108.225" r="1" transform="rotate(90 245 108.225)" fill="#1589D4"/>
<circle cx="235" cy="108.225" r="1" transform="rotate(90 235 108.225)" fill="#1589D4"/>
<circle cx="225" cy="108.225" r="1" transform="rotate(90 225 108.225)" fill="#1589D4"/>
<circle cx="215" cy="108.225" r="1" transform="rotate(90 215 108.225)" fill="#1589D4"/>
<circle cx="205" cy="108.225" r="1" transform="rotate(90 205 108.225)" fill="#1589D4"/>
<circle cx="195" cy="108.225" r="1" transform="rotate(90 195 108.225)" fill="#1589D4"/>
<circle cx="185" cy="108.225" r="1" transform="rotate(90 185 108.225)" fill="#1589D4"/>
<circle cx="175" cy="108.225" r="1" transform="rotate(90 175 108.225)" fill="#1589D4"/>
<circle cx="165" cy="108.225" r="1" transform="rotate(90 165 108.225)" fill="#1589D4"/>
<circle cx="155" cy="108.225" r="1" transform="rotate(90 155 108.225)" fill="#1589D4"/>
<circle cx="145" cy="108.225" r="1" transform="rotate(90 145 108.225)" fill="#1589D4"/>
<circle cx="135" cy="108.225" r="1" transform="rotate(90 135 108.225)" fill="#1589D4"/>
<circle cx="125" cy="108.225" r="1" transform="rotate(90 125 108.225)" fill="#1589D4"/>
<circle cx="115" cy="108.225" r="1" transform="rotate(90 115 108.225)" fill="#1589D4"/>
<circle cx="105" cy="108.225" r="1" transform="rotate(90 105 108.225)" fill="#1589D4"/>
<circle cx="95" cy="108.225" r="1" transform="rotate(90 95 108.225)" fill="#1589D4"/>
<circle cx="85" cy="108.225" r="1" transform="rotate(90 85 108.225)" fill="#1589D4"/>
<circle cx="75" cy="108.225" r="1" transform="rotate(90 75 108.225)" fill="#1589D4"/>
<circle cx="65" cy="108.225" r="1" transform="rotate(90 65 108.225)" fill="#1589D4"/>
<circle cx="55" cy="108.225" r="1" transform="rotate(90 55 108.225)" fill="#1589D4"/>
<circle cx="45" cy="108.225" r="1" transform="rotate(90 45 108.225)" fill="#1589D4"/>
<circle cx="35" cy="108.225" r="1" transform="rotate(90 35 108.225)" fill="#1589D4"/>
<circle cx="25" cy="108.225" r="1" transform="rotate(90 25 108.225)" fill="#1589D4"/>
<circle cx="15" cy="108.225" r="1" transform="rotate(90 15 108.225)" fill="#1589D4"/>
<circle cx="5" cy="108.225" r="1" transform="rotate(90 5 108.225)" fill="#1589D4"/>
<circle cx="365" cy="118.225" r="1" transform="rotate(90 365 118.225)" fill="#1589D4"/>
<circle cx="355" cy="118.225" r="1" transform="rotate(90 355 118.225)" fill="#1589D4"/>
<circle cx="345" cy="118.225" r="1" transform="rotate(90 345 118.225)" fill="#1589D4"/>
<circle cx="335" cy="118.225" r="1" transform="rotate(90 335 118.225)" fill="#1589D4"/>
<circle cx="325" cy="118.225" r="1" transform="rotate(90 325 118.225)" fill="#1589D4"/>
<circle cx="315" cy="118.225" r="1" transform="rotate(90 315 118.225)" fill="#1589D4"/>
<circle cx="305" cy="118.225" r="1" transform="rotate(90 305 118.225)" fill="#1589D4"/>
<circle cx="295" cy="118.225" r="1" transform="rotate(90 295 118.225)" fill="#1589D4"/>
<circle cx="285" cy="118.225" r="1" transform="rotate(90 285 118.225)" fill="#1589D4"/>
<circle cx="275" cy="118.225" r="1" transform="rotate(90 275 118.225)" fill="#1589D4"/>
<circle cx="265" cy="118.225" r="1" transform="rotate(90 265 118.225)" fill="#1589D4"/>
<circle cx="255" cy="118.225" r="1" transform="rotate(90 255 118.225)" fill="#1589D4"/>
<circle cx="245" cy="118.225" r="1" transform="rotate(90 245 118.225)" fill="#1589D4"/>
<circle cx="235" cy="118.225" r="1" transform="rotate(90 235 118.225)" fill="#1589D4"/>
<circle cx="225" cy="118.225" r="1" transform="rotate(90 225 118.225)" fill="#1589D4"/>
<circle cx="215" cy="118.225" r="1" transform="rotate(90 215 118.225)" fill="#1589D4"/>
<circle cx="205" cy="118.225" r="1" transform="rotate(90 205 118.225)" fill="#1589D4"/>
<circle cx="195" cy="118.225" r="1" transform="rotate(90 195 118.225)" fill="#1589D4"/>
<circle cx="185" cy="118.225" r="1" transform="rotate(90 185 118.225)" fill="#1589D4"/>
<circle cx="175" cy="118.225" r="1" transform="rotate(90 175 118.225)" fill="#1589D4"/>
<circle cx="165" cy="118.225" r="1" transform="rotate(90 165 118.225)" fill="#1589D4"/>
<circle cx="155" cy="118.225" r="1" transform="rotate(90 155 118.225)" fill="#1589D4"/>
<circle cx="145" cy="118.225" r="1" transform="rotate(90 145 118.225)" fill="#1589D4"/>
<circle cx="135" cy="118.225" r="1" transform="rotate(90 135 118.225)" fill="#1589D4"/>
<circle cx="125" cy="118.225" r="1" transform="rotate(90 125 118.225)" fill="#1589D4"/>
<circle cx="115" cy="118.225" r="1" transform="rotate(90 115 118.225)" fill="#1589D4"/>
<circle cx="105" cy="118.225" r="1" transform="rotate(90 105 118.225)" fill="#1589D4"/>
<circle cx="95" cy="118.225" r="1" transform="rotate(90 95 118.225)" fill="#1589D4"/>
<circle cx="85" cy="118.225" r="1" transform="rotate(90 85 118.225)" fill="#1589D4"/>
<circle cx="75" cy="118.225" r="1" transform="rotate(90 75 118.225)" fill="#1589D4"/>
<circle cx="65" cy="118.225" r="1" transform="rotate(90 65 118.225)" fill="#1589D4"/>
<circle cx="55" cy="118.225" r="1" transform="rotate(90 55 118.225)" fill="#1589D4"/>
<circle cx="45" cy="118.225" r="1" transform="rotate(90 45 118.225)" fill="#1589D4"/>
<circle cx="35" cy="118.225" r="1" transform="rotate(90 35 118.225)" fill="#1589D4"/>
<circle cx="25" cy="118.225" r="1" transform="rotate(90 25 118.225)" fill="#1589D4"/>
<circle cx="15" cy="118.225" r="1" transform="rotate(90 15 118.225)" fill="#1589D4"/>
<circle cx="5" cy="118.225" r="1" transform="rotate(90 5 118.225)" fill="#1589D4"/>
<circle cx="365" cy="128.225" r="1" transform="rotate(90 365 128.225)" fill="#1589D4"/>
<circle cx="355" cy="128.225" r="1" transform="rotate(90 355 128.225)" fill="#1589D4"/>
<circle cx="345" cy="128.225" r="1" transform="rotate(90 345 128.225)" fill="#1589D4"/>
<circle cx="335" cy="128.225" r="1" transform="rotate(90 335 128.225)" fill="#1589D4"/>
<circle cx="325" cy="128.225" r="1" transform="rotate(90 325 128.225)" fill="#1589D4"/>
<circle cx="315" cy="128.225" r="1" transform="rotate(90 315 128.225)" fill="#1589D4"/>
<circle cx="305" cy="128.225" r="1" transform="rotate(90 305 128.225)" fill="#1589D4"/>
<circle cx="295" cy="128.225" r="1" transform="rotate(90 295 128.225)" fill="#1589D4"/>
<circle cx="285" cy="128.225" r="1" transform="rotate(90 285 128.225)" fill="#1589D4"/>
<circle cx="275" cy="128.225" r="1" transform="rotate(90 275 128.225)" fill="#1589D4"/>
<circle cx="265" cy="128.225" r="1" transform="rotate(90 265 128.225)" fill="#1589D4"/>
<circle cx="255" cy="128.225" r="1" transform="rotate(90 255 128.225)" fill="#1589D4"/>
<circle cx="245" cy="128.225" r="1" transform="rotate(90 245 128.225)" fill="#1589D4"/>
<circle cx="235" cy="128.225" r="1" transform="rotate(90 235 128.225)" fill="#1589D4"/>
<circle cx="225" cy="128.225" r="1" transform="rotate(90 225 128.225)" fill="#1589D4"/>
<circle cx="215" cy="128.225" r="1" transform="rotate(90 215 128.225)" fill="#1589D4"/>
<circle cx="205" cy="128.225" r="1" transform="rotate(90 205 128.225)" fill="#1589D4"/>
<circle cx="195" cy="128.225" r="1" transform="rotate(90 195 128.225)" fill="#1589D4"/>
<circle cx="185" cy="128.225" r="1" transform="rotate(90 185 128.225)" fill="#1589D4"/>
<circle cx="175" cy="128.225" r="1" transform="rotate(90 175 128.225)" fill="#1589D4"/>
<circle cx="165" cy="128.225" r="1" transform="rotate(90 165 128.225)" fill="#1589D4"/>
<circle cx="155" cy="128.225" r="1" transform="rotate(90 155 128.225)" fill="#1589D4"/>
<circle cx="145" cy="128.225" r="1" transform="rotate(90 145 128.225)" fill="#1589D4"/>
<circle cx="135" cy="128.225" r="1" transform="rotate(90 135 128.225)" fill="#1589D4"/>
<circle cx="125" cy="128.225" r="1" transform="rotate(90 125 128.225)" fill="#1589D4"/>
<circle cx="115" cy="128.225" r="1" transform="rotate(90 115 128.225)" fill="#1589D4"/>
<circle cx="105" cy="128.225" r="1" transform="rotate(90 105 128.225)" fill="#1589D4"/>
<circle cx="95" cy="128.225" r="1" transform="rotate(90 95 128.225)" fill="#1589D4"/>
<circle cx="85" cy="128.225" r="1" transform="rotate(90 85 128.225)" fill="#1589D4"/>
<circle cx="75" cy="128.225" r="1" transform="rotate(90 75 128.225)" fill="#1589D4"/>
<circle cx="65" cy="128.225" r="1" transform="rotate(90 65 128.225)" fill="#1589D4"/>
<circle cx="55" cy="128.225" r="1" transform="rotate(90 55 128.225)" fill="#1589D4"/>
<circle cx="45" cy="128.225" r="1" transform="rotate(90 45 128.225)" fill="#1589D4"/>
<circle cx="35" cy="128.225" r="1" transform="rotate(90 35 128.225)" fill="#1589D4"/>
<circle cx="25" cy="128.225" r="1" transform="rotate(90 25 128.225)" fill="#1589D4"/>
<circle cx="15" cy="128.225" r="1" transform="rotate(90 15 128.225)" fill="#1589D4"/>
<circle cx="5" cy="128.225" r="1" transform="rotate(90 5 128.225)" fill="#1589D4"/>
<circle cx="365" cy="138.225" r="1" transform="rotate(90 365 138.225)" fill="#1589D4"/>
<circle cx="355" cy="138.225" r="1" transform="rotate(90 355 138.225)" fill="#1589D4"/>
<circle cx="345" cy="138.225" r="1" transform="rotate(90 345 138.225)" fill="#1589D4"/>
<circle cx="335" cy="138.225" r="1" transform="rotate(90 335 138.225)" fill="#1589D4"/>
<circle cx="325" cy="138.225" r="1" transform="rotate(90 325 138.225)" fill="#1589D4"/>
<circle cx="315" cy="138.225" r="1" transform="rotate(90 315 138.225)" fill="#1589D4"/>
<circle cx="305" cy="138.225" r="1" transform="rotate(90 305 138.225)" fill="#1589D4"/>
<circle cx="295" cy="138.225" r="1" transform="rotate(90 295 138.225)" fill="#1589D4"/>
<circle cx="285" cy="138.225" r="1" transform="rotate(90 285 138.225)" fill="#1589D4"/>
<circle cx="275" cy="138.225" r="1" transform="rotate(90 275 138.225)" fill="#1589D4"/>
<circle cx="265" cy="138.225" r="1" transform="rotate(90 265 138.225)" fill="#1589D4"/>
<circle cx="255" cy="138.225" r="1" transform="rotate(90 255 138.225)" fill="#1589D4"/>
<circle cx="245" cy="138.225" r="1" transform="rotate(90 245 138.225)" fill="#1589D4"/>
<circle cx="235" cy="138.225" r="1" transform="rotate(90 235 138.225)" fill="#1589D4"/>
<circle cx="225" cy="138.225" r="1" transform="rotate(90 225 138.225)" fill="#1589D4"/>
<circle cx="215" cy="138.225" r="1" transform="rotate(90 215 138.225)" fill="#1589D4"/>
<circle cx="205" cy="138.225" r="1" transform="rotate(90 205 138.225)" fill="#1589D4"/>
<circle cx="195" cy="138.225" r="1" transform="rotate(90 195 138.225)" fill="#1589D4"/>
<circle cx="185" cy="138.225" r="1" transform="rotate(90 185 138.225)" fill="#1589D4"/>
<circle cx="175" cy="138.225" r="1" transform="rotate(90 175 138.225)" fill="#1589D4"/>
<circle cx="165" cy="138.225" r="1" transform="rotate(90 165 138.225)" fill="#1589D4"/>
<circle cx="155" cy="138.225" r="1" transform="rotate(90 155 138.225)" fill="#1589D4"/>
<circle cx="145" cy="138.225" r="1" transform="rotate(90 145 138.225)" fill="#1589D4"/>
<circle cx="135" cy="138.225" r="1" transform="rotate(90 135 138.225)" fill="#1589D4"/>
<circle cx="125" cy="138.225" r="1" transform="rotate(90 125 138.225)" fill="#1589D4"/>
<circle cx="115" cy="138.225" r="1" transform="rotate(90 115 138.225)" fill="#1589D4"/>
<circle cx="105" cy="138.225" r="1" transform="rotate(90 105 138.225)" fill="#1589D4"/>
<circle cx="95" cy="138.225" r="1" transform="rotate(90 95 138.225)" fill="#1589D4"/>
<circle cx="85" cy="138.225" r="1" transform="rotate(90 85 138.225)" fill="#1589D4"/>
<circle cx="75" cy="138.225" r="1" transform="rotate(90 75 138.225)" fill="#1589D4"/>
<circle cx="65" cy="138.225" r="1" transform="rotate(90 65 138.225)" fill="#1589D4"/>
<circle cx="55" cy="138.225" r="1" transform="rotate(90 55 138.225)" fill="#1589D4"/>
<circle cx="45" cy="138.225" r="1" transform="rotate(90 45 138.225)" fill="#1589D4"/>
<circle cx="35" cy="138.225" r="1" transform="rotate(90 35 138.225)" fill="#1589D4"/>
<circle cx="25" cy="138.225" r="1" transform="rotate(90 25 138.225)" fill="#1589D4"/>
<circle cx="15" cy="138.225" r="1" transform="rotate(90 15 138.225)" fill="#1589D4"/>
<circle cx="5" cy="138.225" r="1" transform="rotate(90 5 138.225)" fill="#1589D4"/>
<circle cx="365" cy="148.225" r="1" transform="rotate(90 365 148.225)" fill="#1589D4"/>
<circle cx="355" cy="148.225" r="1" transform="rotate(90 355 148.225)" fill="#1589D4"/>
<circle cx="345" cy="148.225" r="1" transform="rotate(90 345 148.225)" fill="#1589D4"/>
<circle cx="335" cy="148.225" r="1" transform="rotate(90 335 148.225)" fill="#1589D4"/>
<circle cx="325" cy="148.225" r="1" transform="rotate(90 325 148.225)" fill="#1589D4"/>
<circle cx="315" cy="148.225" r="1" transform="rotate(90 315 148.225)" fill="#1589D4"/>
<circle cx="305" cy="148.225" r="1" transform="rotate(90 305 148.225)" fill="#1589D4"/>
<circle cx="295" cy="148.225" r="1" transform="rotate(90 295 148.225)" fill="#1589D4"/>
<circle cx="285" cy="148.225" r="1" transform="rotate(90 285 148.225)" fill="#1589D4"/>
<circle cx="275" cy="148.225" r="1" transform="rotate(90 275 148.225)" fill="#1589D4"/>
<circle cx="265" cy="148.225" r="1" transform="rotate(90 265 148.225)" fill="#1589D4"/>
<circle cx="255" cy="148.225" r="1" transform="rotate(90 255 148.225)" fill="#1589D4"/>
<circle cx="245" cy="148.225" r="1" transform="rotate(90 245 148.225)" fill="#1589D4"/>
<circle cx="235" cy="148.225" r="1" transform="rotate(90 235 148.225)" fill="#1589D4"/>
<circle cx="225" cy="148.225" r="1" transform="rotate(90 225 148.225)" fill="#1589D4"/>
<circle cx="215" cy="148.225" r="1" transform="rotate(90 215 148.225)" fill="#1589D4"/>
<circle cx="205" cy="148.225" r="1" transform="rotate(90 205 148.225)" fill="#1589D4"/>
<circle cx="195" cy="148.225" r="1" transform="rotate(90 195 148.225)" fill="#1589D4"/>
<circle cx="185" cy="148.225" r="1" transform="rotate(90 185 148.225)" fill="#1589D4"/>
<circle cx="175" cy="148.225" r="1" transform="rotate(90 175 148.225)" fill="#1589D4"/>
<circle cx="165" cy="148.225" r="1" transform="rotate(90 165 148.225)" fill="#1589D4"/>
<circle cx="155" cy="148.225" r="1" transform="rotate(90 155 148.225)" fill="#1589D4"/>
<circle cx="145" cy="148.225" r="1" transform="rotate(90 145 148.225)" fill="#1589D4"/>
<circle cx="135" cy="148.225" r="1" transform="rotate(90 135 148.225)" fill="#1589D4"/>
<circle cx="125" cy="148.225" r="1" transform="rotate(90 125 148.225)" fill="#1589D4"/>
<circle cx="115" cy="148.225" r="1" transform="rotate(90 115 148.225)" fill="#1589D4"/>
<circle cx="105" cy="148.225" r="1" transform="rotate(90 105 148.225)" fill="#1589D4"/>
<circle cx="95" cy="148.225" r="1" transform="rotate(90 95 148.225)" fill="#1589D4"/>
<circle cx="85" cy="148.225" r="1" transform="rotate(90 85 148.225)" fill="#1589D4"/>
<circle cx="75" cy="148.225" r="1" transform="rotate(90 75 148.225)" fill="#1589D4"/>
<circle cx="65" cy="148.225" r="1" transform="rotate(90 65 148.225)" fill="#1589D4"/>
<circle cx="55" cy="148.225" r="1" transform="rotate(90 55 148.225)" fill="#1589D4"/>
<circle cx="45" cy="148.225" r="1" transform="rotate(90 45 148.225)" fill="#1589D4"/>
<circle cx="35" cy="148.225" r="1" transform="rotate(90 35 148.225)" fill="#1589D4"/>
<circle cx="25" cy="148.225" r="1" transform="rotate(90 25 148.225)" fill="#1589D4"/>
<circle cx="15" cy="148.225" r="1" transform="rotate(90 15 148.225)" fill="#1589D4"/>
<circle cx="5" cy="148.225" r="1" transform="rotate(90 5 148.225)" fill="#1589D4"/>
<circle cx="365" cy="158.225" r="1" transform="rotate(90 365 158.225)" fill="#1589D4"/>
<circle cx="355" cy="158.225" r="1" transform="rotate(90 355 158.225)" fill="#1589D4"/>
<circle cx="345" cy="158.225" r="1" transform="rotate(90 345 158.225)" fill="#1589D4"/>
<circle cx="335" cy="158.225" r="1" transform="rotate(90 335 158.225)" fill="#1589D4"/>
<circle cx="325" cy="158.225" r="1" transform="rotate(90 325 158.225)" fill="#1589D4"/>
<circle cx="315" cy="158.225" r="1" transform="rotate(90 315 158.225)" fill="#1589D4"/>
<circle cx="305" cy="158.225" r="1" transform="rotate(90 305 158.225)" fill="#1589D4"/>
<circle cx="295" cy="158.225" r="1" transform="rotate(90 295 158.225)" fill="#1589D4"/>
<circle cx="285" cy="158.225" r="1" transform="rotate(90 285 158.225)" fill="#1589D4"/>
<circle cx="275" cy="158.225" r="1" transform="rotate(90 275 158.225)" fill="#1589D4"/>
<circle cx="265" cy="158.225" r="1" transform="rotate(90 265 158.225)" fill="#1589D4"/>
<circle cx="255" cy="158.225" r="1" transform="rotate(90 255 158.225)" fill="#1589D4"/>
<circle cx="245" cy="158.225" r="1" transform="rotate(90 245 158.225)" fill="#1589D4"/>
<circle cx="235" cy="158.225" r="1" transform="rotate(90 235 158.225)" fill="#1589D4"/>
<circle cx="225" cy="158.225" r="1" transform="rotate(90 225 158.225)" fill="#1589D4"/>
<circle cx="215" cy="158.225" r="1" transform="rotate(90 215 158.225)" fill="#1589D4"/>
<circle cx="205" cy="158.225" r="1" transform="rotate(90 205 158.225)" fill="#1589D4"/>
<circle cx="195" cy="158.225" r="1" transform="rotate(90 195 158.225)" fill="#1589D4"/>
<circle cx="185" cy="158.225" r="1" transform="rotate(90 185 158.225)" fill="#1589D4"/>
<circle cx="175" cy="158.225" r="1" transform="rotate(90 175 158.225)" fill="#1589D4"/>
<circle cx="165" cy="158.225" r="1" transform="rotate(90 165 158.225)" fill="#1589D4"/>
<circle cx="155" cy="158.225" r="1" transform="rotate(90 155 158.225)" fill="#1589D4"/>
<circle cx="145" cy="158.225" r="1" transform="rotate(90 145 158.225)" fill="#1589D4"/>
<circle cx="135" cy="158.225" r="1" transform="rotate(90 135 158.225)" fill="#1589D4"/>
<circle cx="125" cy="158.225" r="1" transform="rotate(90 125 158.225)" fill="#1589D4"/>
<circle cx="115" cy="158.225" r="1" transform="rotate(90 115 158.225)" fill="#1589D4"/>
<circle cx="105" cy="158.225" r="1" transform="rotate(90 105 158.225)" fill="#1589D4"/>
<circle cx="95" cy="158.225" r="1" transform="rotate(90 95 158.225)" fill="#1589D4"/>
<circle cx="85" cy="158.225" r="1" transform="rotate(90 85 158.225)" fill="#1589D4"/>
<circle cx="75" cy="158.225" r="1" transform="rotate(90 75 158.225)" fill="#1589D4"/>
<circle cx="65" cy="158.225" r="1" transform="rotate(90 65 158.225)" fill="#1589D4"/>
<circle cx="55" cy="158.225" r="1" transform="rotate(90 55 158.225)" fill="#1589D4"/>
<circle cx="45" cy="158.225" r="1" transform="rotate(90 45 158.225)" fill="#1589D4"/>
<circle cx="35" cy="158.225" r="1" transform="rotate(90 35 158.225)" fill="#1589D4"/>
<circle cx="25" cy="158.225" r="1" transform="rotate(90 25 158.225)" fill="#1589D4"/>
<circle cx="15" cy="158.225" r="1" transform="rotate(90 15 158.225)" fill="#1589D4"/>
<circle cx="5" cy="158.225" r="1" transform="rotate(90 5 158.225)" fill="#1589D4"/>
</g>
</svg>
