<svg width="107" height="327" viewBox="0 0 107 327" fill="none" xmlns="http://www.w3.org/2000/svg">
<mask id="mask0" mask-type="alpha" maskUnits="userSpaceOnUse" x="0" y="0" width="107" height="327">
<rect width="107" height="326.991" fill="#C4C4C4"/>
</mask>
<g mask="url(#mask0)">
<ellipse cx="3" cy="7.2434" rx="1" ry="1.03478" fill="#1589D4"/>
<ellipse cx="3" cy="17.5912" rx="1" ry="1.03478" fill="#1589D4"/>
<ellipse cx="3" cy="27.939" rx="1" ry="1.03478" fill="#1589D4"/>
<ellipse cx="3" cy="38.2867" rx="1" ry="1.03478" fill="#1589D4"/>
<ellipse cx="3" cy="48.6346" rx="1" ry="1.03478" fill="#1589D4"/>
<ellipse cx="3" cy="58.9824" rx="1" ry="1.03478" fill="#1589D4"/>
<ellipse cx="3" cy="69.3302" rx="1" ry="1.03478" fill="#1589D4"/>
<ellipse cx="3" cy="79.678" rx="1" ry="1.03477" fill="#1589D4"/>
<ellipse cx="3" cy="90.0257" rx="1" ry="1.03478" fill="#1589D4"/>
<ellipse cx="3" cy="100.374" rx="1" ry="1.03478" fill="#1589D4"/>
<ellipse cx="3" cy="110.721" rx="1" ry="1.03478" fill="#1589D4"/>
<ellipse cx="3" cy="121.069" rx="1" ry="1.03478" fill="#1589D4"/>
<ellipse cx="3" cy="131.417" rx="1" ry="1.03478" fill="#1589D4"/>
<ellipse cx="3" cy="141.765" rx="1" ry="1.03477" fill="#1589D4"/>
<ellipse cx="3" cy="152.113" rx="1" ry="1.03477" fill="#1589D4"/>
<ellipse cx="3" cy="162.46" rx="1" ry="1.03479" fill="#1589D4"/>
<ellipse cx="3" cy="172.808" rx="1" ry="1.03477" fill="#1589D4"/>
<ellipse cx="3" cy="183.156" rx="1" ry="1.03477" fill="#1589D4"/>
<ellipse cx="3" cy="193.504" rx="1" ry="1.03479" fill="#1589D4"/>
<ellipse cx="3" cy="203.852" rx="1" ry="1.03477" fill="#1589D4"/>
<ellipse cx="3" cy="214.199" rx="1" ry="1.03477" fill="#1589D4"/>
<ellipse cx="3" cy="224.547" rx="1" ry="1.03479" fill="#1589D4"/>
<ellipse cx="3" cy="234.895" rx="1" ry="1.03477" fill="#1589D4"/>
<ellipse cx="3" cy="245.243" rx="1" ry="1.03477" fill="#1589D4"/>
<ellipse cx="3" cy="255.591" rx="1" ry="1.03479" fill="#1589D4"/>
<ellipse cx="3" cy="265.938" rx="1" ry="1.03477" fill="#1589D4"/>
<ellipse cx="3" cy="276.286" rx="1" ry="1.03479" fill="#1589D4"/>
<ellipse cx="3" cy="286.634" rx="1" ry="1.03479" fill="#1589D4"/>
<ellipse cx="3" cy="296.982" rx="1" ry="1.03477" fill="#1589D4"/>
<ellipse cx="3" cy="307.33" rx="1" ry="1.03479" fill="#1589D4"/>
<ellipse cx="3" cy="317.677" rx="1" ry="1.03477" fill="#1589D4"/>
<ellipse cx="3" cy="328.025" rx="1" ry="1.03477" fill="#1589D4"/>
<ellipse cx="13" cy="7.2434" rx="1" ry="1.03478" fill="#1589D4"/>
<ellipse cx="13" cy="17.5912" rx="1" ry="1.03478" fill="#1589D4"/>
<ellipse cx="13" cy="27.939" rx="1" ry="1.03478" fill="#1589D4"/>
<ellipse cx="13" cy="38.2867" rx="1" ry="1.03478" fill="#1589D4"/>
<ellipse cx="13" cy="48.6346" rx="1" ry="1.03478" fill="#1589D4"/>
<ellipse cx="13" cy="58.9824" rx="1" ry="1.03478" fill="#1589D4"/>
<ellipse cx="13" cy="69.3302" rx="1" ry="1.03478" fill="#1589D4"/>
<ellipse cx="13" cy="79.678" rx="1" ry="1.03477" fill="#1589D4"/>
<ellipse cx="13" cy="90.0257" rx="1" ry="1.03478" fill="#1589D4"/>
<ellipse cx="13" cy="100.374" rx="1" ry="1.03478" fill="#1589D4"/>
<ellipse cx="13" cy="110.721" rx="1" ry="1.03478" fill="#1589D4"/>
<ellipse cx="13" cy="121.069" rx="1" ry="1.03478" fill="#1589D4"/>
<ellipse cx="13" cy="131.417" rx="1" ry="1.03478" fill="#1589D4"/>
<ellipse cx="13" cy="141.765" rx="1" ry="1.03477" fill="#1589D4"/>
<ellipse cx="13" cy="152.113" rx="1" ry="1.03477" fill="#1589D4"/>
<ellipse cx="13" cy="162.46" rx="1" ry="1.03479" fill="#1589D4"/>
<ellipse cx="13" cy="172.808" rx="1" ry="1.03477" fill="#1589D4"/>
<ellipse cx="13" cy="183.156" rx="1" ry="1.03477" fill="#1589D4"/>
<ellipse cx="13" cy="193.504" rx="1" ry="1.03479" fill="#1589D4"/>
<ellipse cx="13" cy="203.852" rx="1" ry="1.03477" fill="#1589D4"/>
<ellipse cx="13" cy="214.199" rx="1" ry="1.03477" fill="#1589D4"/>
<ellipse cx="13" cy="224.547" rx="1" ry="1.03479" fill="#1589D4"/>
<ellipse cx="13" cy="234.895" rx="1" ry="1.03477" fill="#1589D4"/>
<ellipse cx="13" cy="245.243" rx="1" ry="1.03477" fill="#1589D4"/>
<ellipse cx="13" cy="255.591" rx="1" ry="1.03479" fill="#1589D4"/>
<ellipse cx="13" cy="265.938" rx="1" ry="1.03477" fill="#1589D4"/>
<ellipse cx="13" cy="276.286" rx="1" ry="1.03479" fill="#1589D4"/>
<ellipse cx="13" cy="286.634" rx="1" ry="1.03479" fill="#1589D4"/>
<ellipse cx="13" cy="296.982" rx="1" ry="1.03477" fill="#1589D4"/>
<ellipse cx="13" cy="307.33" rx="1" ry="1.03479" fill="#1589D4"/>
<ellipse cx="13" cy="317.677" rx="1" ry="1.03477" fill="#1589D4"/>
<ellipse cx="13" cy="328.025" rx="1" ry="1.03477" fill="#1589D4"/>
<ellipse cx="23" cy="7.2434" rx="1" ry="1.03478" fill="#1589D4"/>
<ellipse cx="23" cy="17.5912" rx="1" ry="1.03478" fill="#1589D4"/>
<ellipse cx="23" cy="27.939" rx="1" ry="1.03478" fill="#1589D4"/>
<ellipse cx="23" cy="38.2867" rx="1" ry="1.03478" fill="#1589D4"/>
<ellipse cx="23" cy="48.6346" rx="1" ry="1.03478" fill="#1589D4"/>
<ellipse cx="23" cy="58.9824" rx="1" ry="1.03478" fill="#1589D4"/>
<ellipse cx="23" cy="69.3302" rx="1" ry="1.03478" fill="#1589D4"/>
<ellipse cx="23" cy="79.678" rx="1" ry="1.03477" fill="#1589D4"/>
<ellipse cx="23" cy="90.0257" rx="1" ry="1.03478" fill="#1589D4"/>
<ellipse cx="23" cy="100.374" rx="1" ry="1.03478" fill="#1589D4"/>
<ellipse cx="23" cy="110.721" rx="1" ry="1.03478" fill="#1589D4"/>
<ellipse cx="23" cy="121.069" rx="1" ry="1.03478" fill="#1589D4"/>
<ellipse cx="23" cy="131.417" rx="1" ry="1.03478" fill="#1589D4"/>
<ellipse cx="23" cy="141.765" rx="1" ry="1.03477" fill="#1589D4"/>
<ellipse cx="23" cy="152.113" rx="1" ry="1.03477" fill="#1589D4"/>
<ellipse cx="23" cy="162.46" rx="1" ry="1.03479" fill="#1589D4"/>
<ellipse cx="23" cy="172.808" rx="1" ry="1.03477" fill="#1589D4"/>
<ellipse cx="23" cy="183.156" rx="1" ry="1.03477" fill="#1589D4"/>
<ellipse cx="23" cy="193.504" rx="1" ry="1.03479" fill="#1589D4"/>
<ellipse cx="23" cy="203.852" rx="1" ry="1.03477" fill="#1589D4"/>
<ellipse cx="23" cy="214.199" rx="1" ry="1.03477" fill="#1589D4"/>
<ellipse cx="23" cy="224.547" rx="1" ry="1.03479" fill="#1589D4"/>
<ellipse cx="23" cy="234.895" rx="1" ry="1.03477" fill="#1589D4"/>
<ellipse cx="23" cy="245.243" rx="1" ry="1.03477" fill="#1589D4"/>
<ellipse cx="23" cy="255.591" rx="1" ry="1.03479" fill="#1589D4"/>
<ellipse cx="23" cy="265.938" rx="1" ry="1.03477" fill="#1589D4"/>
<ellipse cx="23" cy="276.286" rx="1" ry="1.03479" fill="#1589D4"/>
<ellipse cx="23" cy="286.634" rx="1" ry="1.03479" fill="#1589D4"/>
<ellipse cx="23" cy="296.982" rx="1" ry="1.03477" fill="#1589D4"/>
<ellipse cx="23" cy="307.33" rx="1" ry="1.03479" fill="#1589D4"/>
<ellipse cx="23" cy="317.677" rx="1" ry="1.03477" fill="#1589D4"/>
<ellipse cx="23" cy="328.025" rx="1" ry="1.03477" fill="#1589D4"/>
<ellipse cx="33" cy="7.2434" rx="1" ry="1.03478" fill="#1589D4"/>
<ellipse cx="33" cy="17.5912" rx="1" ry="1.03478" fill="#1589D4"/>
<ellipse cx="33" cy="27.939" rx="1" ry="1.03478" fill="#1589D4"/>
<ellipse cx="33" cy="38.2867" rx="1" ry="1.03478" fill="#1589D4"/>
<ellipse cx="33" cy="48.6346" rx="1" ry="1.03478" fill="#1589D4"/>
<ellipse cx="33" cy="58.9824" rx="1" ry="1.03478" fill="#1589D4"/>
<ellipse cx="33" cy="69.3302" rx="1" ry="1.03478" fill="#1589D4"/>
<ellipse cx="33" cy="79.678" rx="1" ry="1.03477" fill="#1589D4"/>
<ellipse cx="33" cy="90.0257" rx="1" ry="1.03478" fill="#1589D4"/>
<ellipse cx="33" cy="100.374" rx="1" ry="1.03478" fill="#1589D4"/>
<ellipse cx="33" cy="110.721" rx="1" ry="1.03478" fill="#1589D4"/>
<ellipse cx="33" cy="121.069" rx="1" ry="1.03478" fill="#1589D4"/>
<ellipse cx="33" cy="131.417" rx="1" ry="1.03478" fill="#1589D4"/>
<ellipse cx="33" cy="141.765" rx="1" ry="1.03477" fill="#1589D4"/>
<ellipse cx="33" cy="152.113" rx="1" ry="1.03477" fill="#1589D4"/>
<ellipse cx="33" cy="162.46" rx="1" ry="1.03479" fill="#1589D4"/>
<ellipse cx="33" cy="172.808" rx="1" ry="1.03477" fill="#1589D4"/>
<ellipse cx="33" cy="183.156" rx="1" ry="1.03477" fill="#1589D4"/>
<ellipse cx="33" cy="193.504" rx="1" ry="1.03479" fill="#1589D4"/>
<ellipse cx="33" cy="203.852" rx="1" ry="1.03477" fill="#1589D4"/>
<ellipse cx="33" cy="214.199" rx="1" ry="1.03477" fill="#1589D4"/>
<ellipse cx="33" cy="224.547" rx="1" ry="1.03479" fill="#1589D4"/>
<ellipse cx="33" cy="234.895" rx="1" ry="1.03477" fill="#1589D4"/>
<ellipse cx="33" cy="245.243" rx="1" ry="1.03477" fill="#1589D4"/>
<ellipse cx="33" cy="255.591" rx="1" ry="1.03479" fill="#1589D4"/>
<ellipse cx="33" cy="265.938" rx="1" ry="1.03477" fill="#1589D4"/>
<ellipse cx="33" cy="276.286" rx="1" ry="1.03479" fill="#1589D4"/>
<ellipse cx="33" cy="286.634" rx="1" ry="1.03479" fill="#1589D4"/>
<ellipse cx="33" cy="296.982" rx="1" ry="1.03477" fill="#1589D4"/>
<ellipse cx="33" cy="307.33" rx="1" ry="1.03479" fill="#1589D4"/>
<ellipse cx="33" cy="317.677" rx="1" ry="1.03477" fill="#1589D4"/>
<ellipse cx="33" cy="328.025" rx="1" ry="1.03477" fill="#1589D4"/>
<ellipse cx="43" cy="7.2434" rx="1" ry="1.03478" fill="#1589D4"/>
<ellipse cx="43" cy="17.5912" rx="1" ry="1.03478" fill="#1589D4"/>
<ellipse cx="43" cy="27.939" rx="1" ry="1.03478" fill="#1589D4"/>
<ellipse cx="43" cy="38.2867" rx="1" ry="1.03478" fill="#1589D4"/>
<ellipse cx="43" cy="48.6346" rx="1" ry="1.03478" fill="#1589D4"/>
<ellipse cx="43" cy="58.9824" rx="1" ry="1.03478" fill="#1589D4"/>
<ellipse cx="43" cy="69.3302" rx="1" ry="1.03478" fill="#1589D4"/>
<ellipse cx="43" cy="79.678" rx="1" ry="1.03477" fill="#1589D4"/>
<ellipse cx="43" cy="90.0257" rx="1" ry="1.03478" fill="#1589D4"/>
<ellipse cx="43" cy="100.374" rx="1" ry="1.03478" fill="#1589D4"/>
<ellipse cx="43" cy="110.721" rx="1" ry="1.03478" fill="#1589D4"/>
<ellipse cx="43" cy="121.069" rx="1" ry="1.03478" fill="#1589D4"/>
<ellipse cx="43" cy="131.417" rx="1" ry="1.03478" fill="#1589D4"/>
<ellipse cx="43" cy="141.765" rx="1" ry="1.03477" fill="#1589D4"/>
<ellipse cx="43" cy="152.113" rx="1" ry="1.03477" fill="#1589D4"/>
<ellipse cx="43" cy="162.46" rx="1" ry="1.03479" fill="#1589D4"/>
<ellipse cx="43" cy="172.808" rx="1" ry="1.03477" fill="#1589D4"/>
<ellipse cx="43" cy="183.156" rx="1" ry="1.03477" fill="#1589D4"/>
<ellipse cx="43" cy="193.504" rx="1" ry="1.03479" fill="#1589D4"/>
<ellipse cx="43" cy="203.852" rx="1" ry="1.03477" fill="#1589D4"/>
<ellipse cx="43" cy="214.199" rx="1" ry="1.03477" fill="#1589D4"/>
<ellipse cx="43" cy="224.547" rx="1" ry="1.03479" fill="#1589D4"/>
<ellipse cx="43" cy="234.895" rx="1" ry="1.03477" fill="#1589D4"/>
<ellipse cx="43" cy="245.243" rx="1" ry="1.03477" fill="#1589D4"/>
<ellipse cx="43" cy="255.591" rx="1" ry="1.03479" fill="#1589D4"/>
<ellipse cx="43" cy="265.938" rx="1" ry="1.03477" fill="#1589D4"/>
<ellipse cx="43" cy="276.286" rx="1" ry="1.03479" fill="#1589D4"/>
<ellipse cx="43" cy="286.634" rx="1" ry="1.03479" fill="#1589D4"/>
<ellipse cx="43" cy="296.982" rx="1" ry="1.03477" fill="#1589D4"/>
<ellipse cx="43" cy="307.33" rx="1" ry="1.03479" fill="#1589D4"/>
<ellipse cx="43" cy="317.677" rx="1" ry="1.03477" fill="#1589D4"/>
<ellipse cx="43" cy="328.025" rx="1" ry="1.03477" fill="#1589D4"/>
<ellipse cx="53" cy="7.2434" rx="1" ry="1.03478" fill="#1589D4"/>
<ellipse cx="53" cy="17.5912" rx="1" ry="1.03478" fill="#1589D4"/>
<ellipse cx="53" cy="27.939" rx="1" ry="1.03478" fill="#1589D4"/>
<ellipse cx="53" cy="38.2867" rx="1" ry="1.03478" fill="#1589D4"/>
<ellipse cx="53" cy="48.6346" rx="1" ry="1.03478" fill="#1589D4"/>
<ellipse cx="53" cy="58.9824" rx="1" ry="1.03478" fill="#1589D4"/>
<ellipse cx="53" cy="69.3302" rx="1" ry="1.03478" fill="#1589D4"/>
<ellipse cx="53" cy="79.678" rx="1" ry="1.03477" fill="#1589D4"/>
<ellipse cx="53" cy="90.0257" rx="1" ry="1.03478" fill="#1589D4"/>
<ellipse cx="53" cy="100.374" rx="1" ry="1.03478" fill="#1589D4"/>
<ellipse cx="53" cy="110.721" rx="1" ry="1.03478" fill="#1589D4"/>
<ellipse cx="53" cy="121.069" rx="1" ry="1.03478" fill="#1589D4"/>
<ellipse cx="53" cy="131.417" rx="1" ry="1.03478" fill="#1589D4"/>
<ellipse cx="53" cy="141.765" rx="1" ry="1.03477" fill="#1589D4"/>
<ellipse cx="53" cy="152.113" rx="1" ry="1.03477" fill="#1589D4"/>
<ellipse cx="53" cy="162.46" rx="1" ry="1.03479" fill="#1589D4"/>
<ellipse cx="53" cy="172.808" rx="1" ry="1.03477" fill="#1589D4"/>
<ellipse cx="53" cy="183.156" rx="1" ry="1.03477" fill="#1589D4"/>
<ellipse cx="53" cy="193.504" rx="1" ry="1.03479" fill="#1589D4"/>
<ellipse cx="53" cy="203.852" rx="1" ry="1.03477" fill="#1589D4"/>
<ellipse cx="53" cy="214.199" rx="1" ry="1.03477" fill="#1589D4"/>
<ellipse cx="53" cy="224.547" rx="1" ry="1.03479" fill="#1589D4"/>
<ellipse cx="53" cy="234.895" rx="1" ry="1.03477" fill="#1589D4"/>
<ellipse cx="53" cy="245.243" rx="1" ry="1.03477" fill="#1589D4"/>
<ellipse cx="53" cy="255.591" rx="1" ry="1.03479" fill="#1589D4"/>
<ellipse cx="53" cy="265.938" rx="1" ry="1.03477" fill="#1589D4"/>
<ellipse cx="53" cy="276.286" rx="1" ry="1.03479" fill="#1589D4"/>
<ellipse cx="53" cy="286.634" rx="1" ry="1.03479" fill="#1589D4"/>
<ellipse cx="53" cy="296.982" rx="1" ry="1.03477" fill="#1589D4"/>
<ellipse cx="53" cy="307.33" rx="1" ry="1.03479" fill="#1589D4"/>
<ellipse cx="53" cy="317.677" rx="1" ry="1.03477" fill="#1589D4"/>
<ellipse cx="53" cy="328.025" rx="1" ry="1.03477" fill="#1589D4"/>
<ellipse cx="63" cy="7.2434" rx="1" ry="1.03478" fill="#1589D4"/>
<ellipse cx="63" cy="17.5912" rx="1" ry="1.03478" fill="#1589D4"/>
<ellipse cx="63" cy="27.939" rx="1" ry="1.03478" fill="#1589D4"/>
<ellipse cx="63" cy="38.2867" rx="1" ry="1.03478" fill="#1589D4"/>
<ellipse cx="63" cy="48.6346" rx="1" ry="1.03478" fill="#1589D4"/>
<ellipse cx="63" cy="58.9824" rx="1" ry="1.03478" fill="#1589D4"/>
<ellipse cx="63" cy="69.3302" rx="1" ry="1.03478" fill="#1589D4"/>
<ellipse cx="63" cy="79.678" rx="1" ry="1.03477" fill="#1589D4"/>
<ellipse cx="63" cy="90.0257" rx="1" ry="1.03478" fill="#1589D4"/>
<ellipse cx="63" cy="100.374" rx="1" ry="1.03478" fill="#1589D4"/>
<ellipse cx="63" cy="110.721" rx="1" ry="1.03478" fill="#1589D4"/>
<ellipse cx="63" cy="121.069" rx="1" ry="1.03478" fill="#1589D4"/>
<ellipse cx="63" cy="131.417" rx="1" ry="1.03478" fill="#1589D4"/>
<ellipse cx="63" cy="141.765" rx="1" ry="1.03477" fill="#1589D4"/>
<ellipse cx="63" cy="152.113" rx="1" ry="1.03477" fill="#1589D4"/>
<ellipse cx="63" cy="162.46" rx="1" ry="1.03479" fill="#1589D4"/>
<ellipse cx="63" cy="172.808" rx="1" ry="1.03477" fill="#1589D4"/>
<ellipse cx="63" cy="183.156" rx="1" ry="1.03477" fill="#1589D4"/>
<ellipse cx="63" cy="193.504" rx="1" ry="1.03479" fill="#1589D4"/>
<ellipse cx="63" cy="203.852" rx="1" ry="1.03477" fill="#1589D4"/>
<ellipse cx="63" cy="214.199" rx="1" ry="1.03477" fill="#1589D4"/>
<ellipse cx="63" cy="224.547" rx="1" ry="1.03479" fill="#1589D4"/>
<ellipse cx="63" cy="234.895" rx="1" ry="1.03477" fill="#1589D4"/>
<ellipse cx="63" cy="245.243" rx="1" ry="1.03477" fill="#1589D4"/>
<ellipse cx="63" cy="255.591" rx="1" ry="1.03479" fill="#1589D4"/>
<ellipse cx="63" cy="265.938" rx="1" ry="1.03477" fill="#1589D4"/>
<ellipse cx="63" cy="276.286" rx="1" ry="1.03479" fill="#1589D4"/>
<ellipse cx="63" cy="286.634" rx="1" ry="1.03479" fill="#1589D4"/>
<ellipse cx="63" cy="296.982" rx="1" ry="1.03477" fill="#1589D4"/>
<ellipse cx="63" cy="307.33" rx="1" ry="1.03479" fill="#1589D4"/>
<ellipse cx="63" cy="317.677" rx="1" ry="1.03477" fill="#1589D4"/>
<ellipse cx="63" cy="328.025" rx="1" ry="1.03477" fill="#1589D4"/>
<ellipse cx="73" cy="7.2434" rx="1" ry="1.03478" fill="#1589D4"/>
<ellipse cx="73" cy="17.5912" rx="1" ry="1.03478" fill="#1589D4"/>
<ellipse cx="73" cy="27.939" rx="1" ry="1.03478" fill="#1589D4"/>
<ellipse cx="73" cy="38.2867" rx="1" ry="1.03478" fill="#1589D4"/>
<ellipse cx="73" cy="48.6346" rx="1" ry="1.03478" fill="#1589D4"/>
<ellipse cx="73" cy="58.9824" rx="1" ry="1.03478" fill="#1589D4"/>
<ellipse cx="73" cy="69.3302" rx="1" ry="1.03478" fill="#1589D4"/>
<ellipse cx="73" cy="79.678" rx="1" ry="1.03477" fill="#1589D4"/>
<ellipse cx="73" cy="90.0257" rx="1" ry="1.03478" fill="#1589D4"/>
<ellipse cx="73" cy="100.374" rx="1" ry="1.03478" fill="#1589D4"/>
<ellipse cx="73" cy="110.721" rx="1" ry="1.03478" fill="#1589D4"/>
<ellipse cx="73" cy="121.069" rx="1" ry="1.03478" fill="#1589D4"/>
<ellipse cx="73" cy="131.417" rx="1" ry="1.03478" fill="#1589D4"/>
<ellipse cx="73" cy="141.765" rx="1" ry="1.03477" fill="#1589D4"/>
<ellipse cx="73" cy="152.113" rx="1" ry="1.03477" fill="#1589D4"/>
<ellipse cx="73" cy="162.46" rx="1" ry="1.03479" fill="#1589D4"/>
<ellipse cx="73" cy="172.808" rx="1" ry="1.03477" fill="#1589D4"/>
<ellipse cx="73" cy="183.156" rx="1" ry="1.03477" fill="#1589D4"/>
<ellipse cx="73" cy="193.504" rx="1" ry="1.03479" fill="#1589D4"/>
<ellipse cx="73" cy="203.852" rx="1" ry="1.03477" fill="#1589D4"/>
<ellipse cx="73" cy="214.199" rx="1" ry="1.03477" fill="#1589D4"/>
<ellipse cx="73" cy="224.547" rx="1" ry="1.03479" fill="#1589D4"/>
<ellipse cx="73" cy="234.895" rx="1" ry="1.03477" fill="#1589D4"/>
<ellipse cx="73" cy="245.243" rx="1" ry="1.03477" fill="#1589D4"/>
<ellipse cx="73" cy="255.591" rx="1" ry="1.03479" fill="#1589D4"/>
<ellipse cx="73" cy="265.938" rx="1" ry="1.03477" fill="#1589D4"/>
<ellipse cx="73" cy="276.286" rx="1" ry="1.03479" fill="#1589D4"/>
<ellipse cx="73" cy="286.634" rx="1" ry="1.03479" fill="#1589D4"/>
<ellipse cx="73" cy="296.982" rx="1" ry="1.03477" fill="#1589D4"/>
<ellipse cx="73" cy="307.33" rx="1" ry="1.03479" fill="#1589D4"/>
<ellipse cx="73" cy="317.677" rx="1" ry="1.03477" fill="#1589D4"/>
<ellipse cx="73" cy="328.025" rx="1" ry="1.03477" fill="#1589D4"/>
<ellipse cx="83" cy="7.2434" rx="1" ry="1.03478" fill="#1589D4"/>
<ellipse cx="83" cy="17.5912" rx="1" ry="1.03478" fill="#1589D4"/>
<ellipse cx="83" cy="27.939" rx="1" ry="1.03478" fill="#1589D4"/>
<ellipse cx="83" cy="38.2867" rx="1" ry="1.03478" fill="#1589D4"/>
<ellipse cx="83" cy="48.6346" rx="1" ry="1.03478" fill="#1589D4"/>
<ellipse cx="83" cy="58.9824" rx="1" ry="1.03478" fill="#1589D4"/>
<ellipse cx="83" cy="69.3302" rx="1" ry="1.03478" fill="#1589D4"/>
<ellipse cx="83" cy="79.678" rx="1" ry="1.03477" fill="#1589D4"/>
<ellipse cx="83" cy="90.0257" rx="1" ry="1.03478" fill="#1589D4"/>
<ellipse cx="83" cy="100.374" rx="1" ry="1.03478" fill="#1589D4"/>
<ellipse cx="83" cy="110.721" rx="1" ry="1.03478" fill="#1589D4"/>
<ellipse cx="83" cy="121.069" rx="1" ry="1.03478" fill="#1589D4"/>
<ellipse cx="83" cy="131.417" rx="1" ry="1.03478" fill="#1589D4"/>
<ellipse cx="83" cy="141.765" rx="1" ry="1.03477" fill="#1589D4"/>
<ellipse cx="83" cy="152.113" rx="1" ry="1.03477" fill="#1589D4"/>
<ellipse cx="83" cy="162.46" rx="1" ry="1.03479" fill="#1589D4"/>
<ellipse cx="83" cy="172.808" rx="1" ry="1.03477" fill="#1589D4"/>
<ellipse cx="83" cy="183.156" rx="1" ry="1.03477" fill="#1589D4"/>
<ellipse cx="83" cy="193.504" rx="1" ry="1.03479" fill="#1589D4"/>
<ellipse cx="83" cy="203.852" rx="1" ry="1.03477" fill="#1589D4"/>
<ellipse cx="83" cy="214.199" rx="1" ry="1.03477" fill="#1589D4"/>
<ellipse cx="83" cy="224.547" rx="1" ry="1.03479" fill="#1589D4"/>
<ellipse cx="83" cy="234.895" rx="1" ry="1.03477" fill="#1589D4"/>
<ellipse cx="83" cy="245.243" rx="1" ry="1.03477" fill="#1589D4"/>
<ellipse cx="83" cy="255.591" rx="1" ry="1.03479" fill="#1589D4"/>
<ellipse cx="83" cy="265.938" rx="1" ry="1.03477" fill="#1589D4"/>
<ellipse cx="83" cy="276.286" rx="1" ry="1.03479" fill="#1589D4"/>
<ellipse cx="83" cy="286.634" rx="1" ry="1.03479" fill="#1589D4"/>
<ellipse cx="83" cy="296.982" rx="1" ry="1.03477" fill="#1589D4"/>
<ellipse cx="83" cy="307.33" rx="1" ry="1.03479" fill="#1589D4"/>
<ellipse cx="83" cy="317.677" rx="1" ry="1.03477" fill="#1589D4"/>
<ellipse cx="83" cy="328.025" rx="1" ry="1.03477" fill="#1589D4"/>
<ellipse cx="93" cy="7.2434" rx="1" ry="1.03478" fill="#1589D4"/>
<ellipse cx="93" cy="17.5912" rx="1" ry="1.03478" fill="#1589D4"/>
<ellipse cx="93" cy="27.939" rx="1" ry="1.03478" fill="#1589D4"/>
<ellipse cx="93" cy="38.2867" rx="1" ry="1.03478" fill="#1589D4"/>
<ellipse cx="93" cy="48.6346" rx="1" ry="1.03478" fill="#1589D4"/>
<ellipse cx="93" cy="58.9824" rx="1" ry="1.03478" fill="#1589D4"/>
<ellipse cx="93" cy="69.3302" rx="1" ry="1.03478" fill="#1589D4"/>
<ellipse cx="93" cy="79.678" rx="1" ry="1.03477" fill="#1589D4"/>
<ellipse cx="93" cy="90.0257" rx="1" ry="1.03478" fill="#1589D4"/>
<ellipse cx="93" cy="100.374" rx="1" ry="1.03478" fill="#1589D4"/>
<ellipse cx="93" cy="110.721" rx="1" ry="1.03478" fill="#1589D4"/>
<ellipse cx="93" cy="121.069" rx="1" ry="1.03478" fill="#1589D4"/>
<ellipse cx="93" cy="131.417" rx="1" ry="1.03478" fill="#1589D4"/>
<ellipse cx="93" cy="141.765" rx="1" ry="1.03477" fill="#1589D4"/>
<ellipse cx="93" cy="152.113" rx="1" ry="1.03477" fill="#1589D4"/>
<ellipse cx="93" cy="162.46" rx="1" ry="1.03479" fill="#1589D4"/>
<ellipse cx="93" cy="172.808" rx="1" ry="1.03477" fill="#1589D4"/>
<ellipse cx="93" cy="183.156" rx="1" ry="1.03477" fill="#1589D4"/>
<ellipse cx="93" cy="193.504" rx="1" ry="1.03479" fill="#1589D4"/>
<ellipse cx="93" cy="203.852" rx="1" ry="1.03477" fill="#1589D4"/>
<ellipse cx="93" cy="214.199" rx="1" ry="1.03477" fill="#1589D4"/>
<ellipse cx="93" cy="224.547" rx="1" ry="1.03479" fill="#1589D4"/>
<ellipse cx="93" cy="234.895" rx="1" ry="1.03477" fill="#1589D4"/>
<ellipse cx="93" cy="245.243" rx="1" ry="1.03477" fill="#1589D4"/>
<ellipse cx="93" cy="255.591" rx="1" ry="1.03479" fill="#1589D4"/>
<ellipse cx="93" cy="265.938" rx="1" ry="1.03477" fill="#1589D4"/>
<ellipse cx="93" cy="276.286" rx="1" ry="1.03479" fill="#1589D4"/>
<ellipse cx="93" cy="286.634" rx="1" ry="1.03479" fill="#1589D4"/>
<ellipse cx="93" cy="296.982" rx="1" ry="1.03477" fill="#1589D4"/>
<ellipse cx="93" cy="307.33" rx="1" ry="1.03479" fill="#1589D4"/>
<ellipse cx="93" cy="317.677" rx="1" ry="1.03477" fill="#1589D4"/>
<ellipse cx="93" cy="328.025" rx="1" ry="1.03477" fill="#1589D4"/>
<ellipse cx="103" cy="7.2434" rx="1" ry="1.03478" fill="#1589D4"/>
<ellipse cx="103" cy="17.5912" rx="1" ry="1.03478" fill="#1589D4"/>
<ellipse cx="103" cy="27.939" rx="1" ry="1.03478" fill="#1589D4"/>
<ellipse cx="103" cy="38.2867" rx="1" ry="1.03478" fill="#1589D4"/>
<ellipse cx="103" cy="48.6346" rx="1" ry="1.03478" fill="#1589D4"/>
<ellipse cx="103" cy="58.9824" rx="1" ry="1.03478" fill="#1589D4"/>
<ellipse cx="103" cy="69.3302" rx="1" ry="1.03478" fill="#1589D4"/>
<ellipse cx="103" cy="79.678" rx="1" ry="1.03477" fill="#1589D4"/>
<ellipse cx="103" cy="90.0257" rx="1" ry="1.03478" fill="#1589D4"/>
<ellipse cx="103" cy="100.374" rx="1" ry="1.03478" fill="#1589D4"/>
<ellipse cx="103" cy="110.721" rx="1" ry="1.03478" fill="#1589D4"/>
<ellipse cx="103" cy="121.069" rx="1" ry="1.03478" fill="#1589D4"/>
<ellipse cx="103" cy="131.417" rx="1" ry="1.03478" fill="#1589D4"/>
<ellipse cx="103" cy="141.765" rx="1" ry="1.03477" fill="#1589D4"/>
<ellipse cx="103" cy="152.113" rx="1" ry="1.03477" fill="#1589D4"/>
<ellipse cx="103" cy="162.46" rx="1" ry="1.03479" fill="#1589D4"/>
<ellipse cx="103" cy="172.808" rx="1" ry="1.03477" fill="#1589D4"/>
<ellipse cx="103" cy="183.156" rx="1" ry="1.03477" fill="#1589D4"/>
<ellipse cx="103" cy="193.504" rx="1" ry="1.03479" fill="#1589D4"/>
<ellipse cx="103" cy="203.852" rx="1" ry="1.03477" fill="#1589D4"/>
<ellipse cx="103" cy="214.199" rx="1" ry="1.03477" fill="#1589D4"/>
<ellipse cx="103" cy="224.547" rx="1" ry="1.03479" fill="#1589D4"/>
<ellipse cx="103" cy="234.895" rx="1" ry="1.03477" fill="#1589D4"/>
<ellipse cx="103" cy="245.243" rx="1" ry="1.03477" fill="#1589D4"/>
<ellipse cx="103" cy="255.591" rx="1" ry="1.03479" fill="#1589D4"/>
<ellipse cx="103" cy="265.938" rx="1" ry="1.03477" fill="#1589D4"/>
<ellipse cx="103" cy="276.286" rx="1" ry="1.03479" fill="#1589D4"/>
<ellipse cx="103" cy="286.634" rx="1" ry="1.03479" fill="#1589D4"/>
<ellipse cx="103" cy="296.982" rx="1" ry="1.03477" fill="#1589D4"/>
<ellipse cx="103" cy="307.33" rx="1" ry="1.03479" fill="#1589D4"/>
<ellipse cx="103" cy="317.677" rx="1" ry="1.03477" fill="#1589D4"/>
<ellipse cx="103" cy="328.025" rx="1" ry="1.03477" fill="#1589D4"/>
</g>
</svg>
