<svg width="184" height="385" viewBox="0 0 184 385" fill="none" xmlns="http://www.w3.org/2000/svg">
<mask id="mask0" mask-type="alpha" maskUnits="userSpaceOnUse" x="0" y="0" width="184" height="385">
<rect width="184" height="385" fill="#C4C4C4"/>
</mask>
<g mask="url(#mask0)">
<circle cx="6" cy="5" r="1" fill="#1589D4"/>
<circle cx="6" cy="15" r="1" fill="#1589D4"/>
<circle cx="6" cy="25" r="1" fill="#1589D4"/>
<circle cx="6" cy="35" r="1" fill="#1589D4"/>
<circle cx="6" cy="45" r="1" fill="#1589D4"/>
<circle cx="6" cy="55" r="1" fill="#1589D4"/>
<circle cx="6" cy="65" r="1" fill="#1589D4"/>
<circle cx="6" cy="75" r="1" fill="#1589D4"/>
<circle cx="6" cy="85" r="1" fill="#1589D4"/>
<circle cx="6" cy="95" r="1" fill="#1589D4"/>
<circle cx="6" cy="105" r="1" fill="#1589D4"/>
<circle cx="6" cy="115" r="1" fill="#1589D4"/>
<circle cx="6" cy="125" r="1" fill="#1589D4"/>
<circle cx="6" cy="135" r="1" fill="#1589D4"/>
<circle cx="6" cy="145" r="1" fill="#1589D4"/>
<circle cx="6" cy="155" r="1" fill="#1589D4"/>
<circle cx="6" cy="165" r="1" fill="#1589D4"/>
<circle cx="6" cy="175" r="1" fill="#1589D4"/>
<circle cx="6" cy="185" r="1" fill="#1589D4"/>
<circle cx="6" cy="195" r="1" fill="#1589D4"/>
<circle cx="6" cy="205" r="1" fill="#1589D4"/>
<circle cx="6" cy="215" r="1" fill="#1589D4"/>
<circle cx="6" cy="225" r="1" fill="#1589D4"/>
<circle cx="6" cy="235" r="1" fill="#1589D4"/>
<circle cx="6" cy="245" r="1" fill="#1589D4"/>
<circle cx="6" cy="255" r="1" fill="#1589D4"/>
<circle cx="6" cy="265" r="1" fill="#1589D4"/>
<circle cx="6" cy="275" r="1" fill="#1589D4"/>
<circle cx="6" cy="285" r="1" fill="#1589D4"/>
<circle cx="6" cy="295" r="1" fill="#1589D4"/>
<circle cx="6" cy="305" r="1" fill="#1589D4"/>
<circle cx="6" cy="315" r="1" fill="#1589D4"/>
<circle cx="6" cy="325" r="1" fill="#1589D4"/>
<circle cx="6" cy="335" r="1" fill="#1589D4"/>
<circle cx="6" cy="345" r="1" fill="#1589D4"/>
<circle cx="6" cy="355" r="1" fill="#1589D4"/>
<circle cx="6" cy="365" r="1" fill="#1589D4"/>
<circle cx="6" cy="375" r="1" fill="#1589D4"/>
<circle cx="16" cy="5" r="1" fill="#1589D4"/>
<circle cx="16" cy="15" r="1" fill="#1589D4"/>
<circle cx="16" cy="25" r="1" fill="#1589D4"/>
<circle cx="16" cy="35" r="1" fill="#1589D4"/>
<circle cx="16" cy="45" r="1" fill="#1589D4"/>
<circle cx="16" cy="55" r="1" fill="#1589D4"/>
<circle cx="16" cy="65" r="1" fill="#1589D4"/>
<circle cx="16" cy="75" r="1" fill="#1589D4"/>
<circle cx="16" cy="85" r="1" fill="#1589D4"/>
<circle cx="16" cy="95" r="1" fill="#1589D4"/>
<circle cx="16" cy="105" r="1" fill="#1589D4"/>
<circle cx="16" cy="115" r="1" fill="#1589D4"/>
<circle cx="16" cy="125" r="1" fill="#1589D4"/>
<circle cx="16" cy="135" r="1" fill="#1589D4"/>
<circle cx="16" cy="145" r="1" fill="#1589D4"/>
<circle cx="16" cy="155" r="1" fill="#1589D4"/>
<circle cx="16" cy="165" r="1" fill="#1589D4"/>
<circle cx="16" cy="175" r="1" fill="#1589D4"/>
<circle cx="16" cy="185" r="1" fill="#1589D4"/>
<circle cx="16" cy="195" r="1" fill="#1589D4"/>
<circle cx="16" cy="205" r="1" fill="#1589D4"/>
<circle cx="16" cy="215" r="1" fill="#1589D4"/>
<circle cx="16" cy="225" r="1" fill="#1589D4"/>
<circle cx="16" cy="235" r="1" fill="#1589D4"/>
<circle cx="16" cy="245" r="1" fill="#1589D4"/>
<circle cx="16" cy="255" r="1" fill="#1589D4"/>
<circle cx="16" cy="265" r="1" fill="#1589D4"/>
<circle cx="16" cy="275" r="1" fill="#1589D4"/>
<circle cx="16" cy="285" r="1" fill="#1589D4"/>
<circle cx="16" cy="295" r="1" fill="#1589D4"/>
<circle cx="16" cy="305" r="1" fill="#1589D4"/>
<circle cx="16" cy="315" r="1" fill="#1589D4"/>
<circle cx="16" cy="325" r="1" fill="#1589D4"/>
<circle cx="16" cy="335" r="1" fill="#1589D4"/>
<circle cx="16" cy="345" r="1" fill="#1589D4"/>
<circle cx="16" cy="355" r="1" fill="#1589D4"/>
<circle cx="16" cy="365" r="1" fill="#1589D4"/>
<circle cx="16" cy="375" r="1" fill="#1589D4"/>
<circle cx="26" cy="5" r="1" fill="#1589D4"/>
<circle cx="26" cy="15" r="1" fill="#1589D4"/>
<circle cx="26" cy="25" r="1" fill="#1589D4"/>
<circle cx="26" cy="35" r="1" fill="#1589D4"/>
<circle cx="26" cy="45" r="1" fill="#1589D4"/>
<circle cx="26" cy="55" r="1" fill="#1589D4"/>
<circle cx="26" cy="65" r="1" fill="#1589D4"/>
<circle cx="26" cy="75" r="1" fill="#1589D4"/>
<circle cx="26" cy="85" r="1" fill="#1589D4"/>
<circle cx="26" cy="95" r="1" fill="#1589D4"/>
<circle cx="26" cy="105" r="1" fill="#1589D4"/>
<circle cx="26" cy="115" r="1" fill="#1589D4"/>
<circle cx="26" cy="125" r="1" fill="#1589D4"/>
<circle cx="26" cy="135" r="1" fill="#1589D4"/>
<circle cx="26" cy="145" r="1" fill="#1589D4"/>
<circle cx="26" cy="155" r="1" fill="#1589D4"/>
<circle cx="26" cy="165" r="1" fill="#1589D4"/>
<circle cx="26" cy="175" r="1" fill="#1589D4"/>
<circle cx="26" cy="185" r="1" fill="#1589D4"/>
<circle cx="26" cy="195" r="1" fill="#1589D4"/>
<circle cx="26" cy="205" r="1" fill="#1589D4"/>
<circle cx="26" cy="215" r="1" fill="#1589D4"/>
<circle cx="26" cy="225" r="1" fill="#1589D4"/>
<circle cx="26" cy="235" r="1" fill="#1589D4"/>
<circle cx="26" cy="245" r="1" fill="#1589D4"/>
<circle cx="26" cy="255" r="1" fill="#1589D4"/>
<circle cx="26" cy="265" r="1" fill="#1589D4"/>
<circle cx="26" cy="275" r="1" fill="#1589D4"/>
<circle cx="26" cy="285" r="1" fill="#1589D4"/>
<circle cx="26" cy="295" r="1" fill="#1589D4"/>
<circle cx="26" cy="305" r="1" fill="#1589D4"/>
<circle cx="26" cy="315" r="1" fill="#1589D4"/>
<circle cx="26" cy="325" r="1" fill="#1589D4"/>
<circle cx="26" cy="335" r="1" fill="#1589D4"/>
<circle cx="26" cy="345" r="1" fill="#1589D4"/>
<circle cx="26" cy="355" r="1" fill="#1589D4"/>
<circle cx="26" cy="365" r="1" fill="#1589D4"/>
<circle cx="26" cy="375" r="1" fill="#1589D4"/>
<circle cx="36" cy="5" r="1" fill="#1589D4"/>
<circle cx="36" cy="15" r="1" fill="#1589D4"/>
<circle cx="36" cy="25" r="1" fill="#1589D4"/>
<circle cx="36" cy="35" r="1" fill="#1589D4"/>
<circle cx="36" cy="45" r="1" fill="#1589D4"/>
<circle cx="36" cy="55" r="1" fill="#1589D4"/>
<circle cx="36" cy="65" r="1" fill="#1589D4"/>
<circle cx="36" cy="75" r="1" fill="#1589D4"/>
<circle cx="36" cy="85" r="1" fill="#1589D4"/>
<circle cx="36" cy="95" r="1" fill="#1589D4"/>
<circle cx="36" cy="105" r="1" fill="#1589D4"/>
<circle cx="36" cy="115" r="1" fill="#1589D4"/>
<circle cx="36" cy="125" r="1" fill="#1589D4"/>
<circle cx="36" cy="135" r="1" fill="#1589D4"/>
<circle cx="36" cy="145" r="1" fill="#1589D4"/>
<circle cx="36" cy="155" r="1" fill="#1589D4"/>
<circle cx="36" cy="165" r="1" fill="#1589D4"/>
<circle cx="36" cy="175" r="1" fill="#1589D4"/>
<circle cx="36" cy="185" r="1" fill="#1589D4"/>
<circle cx="36" cy="195" r="1" fill="#1589D4"/>
<circle cx="36" cy="205" r="1" fill="#1589D4"/>
<circle cx="36" cy="215" r="1" fill="#1589D4"/>
<circle cx="36" cy="225" r="1" fill="#1589D4"/>
<circle cx="36" cy="235" r="1" fill="#1589D4"/>
<circle cx="36" cy="245" r="1" fill="#1589D4"/>
<circle cx="36" cy="255" r="1" fill="#1589D4"/>
<circle cx="36" cy="265" r="1" fill="#1589D4"/>
<circle cx="36" cy="275" r="1" fill="#1589D4"/>
<circle cx="36" cy="285" r="1" fill="#1589D4"/>
<circle cx="36" cy="295" r="1" fill="#1589D4"/>
<circle cx="36" cy="305" r="1" fill="#1589D4"/>
<circle cx="36" cy="315" r="1" fill="#1589D4"/>
<circle cx="36" cy="325" r="1" fill="#1589D4"/>
<circle cx="36" cy="335" r="1" fill="#1589D4"/>
<circle cx="36" cy="345" r="1" fill="#1589D4"/>
<circle cx="36" cy="355" r="1" fill="#1589D4"/>
<circle cx="36" cy="365" r="1" fill="#1589D4"/>
<circle cx="36" cy="375" r="1" fill="#1589D4"/>
<circle cx="46" cy="5" r="1" fill="#1589D4"/>
<circle cx="46" cy="15" r="1" fill="#1589D4"/>
<circle cx="46" cy="25" r="1" fill="#1589D4"/>
<circle cx="46" cy="35" r="1" fill="#1589D4"/>
<circle cx="46" cy="45" r="1" fill="#1589D4"/>
<circle cx="46" cy="55" r="1" fill="#1589D4"/>
<circle cx="46" cy="65" r="1" fill="#1589D4"/>
<circle cx="46" cy="75" r="1" fill="#1589D4"/>
<circle cx="46" cy="85" r="1" fill="#1589D4"/>
<circle cx="46" cy="95" r="1" fill="#1589D4"/>
<circle cx="46" cy="105" r="1" fill="#1589D4"/>
<circle cx="46" cy="115" r="1" fill="#1589D4"/>
<circle cx="46" cy="125" r="1" fill="#1589D4"/>
<circle cx="46" cy="135" r="1" fill="#1589D4"/>
<circle cx="46" cy="145" r="1" fill="#1589D4"/>
<circle cx="46" cy="155" r="1" fill="#1589D4"/>
<circle cx="46" cy="165" r="1" fill="#1589D4"/>
<circle cx="46" cy="175" r="1" fill="#1589D4"/>
<circle cx="46" cy="185" r="1" fill="#1589D4"/>
<circle cx="46" cy="195" r="1" fill="#1589D4"/>
<circle cx="46" cy="205" r="1" fill="#1589D4"/>
<circle cx="46" cy="215" r="1" fill="#1589D4"/>
<circle cx="46" cy="225" r="1" fill="#1589D4"/>
<circle cx="46" cy="235" r="1" fill="#1589D4"/>
<circle cx="46" cy="245" r="1" fill="#1589D4"/>
<circle cx="46" cy="255" r="1" fill="#1589D4"/>
<circle cx="46" cy="265" r="1" fill="#1589D4"/>
<circle cx="46" cy="275" r="1" fill="#1589D4"/>
<circle cx="46" cy="285" r="1" fill="#1589D4"/>
<circle cx="46" cy="295" r="1" fill="#1589D4"/>
<circle cx="46" cy="305" r="1" fill="#1589D4"/>
<circle cx="46" cy="315" r="1" fill="#1589D4"/>
<circle cx="46" cy="325" r="1" fill="#1589D4"/>
<circle cx="46" cy="335" r="1" fill="#1589D4"/>
<circle cx="46" cy="345" r="1" fill="#1589D4"/>
<circle cx="46" cy="355" r="1" fill="#1589D4"/>
<circle cx="46" cy="365" r="1" fill="#1589D4"/>
<circle cx="46" cy="375" r="1" fill="#1589D4"/>
<circle cx="56" cy="5" r="1" fill="#1589D4"/>
<circle cx="56" cy="15" r="1" fill="#1589D4"/>
<circle cx="56" cy="25" r="1" fill="#1589D4"/>
<circle cx="56" cy="35" r="1" fill="#1589D4"/>
<circle cx="56" cy="45" r="1" fill="#1589D4"/>
<circle cx="56" cy="55" r="1" fill="#1589D4"/>
<circle cx="56" cy="65" r="1" fill="#1589D4"/>
<circle cx="56" cy="75" r="1" fill="#1589D4"/>
<circle cx="56" cy="85" r="1" fill="#1589D4"/>
<circle cx="56" cy="95" r="1" fill="#1589D4"/>
<circle cx="56" cy="105" r="1" fill="#1589D4"/>
<circle cx="56" cy="115" r="1" fill="#1589D4"/>
<circle cx="56" cy="125" r="1" fill="#1589D4"/>
<circle cx="56" cy="135" r="1" fill="#1589D4"/>
<circle cx="56" cy="145" r="1" fill="#1589D4"/>
<circle cx="56" cy="155" r="1" fill="#1589D4"/>
<circle cx="56" cy="165" r="1" fill="#1589D4"/>
<circle cx="56" cy="175" r="1" fill="#1589D4"/>
<circle cx="56" cy="185" r="1" fill="#1589D4"/>
<circle cx="56" cy="195" r="1" fill="#1589D4"/>
<circle cx="56" cy="205" r="1" fill="#1589D4"/>
<circle cx="56" cy="215" r="1" fill="#1589D4"/>
<circle cx="56" cy="225" r="1" fill="#1589D4"/>
<circle cx="56" cy="235" r="1" fill="#1589D4"/>
<circle cx="56" cy="245" r="1" fill="#1589D4"/>
<circle cx="56" cy="255" r="1" fill="#1589D4"/>
<circle cx="56" cy="265" r="1" fill="#1589D4"/>
<circle cx="56" cy="275" r="1" fill="#1589D4"/>
<circle cx="56" cy="285" r="1" fill="#1589D4"/>
<circle cx="56" cy="295" r="1" fill="#1589D4"/>
<circle cx="56" cy="305" r="1" fill="#1589D4"/>
<circle cx="56" cy="315" r="1" fill="#1589D4"/>
<circle cx="56" cy="325" r="1" fill="#1589D4"/>
<circle cx="56" cy="335" r="1" fill="#1589D4"/>
<circle cx="56" cy="345" r="1" fill="#1589D4"/>
<circle cx="56" cy="355" r="1" fill="#1589D4"/>
<circle cx="56" cy="365" r="1" fill="#1589D4"/>
<circle cx="56" cy="375" r="1" fill="#1589D4"/>
<circle cx="66" cy="5" r="1" fill="#1589D4"/>
<circle cx="66" cy="15" r="1" fill="#1589D4"/>
<circle cx="66" cy="25" r="1" fill="#1589D4"/>
<circle cx="66" cy="35" r="1" fill="#1589D4"/>
<circle cx="66" cy="45" r="1" fill="#1589D4"/>
<circle cx="66" cy="55" r="1" fill="#1589D4"/>
<circle cx="66" cy="65" r="1" fill="#1589D4"/>
<circle cx="66" cy="75" r="1" fill="#1589D4"/>
<circle cx="66" cy="85" r="1" fill="#1589D4"/>
<circle cx="66" cy="95" r="1" fill="#1589D4"/>
<circle cx="66" cy="105" r="1" fill="#1589D4"/>
<circle cx="66" cy="115" r="1" fill="#1589D4"/>
<circle cx="66" cy="125" r="1" fill="#1589D4"/>
<circle cx="66" cy="135" r="1" fill="#1589D4"/>
<circle cx="66" cy="145" r="1" fill="#1589D4"/>
<circle cx="66" cy="155" r="1" fill="#1589D4"/>
<circle cx="66" cy="165" r="1" fill="#1589D4"/>
<circle cx="66" cy="175" r="1" fill="#1589D4"/>
<circle cx="66" cy="185" r="1" fill="#1589D4"/>
<circle cx="66" cy="195" r="1" fill="#1589D4"/>
<circle cx="66" cy="205" r="1" fill="#1589D4"/>
<circle cx="66" cy="215" r="1" fill="#1589D4"/>
<circle cx="66" cy="225" r="1" fill="#1589D4"/>
<circle cx="66" cy="235" r="1" fill="#1589D4"/>
<circle cx="66" cy="245" r="1" fill="#1589D4"/>
<circle cx="66" cy="255" r="1" fill="#1589D4"/>
<circle cx="66" cy="265" r="1" fill="#1589D4"/>
<circle cx="66" cy="275" r="1" fill="#1589D4"/>
<circle cx="66" cy="285" r="1" fill="#1589D4"/>
<circle cx="66" cy="295" r="1" fill="#1589D4"/>
<circle cx="66" cy="305" r="1" fill="#1589D4"/>
<circle cx="66" cy="315" r="1" fill="#1589D4"/>
<circle cx="66" cy="325" r="1" fill="#1589D4"/>
<circle cx="66" cy="335" r="1" fill="#1589D4"/>
<circle cx="66" cy="345" r="1" fill="#1589D4"/>
<circle cx="66" cy="355" r="1" fill="#1589D4"/>
<circle cx="66" cy="365" r="1" fill="#1589D4"/>
<circle cx="66" cy="375" r="1" fill="#1589D4"/>
<circle cx="76" cy="5" r="1" fill="#1589D4"/>
<circle cx="76" cy="15" r="1" fill="#1589D4"/>
<circle cx="76" cy="25" r="1" fill="#1589D4"/>
<circle cx="76" cy="35" r="1" fill="#1589D4"/>
<circle cx="76" cy="45" r="1" fill="#1589D4"/>
<circle cx="76" cy="55" r="1" fill="#1589D4"/>
<circle cx="76" cy="65" r="1" fill="#1589D4"/>
<circle cx="76" cy="75" r="1" fill="#1589D4"/>
<circle cx="76" cy="85" r="1" fill="#1589D4"/>
<circle cx="76" cy="95" r="1" fill="#1589D4"/>
<circle cx="76" cy="105" r="1" fill="#1589D4"/>
<circle cx="76" cy="115" r="1" fill="#1589D4"/>
<circle cx="76" cy="125" r="1" fill="#1589D4"/>
<circle cx="76" cy="135" r="1" fill="#1589D4"/>
<circle cx="76" cy="145" r="1" fill="#1589D4"/>
<circle cx="76" cy="155" r="1" fill="#1589D4"/>
<circle cx="76" cy="165" r="1" fill="#1589D4"/>
<circle cx="76" cy="175" r="1" fill="#1589D4"/>
<circle cx="76" cy="185" r="1" fill="#1589D4"/>
<circle cx="76" cy="195" r="1" fill="#1589D4"/>
<circle cx="76" cy="205" r="1" fill="#1589D4"/>
<circle cx="76" cy="215" r="1" fill="#1589D4"/>
<circle cx="76" cy="225" r="1" fill="#1589D4"/>
<circle cx="76" cy="235" r="1" fill="#1589D4"/>
<circle cx="76" cy="245" r="1" fill="#1589D4"/>
<circle cx="76" cy="255" r="1" fill="#1589D4"/>
<circle cx="76" cy="265" r="1" fill="#1589D4"/>
<circle cx="76" cy="275" r="1" fill="#1589D4"/>
<circle cx="76" cy="285" r="1" fill="#1589D4"/>
<circle cx="76" cy="295" r="1" fill="#1589D4"/>
<circle cx="76" cy="305" r="1" fill="#1589D4"/>
<circle cx="76" cy="315" r="1" fill="#1589D4"/>
<circle cx="76" cy="325" r="1" fill="#1589D4"/>
<circle cx="76" cy="335" r="1" fill="#1589D4"/>
<circle cx="76" cy="345" r="1" fill="#1589D4"/>
<circle cx="76" cy="355" r="1" fill="#1589D4"/>
<circle cx="76" cy="365" r="1" fill="#1589D4"/>
<circle cx="76" cy="375" r="1" fill="#1589D4"/>
<circle cx="86" cy="5" r="1" fill="#1589D4"/>
<circle cx="86" cy="15" r="1" fill="#1589D4"/>
<circle cx="86" cy="25" r="1" fill="#1589D4"/>
<circle cx="86" cy="35" r="1" fill="#1589D4"/>
<circle cx="86" cy="45" r="1" fill="#1589D4"/>
<circle cx="86" cy="55" r="1" fill="#1589D4"/>
<circle cx="86" cy="65" r="1" fill="#1589D4"/>
<circle cx="86" cy="75" r="1" fill="#1589D4"/>
<circle cx="86" cy="85" r="1" fill="#1589D4"/>
<circle cx="86" cy="95" r="1" fill="#1589D4"/>
<circle cx="86" cy="105" r="1" fill="#1589D4"/>
<circle cx="86" cy="115" r="1" fill="#1589D4"/>
<circle cx="86" cy="125" r="1" fill="#1589D4"/>
<circle cx="86" cy="135" r="1" fill="#1589D4"/>
<circle cx="86" cy="145" r="1" fill="#1589D4"/>
<circle cx="86" cy="155" r="1" fill="#1589D4"/>
<circle cx="86" cy="165" r="1" fill="#1589D4"/>
<circle cx="86" cy="175" r="1" fill="#1589D4"/>
<circle cx="86" cy="185" r="1" fill="#1589D4"/>
<circle cx="86" cy="195" r="1" fill="#1589D4"/>
<circle cx="86" cy="205" r="1" fill="#1589D4"/>
<circle cx="86" cy="215" r="1" fill="#1589D4"/>
<circle cx="86" cy="225" r="1" fill="#1589D4"/>
<circle cx="86" cy="235" r="1" fill="#1589D4"/>
<circle cx="86" cy="245" r="1" fill="#1589D4"/>
<circle cx="86" cy="255" r="1" fill="#1589D4"/>
<circle cx="86" cy="265" r="1" fill="#1589D4"/>
<circle cx="86" cy="275" r="1" fill="#1589D4"/>
<circle cx="86" cy="285" r="1" fill="#1589D4"/>
<circle cx="86" cy="295" r="1" fill="#1589D4"/>
<circle cx="86" cy="305" r="1" fill="#1589D4"/>
<circle cx="86" cy="315" r="1" fill="#1589D4"/>
<circle cx="86" cy="325" r="1" fill="#1589D4"/>
<circle cx="86" cy="335" r="1" fill="#1589D4"/>
<circle cx="86" cy="345" r="1" fill="#1589D4"/>
<circle cx="86" cy="355" r="1" fill="#1589D4"/>
<circle cx="86" cy="365" r="1" fill="#1589D4"/>
<circle cx="86" cy="375" r="1" fill="#1589D4"/>
<circle cx="96" cy="5" r="1" fill="#1589D4"/>
<circle cx="96" cy="15" r="1" fill="#1589D4"/>
<circle cx="96" cy="25" r="1" fill="#1589D4"/>
<circle cx="96" cy="35" r="1" fill="#1589D4"/>
<circle cx="96" cy="45" r="1" fill="#1589D4"/>
<circle cx="96" cy="55" r="1" fill="#1589D4"/>
<circle cx="96" cy="65" r="1" fill="#1589D4"/>
<circle cx="96" cy="75" r="1" fill="#1589D4"/>
<circle cx="96" cy="85" r="1" fill="#1589D4"/>
<circle cx="96" cy="95" r="1" fill="#1589D4"/>
<circle cx="96" cy="105" r="1" fill="#1589D4"/>
<circle cx="96" cy="115" r="1" fill="#1589D4"/>
<circle cx="96" cy="125" r="1" fill="#1589D4"/>
<circle cx="96" cy="135" r="1" fill="#1589D4"/>
<circle cx="96" cy="145" r="1" fill="#1589D4"/>
<circle cx="96" cy="155" r="1" fill="#1589D4"/>
<circle cx="96" cy="165" r="1" fill="#1589D4"/>
<circle cx="96" cy="175" r="1" fill="#1589D4"/>
<circle cx="96" cy="185" r="1" fill="#1589D4"/>
<circle cx="96" cy="195" r="1" fill="#1589D4"/>
<circle cx="96" cy="205" r="1" fill="#1589D4"/>
<circle cx="96" cy="215" r="1" fill="#1589D4"/>
<circle cx="96" cy="225" r="1" fill="#1589D4"/>
<circle cx="96" cy="235" r="1" fill="#1589D4"/>
<circle cx="96" cy="245" r="1" fill="#1589D4"/>
<circle cx="96" cy="255" r="1" fill="#1589D4"/>
<circle cx="96" cy="265" r="1" fill="#1589D4"/>
<circle cx="96" cy="275" r="1" fill="#1589D4"/>
<circle cx="96" cy="285" r="1" fill="#1589D4"/>
<circle cx="96" cy="295" r="1" fill="#1589D4"/>
<circle cx="96" cy="305" r="1" fill="#1589D4"/>
<circle cx="96" cy="315" r="1" fill="#1589D4"/>
<circle cx="96" cy="325" r="1" fill="#1589D4"/>
<circle cx="96" cy="335" r="1" fill="#1589D4"/>
<circle cx="96" cy="345" r="1" fill="#1589D4"/>
<circle cx="96" cy="355" r="1" fill="#1589D4"/>
<circle cx="96" cy="365" r="1" fill="#1589D4"/>
<circle cx="96" cy="375" r="1" fill="#1589D4"/>
<circle cx="106" cy="5" r="1" fill="#1589D4"/>
<circle cx="106" cy="15" r="1" fill="#1589D4"/>
<circle cx="106" cy="25" r="1" fill="#1589D4"/>
<circle cx="106" cy="35" r="1" fill="#1589D4"/>
<circle cx="106" cy="45" r="1" fill="#1589D4"/>
<circle cx="106" cy="55" r="1" fill="#1589D4"/>
<circle cx="106" cy="65" r="1" fill="#1589D4"/>
<circle cx="106" cy="75" r="1" fill="#1589D4"/>
<circle cx="106" cy="85" r="1" fill="#1589D4"/>
<circle cx="106" cy="95" r="1" fill="#1589D4"/>
<circle cx="106" cy="105" r="1" fill="#1589D4"/>
<circle cx="106" cy="115" r="1" fill="#1589D4"/>
<circle cx="106" cy="125" r="1" fill="#1589D4"/>
<circle cx="106" cy="135" r="1" fill="#1589D4"/>
<circle cx="106" cy="145" r="1" fill="#1589D4"/>
<circle cx="106" cy="155" r="1" fill="#1589D4"/>
<circle cx="106" cy="165" r="1" fill="#1589D4"/>
<circle cx="106" cy="175" r="1" fill="#1589D4"/>
<circle cx="106" cy="185" r="1" fill="#1589D4"/>
<circle cx="106" cy="195" r="1" fill="#1589D4"/>
<circle cx="106" cy="205" r="1" fill="#1589D4"/>
<circle cx="106" cy="215" r="1" fill="#1589D4"/>
<circle cx="106" cy="225" r="1" fill="#1589D4"/>
<circle cx="106" cy="235" r="1" fill="#1589D4"/>
<circle cx="106" cy="245" r="1" fill="#1589D4"/>
<circle cx="106" cy="255" r="1" fill="#1589D4"/>
<circle cx="106" cy="265" r="1" fill="#1589D4"/>
<circle cx="106" cy="275" r="1" fill="#1589D4"/>
<circle cx="106" cy="285" r="1" fill="#1589D4"/>
<circle cx="106" cy="295" r="1" fill="#1589D4"/>
<circle cx="106" cy="305" r="1" fill="#1589D4"/>
<circle cx="106" cy="315" r="1" fill="#1589D4"/>
<circle cx="106" cy="325" r="1" fill="#1589D4"/>
<circle cx="106" cy="335" r="1" fill="#1589D4"/>
<circle cx="106" cy="345" r="1" fill="#1589D4"/>
<circle cx="106" cy="355" r="1" fill="#1589D4"/>
<circle cx="106" cy="365" r="1" fill="#1589D4"/>
<circle cx="106" cy="375" r="1" fill="#1589D4"/>
<circle cx="116" cy="5" r="1" fill="#1589D4"/>
<circle cx="116" cy="15" r="1" fill="#1589D4"/>
<circle cx="116" cy="25" r="1" fill="#1589D4"/>
<circle cx="116" cy="35" r="1" fill="#1589D4"/>
<circle cx="116" cy="45" r="1" fill="#1589D4"/>
<circle cx="116" cy="55" r="1" fill="#1589D4"/>
<circle cx="116" cy="65" r="1" fill="#1589D4"/>
<circle cx="116" cy="75" r="1" fill="#1589D4"/>
<circle cx="116" cy="85" r="1" fill="#1589D4"/>
<circle cx="116" cy="95" r="1" fill="#1589D4"/>
<circle cx="116" cy="105" r="1" fill="#1589D4"/>
<circle cx="116" cy="115" r="1" fill="#1589D4"/>
<circle cx="116" cy="125" r="1" fill="#1589D4"/>
<circle cx="116" cy="135" r="1" fill="#1589D4"/>
<circle cx="116" cy="145" r="1" fill="#1589D4"/>
<circle cx="116" cy="155" r="1" fill="#1589D4"/>
<circle cx="116" cy="165" r="1" fill="#1589D4"/>
<circle cx="116" cy="175" r="1" fill="#1589D4"/>
<circle cx="116" cy="185" r="1" fill="#1589D4"/>
<circle cx="116" cy="195" r="1" fill="#1589D4"/>
<circle cx="116" cy="205" r="1" fill="#1589D4"/>
<circle cx="116" cy="215" r="1" fill="#1589D4"/>
<circle cx="116" cy="225" r="1" fill="#1589D4"/>
<circle cx="116" cy="235" r="1" fill="#1589D4"/>
<circle cx="116" cy="245" r="1" fill="#1589D4"/>
<circle cx="116" cy="255" r="1" fill="#1589D4"/>
<circle cx="116" cy="265" r="1" fill="#1589D4"/>
<circle cx="116" cy="275" r="1" fill="#1589D4"/>
<circle cx="116" cy="285" r="1" fill="#1589D4"/>
<circle cx="116" cy="295" r="1" fill="#1589D4"/>
<circle cx="116" cy="305" r="1" fill="#1589D4"/>
<circle cx="116" cy="315" r="1" fill="#1589D4"/>
<circle cx="116" cy="325" r="1" fill="#1589D4"/>
<circle cx="116" cy="335" r="1" fill="#1589D4"/>
<circle cx="116" cy="345" r="1" fill="#1589D4"/>
<circle cx="116" cy="355" r="1" fill="#1589D4"/>
<circle cx="116" cy="365" r="1" fill="#1589D4"/>
<circle cx="116" cy="375" r="1" fill="#1589D4"/>
<circle cx="126" cy="5" r="1" fill="#1589D4"/>
<circle cx="126" cy="15" r="1" fill="#1589D4"/>
<circle cx="126" cy="25" r="1" fill="#1589D4"/>
<circle cx="126" cy="35" r="1" fill="#1589D4"/>
<circle cx="126" cy="45" r="1" fill="#1589D4"/>
<circle cx="126" cy="55" r="1" fill="#1589D4"/>
<circle cx="126" cy="65" r="1" fill="#1589D4"/>
<circle cx="126" cy="75" r="1" fill="#1589D4"/>
<circle cx="126" cy="85" r="1" fill="#1589D4"/>
<circle cx="126" cy="95" r="1" fill="#1589D4"/>
<circle cx="126" cy="105" r="1" fill="#1589D4"/>
<circle cx="126" cy="115" r="1" fill="#1589D4"/>
<circle cx="126" cy="125" r="1" fill="#1589D4"/>
<circle cx="126" cy="135" r="1" fill="#1589D4"/>
<circle cx="126" cy="145" r="1" fill="#1589D4"/>
<circle cx="126" cy="155" r="1" fill="#1589D4"/>
<circle cx="126" cy="165" r="1" fill="#1589D4"/>
<circle cx="126" cy="175" r="1" fill="#1589D4"/>
<circle cx="126" cy="185" r="1" fill="#1589D4"/>
<circle cx="126" cy="195" r="1" fill="#1589D4"/>
<circle cx="126" cy="205" r="1" fill="#1589D4"/>
<circle cx="126" cy="215" r="1" fill="#1589D4"/>
<circle cx="126" cy="225" r="1" fill="#1589D4"/>
<circle cx="126" cy="235" r="1" fill="#1589D4"/>
<circle cx="126" cy="245" r="1" fill="#1589D4"/>
<circle cx="126" cy="255" r="1" fill="#1589D4"/>
<circle cx="126" cy="265" r="1" fill="#1589D4"/>
<circle cx="126" cy="275" r="1" fill="#1589D4"/>
<circle cx="126" cy="285" r="1" fill="#1589D4"/>
<circle cx="126" cy="295" r="1" fill="#1589D4"/>
<circle cx="126" cy="305" r="1" fill="#1589D4"/>
<circle cx="126" cy="315" r="1" fill="#1589D4"/>
<circle cx="126" cy="325" r="1" fill="#1589D4"/>
<circle cx="126" cy="335" r="1" fill="#1589D4"/>
<circle cx="126" cy="345" r="1" fill="#1589D4"/>
<circle cx="126" cy="355" r="1" fill="#1589D4"/>
<circle cx="126" cy="365" r="1" fill="#1589D4"/>
<circle cx="126" cy="375" r="1" fill="#1589D4"/>
<circle cx="136" cy="5" r="1" fill="#1589D4"/>
<circle cx="136" cy="15" r="1" fill="#1589D4"/>
<circle cx="136" cy="25" r="1" fill="#1589D4"/>
<circle cx="136" cy="35" r="1" fill="#1589D4"/>
<circle cx="136" cy="45" r="1" fill="#1589D4"/>
<circle cx="136" cy="55" r="1" fill="#1589D4"/>
<circle cx="136" cy="65" r="1" fill="#1589D4"/>
<circle cx="136" cy="75" r="1" fill="#1589D4"/>
<circle cx="136" cy="85" r="1" fill="#1589D4"/>
<circle cx="136" cy="95" r="1" fill="#1589D4"/>
<circle cx="136" cy="105" r="1" fill="#1589D4"/>
<circle cx="136" cy="115" r="1" fill="#1589D4"/>
<circle cx="136" cy="125" r="1" fill="#1589D4"/>
<circle cx="136" cy="135" r="1" fill="#1589D4"/>
<circle cx="136" cy="145" r="1" fill="#1589D4"/>
<circle cx="136" cy="155" r="1" fill="#1589D4"/>
<circle cx="136" cy="165" r="1" fill="#1589D4"/>
<circle cx="136" cy="175" r="1" fill="#1589D4"/>
<circle cx="136" cy="185" r="1" fill="#1589D4"/>
<circle cx="136" cy="195" r="1" fill="#1589D4"/>
<circle cx="136" cy="205" r="1" fill="#1589D4"/>
<circle cx="136" cy="215" r="1" fill="#1589D4"/>
<circle cx="136" cy="225" r="1" fill="#1589D4"/>
<circle cx="136" cy="235" r="1" fill="#1589D4"/>
<circle cx="136" cy="245" r="1" fill="#1589D4"/>
<circle cx="136" cy="255" r="1" fill="#1589D4"/>
<circle cx="136" cy="265" r="1" fill="#1589D4"/>
<circle cx="136" cy="275" r="1" fill="#1589D4"/>
<circle cx="136" cy="285" r="1" fill="#1589D4"/>
<circle cx="136" cy="295" r="1" fill="#1589D4"/>
<circle cx="136" cy="305" r="1" fill="#1589D4"/>
<circle cx="136" cy="315" r="1" fill="#1589D4"/>
<circle cx="136" cy="325" r="1" fill="#1589D4"/>
<circle cx="136" cy="335" r="1" fill="#1589D4"/>
<circle cx="136" cy="345" r="1" fill="#1589D4"/>
<circle cx="136" cy="355" r="1" fill="#1589D4"/>
<circle cx="136" cy="365" r="1" fill="#1589D4"/>
<circle cx="136" cy="375" r="1" fill="#1589D4"/>
<circle cx="146" cy="5" r="1" fill="#1589D4"/>
<circle cx="146" cy="15" r="1" fill="#1589D4"/>
<circle cx="146" cy="25" r="1" fill="#1589D4"/>
<circle cx="146" cy="35" r="1" fill="#1589D4"/>
<circle cx="146" cy="45" r="1" fill="#1589D4"/>
<circle cx="146" cy="55" r="1" fill="#1589D4"/>
<circle cx="146" cy="65" r="1" fill="#1589D4"/>
<circle cx="146" cy="75" r="1" fill="#1589D4"/>
<circle cx="146" cy="85" r="1" fill="#1589D4"/>
<circle cx="146" cy="95" r="1" fill="#1589D4"/>
<circle cx="146" cy="105" r="1" fill="#1589D4"/>
<circle cx="146" cy="115" r="1" fill="#1589D4"/>
<circle cx="146" cy="125" r="1" fill="#1589D4"/>
<circle cx="146" cy="135" r="1" fill="#1589D4"/>
<circle cx="146" cy="145" r="1" fill="#1589D4"/>
<circle cx="146" cy="155" r="1" fill="#1589D4"/>
<circle cx="146" cy="165" r="1" fill="#1589D4"/>
<circle cx="146" cy="175" r="1" fill="#1589D4"/>
<circle cx="146" cy="185" r="1" fill="#1589D4"/>
<circle cx="146" cy="195" r="1" fill="#1589D4"/>
<circle cx="146" cy="205" r="1" fill="#1589D4"/>
<circle cx="146" cy="215" r="1" fill="#1589D4"/>
<circle cx="146" cy="225" r="1" fill="#1589D4"/>
<circle cx="146" cy="235" r="1" fill="#1589D4"/>
<circle cx="146" cy="245" r="1" fill="#1589D4"/>
<circle cx="146" cy="255" r="1" fill="#1589D4"/>
<circle cx="146" cy="265" r="1" fill="#1589D4"/>
<circle cx="146" cy="275" r="1" fill="#1589D4"/>
<circle cx="146" cy="285" r="1" fill="#1589D4"/>
<circle cx="146" cy="295" r="1" fill="#1589D4"/>
<circle cx="146" cy="305" r="1" fill="#1589D4"/>
<circle cx="146" cy="315" r="1" fill="#1589D4"/>
<circle cx="146" cy="325" r="1" fill="#1589D4"/>
<circle cx="146" cy="335" r="1" fill="#1589D4"/>
<circle cx="146" cy="345" r="1" fill="#1589D4"/>
<circle cx="146" cy="355" r="1" fill="#1589D4"/>
<circle cx="146" cy="365" r="1" fill="#1589D4"/>
<circle cx="146" cy="375" r="1" fill="#1589D4"/>
<circle cx="156" cy="5" r="1" fill="#1589D4"/>
<circle cx="156" cy="15" r="1" fill="#1589D4"/>
<circle cx="156" cy="25" r="1" fill="#1589D4"/>
<circle cx="156" cy="35" r="1" fill="#1589D4"/>
<circle cx="156" cy="45" r="1" fill="#1589D4"/>
<circle cx="156" cy="55" r="1" fill="#1589D4"/>
<circle cx="156" cy="65" r="1" fill="#1589D4"/>
<circle cx="156" cy="75" r="1" fill="#1589D4"/>
<circle cx="156" cy="85" r="1" fill="#1589D4"/>
<circle cx="156" cy="95" r="1" fill="#1589D4"/>
<circle cx="156" cy="105" r="1" fill="#1589D4"/>
<circle cx="156" cy="115" r="1" fill="#1589D4"/>
<circle cx="156" cy="125" r="1" fill="#1589D4"/>
<circle cx="156" cy="135" r="1" fill="#1589D4"/>
<circle cx="156" cy="145" r="1" fill="#1589D4"/>
<circle cx="156" cy="155" r="1" fill="#1589D4"/>
<circle cx="156" cy="165" r="1" fill="#1589D4"/>
<circle cx="156" cy="175" r="1" fill="#1589D4"/>
<circle cx="156" cy="185" r="1" fill="#1589D4"/>
<circle cx="156" cy="195" r="1" fill="#1589D4"/>
<circle cx="156" cy="205" r="1" fill="#1589D4"/>
<circle cx="156" cy="215" r="1" fill="#1589D4"/>
<circle cx="156" cy="225" r="1" fill="#1589D4"/>
<circle cx="156" cy="235" r="1" fill="#1589D4"/>
<circle cx="156" cy="245" r="1" fill="#1589D4"/>
<circle cx="156" cy="255" r="1" fill="#1589D4"/>
<circle cx="156" cy="265" r="1" fill="#1589D4"/>
<circle cx="156" cy="275" r="1" fill="#1589D4"/>
<circle cx="156" cy="285" r="1" fill="#1589D4"/>
<circle cx="156" cy="295" r="1" fill="#1589D4"/>
<circle cx="156" cy="305" r="1" fill="#1589D4"/>
<circle cx="156" cy="315" r="1" fill="#1589D4"/>
<circle cx="156" cy="325" r="1" fill="#1589D4"/>
<circle cx="156" cy="335" r="1" fill="#1589D4"/>
<circle cx="156" cy="345" r="1" fill="#1589D4"/>
<circle cx="156" cy="355" r="1" fill="#1589D4"/>
<circle cx="156" cy="365" r="1" fill="#1589D4"/>
<circle cx="156" cy="375" r="1" fill="#1589D4"/>
<circle cx="166" cy="5" r="1" fill="#1589D4"/>
<circle cx="166" cy="15" r="1" fill="#1589D4"/>
<circle cx="166" cy="25" r="1" fill="#1589D4"/>
<circle cx="166" cy="35" r="1" fill="#1589D4"/>
<circle cx="166" cy="45" r="1" fill="#1589D4"/>
<circle cx="166" cy="55" r="1" fill="#1589D4"/>
<circle cx="166" cy="65" r="1" fill="#1589D4"/>
<circle cx="166" cy="75" r="1" fill="#1589D4"/>
<circle cx="166" cy="85" r="1" fill="#1589D4"/>
<circle cx="166" cy="95" r="1" fill="#1589D4"/>
<circle cx="166" cy="105" r="1" fill="#1589D4"/>
<circle cx="166" cy="115" r="1" fill="#1589D4"/>
<circle cx="166" cy="125" r="1" fill="#1589D4"/>
<circle cx="166" cy="135" r="1" fill="#1589D4"/>
<circle cx="166" cy="145" r="1" fill="#1589D4"/>
<circle cx="166" cy="155" r="1" fill="#1589D4"/>
<circle cx="166" cy="165" r="1" fill="#1589D4"/>
<circle cx="166" cy="175" r="1" fill="#1589D4"/>
<circle cx="166" cy="185" r="1" fill="#1589D4"/>
<circle cx="166" cy="195" r="1" fill="#1589D4"/>
<circle cx="166" cy="205" r="1" fill="#1589D4"/>
<circle cx="166" cy="215" r="1" fill="#1589D4"/>
<circle cx="166" cy="225" r="1" fill="#1589D4"/>
<circle cx="166" cy="235" r="1" fill="#1589D4"/>
<circle cx="166" cy="245" r="1" fill="#1589D4"/>
<circle cx="166" cy="255" r="1" fill="#1589D4"/>
<circle cx="166" cy="265" r="1" fill="#1589D4"/>
<circle cx="166" cy="275" r="1" fill="#1589D4"/>
<circle cx="166" cy="285" r="1" fill="#1589D4"/>
<circle cx="166" cy="295" r="1" fill="#1589D4"/>
<circle cx="166" cy="305" r="1" fill="#1589D4"/>
<circle cx="166" cy="315" r="1" fill="#1589D4"/>
<circle cx="166" cy="325" r="1" fill="#1589D4"/>
<circle cx="166" cy="335" r="1" fill="#1589D4"/>
<circle cx="166" cy="345" r="1" fill="#1589D4"/>
<circle cx="166" cy="355" r="1" fill="#1589D4"/>
<circle cx="166" cy="365" r="1" fill="#1589D4"/>
<circle cx="166" cy="375" r="1" fill="#1589D4"/>
<circle cx="176" cy="5" r="1" fill="#1589D4"/>
<circle cx="176" cy="15" r="1" fill="#1589D4"/>
<circle cx="176" cy="25" r="1" fill="#1589D4"/>
<circle cx="176" cy="35" r="1" fill="#1589D4"/>
<circle cx="176" cy="45" r="1" fill="#1589D4"/>
<circle cx="176" cy="55" r="1" fill="#1589D4"/>
<circle cx="176" cy="65" r="1" fill="#1589D4"/>
<circle cx="176" cy="75" r="1" fill="#1589D4"/>
<circle cx="176" cy="85" r="1" fill="#1589D4"/>
<circle cx="176" cy="95" r="1" fill="#1589D4"/>
<circle cx="176" cy="105" r="1" fill="#1589D4"/>
<circle cx="176" cy="115" r="1" fill="#1589D4"/>
<circle cx="176" cy="125" r="1" fill="#1589D4"/>
<circle cx="176" cy="135" r="1" fill="#1589D4"/>
<circle cx="176" cy="145" r="1" fill="#1589D4"/>
<circle cx="176" cy="155" r="1" fill="#1589D4"/>
<circle cx="176" cy="165" r="1" fill="#1589D4"/>
<circle cx="176" cy="175" r="1" fill="#1589D4"/>
<circle cx="176" cy="185" r="1" fill="#1589D4"/>
<circle cx="176" cy="195" r="1" fill="#1589D4"/>
<circle cx="176" cy="205" r="1" fill="#1589D4"/>
<circle cx="176" cy="215" r="1" fill="#1589D4"/>
<circle cx="176" cy="225" r="1" fill="#1589D4"/>
<circle cx="176" cy="235" r="1" fill="#1589D4"/>
<circle cx="176" cy="245" r="1" fill="#1589D4"/>
<circle cx="176" cy="255" r="1" fill="#1589D4"/>
<circle cx="176" cy="265" r="1" fill="#1589D4"/>
<circle cx="176" cy="275" r="1" fill="#1589D4"/>
<circle cx="176" cy="285" r="1" fill="#1589D4"/>
<circle cx="176" cy="295" r="1" fill="#1589D4"/>
<circle cx="176" cy="305" r="1" fill="#1589D4"/>
<circle cx="176" cy="315" r="1" fill="#1589D4"/>
<circle cx="176" cy="325" r="1" fill="#1589D4"/>
<circle cx="176" cy="335" r="1" fill="#1589D4"/>
<circle cx="176" cy="345" r="1" fill="#1589D4"/>
<circle cx="176" cy="355" r="1" fill="#1589D4"/>
<circle cx="176" cy="365" r="1" fill="#1589D4"/>
<circle cx="176" cy="375" r="1" fill="#1589D4"/>
</g>
</svg>
