<svg width="315" height="57" viewBox="0 0 315 57" fill="none" xmlns="http://www.w3.org/2000/svg">
<circle cx="311" cy="1" r="1" transform="rotate(90 311 1)" fill="#1589D4"/>
<circle cx="301" cy="1" r="1" transform="rotate(90 301 1)" fill="#1589D4"/>
<circle cx="291" cy="1" r="1" transform="rotate(90 291 1)" fill="#1589D4"/>
<circle cx="281" cy="1" r="1" transform="rotate(90 281 1)" fill="#1589D4"/>
<circle cx="271" cy="1" r="1" transform="rotate(90 271 1)" fill="#1589D4"/>
<circle cx="261" cy="1" r="1" transform="rotate(90 261 1)" fill="#1589D4"/>
<circle cx="251" cy="1" r="1" transform="rotate(90 251 1)" fill="#1589D4"/>
<circle cx="241" cy="1" r="1" transform="rotate(90 241 1)" fill="#1589D4"/>
<circle cx="231" cy="1" r="1" transform="rotate(90 231 1)" fill="#1589D4"/>
<circle cx="221" cy="1" r="1" transform="rotate(90 221 1)" fill="#1589D4"/>
<circle cx="211" cy="1" r="1" transform="rotate(90 211 1)" fill="#1589D4"/>
<circle cx="201" cy="1" r="1" transform="rotate(90 201 1)" fill="#1589D4"/>
<circle cx="191" cy="1" r="1" transform="rotate(90 191 1)" fill="#1589D4"/>
<circle cx="181" cy="1" r="1" transform="rotate(90 181 1)" fill="#1589D4"/>
<circle cx="171" cy="1" r="1" transform="rotate(90 171 1)" fill="#1589D4"/>
<circle cx="161" cy="1" r="1" transform="rotate(90 161 1)" fill="#1589D4"/>
<circle cx="151" cy="1" r="1" transform="rotate(90 151 1)" fill="#1589D4"/>
<circle cx="141" cy="1" r="1" transform="rotate(90 141 1)" fill="#1589D4"/>
<circle cx="131" cy="1" r="1" transform="rotate(90 131 1)" fill="#1589D4"/>
<circle cx="121" cy="1" r="1" transform="rotate(90 121 1)" fill="#1589D4"/>
<circle cx="111" cy="1" r="1" transform="rotate(90 111 1)" fill="#1589D4"/>
<circle cx="101" cy="1" r="1" transform="rotate(90 101 1)" fill="#1589D4"/>
<circle cx="91" cy="1" r="1" transform="rotate(90 91 1)" fill="#1589D4"/>
<circle cx="81" cy="1" r="1" transform="rotate(90 81 1)" fill="#1589D4"/>
<circle cx="71" cy="1" r="1" transform="rotate(90 71 1)" fill="#1589D4"/>
<circle cx="61" cy="1" r="1" transform="rotate(90 61 1)" fill="#1589D4"/>
<circle cx="51" cy="1" r="1" transform="rotate(90 51 1)" fill="#1589D4"/>
<circle cx="41" cy="1" r="1" transform="rotate(90 41 1)" fill="#1589D4"/>
<circle cx="31" cy="1" r="1" transform="rotate(90 31 1)" fill="#1589D4"/>
<circle cx="21" cy="1" r="1" transform="rotate(90 21 1)" fill="#1589D4"/>
<circle cx="11" cy="1" r="1" transform="rotate(90 11 1)" fill="#1589D4"/>
<circle cx="1" cy="1" r="1" transform="rotate(90 1 1)" fill="#1589D4"/>
<circle cx="311" cy="11" r="1" transform="rotate(90 311 11)" fill="#1589D4"/>
<circle cx="301" cy="11" r="1" transform="rotate(90 301 11)" fill="#1589D4"/>
<circle cx="291" cy="11" r="1" transform="rotate(90 291 11)" fill="#1589D4"/>
<circle cx="281" cy="11" r="1" transform="rotate(90 281 11)" fill="#1589D4"/>
<circle cx="271" cy="11" r="1" transform="rotate(90 271 11)" fill="#1589D4"/>
<circle cx="261" cy="11" r="1" transform="rotate(90 261 11)" fill="#1589D4"/>
<circle cx="251" cy="11" r="1" transform="rotate(90 251 11)" fill="#1589D4"/>
<circle cx="241" cy="11" r="1" transform="rotate(90 241 11)" fill="#1589D4"/>
<circle cx="231" cy="11" r="1" transform="rotate(90 231 11)" fill="#1589D4"/>
<circle cx="221" cy="11" r="1" transform="rotate(90 221 11)" fill="#1589D4"/>
<circle cx="211" cy="11" r="1" transform="rotate(90 211 11)" fill="#1589D4"/>
<circle cx="201" cy="11" r="1" transform="rotate(90 201 11)" fill="#1589D4"/>
<circle cx="191" cy="11" r="1" transform="rotate(90 191 11)" fill="#1589D4"/>
<circle cx="181" cy="11" r="1" transform="rotate(90 181 11)" fill="#1589D4"/>
<circle cx="171" cy="11" r="1" transform="rotate(90 171 11)" fill="#1589D4"/>
<circle cx="161" cy="11" r="1" transform="rotate(90 161 11)" fill="#1589D4"/>
<circle cx="151" cy="11" r="1" transform="rotate(90 151 11)" fill="#1589D4"/>
<circle cx="141" cy="11" r="1" transform="rotate(90 141 11)" fill="#1589D4"/>
<circle cx="131" cy="11" r="1" transform="rotate(90 131 11)" fill="#1589D4"/>
<circle cx="121" cy="11" r="1" transform="rotate(90 121 11)" fill="#1589D4"/>
<circle cx="111" cy="11" r="1" transform="rotate(90 111 11)" fill="#1589D4"/>
<circle cx="101" cy="11" r="1" transform="rotate(90 101 11)" fill="#1589D4"/>
<circle cx="91" cy="11" r="1" transform="rotate(90 91 11)" fill="#1589D4"/>
<circle cx="81" cy="11" r="1" transform="rotate(90 81 11)" fill="#1589D4"/>
<circle cx="71" cy="11" r="1" transform="rotate(90 71 11)" fill="#1589D4"/>
<circle cx="61" cy="11" r="1" transform="rotate(90 61 11)" fill="#1589D4"/>
<circle cx="51" cy="11" r="1" transform="rotate(90 51 11)" fill="#1589D4"/>
<circle cx="41" cy="11" r="1" transform="rotate(90 41 11)" fill="#1589D4"/>
<circle cx="31" cy="11" r="1" transform="rotate(90 31 11)" fill="#1589D4"/>
<circle cx="21" cy="11" r="1" transform="rotate(90 21 11)" fill="#1589D4"/>
<circle cx="11" cy="11" r="1" transform="rotate(90 11 11)" fill="#1589D4"/>
<circle cx="1" cy="11" r="1" transform="rotate(90 1 11)" fill="#1589D4"/>
<circle cx="311" cy="21" r="1" transform="rotate(90 311 21)" fill="#1589D4"/>
<circle cx="301" cy="21" r="1" transform="rotate(90 301 21)" fill="#1589D4"/>
<circle cx="291" cy="21" r="1" transform="rotate(90 291 21)" fill="#1589D4"/>
<circle cx="281" cy="21" r="1" transform="rotate(90 281 21)" fill="#1589D4"/>
<circle cx="271" cy="21" r="1" transform="rotate(90 271 21)" fill="#1589D4"/>
<circle cx="261" cy="21" r="1" transform="rotate(90 261 21)" fill="#1589D4"/>
<circle cx="251" cy="21" r="1" transform="rotate(90 251 21)" fill="#1589D4"/>
<circle cx="241" cy="21" r="1" transform="rotate(90 241 21)" fill="#1589D4"/>
<circle cx="231" cy="21" r="1" transform="rotate(90 231 21)" fill="#1589D4"/>
<circle cx="221" cy="21" r="1" transform="rotate(90 221 21)" fill="#1589D4"/>
<circle cx="211" cy="21" r="1" transform="rotate(90 211 21)" fill="#1589D4"/>
<circle cx="201" cy="21" r="1" transform="rotate(90 201 21)" fill="#1589D4"/>
<circle cx="191" cy="21" r="1" transform="rotate(90 191 21)" fill="#1589D4"/>
<circle cx="181" cy="21" r="1" transform="rotate(90 181 21)" fill="#1589D4"/>
<circle cx="171" cy="21" r="1" transform="rotate(90 171 21)" fill="#1589D4"/>
<circle cx="161" cy="21" r="1" transform="rotate(90 161 21)" fill="#1589D4"/>
<circle cx="151" cy="21" r="1" transform="rotate(90 151 21)" fill="#1589D4"/>
<circle cx="141" cy="21" r="1" transform="rotate(90 141 21)" fill="#1589D4"/>
<circle cx="131" cy="21" r="1" transform="rotate(90 131 21)" fill="#1589D4"/>
<circle cx="121" cy="21" r="1" transform="rotate(90 121 21)" fill="#1589D4"/>
<circle cx="111" cy="21" r="1" transform="rotate(90 111 21)" fill="#1589D4"/>
<circle cx="101" cy="21" r="1" transform="rotate(90 101 21)" fill="#1589D4"/>
<circle cx="91" cy="21" r="1" transform="rotate(90 91 21)" fill="#1589D4"/>
<circle cx="81" cy="21" r="1" transform="rotate(90 81 21)" fill="#1589D4"/>
<circle cx="71" cy="21" r="1" transform="rotate(90 71 21)" fill="#1589D4"/>
<circle cx="61" cy="21" r="1" transform="rotate(90 61 21)" fill="#1589D4"/>
<circle cx="51" cy="21" r="1" transform="rotate(90 51 21)" fill="#1589D4"/>
<circle cx="41" cy="21" r="1" transform="rotate(90 41 21)" fill="#1589D4"/>
<circle cx="31" cy="21" r="1" transform="rotate(90 31 21)" fill="#1589D4"/>
<circle cx="21" cy="21" r="1" transform="rotate(90 21 21)" fill="#1589D4"/>
<circle cx="11" cy="21" r="1" transform="rotate(90 11 21)" fill="#1589D4"/>
<circle cx="1" cy="21" r="1" transform="rotate(90 1 21)" fill="#1589D4"/>
<circle cx="311" cy="31" r="1" transform="rotate(90 311 31)" fill="#1589D4"/>
<circle cx="301" cy="31" r="1" transform="rotate(90 301 31)" fill="#1589D4"/>
<circle cx="291" cy="31" r="1" transform="rotate(90 291 31)" fill="#1589D4"/>
<circle cx="281" cy="31" r="1" transform="rotate(90 281 31)" fill="#1589D4"/>
<circle cx="271" cy="31" r="1" transform="rotate(90 271 31)" fill="#1589D4"/>
<circle cx="261" cy="31" r="1" transform="rotate(90 261 31)" fill="#1589D4"/>
<circle cx="251" cy="31" r="1" transform="rotate(90 251 31)" fill="#1589D4"/>
<circle cx="241" cy="31" r="1" transform="rotate(90 241 31)" fill="#1589D4"/>
<circle cx="231" cy="31" r="1" transform="rotate(90 231 31)" fill="#1589D4"/>
<circle cx="221" cy="31" r="1" transform="rotate(90 221 31)" fill="#1589D4"/>
<circle cx="211" cy="31" r="1" transform="rotate(90 211 31)" fill="#1589D4"/>
<circle cx="201" cy="31" r="1" transform="rotate(90 201 31)" fill="#1589D4"/>
<circle cx="191" cy="31" r="1" transform="rotate(90 191 31)" fill="#1589D4"/>
<circle cx="181" cy="31" r="1" transform="rotate(90 181 31)" fill="#1589D4"/>
<circle cx="171" cy="31" r="1" transform="rotate(90 171 31)" fill="#1589D4"/>
<circle cx="161" cy="31" r="1" transform="rotate(90 161 31)" fill="#1589D4"/>
<circle cx="151" cy="31" r="1" transform="rotate(90 151 31)" fill="#1589D4"/>
<circle cx="141" cy="31" r="1" transform="rotate(90 141 31)" fill="#1589D4"/>
<circle cx="131" cy="31" r="1" transform="rotate(90 131 31)" fill="#1589D4"/>
<circle cx="121" cy="31" r="1" transform="rotate(90 121 31)" fill="#1589D4"/>
<circle cx="111" cy="31" r="1" transform="rotate(90 111 31)" fill="#1589D4"/>
<circle cx="101" cy="31" r="1" transform="rotate(90 101 31)" fill="#1589D4"/>
<circle cx="91" cy="31" r="1" transform="rotate(90 91 31)" fill="#1589D4"/>
<circle cx="81" cy="31" r="1" transform="rotate(90 81 31)" fill="#1589D4"/>
<circle cx="71" cy="31" r="1" transform="rotate(90 71 31)" fill="#1589D4"/>
<circle cx="61" cy="31" r="1" transform="rotate(90 61 31)" fill="#1589D4"/>
<circle cx="51" cy="31" r="1" transform="rotate(90 51 31)" fill="#1589D4"/>
<circle cx="41" cy="31" r="1" transform="rotate(90 41 31)" fill="#1589D4"/>
<circle cx="31" cy="31" r="1" transform="rotate(90 31 31)" fill="#1589D4"/>
<circle cx="21" cy="31" r="1" transform="rotate(90 21 31)" fill="#1589D4"/>
<circle cx="11" cy="31" r="1" transform="rotate(90 11 31)" fill="#1589D4"/>
<circle cx="1" cy="31" r="1" transform="rotate(90 1 31)" fill="#1589D4"/>
<circle cx="311" cy="41" r="1" transform="rotate(90 311 41)" fill="#1589D4"/>
<circle cx="301" cy="41" r="1" transform="rotate(90 301 41)" fill="#1589D4"/>
<circle cx="291" cy="41" r="1" transform="rotate(90 291 41)" fill="#1589D4"/>
<circle cx="281" cy="41" r="1" transform="rotate(90 281 41)" fill="#1589D4"/>
<circle cx="271" cy="41" r="1" transform="rotate(90 271 41)" fill="#1589D4"/>
<circle cx="261" cy="41" r="1" transform="rotate(90 261 41)" fill="#1589D4"/>
<circle cx="251" cy="41" r="1" transform="rotate(90 251 41)" fill="#1589D4"/>
<circle cx="241" cy="41" r="1" transform="rotate(90 241 41)" fill="#1589D4"/>
<circle cx="231" cy="41" r="1" transform="rotate(90 231 41)" fill="#1589D4"/>
<circle cx="221" cy="41" r="1" transform="rotate(90 221 41)" fill="#1589D4"/>
<circle cx="211" cy="41" r="1" transform="rotate(90 211 41)" fill="#1589D4"/>
<circle cx="201" cy="41" r="1" transform="rotate(90 201 41)" fill="#1589D4"/>
<circle cx="191" cy="41" r="1" transform="rotate(90 191 41)" fill="#1589D4"/>
<circle cx="181" cy="41" r="1" transform="rotate(90 181 41)" fill="#1589D4"/>
<circle cx="171" cy="41" r="1" transform="rotate(90 171 41)" fill="#1589D4"/>
<circle cx="161" cy="41" r="1" transform="rotate(90 161 41)" fill="#1589D4"/>
<circle cx="151" cy="41" r="1" transform="rotate(90 151 41)" fill="#1589D4"/>
<circle cx="141" cy="41" r="1" transform="rotate(90 141 41)" fill="#1589D4"/>
<circle cx="131" cy="41" r="1" transform="rotate(90 131 41)" fill="#1589D4"/>
<circle cx="121" cy="41" r="1" transform="rotate(90 121 41)" fill="#1589D4"/>
<circle cx="111" cy="41" r="1" transform="rotate(90 111 41)" fill="#1589D4"/>
<circle cx="101" cy="41" r="1" transform="rotate(90 101 41)" fill="#1589D4"/>
<circle cx="91" cy="41" r="1" transform="rotate(90 91 41)" fill="#1589D4"/>
<circle cx="81" cy="41" r="1" transform="rotate(90 81 41)" fill="#1589D4"/>
<circle cx="71" cy="41" r="1" transform="rotate(90 71 41)" fill="#1589D4"/>
<circle cx="61" cy="41" r="1" transform="rotate(90 61 41)" fill="#1589D4"/>
<circle cx="51" cy="41" r="1" transform="rotate(90 51 41)" fill="#1589D4"/>
<circle cx="41" cy="41" r="1" transform="rotate(90 41 41)" fill="#1589D4"/>
<circle cx="31" cy="41" r="1" transform="rotate(90 31 41)" fill="#1589D4"/>
<circle cx="21" cy="41" r="1" transform="rotate(90 21 41)" fill="#1589D4"/>
<circle cx="11" cy="41" r="1" transform="rotate(90 11 41)" fill="#1589D4"/>
<circle cx="1" cy="41" r="1" transform="rotate(90 1 41)" fill="#1589D4"/>
<circle cx="311" cy="51" r="1" transform="rotate(90 311 51)" fill="#1589D4"/>
<circle cx="301" cy="51" r="1" transform="rotate(90 301 51)" fill="#1589D4"/>
<circle cx="291" cy="51" r="1" transform="rotate(90 291 51)" fill="#1589D4"/>
<circle cx="281" cy="51" r="1" transform="rotate(90 281 51)" fill="#1589D4"/>
<circle cx="271" cy="51" r="1" transform="rotate(90 271 51)" fill="#1589D4"/>
<circle cx="261" cy="51" r="1" transform="rotate(90 261 51)" fill="#1589D4"/>
<circle cx="251" cy="51" r="1" transform="rotate(90 251 51)" fill="#1589D4"/>
<circle cx="241" cy="51" r="1" transform="rotate(90 241 51)" fill="#1589D4"/>
<circle cx="231" cy="51" r="1" transform="rotate(90 231 51)" fill="#1589D4"/>
<circle cx="221" cy="51" r="1" transform="rotate(90 221 51)" fill="#1589D4"/>
<circle cx="211" cy="51" r="1" transform="rotate(90 211 51)" fill="#1589D4"/>
<circle cx="201" cy="51" r="1" transform="rotate(90 201 51)" fill="#1589D4"/>
<circle cx="191" cy="51" r="1" transform="rotate(90 191 51)" fill="#1589D4"/>
<circle cx="181" cy="51" r="1" transform="rotate(90 181 51)" fill="#1589D4"/>
<circle cx="171" cy="51" r="1" transform="rotate(90 171 51)" fill="#1589D4"/>
<circle cx="161" cy="51" r="1" transform="rotate(90 161 51)" fill="#1589D4"/>
<circle cx="151" cy="51" r="1" transform="rotate(90 151 51)" fill="#1589D4"/>
<circle cx="141" cy="51" r="1" transform="rotate(90 141 51)" fill="#1589D4"/>
<circle cx="131" cy="51" r="1" transform="rotate(90 131 51)" fill="#1589D4"/>
<circle cx="121" cy="51" r="1" transform="rotate(90 121 51)" fill="#1589D4"/>
<circle cx="111" cy="51" r="1" transform="rotate(90 111 51)" fill="#1589D4"/>
<circle cx="101" cy="51" r="1" transform="rotate(90 101 51)" fill="#1589D4"/>
<circle cx="91" cy="51" r="1" transform="rotate(90 91 51)" fill="#1589D4"/>
<circle cx="81" cy="51" r="1" transform="rotate(90 81 51)" fill="#1589D4"/>
<circle cx="71" cy="51" r="1" transform="rotate(90 71 51)" fill="#1589D4"/>
<circle cx="61" cy="51" r="1" transform="rotate(90 61 51)" fill="#1589D4"/>
<circle cx="51" cy="51" r="1" transform="rotate(90 51 51)" fill="#1589D4"/>
<circle cx="41" cy="51" r="1" transform="rotate(90 41 51)" fill="#1589D4"/>
<circle cx="31" cy="51" r="1" transform="rotate(90 31 51)" fill="#1589D4"/>
<circle cx="21" cy="51" r="1" transform="rotate(90 21 51)" fill="#1589D4"/>
<circle cx="11" cy="51" r="1" transform="rotate(90 11 51)" fill="#1589D4"/>
<circle cx="1" cy="51" r="1" transform="rotate(90 1 51)" fill="#1589D4"/>
</svg>
