<svg width="368" height="141" viewBox="0 0 368 141" fill="none" xmlns="http://www.w3.org/2000/svg">
<mask id="mask0" mask-type="alpha" maskUnits="userSpaceOnUse" x="0" y="0" width="368" height="141">
<rect x="368" width="141" height="368" transform="rotate(90 368 0)" fill="#C4C4C4"/>
</mask>
<g mask="url(#mask0)">
<circle cx="365" cy="6" r="1" transform="rotate(90 365 6)" fill="#1589D4"/>
<circle cx="355" cy="6" r="1" transform="rotate(90 355 6)" fill="#1589D4"/>
<circle cx="345" cy="6" r="1" transform="rotate(90 345 6)" fill="#1589D4"/>
<circle cx="335" cy="6" r="1" transform="rotate(90 335 6)" fill="#1589D4"/>
<circle cx="325" cy="6" r="1" transform="rotate(90 325 6)" fill="#1589D4"/>
<circle cx="315" cy="6" r="1" transform="rotate(90 315 6)" fill="#1589D4"/>
<circle cx="305" cy="6" r="1" transform="rotate(90 305 6)" fill="#1589D4"/>
<circle cx="295" cy="6" r="1" transform="rotate(90 295 6)" fill="#1589D4"/>
<circle cx="285" cy="6" r="1" transform="rotate(90 285 6)" fill="#1589D4"/>
<circle cx="275" cy="6" r="1" transform="rotate(90 275 6)" fill="#1589D4"/>
<circle cx="265" cy="6" r="1" transform="rotate(90 265 6)" fill="#1589D4"/>
<circle cx="255" cy="6" r="1" transform="rotate(90 255 6)" fill="#1589D4"/>
<circle cx="245" cy="6" r="1" transform="rotate(90 245 6)" fill="#1589D4"/>
<circle cx="235" cy="6" r="1" transform="rotate(90 235 6)" fill="#1589D4"/>
<circle cx="225" cy="6" r="1" transform="rotate(90 225 6)" fill="#1589D4"/>
<circle cx="215" cy="6" r="1" transform="rotate(90 215 6)" fill="#1589D4"/>
<circle cx="205" cy="6" r="1" transform="rotate(90 205 6)" fill="#1589D4"/>
<circle cx="195" cy="6" r="1" transform="rotate(90 195 6)" fill="#1589D4"/>
<circle cx="185" cy="6" r="1" transform="rotate(90 185 6)" fill="#1589D4"/>
<circle cx="175" cy="6" r="1" transform="rotate(90 175 6)" fill="#1589D4"/>
<circle cx="165" cy="6" r="1" transform="rotate(90 165 6)" fill="#1589D4"/>
<circle cx="155" cy="6" r="1" transform="rotate(90 155 6)" fill="#1589D4"/>
<circle cx="145" cy="6" r="1" transform="rotate(90 145 6)" fill="#1589D4"/>
<circle cx="135" cy="6" r="1" transform="rotate(90 135 6)" fill="#1589D4"/>
<circle cx="125" cy="6" r="1" transform="rotate(90 125 6)" fill="#1589D4"/>
<circle cx="115" cy="6" r="1" transform="rotate(90 115 6)" fill="#1589D4"/>
<circle cx="105" cy="6" r="1" transform="rotate(90 105 6)" fill="#1589D4"/>
<circle cx="95" cy="6" r="1" transform="rotate(90 95 6)" fill="#1589D4"/>
<circle cx="85" cy="6" r="1" transform="rotate(90 85 6)" fill="#1589D4"/>
<circle cx="75" cy="6" r="1" transform="rotate(90 75 6)" fill="#1589D4"/>
<circle cx="65" cy="6" r="1" transform="rotate(90 65 6)" fill="#1589D4"/>
<circle cx="55" cy="6" r="1" transform="rotate(90 55 6)" fill="#1589D4"/>
<circle cx="45" cy="6" r="1" transform="rotate(90 45 6)" fill="#1589D4"/>
<circle cx="35" cy="6" r="1" transform="rotate(90 35 6)" fill="#1589D4"/>
<circle cx="25" cy="6" r="1" transform="rotate(90 25 6)" fill="#1589D4"/>
<circle cx="15" cy="6" r="1" transform="rotate(90 15 6)" fill="#1589D4"/>
<circle cx="5" cy="6" r="1" transform="rotate(90 5 6)" fill="#1589D4"/>
<circle cx="365" cy="16" r="1" transform="rotate(90 365 16)" fill="#1589D4"/>
<circle cx="355" cy="16" r="1" transform="rotate(90 355 16)" fill="#1589D4"/>
<circle cx="345" cy="16" r="1" transform="rotate(90 345 16)" fill="#1589D4"/>
<circle cx="335" cy="16" r="1" transform="rotate(90 335 16)" fill="#1589D4"/>
<circle cx="325" cy="16" r="1" transform="rotate(90 325 16)" fill="#1589D4"/>
<circle cx="315" cy="16" r="1" transform="rotate(90 315 16)" fill="#1589D4"/>
<circle cx="305" cy="16" r="1" transform="rotate(90 305 16)" fill="#1589D4"/>
<circle cx="295" cy="16" r="1" transform="rotate(90 295 16)" fill="#1589D4"/>
<circle cx="285" cy="16" r="1" transform="rotate(90 285 16)" fill="#1589D4"/>
<circle cx="275" cy="16" r="1" transform="rotate(90 275 16)" fill="#1589D4"/>
<circle cx="265" cy="16" r="1" transform="rotate(90 265 16)" fill="#1589D4"/>
<circle cx="255" cy="16" r="1" transform="rotate(90 255 16)" fill="#1589D4"/>
<circle cx="245" cy="16" r="1" transform="rotate(90 245 16)" fill="#1589D4"/>
<circle cx="235" cy="16" r="1" transform="rotate(90 235 16)" fill="#1589D4"/>
<circle cx="225" cy="16" r="1" transform="rotate(90 225 16)" fill="#1589D4"/>
<circle cx="215" cy="16" r="1" transform="rotate(90 215 16)" fill="#1589D4"/>
<circle cx="205" cy="16" r="1" transform="rotate(90 205 16)" fill="#1589D4"/>
<circle cx="195" cy="16" r="1" transform="rotate(90 195 16)" fill="#1589D4"/>
<circle cx="185" cy="16" r="1" transform="rotate(90 185 16)" fill="#1589D4"/>
<circle cx="175" cy="16" r="1" transform="rotate(90 175 16)" fill="#1589D4"/>
<circle cx="165" cy="16" r="1" transform="rotate(90 165 16)" fill="#1589D4"/>
<circle cx="155" cy="16" r="1" transform="rotate(90 155 16)" fill="#1589D4"/>
<circle cx="145" cy="16" r="1" transform="rotate(90 145 16)" fill="#1589D4"/>
<circle cx="135" cy="16" r="1" transform="rotate(90 135 16)" fill="#1589D4"/>
<circle cx="125" cy="16" r="1" transform="rotate(90 125 16)" fill="#1589D4"/>
<circle cx="115" cy="16" r="1" transform="rotate(90 115 16)" fill="#1589D4"/>
<circle cx="105" cy="16" r="1" transform="rotate(90 105 16)" fill="#1589D4"/>
<circle cx="95" cy="16" r="1" transform="rotate(90 95 16)" fill="#1589D4"/>
<circle cx="85" cy="16" r="1" transform="rotate(90 85 16)" fill="#1589D4"/>
<circle cx="75" cy="16" r="1" transform="rotate(90 75 16)" fill="#1589D4"/>
<circle cx="65" cy="16" r="1" transform="rotate(90 65 16)" fill="#1589D4"/>
<circle cx="55" cy="16" r="1" transform="rotate(90 55 16)" fill="#1589D4"/>
<circle cx="45" cy="16" r="1" transform="rotate(90 45 16)" fill="#1589D4"/>
<circle cx="35" cy="16" r="1" transform="rotate(90 35 16)" fill="#1589D4"/>
<circle cx="25" cy="16" r="1" transform="rotate(90 25 16)" fill="#1589D4"/>
<circle cx="15" cy="16" r="1" transform="rotate(90 15 16)" fill="#1589D4"/>
<circle cx="5" cy="16" r="1" transform="rotate(90 5 16)" fill="#1589D4"/>
<circle cx="365" cy="26" r="1" transform="rotate(90 365 26)" fill="#1589D4"/>
<circle cx="355" cy="26" r="1" transform="rotate(90 355 26)" fill="#1589D4"/>
<circle cx="345" cy="26" r="1" transform="rotate(90 345 26)" fill="#1589D4"/>
<circle cx="335" cy="26" r="1" transform="rotate(90 335 26)" fill="#1589D4"/>
<circle cx="325" cy="26" r="1" transform="rotate(90 325 26)" fill="#1589D4"/>
<circle cx="315" cy="26" r="1" transform="rotate(90 315 26)" fill="#1589D4"/>
<circle cx="305" cy="26" r="1" transform="rotate(90 305 26)" fill="#1589D4"/>
<circle cx="295" cy="26" r="1" transform="rotate(90 295 26)" fill="#1589D4"/>
<circle cx="285" cy="26" r="1" transform="rotate(90 285 26)" fill="#1589D4"/>
<circle cx="275" cy="26" r="1" transform="rotate(90 275 26)" fill="#1589D4"/>
<circle cx="265" cy="26" r="1" transform="rotate(90 265 26)" fill="#1589D4"/>
<circle cx="255" cy="26" r="1" transform="rotate(90 255 26)" fill="#1589D4"/>
<circle cx="245" cy="26" r="1" transform="rotate(90 245 26)" fill="#1589D4"/>
<circle cx="235" cy="26" r="1" transform="rotate(90 235 26)" fill="#1589D4"/>
<circle cx="225" cy="26" r="1" transform="rotate(90 225 26)" fill="#1589D4"/>
<circle cx="215" cy="26" r="1" transform="rotate(90 215 26)" fill="#1589D4"/>
<circle cx="205" cy="26" r="1" transform="rotate(90 205 26)" fill="#1589D4"/>
<circle cx="195" cy="26" r="1" transform="rotate(90 195 26)" fill="#1589D4"/>
<circle cx="185" cy="26" r="1" transform="rotate(90 185 26)" fill="#1589D4"/>
<circle cx="175" cy="26" r="1" transform="rotate(90 175 26)" fill="#1589D4"/>
<circle cx="165" cy="26" r="1" transform="rotate(90 165 26)" fill="#1589D4"/>
<circle cx="155" cy="26" r="1" transform="rotate(90 155 26)" fill="#1589D4"/>
<circle cx="145" cy="26" r="1" transform="rotate(90 145 26)" fill="#1589D4"/>
<circle cx="135" cy="26" r="1" transform="rotate(90 135 26)" fill="#1589D4"/>
<circle cx="125" cy="26" r="1" transform="rotate(90 125 26)" fill="#1589D4"/>
<circle cx="115" cy="26" r="1" transform="rotate(90 115 26)" fill="#1589D4"/>
<circle cx="105" cy="26" r="1" transform="rotate(90 105 26)" fill="#1589D4"/>
<circle cx="95" cy="26" r="1" transform="rotate(90 95 26)" fill="#1589D4"/>
<circle cx="85" cy="26" r="1" transform="rotate(90 85 26)" fill="#1589D4"/>
<circle cx="75" cy="26" r="1" transform="rotate(90 75 26)" fill="#1589D4"/>
<circle cx="65" cy="26" r="1" transform="rotate(90 65 26)" fill="#1589D4"/>
<circle cx="55" cy="26" r="1" transform="rotate(90 55 26)" fill="#1589D4"/>
<circle cx="45" cy="26" r="1" transform="rotate(90 45 26)" fill="#1589D4"/>
<circle cx="35" cy="26" r="1" transform="rotate(90 35 26)" fill="#1589D4"/>
<circle cx="25" cy="26" r="1" transform="rotate(90 25 26)" fill="#1589D4"/>
<circle cx="15" cy="26" r="1" transform="rotate(90 15 26)" fill="#1589D4"/>
<circle cx="5" cy="26" r="1" transform="rotate(90 5 26)" fill="#1589D4"/>
<circle cx="365" cy="36" r="1" transform="rotate(90 365 36)" fill="#1589D4"/>
<circle cx="355" cy="36" r="1" transform="rotate(90 355 36)" fill="#1589D4"/>
<circle cx="345" cy="36" r="1" transform="rotate(90 345 36)" fill="#1589D4"/>
<circle cx="335" cy="36" r="1" transform="rotate(90 335 36)" fill="#1589D4"/>
<circle cx="325" cy="36" r="1" transform="rotate(90 325 36)" fill="#1589D4"/>
<circle cx="315" cy="36" r="1" transform="rotate(90 315 36)" fill="#1589D4"/>
<circle cx="305" cy="36" r="1" transform="rotate(90 305 36)" fill="#1589D4"/>
<circle cx="295" cy="36" r="1" transform="rotate(90 295 36)" fill="#1589D4"/>
<circle cx="285" cy="36" r="1" transform="rotate(90 285 36)" fill="#1589D4"/>
<circle cx="275" cy="36" r="1" transform="rotate(90 275 36)" fill="#1589D4"/>
<circle cx="265" cy="36" r="1" transform="rotate(90 265 36)" fill="#1589D4"/>
<circle cx="255" cy="36" r="1" transform="rotate(90 255 36)" fill="#1589D4"/>
<circle cx="245" cy="36" r="1" transform="rotate(90 245 36)" fill="#1589D4"/>
<circle cx="235" cy="36" r="1" transform="rotate(90 235 36)" fill="#1589D4"/>
<circle cx="225" cy="36" r="1" transform="rotate(90 225 36)" fill="#1589D4"/>
<circle cx="215" cy="36" r="1" transform="rotate(90 215 36)" fill="#1589D4"/>
<circle cx="205" cy="36" r="1" transform="rotate(90 205 36)" fill="#1589D4"/>
<circle cx="195" cy="36" r="1" transform="rotate(90 195 36)" fill="#1589D4"/>
<circle cx="185" cy="36" r="1" transform="rotate(90 185 36)" fill="#1589D4"/>
<circle cx="175" cy="36" r="1" transform="rotate(90 175 36)" fill="#1589D4"/>
<circle cx="165" cy="36" r="1" transform="rotate(90 165 36)" fill="#1589D4"/>
<circle cx="155" cy="36" r="1" transform="rotate(90 155 36)" fill="#1589D4"/>
<circle cx="145" cy="36" r="1" transform="rotate(90 145 36)" fill="#1589D4"/>
<circle cx="135" cy="36" r="1" transform="rotate(90 135 36)" fill="#1589D4"/>
<circle cx="125" cy="36" r="1" transform="rotate(90 125 36)" fill="#1589D4"/>
<circle cx="115" cy="36" r="1" transform="rotate(90 115 36)" fill="#1589D4"/>
<circle cx="105" cy="36" r="1" transform="rotate(90 105 36)" fill="#1589D4"/>
<circle cx="95" cy="36" r="1" transform="rotate(90 95 36)" fill="#1589D4"/>
<circle cx="85" cy="36" r="1" transform="rotate(90 85 36)" fill="#1589D4"/>
<circle cx="75" cy="36" r="1" transform="rotate(90 75 36)" fill="#1589D4"/>
<circle cx="65" cy="36" r="1" transform="rotate(90 65 36)" fill="#1589D4"/>
<circle cx="55" cy="36" r="1" transform="rotate(90 55 36)" fill="#1589D4"/>
<circle cx="45" cy="36" r="1" transform="rotate(90 45 36)" fill="#1589D4"/>
<circle cx="35" cy="36" r="1" transform="rotate(90 35 36)" fill="#1589D4"/>
<circle cx="25" cy="36" r="1" transform="rotate(90 25 36)" fill="#1589D4"/>
<circle cx="15" cy="36" r="1" transform="rotate(90 15 36)" fill="#1589D4"/>
<circle cx="5" cy="36" r="1" transform="rotate(90 5 36)" fill="#1589D4"/>
<circle cx="365" cy="46" r="1" transform="rotate(90 365 46)" fill="#1589D4"/>
<circle cx="355" cy="46" r="1" transform="rotate(90 355 46)" fill="#1589D4"/>
<circle cx="345" cy="46" r="1" transform="rotate(90 345 46)" fill="#1589D4"/>
<circle cx="335" cy="46" r="1" transform="rotate(90 335 46)" fill="#1589D4"/>
<circle cx="325" cy="46" r="1" transform="rotate(90 325 46)" fill="#1589D4"/>
<circle cx="315" cy="46" r="1" transform="rotate(90 315 46)" fill="#1589D4"/>
<circle cx="305" cy="46" r="1" transform="rotate(90 305 46)" fill="#1589D4"/>
<circle cx="295" cy="46" r="1" transform="rotate(90 295 46)" fill="#1589D4"/>
<circle cx="285" cy="46" r="1" transform="rotate(90 285 46)" fill="#1589D4"/>
<circle cx="275" cy="46" r="1" transform="rotate(90 275 46)" fill="#1589D4"/>
<circle cx="265" cy="46" r="1" transform="rotate(90 265 46)" fill="#1589D4"/>
<circle cx="255" cy="46" r="1" transform="rotate(90 255 46)" fill="#1589D4"/>
<circle cx="245" cy="46" r="1" transform="rotate(90 245 46)" fill="#1589D4"/>
<circle cx="235" cy="46" r="1" transform="rotate(90 235 46)" fill="#1589D4"/>
<circle cx="225" cy="46" r="1" transform="rotate(90 225 46)" fill="#1589D4"/>
<circle cx="215" cy="46" r="1" transform="rotate(90 215 46)" fill="#1589D4"/>
<circle cx="205" cy="46" r="1" transform="rotate(90 205 46)" fill="#1589D4"/>
<circle cx="195" cy="46" r="1" transform="rotate(90 195 46)" fill="#1589D4"/>
<circle cx="185" cy="46" r="1" transform="rotate(90 185 46)" fill="#1589D4"/>
<circle cx="175" cy="46" r="1" transform="rotate(90 175 46)" fill="#1589D4"/>
<circle cx="165" cy="46" r="1" transform="rotate(90 165 46)" fill="#1589D4"/>
<circle cx="155" cy="46" r="1" transform="rotate(90 155 46)" fill="#1589D4"/>
<circle cx="145" cy="46" r="1" transform="rotate(90 145 46)" fill="#1589D4"/>
<circle cx="135" cy="46" r="1" transform="rotate(90 135 46)" fill="#1589D4"/>
<circle cx="125" cy="46" r="1" transform="rotate(90 125 46)" fill="#1589D4"/>
<circle cx="115" cy="46" r="1" transform="rotate(90 115 46)" fill="#1589D4"/>
<circle cx="105" cy="46" r="1" transform="rotate(90 105 46)" fill="#1589D4"/>
<circle cx="95" cy="46" r="1" transform="rotate(90 95 46)" fill="#1589D4"/>
<circle cx="85" cy="46" r="1" transform="rotate(90 85 46)" fill="#1589D4"/>
<circle cx="75" cy="46" r="1" transform="rotate(90 75 46)" fill="#1589D4"/>
<circle cx="65" cy="46" r="1" transform="rotate(90 65 46)" fill="#1589D4"/>
<circle cx="55" cy="46" r="1" transform="rotate(90 55 46)" fill="#1589D4"/>
<circle cx="45" cy="46" r="1" transform="rotate(90 45 46)" fill="#1589D4"/>
<circle cx="35" cy="46" r="1" transform="rotate(90 35 46)" fill="#1589D4"/>
<circle cx="25" cy="46" r="1" transform="rotate(90 25 46)" fill="#1589D4"/>
<circle cx="15" cy="46" r="1" transform="rotate(90 15 46)" fill="#1589D4"/>
<circle cx="5" cy="46" r="1" transform="rotate(90 5 46)" fill="#1589D4"/>
<circle cx="365" cy="56" r="1" transform="rotate(90 365 56)" fill="#1589D4"/>
<circle cx="355" cy="56" r="1" transform="rotate(90 355 56)" fill="#1589D4"/>
<circle cx="345" cy="56" r="1" transform="rotate(90 345 56)" fill="#1589D4"/>
<circle cx="335" cy="56" r="1" transform="rotate(90 335 56)" fill="#1589D4"/>
<circle cx="325" cy="56" r="1" transform="rotate(90 325 56)" fill="#1589D4"/>
<circle cx="315" cy="56" r="1" transform="rotate(90 315 56)" fill="#1589D4"/>
<circle cx="305" cy="56" r="1" transform="rotate(90 305 56)" fill="#1589D4"/>
<circle cx="295" cy="56" r="1" transform="rotate(90 295 56)" fill="#1589D4"/>
<circle cx="285" cy="56" r="1" transform="rotate(90 285 56)" fill="#1589D4"/>
<circle cx="275" cy="56" r="1" transform="rotate(90 275 56)" fill="#1589D4"/>
<circle cx="265" cy="56" r="1" transform="rotate(90 265 56)" fill="#1589D4"/>
<circle cx="255" cy="56" r="1" transform="rotate(90 255 56)" fill="#1589D4"/>
<circle cx="245" cy="56" r="1" transform="rotate(90 245 56)" fill="#1589D4"/>
<circle cx="235" cy="56" r="1" transform="rotate(90 235 56)" fill="#1589D4"/>
<circle cx="225" cy="56" r="1" transform="rotate(90 225 56)" fill="#1589D4"/>
<circle cx="215" cy="56" r="1" transform="rotate(90 215 56)" fill="#1589D4"/>
<circle cx="205" cy="56" r="1" transform="rotate(90 205 56)" fill="#1589D4"/>
<circle cx="195" cy="56" r="1" transform="rotate(90 195 56)" fill="#1589D4"/>
<circle cx="185" cy="56" r="1" transform="rotate(90 185 56)" fill="#1589D4"/>
<circle cx="175" cy="56" r="1" transform="rotate(90 175 56)" fill="#1589D4"/>
<circle cx="165" cy="56" r="1" transform="rotate(90 165 56)" fill="#1589D4"/>
<circle cx="155" cy="56" r="1" transform="rotate(90 155 56)" fill="#1589D4"/>
<circle cx="145" cy="56" r="1" transform="rotate(90 145 56)" fill="#1589D4"/>
<circle cx="135" cy="56" r="1" transform="rotate(90 135 56)" fill="#1589D4"/>
<circle cx="125" cy="56" r="1" transform="rotate(90 125 56)" fill="#1589D4"/>
<circle cx="115" cy="56" r="1" transform="rotate(90 115 56)" fill="#1589D4"/>
<circle cx="105" cy="56" r="1" transform="rotate(90 105 56)" fill="#1589D4"/>
<circle cx="95" cy="56" r="1" transform="rotate(90 95 56)" fill="#1589D4"/>
<circle cx="85" cy="56" r="1" transform="rotate(90 85 56)" fill="#1589D4"/>
<circle cx="75" cy="56" r="1" transform="rotate(90 75 56)" fill="#1589D4"/>
<circle cx="65" cy="56" r="1" transform="rotate(90 65 56)" fill="#1589D4"/>
<circle cx="55" cy="56" r="1" transform="rotate(90 55 56)" fill="#1589D4"/>
<circle cx="45" cy="56" r="1" transform="rotate(90 45 56)" fill="#1589D4"/>
<circle cx="35" cy="56" r="1" transform="rotate(90 35 56)" fill="#1589D4"/>
<circle cx="25" cy="56" r="1" transform="rotate(90 25 56)" fill="#1589D4"/>
<circle cx="15" cy="56" r="1" transform="rotate(90 15 56)" fill="#1589D4"/>
<circle cx="5" cy="56" r="1" transform="rotate(90 5 56)" fill="#1589D4"/>
<circle cx="365" cy="66" r="1" transform="rotate(90 365 66)" fill="#1589D4"/>
<circle cx="355" cy="66" r="1" transform="rotate(90 355 66)" fill="#1589D4"/>
<circle cx="345" cy="66" r="1" transform="rotate(90 345 66)" fill="#1589D4"/>
<circle cx="335" cy="66" r="1" transform="rotate(90 335 66)" fill="#1589D4"/>
<circle cx="325" cy="66" r="1" transform="rotate(90 325 66)" fill="#1589D4"/>
<circle cx="315" cy="66" r="1" transform="rotate(90 315 66)" fill="#1589D4"/>
<circle cx="305" cy="66" r="1" transform="rotate(90 305 66)" fill="#1589D4"/>
<circle cx="295" cy="66" r="1" transform="rotate(90 295 66)" fill="#1589D4"/>
<circle cx="285" cy="66" r="1" transform="rotate(90 285 66)" fill="#1589D4"/>
<circle cx="275" cy="66" r="1" transform="rotate(90 275 66)" fill="#1589D4"/>
<circle cx="265" cy="66" r="1" transform="rotate(90 265 66)" fill="#1589D4"/>
<circle cx="255" cy="66" r="1" transform="rotate(90 255 66)" fill="#1589D4"/>
<circle cx="245" cy="66" r="1" transform="rotate(90 245 66)" fill="#1589D4"/>
<circle cx="235" cy="66" r="1" transform="rotate(90 235 66)" fill="#1589D4"/>
<circle cx="225" cy="66" r="1" transform="rotate(90 225 66)" fill="#1589D4"/>
<circle cx="215" cy="66" r="1" transform="rotate(90 215 66)" fill="#1589D4"/>
<circle cx="205" cy="66" r="1" transform="rotate(90 205 66)" fill="#1589D4"/>
<circle cx="195" cy="66" r="1" transform="rotate(90 195 66)" fill="#1589D4"/>
<circle cx="185" cy="66" r="1" transform="rotate(90 185 66)" fill="#1589D4"/>
<circle cx="175" cy="66" r="1" transform="rotate(90 175 66)" fill="#1589D4"/>
<circle cx="165" cy="66" r="1" transform="rotate(90 165 66)" fill="#1589D4"/>
<circle cx="155" cy="66" r="1" transform="rotate(90 155 66)" fill="#1589D4"/>
<circle cx="145" cy="66" r="1" transform="rotate(90 145 66)" fill="#1589D4"/>
<circle cx="135" cy="66" r="1" transform="rotate(90 135 66)" fill="#1589D4"/>
<circle cx="125" cy="66" r="1" transform="rotate(90 125 66)" fill="#1589D4"/>
<circle cx="115" cy="66" r="1" transform="rotate(90 115 66)" fill="#1589D4"/>
<circle cx="105" cy="66" r="1" transform="rotate(90 105 66)" fill="#1589D4"/>
<circle cx="95" cy="66" r="1" transform="rotate(90 95 66)" fill="#1589D4"/>
<circle cx="85" cy="66" r="1" transform="rotate(90 85 66)" fill="#1589D4"/>
<circle cx="75" cy="66" r="1" transform="rotate(90 75 66)" fill="#1589D4"/>
<circle cx="65" cy="66" r="1" transform="rotate(90 65 66)" fill="#1589D4"/>
<circle cx="55" cy="66" r="1" transform="rotate(90 55 66)" fill="#1589D4"/>
<circle cx="45" cy="66" r="1" transform="rotate(90 45 66)" fill="#1589D4"/>
<circle cx="35" cy="66" r="1" transform="rotate(90 35 66)" fill="#1589D4"/>
<circle cx="25" cy="66" r="1" transform="rotate(90 25 66)" fill="#1589D4"/>
<circle cx="15" cy="66" r="1" transform="rotate(90 15 66)" fill="#1589D4"/>
<circle cx="5" cy="66" r="1" transform="rotate(90 5 66)" fill="#1589D4"/>
<circle cx="365" cy="76" r="1" transform="rotate(90 365 76)" fill="#1589D4"/>
<circle cx="355" cy="76" r="1" transform="rotate(90 355 76)" fill="#1589D4"/>
<circle cx="345" cy="76" r="1" transform="rotate(90 345 76)" fill="#1589D4"/>
<circle cx="335" cy="76" r="1" transform="rotate(90 335 76)" fill="#1589D4"/>
<circle cx="325" cy="76" r="1" transform="rotate(90 325 76)" fill="#1589D4"/>
<circle cx="315" cy="76" r="1" transform="rotate(90 315 76)" fill="#1589D4"/>
<circle cx="305" cy="76" r="1" transform="rotate(90 305 76)" fill="#1589D4"/>
<circle cx="295" cy="76" r="1" transform="rotate(90 295 76)" fill="#1589D4"/>
<circle cx="285" cy="76" r="1" transform="rotate(90 285 76)" fill="#1589D4"/>
<circle cx="275" cy="76" r="1" transform="rotate(90 275 76)" fill="#1589D4"/>
<circle cx="265" cy="76" r="1" transform="rotate(90 265 76)" fill="#1589D4"/>
<circle cx="255" cy="76" r="1" transform="rotate(90 255 76)" fill="#1589D4"/>
<circle cx="245" cy="76" r="1" transform="rotate(90 245 76)" fill="#1589D4"/>
<circle cx="235" cy="76" r="1" transform="rotate(90 235 76)" fill="#1589D4"/>
<circle cx="225" cy="76" r="1" transform="rotate(90 225 76)" fill="#1589D4"/>
<circle cx="215" cy="76" r="1" transform="rotate(90 215 76)" fill="#1589D4"/>
<circle cx="205" cy="76" r="1" transform="rotate(90 205 76)" fill="#1589D4"/>
<circle cx="195" cy="76" r="1" transform="rotate(90 195 76)" fill="#1589D4"/>
<circle cx="185" cy="76" r="1" transform="rotate(90 185 76)" fill="#1589D4"/>
<circle cx="175" cy="76" r="1" transform="rotate(90 175 76)" fill="#1589D4"/>
<circle cx="165" cy="76" r="1" transform="rotate(90 165 76)" fill="#1589D4"/>
<circle cx="155" cy="76" r="1" transform="rotate(90 155 76)" fill="#1589D4"/>
<circle cx="145" cy="76" r="1" transform="rotate(90 145 76)" fill="#1589D4"/>
<circle cx="135" cy="76" r="1" transform="rotate(90 135 76)" fill="#1589D4"/>
<circle cx="125" cy="76" r="1" transform="rotate(90 125 76)" fill="#1589D4"/>
<circle cx="115" cy="76" r="1" transform="rotate(90 115 76)" fill="#1589D4"/>
<circle cx="105" cy="76" r="1" transform="rotate(90 105 76)" fill="#1589D4"/>
<circle cx="95" cy="76" r="1" transform="rotate(90 95 76)" fill="#1589D4"/>
<circle cx="85" cy="76" r="1" transform="rotate(90 85 76)" fill="#1589D4"/>
<circle cx="75" cy="76" r="1" transform="rotate(90 75 76)" fill="#1589D4"/>
<circle cx="65" cy="76" r="1" transform="rotate(90 65 76)" fill="#1589D4"/>
<circle cx="55" cy="76" r="1" transform="rotate(90 55 76)" fill="#1589D4"/>
<circle cx="45" cy="76" r="1" transform="rotate(90 45 76)" fill="#1589D4"/>
<circle cx="35" cy="76" r="1" transform="rotate(90 35 76)" fill="#1589D4"/>
<circle cx="25" cy="76" r="1" transform="rotate(90 25 76)" fill="#1589D4"/>
<circle cx="15" cy="76" r="1" transform="rotate(90 15 76)" fill="#1589D4"/>
<circle cx="5" cy="76" r="1" transform="rotate(90 5 76)" fill="#1589D4"/>
<circle cx="365" cy="86" r="1" transform="rotate(90 365 86)" fill="#1589D4"/>
<circle cx="355" cy="86" r="1" transform="rotate(90 355 86)" fill="#1589D4"/>
<circle cx="345" cy="86" r="1" transform="rotate(90 345 86)" fill="#1589D4"/>
<circle cx="335" cy="86" r="1" transform="rotate(90 335 86)" fill="#1589D4"/>
<circle cx="325" cy="86" r="1" transform="rotate(90 325 86)" fill="#1589D4"/>
<circle cx="315" cy="86" r="1" transform="rotate(90 315 86)" fill="#1589D4"/>
<circle cx="305" cy="86" r="1" transform="rotate(90 305 86)" fill="#1589D4"/>
<circle cx="295" cy="86" r="1" transform="rotate(90 295 86)" fill="#1589D4"/>
<circle cx="285" cy="86" r="1" transform="rotate(90 285 86)" fill="#1589D4"/>
<circle cx="275" cy="86" r="1" transform="rotate(90 275 86)" fill="#1589D4"/>
<circle cx="265" cy="86" r="1" transform="rotate(90 265 86)" fill="#1589D4"/>
<circle cx="255" cy="86" r="1" transform="rotate(90 255 86)" fill="#1589D4"/>
<circle cx="245" cy="86" r="1" transform="rotate(90 245 86)" fill="#1589D4"/>
<circle cx="235" cy="86" r="1" transform="rotate(90 235 86)" fill="#1589D4"/>
<circle cx="225" cy="86" r="1" transform="rotate(90 225 86)" fill="#1589D4"/>
<circle cx="215" cy="86" r="1" transform="rotate(90 215 86)" fill="#1589D4"/>
<circle cx="205" cy="86" r="1" transform="rotate(90 205 86)" fill="#1589D4"/>
<circle cx="195" cy="86" r="1" transform="rotate(90 195 86)" fill="#1589D4"/>
<circle cx="185" cy="86" r="1" transform="rotate(90 185 86)" fill="#1589D4"/>
<circle cx="175" cy="86" r="1" transform="rotate(90 175 86)" fill="#1589D4"/>
<circle cx="165" cy="86" r="1" transform="rotate(90 165 86)" fill="#1589D4"/>
<circle cx="155" cy="86" r="1" transform="rotate(90 155 86)" fill="#1589D4"/>
<circle cx="145" cy="86" r="1" transform="rotate(90 145 86)" fill="#1589D4"/>
<circle cx="135" cy="86" r="1" transform="rotate(90 135 86)" fill="#1589D4"/>
<circle cx="125" cy="86" r="1" transform="rotate(90 125 86)" fill="#1589D4"/>
<circle cx="115" cy="86" r="1" transform="rotate(90 115 86)" fill="#1589D4"/>
<circle cx="105" cy="86" r="1" transform="rotate(90 105 86)" fill="#1589D4"/>
<circle cx="95" cy="86" r="1" transform="rotate(90 95 86)" fill="#1589D4"/>
<circle cx="85" cy="86" r="1" transform="rotate(90 85 86)" fill="#1589D4"/>
<circle cx="75" cy="86" r="1" transform="rotate(90 75 86)" fill="#1589D4"/>
<circle cx="65" cy="86" r="1" transform="rotate(90 65 86)" fill="#1589D4"/>
<circle cx="55" cy="86" r="1" transform="rotate(90 55 86)" fill="#1589D4"/>
<circle cx="45" cy="86" r="1" transform="rotate(90 45 86)" fill="#1589D4"/>
<circle cx="35" cy="86" r="1" transform="rotate(90 35 86)" fill="#1589D4"/>
<circle cx="25" cy="86" r="1" transform="rotate(90 25 86)" fill="#1589D4"/>
<circle cx="15" cy="86" r="1" transform="rotate(90 15 86)" fill="#1589D4"/>
<circle cx="5" cy="86" r="1" transform="rotate(90 5 86)" fill="#1589D4"/>
<circle cx="365" cy="96" r="1" transform="rotate(90 365 96)" fill="#1589D4"/>
<circle cx="355" cy="96" r="1" transform="rotate(90 355 96)" fill="#1589D4"/>
<circle cx="345" cy="96" r="1" transform="rotate(90 345 96)" fill="#1589D4"/>
<circle cx="335" cy="96" r="1" transform="rotate(90 335 96)" fill="#1589D4"/>
<circle cx="325" cy="96" r="1" transform="rotate(90 325 96)" fill="#1589D4"/>
<circle cx="315" cy="96" r="1" transform="rotate(90 315 96)" fill="#1589D4"/>
<circle cx="305" cy="96" r="1" transform="rotate(90 305 96)" fill="#1589D4"/>
<circle cx="295" cy="96" r="1" transform="rotate(90 295 96)" fill="#1589D4"/>
<circle cx="285" cy="96" r="1" transform="rotate(90 285 96)" fill="#1589D4"/>
<circle cx="275" cy="96" r="1" transform="rotate(90 275 96)" fill="#1589D4"/>
<circle cx="265" cy="96" r="1" transform="rotate(90 265 96)" fill="#1589D4"/>
<circle cx="255" cy="96" r="1" transform="rotate(90 255 96)" fill="#1589D4"/>
<circle cx="245" cy="96" r="1" transform="rotate(90 245 96)" fill="#1589D4"/>
<circle cx="235" cy="96" r="1" transform="rotate(90 235 96)" fill="#1589D4"/>
<circle cx="225" cy="96" r="1" transform="rotate(90 225 96)" fill="#1589D4"/>
<circle cx="215" cy="96" r="1" transform="rotate(90 215 96)" fill="#1589D4"/>
<circle cx="205" cy="96" r="1" transform="rotate(90 205 96)" fill="#1589D4"/>
<circle cx="195" cy="96" r="1" transform="rotate(90 195 96)" fill="#1589D4"/>
<circle cx="185" cy="96" r="1" transform="rotate(90 185 96)" fill="#1589D4"/>
<circle cx="175" cy="96" r="1" transform="rotate(90 175 96)" fill="#1589D4"/>
<circle cx="165" cy="96" r="1" transform="rotate(90 165 96)" fill="#1589D4"/>
<circle cx="155" cy="96" r="1" transform="rotate(90 155 96)" fill="#1589D4"/>
<circle cx="145" cy="96" r="1" transform="rotate(90 145 96)" fill="#1589D4"/>
<circle cx="135" cy="96" r="1" transform="rotate(90 135 96)" fill="#1589D4"/>
<circle cx="125" cy="96" r="1" transform="rotate(90 125 96)" fill="#1589D4"/>
<circle cx="115" cy="96" r="1" transform="rotate(90 115 96)" fill="#1589D4"/>
<circle cx="105" cy="96" r="1" transform="rotate(90 105 96)" fill="#1589D4"/>
<circle cx="95" cy="96" r="1" transform="rotate(90 95 96)" fill="#1589D4"/>
<circle cx="85" cy="96" r="1" transform="rotate(90 85 96)" fill="#1589D4"/>
<circle cx="75" cy="96" r="1" transform="rotate(90 75 96)" fill="#1589D4"/>
<circle cx="65" cy="96" r="1" transform="rotate(90 65 96)" fill="#1589D4"/>
<circle cx="55" cy="96" r="1" transform="rotate(90 55 96)" fill="#1589D4"/>
<circle cx="45" cy="96" r="1" transform="rotate(90 45 96)" fill="#1589D4"/>
<circle cx="35" cy="96" r="1" transform="rotate(90 35 96)" fill="#1589D4"/>
<circle cx="25" cy="96" r="1" transform="rotate(90 25 96)" fill="#1589D4"/>
<circle cx="15" cy="96" r="1" transform="rotate(90 15 96)" fill="#1589D4"/>
<circle cx="5" cy="96" r="1" transform="rotate(90 5 96)" fill="#1589D4"/>
<circle cx="365" cy="106" r="1" transform="rotate(90 365 106)" fill="#1589D4"/>
<circle cx="355" cy="106" r="1" transform="rotate(90 355 106)" fill="#1589D4"/>
<circle cx="345" cy="106" r="1" transform="rotate(90 345 106)" fill="#1589D4"/>
<circle cx="335" cy="106" r="1" transform="rotate(90 335 106)" fill="#1589D4"/>
<circle cx="325" cy="106" r="1" transform="rotate(90 325 106)" fill="#1589D4"/>
<circle cx="315" cy="106" r="1" transform="rotate(90 315 106)" fill="#1589D4"/>
<circle cx="305" cy="106" r="1" transform="rotate(90 305 106)" fill="#1589D4"/>
<circle cx="295" cy="106" r="1" transform="rotate(90 295 106)" fill="#1589D4"/>
<circle cx="285" cy="106" r="1" transform="rotate(90 285 106)" fill="#1589D4"/>
<circle cx="275" cy="106" r="1" transform="rotate(90 275 106)" fill="#1589D4"/>
<circle cx="265" cy="106" r="1" transform="rotate(90 265 106)" fill="#1589D4"/>
<circle cx="255" cy="106" r="1" transform="rotate(90 255 106)" fill="#1589D4"/>
<circle cx="245" cy="106" r="1" transform="rotate(90 245 106)" fill="#1589D4"/>
<circle cx="235" cy="106" r="1" transform="rotate(90 235 106)" fill="#1589D4"/>
<circle cx="225" cy="106" r="1" transform="rotate(90 225 106)" fill="#1589D4"/>
<circle cx="215" cy="106" r="1" transform="rotate(90 215 106)" fill="#1589D4"/>
<circle cx="205" cy="106" r="1" transform="rotate(90 205 106)" fill="#1589D4"/>
<circle cx="195" cy="106" r="1" transform="rotate(90 195 106)" fill="#1589D4"/>
<circle cx="185" cy="106" r="1" transform="rotate(90 185 106)" fill="#1589D4"/>
<circle cx="175" cy="106" r="1" transform="rotate(90 175 106)" fill="#1589D4"/>
<circle cx="165" cy="106" r="1" transform="rotate(90 165 106)" fill="#1589D4"/>
<circle cx="155" cy="106" r="1" transform="rotate(90 155 106)" fill="#1589D4"/>
<circle cx="145" cy="106" r="1" transform="rotate(90 145 106)" fill="#1589D4"/>
<circle cx="135" cy="106" r="1" transform="rotate(90 135 106)" fill="#1589D4"/>
<circle cx="125" cy="106" r="1" transform="rotate(90 125 106)" fill="#1589D4"/>
<circle cx="115" cy="106" r="1" transform="rotate(90 115 106)" fill="#1589D4"/>
<circle cx="105" cy="106" r="1" transform="rotate(90 105 106)" fill="#1589D4"/>
<circle cx="95" cy="106" r="1" transform="rotate(90 95 106)" fill="#1589D4"/>
<circle cx="85" cy="106" r="1" transform="rotate(90 85 106)" fill="#1589D4"/>
<circle cx="75" cy="106" r="1" transform="rotate(90 75 106)" fill="#1589D4"/>
<circle cx="65" cy="106" r="1" transform="rotate(90 65 106)" fill="#1589D4"/>
<circle cx="55" cy="106" r="1" transform="rotate(90 55 106)" fill="#1589D4"/>
<circle cx="45" cy="106" r="1" transform="rotate(90 45 106)" fill="#1589D4"/>
<circle cx="35" cy="106" r="1" transform="rotate(90 35 106)" fill="#1589D4"/>
<circle cx="25" cy="106" r="1" transform="rotate(90 25 106)" fill="#1589D4"/>
<circle cx="15" cy="106" r="1" transform="rotate(90 15 106)" fill="#1589D4"/>
<circle cx="5" cy="106" r="1" transform="rotate(90 5 106)" fill="#1589D4"/>
<circle cx="365" cy="116" r="1" transform="rotate(90 365 116)" fill="#1589D4"/>
<circle cx="355" cy="116" r="1" transform="rotate(90 355 116)" fill="#1589D4"/>
<circle cx="345" cy="116" r="1" transform="rotate(90 345 116)" fill="#1589D4"/>
<circle cx="335" cy="116" r="1" transform="rotate(90 335 116)" fill="#1589D4"/>
<circle cx="325" cy="116" r="1" transform="rotate(90 325 116)" fill="#1589D4"/>
<circle cx="315" cy="116" r="1" transform="rotate(90 315 116)" fill="#1589D4"/>
<circle cx="305" cy="116" r="1" transform="rotate(90 305 116)" fill="#1589D4"/>
<circle cx="295" cy="116" r="1" transform="rotate(90 295 116)" fill="#1589D4"/>
<circle cx="285" cy="116" r="1" transform="rotate(90 285 116)" fill="#1589D4"/>
<circle cx="275" cy="116" r="1" transform="rotate(90 275 116)" fill="#1589D4"/>
<circle cx="265" cy="116" r="1" transform="rotate(90 265 116)" fill="#1589D4"/>
<circle cx="255" cy="116" r="1" transform="rotate(90 255 116)" fill="#1589D4"/>
<circle cx="245" cy="116" r="1" transform="rotate(90 245 116)" fill="#1589D4"/>
<circle cx="235" cy="116" r="1" transform="rotate(90 235 116)" fill="#1589D4"/>
<circle cx="225" cy="116" r="1" transform="rotate(90 225 116)" fill="#1589D4"/>
<circle cx="215" cy="116" r="1" transform="rotate(90 215 116)" fill="#1589D4"/>
<circle cx="205" cy="116" r="1" transform="rotate(90 205 116)" fill="#1589D4"/>
<circle cx="195" cy="116" r="1" transform="rotate(90 195 116)" fill="#1589D4"/>
<circle cx="185" cy="116" r="1" transform="rotate(90 185 116)" fill="#1589D4"/>
<circle cx="175" cy="116" r="1" transform="rotate(90 175 116)" fill="#1589D4"/>
<circle cx="165" cy="116" r="1" transform="rotate(90 165 116)" fill="#1589D4"/>
<circle cx="155" cy="116" r="1" transform="rotate(90 155 116)" fill="#1589D4"/>
<circle cx="145" cy="116" r="1" transform="rotate(90 145 116)" fill="#1589D4"/>
<circle cx="135" cy="116" r="1" transform="rotate(90 135 116)" fill="#1589D4"/>
<circle cx="125" cy="116" r="1" transform="rotate(90 125 116)" fill="#1589D4"/>
<circle cx="115" cy="116" r="1" transform="rotate(90 115 116)" fill="#1589D4"/>
<circle cx="105" cy="116" r="1" transform="rotate(90 105 116)" fill="#1589D4"/>
<circle cx="95" cy="116" r="1" transform="rotate(90 95 116)" fill="#1589D4"/>
<circle cx="85" cy="116" r="1" transform="rotate(90 85 116)" fill="#1589D4"/>
<circle cx="75" cy="116" r="1" transform="rotate(90 75 116)" fill="#1589D4"/>
<circle cx="65" cy="116" r="1" transform="rotate(90 65 116)" fill="#1589D4"/>
<circle cx="55" cy="116" r="1" transform="rotate(90 55 116)" fill="#1589D4"/>
<circle cx="45" cy="116" r="1" transform="rotate(90 45 116)" fill="#1589D4"/>
<circle cx="35" cy="116" r="1" transform="rotate(90 35 116)" fill="#1589D4"/>
<circle cx="25" cy="116" r="1" transform="rotate(90 25 116)" fill="#1589D4"/>
<circle cx="15" cy="116" r="1" transform="rotate(90 15 116)" fill="#1589D4"/>
<circle cx="5" cy="116" r="1" transform="rotate(90 5 116)" fill="#1589D4"/>
<circle cx="365" cy="126" r="1" transform="rotate(90 365 126)" fill="#1589D4"/>
<circle cx="355" cy="126" r="1" transform="rotate(90 355 126)" fill="#1589D4"/>
<circle cx="345" cy="126" r="1" transform="rotate(90 345 126)" fill="#1589D4"/>
<circle cx="335" cy="126" r="1" transform="rotate(90 335 126)" fill="#1589D4"/>
<circle cx="325" cy="126" r="1" transform="rotate(90 325 126)" fill="#1589D4"/>
<circle cx="315" cy="126" r="1" transform="rotate(90 315 126)" fill="#1589D4"/>
<circle cx="305" cy="126" r="1" transform="rotate(90 305 126)" fill="#1589D4"/>
<circle cx="295" cy="126" r="1" transform="rotate(90 295 126)" fill="#1589D4"/>
<circle cx="285" cy="126" r="1" transform="rotate(90 285 126)" fill="#1589D4"/>
<circle cx="275" cy="126" r="1" transform="rotate(90 275 126)" fill="#1589D4"/>
<circle cx="265" cy="126" r="1" transform="rotate(90 265 126)" fill="#1589D4"/>
<circle cx="255" cy="126" r="1" transform="rotate(90 255 126)" fill="#1589D4"/>
<circle cx="245" cy="126" r="1" transform="rotate(90 245 126)" fill="#1589D4"/>
<circle cx="235" cy="126" r="1" transform="rotate(90 235 126)" fill="#1589D4"/>
<circle cx="225" cy="126" r="1" transform="rotate(90 225 126)" fill="#1589D4"/>
<circle cx="215" cy="126" r="1" transform="rotate(90 215 126)" fill="#1589D4"/>
<circle cx="205" cy="126" r="1" transform="rotate(90 205 126)" fill="#1589D4"/>
<circle cx="195" cy="126" r="1" transform="rotate(90 195 126)" fill="#1589D4"/>
<circle cx="185" cy="126" r="1" transform="rotate(90 185 126)" fill="#1589D4"/>
<circle cx="175" cy="126" r="1" transform="rotate(90 175 126)" fill="#1589D4"/>
<circle cx="165" cy="126" r="1" transform="rotate(90 165 126)" fill="#1589D4"/>
<circle cx="155" cy="126" r="1" transform="rotate(90 155 126)" fill="#1589D4"/>
<circle cx="145" cy="126" r="1" transform="rotate(90 145 126)" fill="#1589D4"/>
<circle cx="135" cy="126" r="1" transform="rotate(90 135 126)" fill="#1589D4"/>
<circle cx="125" cy="126" r="1" transform="rotate(90 125 126)" fill="#1589D4"/>
<circle cx="115" cy="126" r="1" transform="rotate(90 115 126)" fill="#1589D4"/>
<circle cx="105" cy="126" r="1" transform="rotate(90 105 126)" fill="#1589D4"/>
<circle cx="95" cy="126" r="1" transform="rotate(90 95 126)" fill="#1589D4"/>
<circle cx="85" cy="126" r="1" transform="rotate(90 85 126)" fill="#1589D4"/>
<circle cx="75" cy="126" r="1" transform="rotate(90 75 126)" fill="#1589D4"/>
<circle cx="65" cy="126" r="1" transform="rotate(90 65 126)" fill="#1589D4"/>
<circle cx="55" cy="126" r="1" transform="rotate(90 55 126)" fill="#1589D4"/>
<circle cx="45" cy="126" r="1" transform="rotate(90 45 126)" fill="#1589D4"/>
<circle cx="35" cy="126" r="1" transform="rotate(90 35 126)" fill="#1589D4"/>
<circle cx="25" cy="126" r="1" transform="rotate(90 25 126)" fill="#1589D4"/>
<circle cx="15" cy="126" r="1" transform="rotate(90 15 126)" fill="#1589D4"/>
<circle cx="5" cy="126" r="1" transform="rotate(90 5 126)" fill="#1589D4"/>
<circle cx="365" cy="136" r="1" transform="rotate(90 365 136)" fill="#1589D4"/>
<circle cx="355" cy="136" r="1" transform="rotate(90 355 136)" fill="#1589D4"/>
<circle cx="345" cy="136" r="1" transform="rotate(90 345 136)" fill="#1589D4"/>
<circle cx="335" cy="136" r="1" transform="rotate(90 335 136)" fill="#1589D4"/>
<circle cx="325" cy="136" r="1" transform="rotate(90 325 136)" fill="#1589D4"/>
<circle cx="315" cy="136" r="1" transform="rotate(90 315 136)" fill="#1589D4"/>
<circle cx="305" cy="136" r="1" transform="rotate(90 305 136)" fill="#1589D4"/>
<circle cx="295" cy="136" r="1" transform="rotate(90 295 136)" fill="#1589D4"/>
<circle cx="285" cy="136" r="1" transform="rotate(90 285 136)" fill="#1589D4"/>
<circle cx="275" cy="136" r="1" transform="rotate(90 275 136)" fill="#1589D4"/>
<circle cx="265" cy="136" r="1" transform="rotate(90 265 136)" fill="#1589D4"/>
<circle cx="255" cy="136" r="1" transform="rotate(90 255 136)" fill="#1589D4"/>
<circle cx="245" cy="136" r="1" transform="rotate(90 245 136)" fill="#1589D4"/>
<circle cx="235" cy="136" r="1" transform="rotate(90 235 136)" fill="#1589D4"/>
<circle cx="225" cy="136" r="1" transform="rotate(90 225 136)" fill="#1589D4"/>
<circle cx="215" cy="136" r="1" transform="rotate(90 215 136)" fill="#1589D4"/>
<circle cx="205" cy="136" r="1" transform="rotate(90 205 136)" fill="#1589D4"/>
<circle cx="195" cy="136" r="1" transform="rotate(90 195 136)" fill="#1589D4"/>
<circle cx="185" cy="136" r="1" transform="rotate(90 185 136)" fill="#1589D4"/>
<circle cx="175" cy="136" r="1" transform="rotate(90 175 136)" fill="#1589D4"/>
<circle cx="165" cy="136" r="1" transform="rotate(90 165 136)" fill="#1589D4"/>
<circle cx="155" cy="136" r="1" transform="rotate(90 155 136)" fill="#1589D4"/>
<circle cx="145" cy="136" r="1" transform="rotate(90 145 136)" fill="#1589D4"/>
<circle cx="135" cy="136" r="1" transform="rotate(90 135 136)" fill="#1589D4"/>
<circle cx="125" cy="136" r="1" transform="rotate(90 125 136)" fill="#1589D4"/>
<circle cx="115" cy="136" r="1" transform="rotate(90 115 136)" fill="#1589D4"/>
<circle cx="105" cy="136" r="1" transform="rotate(90 105 136)" fill="#1589D4"/>
<circle cx="95" cy="136" r="1" transform="rotate(90 95 136)" fill="#1589D4"/>
<circle cx="85" cy="136" r="1" transform="rotate(90 85 136)" fill="#1589D4"/>
<circle cx="75" cy="136" r="1" transform="rotate(90 75 136)" fill="#1589D4"/>
<circle cx="65" cy="136" r="1" transform="rotate(90 65 136)" fill="#1589D4"/>
<circle cx="55" cy="136" r="1" transform="rotate(90 55 136)" fill="#1589D4"/>
<circle cx="45" cy="136" r="1" transform="rotate(90 45 136)" fill="#1589D4"/>
<circle cx="35" cy="136" r="1" transform="rotate(90 35 136)" fill="#1589D4"/>
<circle cx="25" cy="136" r="1" transform="rotate(90 25 136)" fill="#1589D4"/>
<circle cx="15" cy="136" r="1" transform="rotate(90 15 136)" fill="#1589D4"/>
<circle cx="5" cy="136" r="1" transform="rotate(90 5 136)" fill="#1589D4"/>
</g>
</svg>
