<svg width="185" height="461" viewBox="0 0 185 461" fill="none" xmlns="http://www.w3.org/2000/svg">
<mask id="mask0" mask-type="alpha" maskUnits="userSpaceOnUse" x="0" y="0" width="185" height="461">
<rect width="185" height="461" fill="#C4C4C4"/>
</mask>
<g mask="url(#mask0)">
<circle cx="8" cy="6" r="1" fill="#1589D4"/>
<circle cx="8" cy="16" r="1" fill="#1589D4"/>
<circle cx="8" cy="26" r="1" fill="#1589D4"/>
<circle cx="8" cy="36" r="1" fill="#1589D4"/>
<circle cx="8" cy="46" r="1" fill="#1589D4"/>
<circle cx="8" cy="56" r="1" fill="#1589D4"/>
<circle cx="8" cy="66" r="1" fill="#1589D4"/>
<circle cx="8" cy="76" r="1" fill="#1589D4"/>
<circle cx="8" cy="86" r="1" fill="#1589D4"/>
<circle cx="8" cy="96" r="1" fill="#1589D4"/>
<circle cx="8" cy="106" r="1" fill="#1589D4"/>
<circle cx="8" cy="116" r="1" fill="#1589D4"/>
<circle cx="8" cy="126" r="1" fill="#1589D4"/>
<circle cx="8" cy="136" r="1" fill="#1589D4"/>
<circle cx="8" cy="146" r="1" fill="#1589D4"/>
<circle cx="8" cy="156" r="1" fill="#1589D4"/>
<circle cx="8" cy="166" r="1" fill="#1589D4"/>
<circle cx="8" cy="176" r="1" fill="#1589D4"/>
<circle cx="8" cy="186" r="1" fill="#1589D4"/>
<circle cx="8" cy="196" r="1" fill="#1589D4"/>
<circle cx="8" cy="206" r="1" fill="#1589D4"/>
<circle cx="8" cy="216" r="1" fill="#1589D4"/>
<circle cx="8" cy="226" r="1" fill="#1589D4"/>
<circle cx="8" cy="236" r="1" fill="#1589D4"/>
<circle cx="8" cy="246" r="1" fill="#1589D4"/>
<circle cx="8" cy="256" r="1" fill="#1589D4"/>
<circle cx="8" cy="266" r="1" fill="#1589D4"/>
<circle cx="8" cy="276" r="1" fill="#1589D4"/>
<circle cx="8" cy="286" r="1" fill="#1589D4"/>
<circle cx="8" cy="296" r="1" fill="#1589D4"/>
<circle cx="8" cy="306" r="1" fill="#1589D4"/>
<circle cx="8" cy="316" r="1" fill="#1589D4"/>
<circle cx="8" cy="326" r="1" fill="#1589D4"/>
<circle cx="8" cy="336" r="1" fill="#1589D4"/>
<circle cx="8" cy="346" r="1" fill="#1589D4"/>
<circle cx="8" cy="356" r="1" fill="#1589D4"/>
<circle cx="8" cy="366" r="1" fill="#1589D4"/>
<circle cx="8" cy="376" r="1" fill="#1589D4"/>
<circle cx="8" cy="386" r="1" fill="#1589D4"/>
<circle cx="8" cy="396" r="1" fill="#1589D4"/>
<circle cx="8" cy="406" r="1" fill="#1589D4"/>
<circle cx="8" cy="416" r="1" fill="#1589D4"/>
<circle cx="8" cy="426" r="1" fill="#1589D4"/>
<circle cx="8" cy="436" r="1" fill="#1589D4"/>
<circle cx="8" cy="446" r="1" fill="#1589D4"/>
<circle cx="8" cy="456" r="1" fill="#1589D4"/>
<circle cx="18" cy="6" r="1" fill="#1589D4"/>
<circle cx="18" cy="16" r="1" fill="#1589D4"/>
<circle cx="18" cy="26" r="1" fill="#1589D4"/>
<circle cx="18" cy="36" r="1" fill="#1589D4"/>
<circle cx="18" cy="46" r="1" fill="#1589D4"/>
<circle cx="18" cy="56" r="1" fill="#1589D4"/>
<circle cx="18" cy="66" r="1" fill="#1589D4"/>
<circle cx="18" cy="76" r="1" fill="#1589D4"/>
<circle cx="18" cy="86" r="1" fill="#1589D4"/>
<circle cx="18" cy="96" r="1" fill="#1589D4"/>
<circle cx="18" cy="106" r="1" fill="#1589D4"/>
<circle cx="18" cy="116" r="1" fill="#1589D4"/>
<circle cx="18" cy="126" r="1" fill="#1589D4"/>
<circle cx="18" cy="136" r="1" fill="#1589D4"/>
<circle cx="18" cy="146" r="1" fill="#1589D4"/>
<circle cx="18" cy="156" r="1" fill="#1589D4"/>
<circle cx="18" cy="166" r="1" fill="#1589D4"/>
<circle cx="18" cy="176" r="1" fill="#1589D4"/>
<circle cx="18" cy="186" r="1" fill="#1589D4"/>
<circle cx="18" cy="196" r="1" fill="#1589D4"/>
<circle cx="18" cy="206" r="1" fill="#1589D4"/>
<circle cx="18" cy="216" r="1" fill="#1589D4"/>
<circle cx="18" cy="226" r="1" fill="#1589D4"/>
<circle cx="18" cy="236" r="1" fill="#1589D4"/>
<circle cx="18" cy="246" r="1" fill="#1589D4"/>
<circle cx="18" cy="256" r="1" fill="#1589D4"/>
<circle cx="18" cy="266" r="1" fill="#1589D4"/>
<circle cx="18" cy="276" r="1" fill="#1589D4"/>
<circle cx="18" cy="286" r="1" fill="#1589D4"/>
<circle cx="18" cy="296" r="1" fill="#1589D4"/>
<circle cx="18" cy="306" r="1" fill="#1589D4"/>
<circle cx="18" cy="316" r="1" fill="#1589D4"/>
<circle cx="18" cy="326" r="1" fill="#1589D4"/>
<circle cx="18" cy="336" r="1" fill="#1589D4"/>
<circle cx="18" cy="346" r="1" fill="#1589D4"/>
<circle cx="18" cy="356" r="1" fill="#1589D4"/>
<circle cx="18" cy="366" r="1" fill="#1589D4"/>
<circle cx="18" cy="376" r="1" fill="#1589D4"/>
<circle cx="18" cy="386" r="1" fill="#1589D4"/>
<circle cx="18" cy="396" r="1" fill="#1589D4"/>
<circle cx="18" cy="406" r="1" fill="#1589D4"/>
<circle cx="18" cy="416" r="1" fill="#1589D4"/>
<circle cx="18" cy="426" r="1" fill="#1589D4"/>
<circle cx="18" cy="436" r="1" fill="#1589D4"/>
<circle cx="18" cy="446" r="1" fill="#1589D4"/>
<circle cx="18" cy="456" r="1" fill="#1589D4"/>
<circle cx="28" cy="6" r="1" fill="#1589D4"/>
<circle cx="28" cy="16" r="1" fill="#1589D4"/>
<circle cx="28" cy="26" r="1" fill="#1589D4"/>
<circle cx="28" cy="36" r="1" fill="#1589D4"/>
<circle cx="28" cy="46" r="1" fill="#1589D4"/>
<circle cx="28" cy="56" r="1" fill="#1589D4"/>
<circle cx="28" cy="66" r="1" fill="#1589D4"/>
<circle cx="28" cy="76" r="1" fill="#1589D4"/>
<circle cx="28" cy="86" r="1" fill="#1589D4"/>
<circle cx="28" cy="96" r="1" fill="#1589D4"/>
<circle cx="28" cy="106" r="1" fill="#1589D4"/>
<circle cx="28" cy="116" r="1" fill="#1589D4"/>
<circle cx="28" cy="126" r="1" fill="#1589D4"/>
<circle cx="28" cy="136" r="1" fill="#1589D4"/>
<circle cx="28" cy="146" r="1" fill="#1589D4"/>
<circle cx="28" cy="156" r="1" fill="#1589D4"/>
<circle cx="28" cy="166" r="1" fill="#1589D4"/>
<circle cx="28" cy="176" r="1" fill="#1589D4"/>
<circle cx="28" cy="186" r="1" fill="#1589D4"/>
<circle cx="28" cy="196" r="1" fill="#1589D4"/>
<circle cx="28" cy="206" r="1" fill="#1589D4"/>
<circle cx="28" cy="216" r="1" fill="#1589D4"/>
<circle cx="28" cy="226" r="1" fill="#1589D4"/>
<circle cx="28" cy="236" r="1" fill="#1589D4"/>
<circle cx="28" cy="246" r="1" fill="#1589D4"/>
<circle cx="28" cy="256" r="1" fill="#1589D4"/>
<circle cx="28" cy="266" r="1" fill="#1589D4"/>
<circle cx="28" cy="276" r="1" fill="#1589D4"/>
<circle cx="28" cy="286" r="1" fill="#1589D4"/>
<circle cx="28" cy="296" r="1" fill="#1589D4"/>
<circle cx="28" cy="306" r="1" fill="#1589D4"/>
<circle cx="28" cy="316" r="1" fill="#1589D4"/>
<circle cx="28" cy="326" r="1" fill="#1589D4"/>
<circle cx="28" cy="336" r="1" fill="#1589D4"/>
<circle cx="28" cy="346" r="1" fill="#1589D4"/>
<circle cx="28" cy="356" r="1" fill="#1589D4"/>
<circle cx="28" cy="366" r="1" fill="#1589D4"/>
<circle cx="28" cy="376" r="1" fill="#1589D4"/>
<circle cx="28" cy="386" r="1" fill="#1589D4"/>
<circle cx="28" cy="396" r="1" fill="#1589D4"/>
<circle cx="28" cy="406" r="1" fill="#1589D4"/>
<circle cx="28" cy="416" r="1" fill="#1589D4"/>
<circle cx="28" cy="426" r="1" fill="#1589D4"/>
<circle cx="28" cy="436" r="1" fill="#1589D4"/>
<circle cx="28" cy="446" r="1" fill="#1589D4"/>
<circle cx="28" cy="456" r="1" fill="#1589D4"/>
<circle cx="38" cy="6" r="1" fill="#1589D4"/>
<circle cx="38" cy="16" r="1" fill="#1589D4"/>
<circle cx="38" cy="26" r="1" fill="#1589D4"/>
<circle cx="38" cy="36" r="1" fill="#1589D4"/>
<circle cx="38" cy="46" r="1" fill="#1589D4"/>
<circle cx="38" cy="56" r="1" fill="#1589D4"/>
<circle cx="38" cy="66" r="1" fill="#1589D4"/>
<circle cx="38" cy="76" r="1" fill="#1589D4"/>
<circle cx="38" cy="86" r="1" fill="#1589D4"/>
<circle cx="38" cy="96" r="1" fill="#1589D4"/>
<circle cx="38" cy="106" r="1" fill="#1589D4"/>
<circle cx="38" cy="116" r="1" fill="#1589D4"/>
<circle cx="38" cy="126" r="1" fill="#1589D4"/>
<circle cx="38" cy="136" r="1" fill="#1589D4"/>
<circle cx="38" cy="146" r="1" fill="#1589D4"/>
<circle cx="38" cy="156" r="1" fill="#1589D4"/>
<circle cx="38" cy="166" r="1" fill="#1589D4"/>
<circle cx="38" cy="176" r="1" fill="#1589D4"/>
<circle cx="38" cy="186" r="1" fill="#1589D4"/>
<circle cx="38" cy="196" r="1" fill="#1589D4"/>
<circle cx="38" cy="206" r="1" fill="#1589D4"/>
<circle cx="38" cy="216" r="1" fill="#1589D4"/>
<circle cx="38" cy="226" r="1" fill="#1589D4"/>
<circle cx="38" cy="236" r="1" fill="#1589D4"/>
<circle cx="38" cy="246" r="1" fill="#1589D4"/>
<circle cx="38" cy="256" r="1" fill="#1589D4"/>
<circle cx="38" cy="266" r="1" fill="#1589D4"/>
<circle cx="38" cy="276" r="1" fill="#1589D4"/>
<circle cx="38" cy="286" r="1" fill="#1589D4"/>
<circle cx="38" cy="296" r="1" fill="#1589D4"/>
<circle cx="38" cy="306" r="1" fill="#1589D4"/>
<circle cx="38" cy="316" r="1" fill="#1589D4"/>
<circle cx="38" cy="326" r="1" fill="#1589D4"/>
<circle cx="38" cy="336" r="1" fill="#1589D4"/>
<circle cx="38" cy="346" r="1" fill="#1589D4"/>
<circle cx="38" cy="356" r="1" fill="#1589D4"/>
<circle cx="38" cy="366" r="1" fill="#1589D4"/>
<circle cx="38" cy="376" r="1" fill="#1589D4"/>
<circle cx="38" cy="386" r="1" fill="#1589D4"/>
<circle cx="38" cy="396" r="1" fill="#1589D4"/>
<circle cx="38" cy="406" r="1" fill="#1589D4"/>
<circle cx="38" cy="416" r="1" fill="#1589D4"/>
<circle cx="38" cy="426" r="1" fill="#1589D4"/>
<circle cx="38" cy="436" r="1" fill="#1589D4"/>
<circle cx="38" cy="446" r="1" fill="#1589D4"/>
<circle cx="38" cy="456" r="1" fill="#1589D4"/>
<circle cx="48" cy="6" r="1" fill="#1589D4"/>
<circle cx="48" cy="16" r="1" fill="#1589D4"/>
<circle cx="48" cy="26" r="1" fill="#1589D4"/>
<circle cx="48" cy="36" r="1" fill="#1589D4"/>
<circle cx="48" cy="46" r="1" fill="#1589D4"/>
<circle cx="48" cy="56" r="1" fill="#1589D4"/>
<circle cx="48" cy="66" r="1" fill="#1589D4"/>
<circle cx="48" cy="76" r="1" fill="#1589D4"/>
<circle cx="48" cy="86" r="1" fill="#1589D4"/>
<circle cx="48" cy="96" r="1" fill="#1589D4"/>
<circle cx="48" cy="106" r="1" fill="#1589D4"/>
<circle cx="48" cy="116" r="1" fill="#1589D4"/>
<circle cx="48" cy="126" r="1" fill="#1589D4"/>
<circle cx="48" cy="136" r="1" fill="#1589D4"/>
<circle cx="48" cy="146" r="1" fill="#1589D4"/>
<circle cx="48" cy="156" r="1" fill="#1589D4"/>
<circle cx="48" cy="166" r="1" fill="#1589D4"/>
<circle cx="48" cy="176" r="1" fill="#1589D4"/>
<circle cx="48" cy="186" r="1" fill="#1589D4"/>
<circle cx="48" cy="196" r="1" fill="#1589D4"/>
<circle cx="48" cy="206" r="1" fill="#1589D4"/>
<circle cx="48" cy="216" r="1" fill="#1589D4"/>
<circle cx="48" cy="226" r="1" fill="#1589D4"/>
<circle cx="48" cy="236" r="1" fill="#1589D4"/>
<circle cx="48" cy="246" r="1" fill="#1589D4"/>
<circle cx="48" cy="256" r="1" fill="#1589D4"/>
<circle cx="48" cy="266" r="1" fill="#1589D4"/>
<circle cx="48" cy="276" r="1" fill="#1589D4"/>
<circle cx="48" cy="286" r="1" fill="#1589D4"/>
<circle cx="48" cy="296" r="1" fill="#1589D4"/>
<circle cx="48" cy="306" r="1" fill="#1589D4"/>
<circle cx="48" cy="316" r="1" fill="#1589D4"/>
<circle cx="48" cy="326" r="1" fill="#1589D4"/>
<circle cx="48" cy="336" r="1" fill="#1589D4"/>
<circle cx="48" cy="346" r="1" fill="#1589D4"/>
<circle cx="48" cy="356" r="1" fill="#1589D4"/>
<circle cx="48" cy="366" r="1" fill="#1589D4"/>
<circle cx="48" cy="376" r="1" fill="#1589D4"/>
<circle cx="48" cy="386" r="1" fill="#1589D4"/>
<circle cx="48" cy="396" r="1" fill="#1589D4"/>
<circle cx="48" cy="406" r="1" fill="#1589D4"/>
<circle cx="48" cy="416" r="1" fill="#1589D4"/>
<circle cx="48" cy="426" r="1" fill="#1589D4"/>
<circle cx="48" cy="436" r="1" fill="#1589D4"/>
<circle cx="48" cy="446" r="1" fill="#1589D4"/>
<circle cx="48" cy="456" r="1" fill="#1589D4"/>
<circle cx="58" cy="6" r="1" fill="#1589D4"/>
<circle cx="58" cy="16" r="1" fill="#1589D4"/>
<circle cx="58" cy="26" r="1" fill="#1589D4"/>
<circle cx="58" cy="36" r="1" fill="#1589D4"/>
<circle cx="58" cy="46" r="1" fill="#1589D4"/>
<circle cx="58" cy="56" r="1" fill="#1589D4"/>
<circle cx="58" cy="66" r="1" fill="#1589D4"/>
<circle cx="58" cy="76" r="1" fill="#1589D4"/>
<circle cx="58" cy="86" r="1" fill="#1589D4"/>
<circle cx="58" cy="96" r="1" fill="#1589D4"/>
<circle cx="58" cy="106" r="1" fill="#1589D4"/>
<circle cx="58" cy="116" r="1" fill="#1589D4"/>
<circle cx="58" cy="126" r="1" fill="#1589D4"/>
<circle cx="58" cy="136" r="1" fill="#1589D4"/>
<circle cx="58" cy="146" r="1" fill="#1589D4"/>
<circle cx="58" cy="156" r="1" fill="#1589D4"/>
<circle cx="58" cy="166" r="1" fill="#1589D4"/>
<circle cx="58" cy="176" r="1" fill="#1589D4"/>
<circle cx="58" cy="186" r="1" fill="#1589D4"/>
<circle cx="58" cy="196" r="1" fill="#1589D4"/>
<circle cx="58" cy="206" r="1" fill="#1589D4"/>
<circle cx="58" cy="216" r="1" fill="#1589D4"/>
<circle cx="58" cy="226" r="1" fill="#1589D4"/>
<circle cx="58" cy="236" r="1" fill="#1589D4"/>
<circle cx="58" cy="246" r="1" fill="#1589D4"/>
<circle cx="58" cy="256" r="1" fill="#1589D4"/>
<circle cx="58" cy="266" r="1" fill="#1589D4"/>
<circle cx="58" cy="276" r="1" fill="#1589D4"/>
<circle cx="58" cy="286" r="1" fill="#1589D4"/>
<circle cx="58" cy="296" r="1" fill="#1589D4"/>
<circle cx="58" cy="306" r="1" fill="#1589D4"/>
<circle cx="58" cy="316" r="1" fill="#1589D4"/>
<circle cx="58" cy="326" r="1" fill="#1589D4"/>
<circle cx="58" cy="336" r="1" fill="#1589D4"/>
<circle cx="58" cy="346" r="1" fill="#1589D4"/>
<circle cx="58" cy="356" r="1" fill="#1589D4"/>
<circle cx="58" cy="366" r="1" fill="#1589D4"/>
<circle cx="58" cy="376" r="1" fill="#1589D4"/>
<circle cx="58" cy="386" r="1" fill="#1589D4"/>
<circle cx="58" cy="396" r="1" fill="#1589D4"/>
<circle cx="58" cy="406" r="1" fill="#1589D4"/>
<circle cx="58" cy="416" r="1" fill="#1589D4"/>
<circle cx="58" cy="426" r="1" fill="#1589D4"/>
<circle cx="58" cy="436" r="1" fill="#1589D4"/>
<circle cx="58" cy="446" r="1" fill="#1589D4"/>
<circle cx="58" cy="456" r="1" fill="#1589D4"/>
<circle cx="68" cy="6" r="1" fill="#1589D4"/>
<circle cx="68" cy="16" r="1" fill="#1589D4"/>
<circle cx="68" cy="26" r="1" fill="#1589D4"/>
<circle cx="68" cy="36" r="1" fill="#1589D4"/>
<circle cx="68" cy="46" r="1" fill="#1589D4"/>
<circle cx="68" cy="56" r="1" fill="#1589D4"/>
<circle cx="68" cy="66" r="1" fill="#1589D4"/>
<circle cx="68" cy="76" r="1" fill="#1589D4"/>
<circle cx="68" cy="86" r="1" fill="#1589D4"/>
<circle cx="68" cy="96" r="1" fill="#1589D4"/>
<circle cx="68" cy="106" r="1" fill="#1589D4"/>
<circle cx="68" cy="116" r="1" fill="#1589D4"/>
<circle cx="68" cy="126" r="1" fill="#1589D4"/>
<circle cx="68" cy="136" r="1" fill="#1589D4"/>
<circle cx="68" cy="146" r="1" fill="#1589D4"/>
<circle cx="68" cy="156" r="1" fill="#1589D4"/>
<circle cx="68" cy="166" r="1" fill="#1589D4"/>
<circle cx="68" cy="176" r="1" fill="#1589D4"/>
<circle cx="68" cy="186" r="1" fill="#1589D4"/>
<circle cx="68" cy="196" r="1" fill="#1589D4"/>
<circle cx="68" cy="206" r="1" fill="#1589D4"/>
<circle cx="68" cy="216" r="1" fill="#1589D4"/>
<circle cx="68" cy="226" r="1" fill="#1589D4"/>
<circle cx="68" cy="236" r="1" fill="#1589D4"/>
<circle cx="68" cy="246" r="1" fill="#1589D4"/>
<circle cx="68" cy="256" r="1" fill="#1589D4"/>
<circle cx="68" cy="266" r="1" fill="#1589D4"/>
<circle cx="68" cy="276" r="1" fill="#1589D4"/>
<circle cx="68" cy="286" r="1" fill="#1589D4"/>
<circle cx="68" cy="296" r="1" fill="#1589D4"/>
<circle cx="68" cy="306" r="1" fill="#1589D4"/>
<circle cx="68" cy="316" r="1" fill="#1589D4"/>
<circle cx="68" cy="326" r="1" fill="#1589D4"/>
<circle cx="68" cy="336" r="1" fill="#1589D4"/>
<circle cx="68" cy="346" r="1" fill="#1589D4"/>
<circle cx="68" cy="356" r="1" fill="#1589D4"/>
<circle cx="68" cy="366" r="1" fill="#1589D4"/>
<circle cx="68" cy="376" r="1" fill="#1589D4"/>
<circle cx="68" cy="386" r="1" fill="#1589D4"/>
<circle cx="68" cy="396" r="1" fill="#1589D4"/>
<circle cx="68" cy="406" r="1" fill="#1589D4"/>
<circle cx="68" cy="416" r="1" fill="#1589D4"/>
<circle cx="68" cy="426" r="1" fill="#1589D4"/>
<circle cx="68" cy="436" r="1" fill="#1589D4"/>
<circle cx="68" cy="446" r="1" fill="#1589D4"/>
<circle cx="68" cy="456" r="1" fill="#1589D4"/>
<circle cx="78" cy="6" r="1" fill="#1589D4"/>
<circle cx="78" cy="16" r="1" fill="#1589D4"/>
<circle cx="78" cy="26" r="1" fill="#1589D4"/>
<circle cx="78" cy="36" r="1" fill="#1589D4"/>
<circle cx="78" cy="46" r="1" fill="#1589D4"/>
<circle cx="78" cy="56" r="1" fill="#1589D4"/>
<circle cx="78" cy="66" r="1" fill="#1589D4"/>
<circle cx="78" cy="76" r="1" fill="#1589D4"/>
<circle cx="78" cy="86" r="1" fill="#1589D4"/>
<circle cx="78" cy="96" r="1" fill="#1589D4"/>
<circle cx="78" cy="106" r="1" fill="#1589D4"/>
<circle cx="78" cy="116" r="1" fill="#1589D4"/>
<circle cx="78" cy="126" r="1" fill="#1589D4"/>
<circle cx="78" cy="136" r="1" fill="#1589D4"/>
<circle cx="78" cy="146" r="1" fill="#1589D4"/>
<circle cx="78" cy="156" r="1" fill="#1589D4"/>
<circle cx="78" cy="166" r="1" fill="#1589D4"/>
<circle cx="78" cy="176" r="1" fill="#1589D4"/>
<circle cx="78" cy="186" r="1" fill="#1589D4"/>
<circle cx="78" cy="196" r="1" fill="#1589D4"/>
<circle cx="78" cy="206" r="1" fill="#1589D4"/>
<circle cx="78" cy="216" r="1" fill="#1589D4"/>
<circle cx="78" cy="226" r="1" fill="#1589D4"/>
<circle cx="78" cy="236" r="1" fill="#1589D4"/>
<circle cx="78" cy="246" r="1" fill="#1589D4"/>
<circle cx="78" cy="256" r="1" fill="#1589D4"/>
<circle cx="78" cy="266" r="1" fill="#1589D4"/>
<circle cx="78" cy="276" r="1" fill="#1589D4"/>
<circle cx="78" cy="286" r="1" fill="#1589D4"/>
<circle cx="78" cy="296" r="1" fill="#1589D4"/>
<circle cx="78" cy="306" r="1" fill="#1589D4"/>
<circle cx="78" cy="316" r="1" fill="#1589D4"/>
<circle cx="78" cy="326" r="1" fill="#1589D4"/>
<circle cx="78" cy="336" r="1" fill="#1589D4"/>
<circle cx="78" cy="346" r="1" fill="#1589D4"/>
<circle cx="78" cy="356" r="1" fill="#1589D4"/>
<circle cx="78" cy="366" r="1" fill="#1589D4"/>
<circle cx="78" cy="376" r="1" fill="#1589D4"/>
<circle cx="78" cy="386" r="1" fill="#1589D4"/>
<circle cx="78" cy="396" r="1" fill="#1589D4"/>
<circle cx="78" cy="406" r="1" fill="#1589D4"/>
<circle cx="78" cy="416" r="1" fill="#1589D4"/>
<circle cx="78" cy="426" r="1" fill="#1589D4"/>
<circle cx="78" cy="436" r="1" fill="#1589D4"/>
<circle cx="78" cy="446" r="1" fill="#1589D4"/>
<circle cx="78" cy="456" r="1" fill="#1589D4"/>
<circle cx="88" cy="6" r="1" fill="#1589D4"/>
<circle cx="88" cy="16" r="1" fill="#1589D4"/>
<circle cx="88" cy="26" r="1" fill="#1589D4"/>
<circle cx="88" cy="36" r="1" fill="#1589D4"/>
<circle cx="88" cy="46" r="1" fill="#1589D4"/>
<circle cx="88" cy="56" r="1" fill="#1589D4"/>
<circle cx="88" cy="66" r="1" fill="#1589D4"/>
<circle cx="88" cy="76" r="1" fill="#1589D4"/>
<circle cx="88" cy="86" r="1" fill="#1589D4"/>
<circle cx="88" cy="96" r="1" fill="#1589D4"/>
<circle cx="88" cy="106" r="1" fill="#1589D4"/>
<circle cx="88" cy="116" r="1" fill="#1589D4"/>
<circle cx="88" cy="126" r="1" fill="#1589D4"/>
<circle cx="88" cy="136" r="1" fill="#1589D4"/>
<circle cx="88" cy="146" r="1" fill="#1589D4"/>
<circle cx="88" cy="156" r="1" fill="#1589D4"/>
<circle cx="88" cy="166" r="1" fill="#1589D4"/>
<circle cx="88" cy="176" r="1" fill="#1589D4"/>
<circle cx="88" cy="186" r="1" fill="#1589D4"/>
<circle cx="88" cy="196" r="1" fill="#1589D4"/>
<circle cx="88" cy="206" r="1" fill="#1589D4"/>
<circle cx="88" cy="216" r="1" fill="#1589D4"/>
<circle cx="88" cy="226" r="1" fill="#1589D4"/>
<circle cx="88" cy="236" r="1" fill="#1589D4"/>
<circle cx="88" cy="246" r="1" fill="#1589D4"/>
<circle cx="88" cy="256" r="1" fill="#1589D4"/>
<circle cx="88" cy="266" r="1" fill="#1589D4"/>
<circle cx="88" cy="276" r="1" fill="#1589D4"/>
<circle cx="88" cy="286" r="1" fill="#1589D4"/>
<circle cx="88" cy="296" r="1" fill="#1589D4"/>
<circle cx="88" cy="306" r="1" fill="#1589D4"/>
<circle cx="88" cy="316" r="1" fill="#1589D4"/>
<circle cx="88" cy="326" r="1" fill="#1589D4"/>
<circle cx="88" cy="336" r="1" fill="#1589D4"/>
<circle cx="88" cy="346" r="1" fill="#1589D4"/>
<circle cx="88" cy="356" r="1" fill="#1589D4"/>
<circle cx="88" cy="366" r="1" fill="#1589D4"/>
<circle cx="88" cy="376" r="1" fill="#1589D4"/>
<circle cx="88" cy="386" r="1" fill="#1589D4"/>
<circle cx="88" cy="396" r="1" fill="#1589D4"/>
<circle cx="88" cy="406" r="1" fill="#1589D4"/>
<circle cx="88" cy="416" r="1" fill="#1589D4"/>
<circle cx="88" cy="426" r="1" fill="#1589D4"/>
<circle cx="88" cy="436" r="1" fill="#1589D4"/>
<circle cx="88" cy="446" r="1" fill="#1589D4"/>
<circle cx="88" cy="456" r="1" fill="#1589D4"/>
<circle cx="98" cy="6" r="1" fill="#1589D4"/>
<circle cx="98" cy="16" r="1" fill="#1589D4"/>
<circle cx="98" cy="26" r="1" fill="#1589D4"/>
<circle cx="98" cy="36" r="1" fill="#1589D4"/>
<circle cx="98" cy="46" r="1" fill="#1589D4"/>
<circle cx="98" cy="56" r="1" fill="#1589D4"/>
<circle cx="98" cy="66" r="1" fill="#1589D4"/>
<circle cx="98" cy="76" r="1" fill="#1589D4"/>
<circle cx="98" cy="86" r="1" fill="#1589D4"/>
<circle cx="98" cy="96" r="1" fill="#1589D4"/>
<circle cx="98" cy="106" r="1" fill="#1589D4"/>
<circle cx="98" cy="116" r="1" fill="#1589D4"/>
<circle cx="98" cy="126" r="1" fill="#1589D4"/>
<circle cx="98" cy="136" r="1" fill="#1589D4"/>
<circle cx="98" cy="146" r="1" fill="#1589D4"/>
<circle cx="98" cy="156" r="1" fill="#1589D4"/>
<circle cx="98" cy="166" r="1" fill="#1589D4"/>
<circle cx="98" cy="176" r="1" fill="#1589D4"/>
<circle cx="98" cy="186" r="1" fill="#1589D4"/>
<circle cx="98" cy="196" r="1" fill="#1589D4"/>
<circle cx="98" cy="206" r="1" fill="#1589D4"/>
<circle cx="98" cy="216" r="1" fill="#1589D4"/>
<circle cx="98" cy="226" r="1" fill="#1589D4"/>
<circle cx="98" cy="236" r="1" fill="#1589D4"/>
<circle cx="98" cy="246" r="1" fill="#1589D4"/>
<circle cx="98" cy="256" r="1" fill="#1589D4"/>
<circle cx="98" cy="266" r="1" fill="#1589D4"/>
<circle cx="98" cy="276" r="1" fill="#1589D4"/>
<circle cx="98" cy="286" r="1" fill="#1589D4"/>
<circle cx="98" cy="296" r="1" fill="#1589D4"/>
<circle cx="98" cy="306" r="1" fill="#1589D4"/>
<circle cx="98" cy="316" r="1" fill="#1589D4"/>
<circle cx="98" cy="326" r="1" fill="#1589D4"/>
<circle cx="98" cy="336" r="1" fill="#1589D4"/>
<circle cx="98" cy="346" r="1" fill="#1589D4"/>
<circle cx="98" cy="356" r="1" fill="#1589D4"/>
<circle cx="98" cy="366" r="1" fill="#1589D4"/>
<circle cx="98" cy="376" r="1" fill="#1589D4"/>
<circle cx="98" cy="386" r="1" fill="#1589D4"/>
<circle cx="98" cy="396" r="1" fill="#1589D4"/>
<circle cx="98" cy="406" r="1" fill="#1589D4"/>
<circle cx="98" cy="416" r="1" fill="#1589D4"/>
<circle cx="98" cy="426" r="1" fill="#1589D4"/>
<circle cx="98" cy="436" r="1" fill="#1589D4"/>
<circle cx="98" cy="446" r="1" fill="#1589D4"/>
<circle cx="98" cy="456" r="1" fill="#1589D4"/>
<circle cx="108" cy="6" r="1" fill="#1589D4"/>
<circle cx="108" cy="16" r="1" fill="#1589D4"/>
<circle cx="108" cy="26" r="1" fill="#1589D4"/>
<circle cx="108" cy="36" r="1" fill="#1589D4"/>
<circle cx="108" cy="46" r="1" fill="#1589D4"/>
<circle cx="108" cy="56" r="1" fill="#1589D4"/>
<circle cx="108" cy="66" r="1" fill="#1589D4"/>
<circle cx="108" cy="76" r="1" fill="#1589D4"/>
<circle cx="108" cy="86" r="1" fill="#1589D4"/>
<circle cx="108" cy="96" r="1" fill="#1589D4"/>
<circle cx="108" cy="106" r="1" fill="#1589D4"/>
<circle cx="108" cy="116" r="1" fill="#1589D4"/>
<circle cx="108" cy="126" r="1" fill="#1589D4"/>
<circle cx="108" cy="136" r="1" fill="#1589D4"/>
<circle cx="108" cy="146" r="1" fill="#1589D4"/>
<circle cx="108" cy="156" r="1" fill="#1589D4"/>
<circle cx="108" cy="166" r="1" fill="#1589D4"/>
<circle cx="108" cy="176" r="1" fill="#1589D4"/>
<circle cx="108" cy="186" r="1" fill="#1589D4"/>
<circle cx="108" cy="196" r="1" fill="#1589D4"/>
<circle cx="108" cy="206" r="1" fill="#1589D4"/>
<circle cx="108" cy="216" r="1" fill="#1589D4"/>
<circle cx="108" cy="226" r="1" fill="#1589D4"/>
<circle cx="108" cy="236" r="1" fill="#1589D4"/>
<circle cx="108" cy="246" r="1" fill="#1589D4"/>
<circle cx="108" cy="256" r="1" fill="#1589D4"/>
<circle cx="108" cy="266" r="1" fill="#1589D4"/>
<circle cx="108" cy="276" r="1" fill="#1589D4"/>
<circle cx="108" cy="286" r="1" fill="#1589D4"/>
<circle cx="108" cy="296" r="1" fill="#1589D4"/>
<circle cx="108" cy="306" r="1" fill="#1589D4"/>
<circle cx="108" cy="316" r="1" fill="#1589D4"/>
<circle cx="108" cy="326" r="1" fill="#1589D4"/>
<circle cx="108" cy="336" r="1" fill="#1589D4"/>
<circle cx="108" cy="346" r="1" fill="#1589D4"/>
<circle cx="108" cy="356" r="1" fill="#1589D4"/>
<circle cx="108" cy="366" r="1" fill="#1589D4"/>
<circle cx="108" cy="376" r="1" fill="#1589D4"/>
<circle cx="108" cy="386" r="1" fill="#1589D4"/>
<circle cx="108" cy="396" r="1" fill="#1589D4"/>
<circle cx="108" cy="406" r="1" fill="#1589D4"/>
<circle cx="108" cy="416" r="1" fill="#1589D4"/>
<circle cx="108" cy="426" r="1" fill="#1589D4"/>
<circle cx="108" cy="436" r="1" fill="#1589D4"/>
<circle cx="108" cy="446" r="1" fill="#1589D4"/>
<circle cx="108" cy="456" r="1" fill="#1589D4"/>
<circle cx="118" cy="6" r="1" fill="#1589D4"/>
<circle cx="118" cy="16" r="1" fill="#1589D4"/>
<circle cx="118" cy="26" r="1" fill="#1589D4"/>
<circle cx="118" cy="36" r="1" fill="#1589D4"/>
<circle cx="118" cy="46" r="1" fill="#1589D4"/>
<circle cx="118" cy="56" r="1" fill="#1589D4"/>
<circle cx="118" cy="66" r="1" fill="#1589D4"/>
<circle cx="118" cy="76" r="1" fill="#1589D4"/>
<circle cx="118" cy="86" r="1" fill="#1589D4"/>
<circle cx="118" cy="96" r="1" fill="#1589D4"/>
<circle cx="118" cy="106" r="1" fill="#1589D4"/>
<circle cx="118" cy="116" r="1" fill="#1589D4"/>
<circle cx="118" cy="126" r="1" fill="#1589D4"/>
<circle cx="118" cy="136" r="1" fill="#1589D4"/>
<circle cx="118" cy="146" r="1" fill="#1589D4"/>
<circle cx="118" cy="156" r="1" fill="#1589D4"/>
<circle cx="118" cy="166" r="1" fill="#1589D4"/>
<circle cx="118" cy="176" r="1" fill="#1589D4"/>
<circle cx="118" cy="186" r="1" fill="#1589D4"/>
<circle cx="118" cy="196" r="1" fill="#1589D4"/>
<circle cx="118" cy="206" r="1" fill="#1589D4"/>
<circle cx="118" cy="216" r="1" fill="#1589D4"/>
<circle cx="118" cy="226" r="1" fill="#1589D4"/>
<circle cx="118" cy="236" r="1" fill="#1589D4"/>
<circle cx="118" cy="246" r="1" fill="#1589D4"/>
<circle cx="118" cy="256" r="1" fill="#1589D4"/>
<circle cx="118" cy="266" r="1" fill="#1589D4"/>
<circle cx="118" cy="276" r="1" fill="#1589D4"/>
<circle cx="118" cy="286" r="1" fill="#1589D4"/>
<circle cx="118" cy="296" r="1" fill="#1589D4"/>
<circle cx="118" cy="306" r="1" fill="#1589D4"/>
<circle cx="118" cy="316" r="1" fill="#1589D4"/>
<circle cx="118" cy="326" r="1" fill="#1589D4"/>
<circle cx="118" cy="336" r="1" fill="#1589D4"/>
<circle cx="118" cy="346" r="1" fill="#1589D4"/>
<circle cx="118" cy="356" r="1" fill="#1589D4"/>
<circle cx="118" cy="366" r="1" fill="#1589D4"/>
<circle cx="118" cy="376" r="1" fill="#1589D4"/>
<circle cx="118" cy="386" r="1" fill="#1589D4"/>
<circle cx="118" cy="396" r="1" fill="#1589D4"/>
<circle cx="118" cy="406" r="1" fill="#1589D4"/>
<circle cx="118" cy="416" r="1" fill="#1589D4"/>
<circle cx="118" cy="426" r="1" fill="#1589D4"/>
<circle cx="118" cy="436" r="1" fill="#1589D4"/>
<circle cx="118" cy="446" r="1" fill="#1589D4"/>
<circle cx="118" cy="456" r="1" fill="#1589D4"/>
<circle cx="128" cy="6" r="1" fill="#1589D4"/>
<circle cx="128" cy="16" r="1" fill="#1589D4"/>
<circle cx="128" cy="26" r="1" fill="#1589D4"/>
<circle cx="128" cy="36" r="1" fill="#1589D4"/>
<circle cx="128" cy="46" r="1" fill="#1589D4"/>
<circle cx="128" cy="56" r="1" fill="#1589D4"/>
<circle cx="128" cy="66" r="1" fill="#1589D4"/>
<circle cx="128" cy="76" r="1" fill="#1589D4"/>
<circle cx="128" cy="86" r="1" fill="#1589D4"/>
<circle cx="128" cy="96" r="1" fill="#1589D4"/>
<circle cx="128" cy="106" r="1" fill="#1589D4"/>
<circle cx="128" cy="116" r="1" fill="#1589D4"/>
<circle cx="128" cy="126" r="1" fill="#1589D4"/>
<circle cx="128" cy="136" r="1" fill="#1589D4"/>
<circle cx="128" cy="146" r="1" fill="#1589D4"/>
<circle cx="128" cy="156" r="1" fill="#1589D4"/>
<circle cx="128" cy="166" r="1" fill="#1589D4"/>
<circle cx="128" cy="176" r="1" fill="#1589D4"/>
<circle cx="128" cy="186" r="1" fill="#1589D4"/>
<circle cx="128" cy="196" r="1" fill="#1589D4"/>
<circle cx="128" cy="206" r="1" fill="#1589D4"/>
<circle cx="128" cy="216" r="1" fill="#1589D4"/>
<circle cx="128" cy="226" r="1" fill="#1589D4"/>
<circle cx="128" cy="236" r="1" fill="#1589D4"/>
<circle cx="128" cy="246" r="1" fill="#1589D4"/>
<circle cx="128" cy="256" r="1" fill="#1589D4"/>
<circle cx="128" cy="266" r="1" fill="#1589D4"/>
<circle cx="128" cy="276" r="1" fill="#1589D4"/>
<circle cx="128" cy="286" r="1" fill="#1589D4"/>
<circle cx="128" cy="296" r="1" fill="#1589D4"/>
<circle cx="128" cy="306" r="1" fill="#1589D4"/>
<circle cx="128" cy="316" r="1" fill="#1589D4"/>
<circle cx="128" cy="326" r="1" fill="#1589D4"/>
<circle cx="128" cy="336" r="1" fill="#1589D4"/>
<circle cx="128" cy="346" r="1" fill="#1589D4"/>
<circle cx="128" cy="356" r="1" fill="#1589D4"/>
<circle cx="128" cy="366" r="1" fill="#1589D4"/>
<circle cx="128" cy="376" r="1" fill="#1589D4"/>
<circle cx="128" cy="386" r="1" fill="#1589D4"/>
<circle cx="128" cy="396" r="1" fill="#1589D4"/>
<circle cx="128" cy="406" r="1" fill="#1589D4"/>
<circle cx="128" cy="416" r="1" fill="#1589D4"/>
<circle cx="128" cy="426" r="1" fill="#1589D4"/>
<circle cx="128" cy="436" r="1" fill="#1589D4"/>
<circle cx="128" cy="446" r="1" fill="#1589D4"/>
<circle cx="128" cy="456" r="1" fill="#1589D4"/>
<circle cx="138" cy="6" r="1" fill="#1589D4"/>
<circle cx="138" cy="16" r="1" fill="#1589D4"/>
<circle cx="138" cy="26" r="1" fill="#1589D4"/>
<circle cx="138" cy="36" r="1" fill="#1589D4"/>
<circle cx="138" cy="46" r="1" fill="#1589D4"/>
<circle cx="138" cy="56" r="1" fill="#1589D4"/>
<circle cx="138" cy="66" r="1" fill="#1589D4"/>
<circle cx="138" cy="76" r="1" fill="#1589D4"/>
<circle cx="138" cy="86" r="1" fill="#1589D4"/>
<circle cx="138" cy="96" r="1" fill="#1589D4"/>
<circle cx="138" cy="106" r="1" fill="#1589D4"/>
<circle cx="138" cy="116" r="1" fill="#1589D4"/>
<circle cx="138" cy="126" r="1" fill="#1589D4"/>
<circle cx="138" cy="136" r="1" fill="#1589D4"/>
<circle cx="138" cy="146" r="1" fill="#1589D4"/>
<circle cx="138" cy="156" r="1" fill="#1589D4"/>
<circle cx="138" cy="166" r="1" fill="#1589D4"/>
<circle cx="138" cy="176" r="1" fill="#1589D4"/>
<circle cx="138" cy="186" r="1" fill="#1589D4"/>
<circle cx="138" cy="196" r="1" fill="#1589D4"/>
<circle cx="138" cy="206" r="1" fill="#1589D4"/>
<circle cx="138" cy="216" r="1" fill="#1589D4"/>
<circle cx="138" cy="226" r="1" fill="#1589D4"/>
<circle cx="138" cy="236" r="1" fill="#1589D4"/>
<circle cx="138" cy="246" r="1" fill="#1589D4"/>
<circle cx="138" cy="256" r="1" fill="#1589D4"/>
<circle cx="138" cy="266" r="1" fill="#1589D4"/>
<circle cx="138" cy="276" r="1" fill="#1589D4"/>
<circle cx="138" cy="286" r="1" fill="#1589D4"/>
<circle cx="138" cy="296" r="1" fill="#1589D4"/>
<circle cx="138" cy="306" r="1" fill="#1589D4"/>
<circle cx="138" cy="316" r="1" fill="#1589D4"/>
<circle cx="138" cy="326" r="1" fill="#1589D4"/>
<circle cx="138" cy="336" r="1" fill="#1589D4"/>
<circle cx="138" cy="346" r="1" fill="#1589D4"/>
<circle cx="138" cy="356" r="1" fill="#1589D4"/>
<circle cx="138" cy="366" r="1" fill="#1589D4"/>
<circle cx="138" cy="376" r="1" fill="#1589D4"/>
<circle cx="138" cy="386" r="1" fill="#1589D4"/>
<circle cx="138" cy="396" r="1" fill="#1589D4"/>
<circle cx="138" cy="406" r="1" fill="#1589D4"/>
<circle cx="138" cy="416" r="1" fill="#1589D4"/>
<circle cx="138" cy="426" r="1" fill="#1589D4"/>
<circle cx="138" cy="436" r="1" fill="#1589D4"/>
<circle cx="138" cy="446" r="1" fill="#1589D4"/>
<circle cx="138" cy="456" r="1" fill="#1589D4"/>
<circle cx="148" cy="6" r="1" fill="#1589D4"/>
<circle cx="148" cy="16" r="1" fill="#1589D4"/>
<circle cx="148" cy="26" r="1" fill="#1589D4"/>
<circle cx="148" cy="36" r="1" fill="#1589D4"/>
<circle cx="148" cy="46" r="1" fill="#1589D4"/>
<circle cx="148" cy="56" r="1" fill="#1589D4"/>
<circle cx="148" cy="66" r="1" fill="#1589D4"/>
<circle cx="148" cy="76" r="1" fill="#1589D4"/>
<circle cx="148" cy="86" r="1" fill="#1589D4"/>
<circle cx="148" cy="96" r="1" fill="#1589D4"/>
<circle cx="148" cy="106" r="1" fill="#1589D4"/>
<circle cx="148" cy="116" r="1" fill="#1589D4"/>
<circle cx="148" cy="126" r="1" fill="#1589D4"/>
<circle cx="148" cy="136" r="1" fill="#1589D4"/>
<circle cx="148" cy="146" r="1" fill="#1589D4"/>
<circle cx="148" cy="156" r="1" fill="#1589D4"/>
<circle cx="148" cy="166" r="1" fill="#1589D4"/>
<circle cx="148" cy="176" r="1" fill="#1589D4"/>
<circle cx="148" cy="186" r="1" fill="#1589D4"/>
<circle cx="148" cy="196" r="1" fill="#1589D4"/>
<circle cx="148" cy="206" r="1" fill="#1589D4"/>
<circle cx="148" cy="216" r="1" fill="#1589D4"/>
<circle cx="148" cy="226" r="1" fill="#1589D4"/>
<circle cx="148" cy="236" r="1" fill="#1589D4"/>
<circle cx="148" cy="246" r="1" fill="#1589D4"/>
<circle cx="148" cy="256" r="1" fill="#1589D4"/>
<circle cx="148" cy="266" r="1" fill="#1589D4"/>
<circle cx="148" cy="276" r="1" fill="#1589D4"/>
<circle cx="148" cy="286" r="1" fill="#1589D4"/>
<circle cx="148" cy="296" r="1" fill="#1589D4"/>
<circle cx="148" cy="306" r="1" fill="#1589D4"/>
<circle cx="148" cy="316" r="1" fill="#1589D4"/>
<circle cx="148" cy="326" r="1" fill="#1589D4"/>
<circle cx="148" cy="336" r="1" fill="#1589D4"/>
<circle cx="148" cy="346" r="1" fill="#1589D4"/>
<circle cx="148" cy="356" r="1" fill="#1589D4"/>
<circle cx="148" cy="366" r="1" fill="#1589D4"/>
<circle cx="148" cy="376" r="1" fill="#1589D4"/>
<circle cx="148" cy="386" r="1" fill="#1589D4"/>
<circle cx="148" cy="396" r="1" fill="#1589D4"/>
<circle cx="148" cy="406" r="1" fill="#1589D4"/>
<circle cx="148" cy="416" r="1" fill="#1589D4"/>
<circle cx="148" cy="426" r="1" fill="#1589D4"/>
<circle cx="148" cy="436" r="1" fill="#1589D4"/>
<circle cx="148" cy="446" r="1" fill="#1589D4"/>
<circle cx="148" cy="456" r="1" fill="#1589D4"/>
<circle cx="158" cy="6" r="1" fill="#1589D4"/>
<circle cx="158" cy="16" r="1" fill="#1589D4"/>
<circle cx="158" cy="26" r="1" fill="#1589D4"/>
<circle cx="158" cy="36" r="1" fill="#1589D4"/>
<circle cx="158" cy="46" r="1" fill="#1589D4"/>
<circle cx="158" cy="56" r="1" fill="#1589D4"/>
<circle cx="158" cy="66" r="1" fill="#1589D4"/>
<circle cx="158" cy="76" r="1" fill="#1589D4"/>
<circle cx="158" cy="86" r="1" fill="#1589D4"/>
<circle cx="158" cy="96" r="1" fill="#1589D4"/>
<circle cx="158" cy="106" r="1" fill="#1589D4"/>
<circle cx="158" cy="116" r="1" fill="#1589D4"/>
<circle cx="158" cy="126" r="1" fill="#1589D4"/>
<circle cx="158" cy="136" r="1" fill="#1589D4"/>
<circle cx="158" cy="146" r="1" fill="#1589D4"/>
<circle cx="158" cy="156" r="1" fill="#1589D4"/>
<circle cx="158" cy="166" r="1" fill="#1589D4"/>
<circle cx="158" cy="176" r="1" fill="#1589D4"/>
<circle cx="158" cy="186" r="1" fill="#1589D4"/>
<circle cx="158" cy="196" r="1" fill="#1589D4"/>
<circle cx="158" cy="206" r="1" fill="#1589D4"/>
<circle cx="158" cy="216" r="1" fill="#1589D4"/>
<circle cx="158" cy="226" r="1" fill="#1589D4"/>
<circle cx="158" cy="236" r="1" fill="#1589D4"/>
<circle cx="158" cy="246" r="1" fill="#1589D4"/>
<circle cx="158" cy="256" r="1" fill="#1589D4"/>
<circle cx="158" cy="266" r="1" fill="#1589D4"/>
<circle cx="158" cy="276" r="1" fill="#1589D4"/>
<circle cx="158" cy="286" r="1" fill="#1589D4"/>
<circle cx="158" cy="296" r="1" fill="#1589D4"/>
<circle cx="158" cy="306" r="1" fill="#1589D4"/>
<circle cx="158" cy="316" r="1" fill="#1589D4"/>
<circle cx="158" cy="326" r="1" fill="#1589D4"/>
<circle cx="158" cy="336" r="1" fill="#1589D4"/>
<circle cx="158" cy="346" r="1" fill="#1589D4"/>
<circle cx="158" cy="356" r="1" fill="#1589D4"/>
<circle cx="158" cy="366" r="1" fill="#1589D4"/>
<circle cx="158" cy="376" r="1" fill="#1589D4"/>
<circle cx="158" cy="386" r="1" fill="#1589D4"/>
<circle cx="158" cy="396" r="1" fill="#1589D4"/>
<circle cx="158" cy="406" r="1" fill="#1589D4"/>
<circle cx="158" cy="416" r="1" fill="#1589D4"/>
<circle cx="158" cy="426" r="1" fill="#1589D4"/>
<circle cx="158" cy="436" r="1" fill="#1589D4"/>
<circle cx="158" cy="446" r="1" fill="#1589D4"/>
<circle cx="158" cy="456" r="1" fill="#1589D4"/>
<circle cx="168" cy="6" r="1" fill="#1589D4"/>
<circle cx="168" cy="16" r="1" fill="#1589D4"/>
<circle cx="168" cy="26" r="1" fill="#1589D4"/>
<circle cx="168" cy="36" r="1" fill="#1589D4"/>
<circle cx="168" cy="46" r="1" fill="#1589D4"/>
<circle cx="168" cy="56" r="1" fill="#1589D4"/>
<circle cx="168" cy="66" r="1" fill="#1589D4"/>
<circle cx="168" cy="76" r="1" fill="#1589D4"/>
<circle cx="168" cy="86" r="1" fill="#1589D4"/>
<circle cx="168" cy="96" r="1" fill="#1589D4"/>
<circle cx="168" cy="106" r="1" fill="#1589D4"/>
<circle cx="168" cy="116" r="1" fill="#1589D4"/>
<circle cx="168" cy="126" r="1" fill="#1589D4"/>
<circle cx="168" cy="136" r="1" fill="#1589D4"/>
<circle cx="168" cy="146" r="1" fill="#1589D4"/>
<circle cx="168" cy="156" r="1" fill="#1589D4"/>
<circle cx="168" cy="166" r="1" fill="#1589D4"/>
<circle cx="168" cy="176" r="1" fill="#1589D4"/>
<circle cx="168" cy="186" r="1" fill="#1589D4"/>
<circle cx="168" cy="196" r="1" fill="#1589D4"/>
<circle cx="168" cy="206" r="1" fill="#1589D4"/>
<circle cx="168" cy="216" r="1" fill="#1589D4"/>
<circle cx="168" cy="226" r="1" fill="#1589D4"/>
<circle cx="168" cy="236" r="1" fill="#1589D4"/>
<circle cx="168" cy="246" r="1" fill="#1589D4"/>
<circle cx="168" cy="256" r="1" fill="#1589D4"/>
<circle cx="168" cy="266" r="1" fill="#1589D4"/>
<circle cx="168" cy="276" r="1" fill="#1589D4"/>
<circle cx="168" cy="286" r="1" fill="#1589D4"/>
<circle cx="168" cy="296" r="1" fill="#1589D4"/>
<circle cx="168" cy="306" r="1" fill="#1589D4"/>
<circle cx="168" cy="316" r="1" fill="#1589D4"/>
<circle cx="168" cy="326" r="1" fill="#1589D4"/>
<circle cx="168" cy="336" r="1" fill="#1589D4"/>
<circle cx="168" cy="346" r="1" fill="#1589D4"/>
<circle cx="168" cy="356" r="1" fill="#1589D4"/>
<circle cx="168" cy="366" r="1" fill="#1589D4"/>
<circle cx="168" cy="376" r="1" fill="#1589D4"/>
<circle cx="168" cy="386" r="1" fill="#1589D4"/>
<circle cx="168" cy="396" r="1" fill="#1589D4"/>
<circle cx="168" cy="406" r="1" fill="#1589D4"/>
<circle cx="168" cy="416" r="1" fill="#1589D4"/>
<circle cx="168" cy="426" r="1" fill="#1589D4"/>
<circle cx="168" cy="436" r="1" fill="#1589D4"/>
<circle cx="168" cy="446" r="1" fill="#1589D4"/>
<circle cx="168" cy="456" r="1" fill="#1589D4"/>
<circle cx="178" cy="6" r="1" fill="#1589D4"/>
<circle cx="178" cy="16" r="1" fill="#1589D4"/>
<circle cx="178" cy="26" r="1" fill="#1589D4"/>
<circle cx="178" cy="36" r="1" fill="#1589D4"/>
<circle cx="178" cy="46" r="1" fill="#1589D4"/>
<circle cx="178" cy="56" r="1" fill="#1589D4"/>
<circle cx="178" cy="66" r="1" fill="#1589D4"/>
<circle cx="178" cy="76" r="1" fill="#1589D4"/>
<circle cx="178" cy="86" r="1" fill="#1589D4"/>
<circle cx="178" cy="96" r="1" fill="#1589D4"/>
<circle cx="178" cy="106" r="1" fill="#1589D4"/>
<circle cx="178" cy="116" r="1" fill="#1589D4"/>
<circle cx="178" cy="126" r="1" fill="#1589D4"/>
<circle cx="178" cy="136" r="1" fill="#1589D4"/>
<circle cx="178" cy="146" r="1" fill="#1589D4"/>
<circle cx="178" cy="156" r="1" fill="#1589D4"/>
<circle cx="178" cy="166" r="1" fill="#1589D4"/>
<circle cx="178" cy="176" r="1" fill="#1589D4"/>
<circle cx="178" cy="186" r="1" fill="#1589D4"/>
<circle cx="178" cy="196" r="1" fill="#1589D4"/>
<circle cx="178" cy="206" r="1" fill="#1589D4"/>
<circle cx="178" cy="216" r="1" fill="#1589D4"/>
<circle cx="178" cy="226" r="1" fill="#1589D4"/>
<circle cx="178" cy="236" r="1" fill="#1589D4"/>
<circle cx="178" cy="246" r="1" fill="#1589D4"/>
<circle cx="178" cy="256" r="1" fill="#1589D4"/>
<circle cx="178" cy="266" r="1" fill="#1589D4"/>
<circle cx="178" cy="276" r="1" fill="#1589D4"/>
<circle cx="178" cy="286" r="1" fill="#1589D4"/>
<circle cx="178" cy="296" r="1" fill="#1589D4"/>
<circle cx="178" cy="306" r="1" fill="#1589D4"/>
<circle cx="178" cy="316" r="1" fill="#1589D4"/>
<circle cx="178" cy="326" r="1" fill="#1589D4"/>
<circle cx="178" cy="336" r="1" fill="#1589D4"/>
<circle cx="178" cy="346" r="1" fill="#1589D4"/>
<circle cx="178" cy="356" r="1" fill="#1589D4"/>
<circle cx="178" cy="366" r="1" fill="#1589D4"/>
<circle cx="178" cy="376" r="1" fill="#1589D4"/>
<circle cx="178" cy="386" r="1" fill="#1589D4"/>
<circle cx="178" cy="396" r="1" fill="#1589D4"/>
<circle cx="178" cy="406" r="1" fill="#1589D4"/>
<circle cx="178" cy="416" r="1" fill="#1589D4"/>
<circle cx="178" cy="426" r="1" fill="#1589D4"/>
<circle cx="178" cy="436" r="1" fill="#1589D4"/>
<circle cx="178" cy="446" r="1" fill="#1589D4"/>
<circle cx="178" cy="456" r="1" fill="#1589D4"/>
</g>
</svg>
