<svg width="330" height="91" viewBox="0 0 330 91" fill="none" xmlns="http://www.w3.org/2000/svg">
<mask id="mask0" mask-type="alpha" maskUnits="userSpaceOnUse" x="0" y="0" width="330" height="91">
<rect y="0.224609" width="330" height="90" fill="#C4C4C4"/>
</mask>
<g mask="url(#mask0)">
<circle cx="4.00003" cy="7.22461" r="1" fill="white"/>
<circle cx="4.00003" cy="17.2246" r="1" fill="white"/>
<circle cx="4.00003" cy="27.2246" r="1" fill="white"/>
<circle cx="4.00003" cy="37.2246" r="1" fill="white"/>
<circle cx="4.00003" cy="47.2246" r="1" fill="white"/>
<circle cx="4.00003" cy="57.2246" r="1" fill="white"/>
<circle cx="4.00003" cy="67.2246" r="1" fill="white"/>
<circle cx="4.00003" cy="77.2246" r="1" fill="white"/>
<circle cx="4.00003" cy="87.2246" r="1" fill="white"/>
<circle cx="14" cy="7.22461" r="1" fill="white"/>
<circle cx="14" cy="17.2246" r="1" fill="white"/>
<circle cx="14" cy="27.2246" r="1" fill="white"/>
<circle cx="14" cy="37.2246" r="1" fill="white"/>
<circle cx="14" cy="47.2246" r="1" fill="white"/>
<circle cx="14" cy="57.2246" r="1" fill="white"/>
<circle cx="14" cy="67.2246" r="1" fill="white"/>
<circle cx="14" cy="77.2246" r="1" fill="white"/>
<circle cx="14" cy="87.2246" r="1" fill="white"/>
<circle cx="24" cy="7.22461" r="1" fill="white"/>
<circle cx="24" cy="17.2246" r="1" fill="white"/>
<circle cx="24" cy="27.2246" r="1" fill="white"/>
<circle cx="24" cy="37.2246" r="1" fill="white"/>
<circle cx="24" cy="47.2246" r="1" fill="white"/>
<circle cx="24" cy="57.2246" r="1" fill="white"/>
<circle cx="24" cy="67.2246" r="1" fill="white"/>
<circle cx="24" cy="77.2246" r="1" fill="white"/>
<circle cx="24" cy="87.2246" r="1" fill="white"/>
<circle cx="34" cy="7.22461" r="1" fill="white"/>
<circle cx="34" cy="17.2246" r="1" fill="white"/>
<circle cx="34" cy="27.2246" r="1" fill="white"/>
<circle cx="34" cy="37.2246" r="1" fill="white"/>
<circle cx="34" cy="47.2246" r="1" fill="white"/>
<circle cx="34" cy="57.2246" r="1" fill="white"/>
<circle cx="34" cy="67.2246" r="1" fill="white"/>
<circle cx="34" cy="77.2246" r="1" fill="white"/>
<circle cx="34" cy="87.2246" r="1" fill="white"/>
<circle cx="44" cy="7.22461" r="1" fill="white"/>
<circle cx="44" cy="17.2246" r="1" fill="white"/>
<circle cx="44" cy="27.2246" r="1" fill="white"/>
<circle cx="44" cy="37.2246" r="1" fill="white"/>
<circle cx="44" cy="47.2246" r="1" fill="white"/>
<circle cx="44" cy="57.2246" r="1" fill="white"/>
<circle cx="44" cy="67.2246" r="1" fill="white"/>
<circle cx="44" cy="77.2246" r="1" fill="white"/>
<circle cx="44" cy="87.2246" r="1" fill="white"/>
<circle cx="54" cy="7.22461" r="1" fill="white"/>
<circle cx="54" cy="17.2246" r="1" fill="white"/>
<circle cx="54" cy="27.2246" r="1" fill="white"/>
<circle cx="54" cy="37.2246" r="1" fill="white"/>
<circle cx="54" cy="47.2246" r="1" fill="white"/>
<circle cx="54" cy="57.2246" r="1" fill="white"/>
<circle cx="54" cy="67.2246" r="1" fill="white"/>
<circle cx="54" cy="77.2246" r="1" fill="white"/>
<circle cx="54" cy="87.2246" r="1" fill="white"/>
<circle cx="64" cy="7.22461" r="1" fill="white"/>
<circle cx="64" cy="17.2246" r="1" fill="white"/>
<circle cx="64" cy="27.2246" r="1" fill="white"/>
<circle cx="64" cy="37.2246" r="1" fill="white"/>
<circle cx="64" cy="47.2246" r="1" fill="white"/>
<circle cx="64" cy="57.2246" r="1" fill="white"/>
<circle cx="64" cy="67.2246" r="1" fill="white"/>
<circle cx="64" cy="77.2246" r="1" fill="white"/>
<circle cx="64" cy="87.2246" r="1" fill="white"/>
<circle cx="74" cy="7.22461" r="1" fill="white"/>
<circle cx="74" cy="17.2246" r="1" fill="white"/>
<circle cx="74" cy="27.2246" r="1" fill="white"/>
<circle cx="74" cy="37.2246" r="1" fill="white"/>
<circle cx="74" cy="47.2246" r="1" fill="white"/>
<circle cx="74" cy="57.2246" r="1" fill="white"/>
<circle cx="74" cy="67.2246" r="1" fill="white"/>
<circle cx="74" cy="77.2246" r="1" fill="white"/>
<circle cx="74" cy="87.2246" r="1" fill="white"/>
<circle cx="84" cy="7.22461" r="1" fill="white"/>
<circle cx="84" cy="17.2246" r="1" fill="white"/>
<circle cx="84" cy="27.2246" r="1" fill="white"/>
<circle cx="84" cy="37.2246" r="1" fill="white"/>
<circle cx="84" cy="47.2246" r="1" fill="white"/>
<circle cx="84" cy="57.2246" r="1" fill="white"/>
<circle cx="84" cy="67.2246" r="1" fill="white"/>
<circle cx="84" cy="77.2246" r="1" fill="white"/>
<circle cx="84" cy="87.2246" r="1" fill="white"/>
<circle cx="94" cy="7.22461" r="1" fill="white"/>
<circle cx="94" cy="17.2246" r="1" fill="white"/>
<circle cx="94" cy="27.2246" r="1" fill="white"/>
<circle cx="94" cy="37.2246" r="1" fill="white"/>
<circle cx="94" cy="47.2246" r="1" fill="white"/>
<circle cx="94" cy="57.2246" r="1" fill="white"/>
<circle cx="94" cy="67.2246" r="1" fill="white"/>
<circle cx="94" cy="77.2246" r="1" fill="white"/>
<circle cx="94" cy="87.2246" r="1" fill="white"/>
<circle cx="104" cy="7.22461" r="1" fill="white"/>
<circle cx="104" cy="17.2246" r="1" fill="white"/>
<circle cx="104" cy="27.2246" r="1" fill="white"/>
<circle cx="104" cy="37.2246" r="1" fill="white"/>
<circle cx="104" cy="47.2246" r="1" fill="white"/>
<circle cx="104" cy="57.2246" r="1" fill="white"/>
<circle cx="104" cy="67.2246" r="1" fill="white"/>
<circle cx="104" cy="77.2246" r="1" fill="white"/>
<circle cx="104" cy="87.2246" r="1" fill="white"/>
<circle cx="114" cy="7.22461" r="1" fill="white"/>
<circle cx="114" cy="17.2246" r="1" fill="white"/>
<circle cx="114" cy="27.2246" r="1" fill="white"/>
<circle cx="114" cy="37.2246" r="1" fill="white"/>
<circle cx="114" cy="47.2246" r="1" fill="white"/>
<circle cx="114" cy="57.2246" r="1" fill="white"/>
<circle cx="114" cy="67.2246" r="1" fill="white"/>
<circle cx="114" cy="77.2246" r="1" fill="white"/>
<circle cx="114" cy="87.2246" r="1" fill="white"/>
<circle cx="124" cy="7.22461" r="1" fill="white"/>
<circle cx="124" cy="17.2246" r="1" fill="white"/>
<circle cx="124" cy="27.2246" r="1" fill="white"/>
<circle cx="124" cy="37.2246" r="1" fill="white"/>
<circle cx="124" cy="47.2246" r="1" fill="white"/>
<circle cx="124" cy="57.2246" r="1" fill="white"/>
<circle cx="124" cy="67.2246" r="1" fill="white"/>
<circle cx="124" cy="77.2246" r="1" fill="white"/>
<circle cx="124" cy="87.2246" r="1" fill="white"/>
<circle cx="134" cy="7.22461" r="1" fill="white"/>
<circle cx="134" cy="17.2246" r="1" fill="white"/>
<circle cx="134" cy="27.2246" r="1" fill="white"/>
<circle cx="134" cy="37.2246" r="1" fill="white"/>
<circle cx="134" cy="47.2246" r="1" fill="white"/>
<circle cx="134" cy="57.2246" r="1" fill="white"/>
<circle cx="134" cy="67.2246" r="1" fill="white"/>
<circle cx="134" cy="77.2246" r="1" fill="white"/>
<circle cx="134" cy="87.2246" r="1" fill="white"/>
<circle cx="144" cy="7.22461" r="1" fill="white"/>
<circle cx="144" cy="17.2246" r="1" fill="white"/>
<circle cx="144" cy="27.2246" r="1" fill="white"/>
<circle cx="144" cy="37.2246" r="1" fill="white"/>
<circle cx="144" cy="47.2246" r="1" fill="white"/>
<circle cx="144" cy="57.2246" r="1" fill="white"/>
<circle cx="144" cy="67.2246" r="1" fill="white"/>
<circle cx="144" cy="77.2246" r="1" fill="white"/>
<circle cx="144" cy="87.2246" r="1" fill="white"/>
<circle cx="154" cy="7.22461" r="1" fill="white"/>
<circle cx="154" cy="17.2246" r="1" fill="white"/>
<circle cx="154" cy="27.2246" r="1" fill="white"/>
<circle cx="154" cy="37.2246" r="1" fill="white"/>
<circle cx="154" cy="47.2246" r="1" fill="white"/>
<circle cx="154" cy="57.2246" r="1" fill="white"/>
<circle cx="154" cy="67.2246" r="1" fill="white"/>
<circle cx="154" cy="77.2246" r="1" fill="white"/>
<circle cx="154" cy="87.2246" r="1" fill="white"/>
<circle cx="164" cy="7.22461" r="1" fill="white"/>
<circle cx="164" cy="17.2246" r="1" fill="white"/>
<circle cx="164" cy="27.2246" r="1" fill="white"/>
<circle cx="164" cy="37.2246" r="1" fill="white"/>
<circle cx="164" cy="47.2246" r="1" fill="white"/>
<circle cx="164" cy="57.2246" r="1" fill="white"/>
<circle cx="164" cy="67.2246" r="1" fill="white"/>
<circle cx="164" cy="77.2246" r="1" fill="white"/>
<circle cx="164" cy="87.2246" r="1" fill="white"/>
<circle cx="174" cy="7.22461" r="1" fill="white"/>
<circle cx="174" cy="17.2246" r="1" fill="white"/>
<circle cx="174" cy="27.2246" r="1" fill="white"/>
<circle cx="174" cy="37.2246" r="1" fill="white"/>
<circle cx="174" cy="47.2246" r="1" fill="white"/>
<circle cx="174" cy="57.2246" r="1" fill="white"/>
<circle cx="174" cy="67.2246" r="1" fill="white"/>
<circle cx="174" cy="77.2246" r="1" fill="white"/>
<circle cx="174" cy="87.2246" r="1" fill="white"/>
<circle cx="184" cy="7.22461" r="1" fill="white"/>
<circle cx="184" cy="17.2246" r="1" fill="white"/>
<circle cx="184" cy="27.2246" r="1" fill="white"/>
<circle cx="184" cy="37.2246" r="1" fill="white"/>
<circle cx="184" cy="47.2246" r="1" fill="white"/>
<circle cx="184" cy="57.2246" r="1" fill="white"/>
<circle cx="184" cy="67.2246" r="1" fill="white"/>
<circle cx="184" cy="77.2246" r="1" fill="white"/>
<circle cx="184" cy="87.2246" r="1" fill="white"/>
<circle cx="194" cy="7.22461" r="1" fill="white"/>
<circle cx="194" cy="17.2246" r="1" fill="white"/>
<circle cx="194" cy="27.2246" r="1" fill="white"/>
<circle cx="194" cy="37.2246" r="1" fill="white"/>
<circle cx="194" cy="47.2246" r="1" fill="white"/>
<circle cx="194" cy="57.2246" r="1" fill="white"/>
<circle cx="194" cy="67.2246" r="1" fill="white"/>
<circle cx="194" cy="77.2246" r="1" fill="white"/>
<circle cx="194" cy="87.2246" r="1" fill="white"/>
<circle cx="204" cy="7.22461" r="1" fill="white"/>
<circle cx="204" cy="17.2246" r="1" fill="white"/>
<circle cx="204" cy="27.2246" r="1" fill="white"/>
<circle cx="204" cy="37.2246" r="1" fill="white"/>
<circle cx="204" cy="47.2246" r="1" fill="white"/>
<circle cx="204" cy="57.2246" r="1" fill="white"/>
<circle cx="204" cy="67.2246" r="1" fill="white"/>
<circle cx="204" cy="77.2246" r="1" fill="white"/>
<circle cx="204" cy="87.2246" r="1" fill="white"/>
<circle cx="214" cy="7.22461" r="1" fill="white"/>
<circle cx="214" cy="17.2246" r="1" fill="white"/>
<circle cx="214" cy="27.2246" r="1" fill="white"/>
<circle cx="214" cy="37.2246" r="1" fill="white"/>
<circle cx="214" cy="47.2246" r="1" fill="white"/>
<circle cx="214" cy="57.2246" r="1" fill="white"/>
<circle cx="214" cy="67.2246" r="1" fill="white"/>
<circle cx="214" cy="77.2246" r="1" fill="white"/>
<circle cx="214" cy="87.2246" r="1" fill="white"/>
<circle cx="224" cy="7.22461" r="1" fill="white"/>
<circle cx="224" cy="17.2246" r="1" fill="white"/>
<circle cx="224" cy="27.2246" r="1" fill="white"/>
<circle cx="224" cy="37.2246" r="1" fill="white"/>
<circle cx="224" cy="47.2246" r="1" fill="white"/>
<circle cx="224" cy="57.2246" r="1" fill="white"/>
<circle cx="224" cy="67.2246" r="1" fill="white"/>
<circle cx="224" cy="77.2246" r="1" fill="white"/>
<circle cx="224" cy="87.2246" r="1" fill="white"/>
<circle cx="234" cy="7.22461" r="1" fill="white"/>
<circle cx="234" cy="17.2246" r="1" fill="white"/>
<circle cx="234" cy="27.2246" r="1" fill="white"/>
<circle cx="234" cy="37.2246" r="1" fill="white"/>
<circle cx="234" cy="47.2246" r="1" fill="white"/>
<circle cx="234" cy="57.2246" r="1" fill="white"/>
<circle cx="234" cy="67.2246" r="1" fill="white"/>
<circle cx="234" cy="77.2246" r="1" fill="white"/>
<circle cx="234" cy="87.2246" r="1" fill="white"/>
<circle cx="244" cy="7.22461" r="1" fill="white"/>
<circle cx="244" cy="17.2246" r="1" fill="white"/>
<circle cx="244" cy="27.2246" r="1" fill="white"/>
<circle cx="244" cy="37.2246" r="1" fill="white"/>
<circle cx="244" cy="47.2246" r="1" fill="white"/>
<circle cx="244" cy="57.2246" r="1" fill="white"/>
<circle cx="244" cy="67.2246" r="1" fill="white"/>
<circle cx="244" cy="77.2246" r="1" fill="white"/>
<circle cx="244" cy="87.2246" r="1" fill="white"/>
<circle cx="254" cy="7.22461" r="1" fill="white"/>
<circle cx="254" cy="17.2246" r="1" fill="white"/>
<circle cx="254" cy="27.2246" r="1" fill="white"/>
<circle cx="254" cy="37.2246" r="1" fill="white"/>
<circle cx="254" cy="47.2246" r="1" fill="white"/>
<circle cx="254" cy="57.2246" r="1" fill="white"/>
<circle cx="254" cy="67.2246" r="1" fill="white"/>
<circle cx="254" cy="77.2246" r="1" fill="white"/>
<circle cx="254" cy="87.2246" r="1" fill="white"/>
<circle cx="264" cy="7.22461" r="1" fill="white"/>
<circle cx="264" cy="17.2246" r="1" fill="white"/>
<circle cx="264" cy="27.2246" r="1" fill="white"/>
<circle cx="264" cy="37.2246" r="1" fill="white"/>
<circle cx="264" cy="47.2246" r="1" fill="white"/>
<circle cx="264" cy="57.2246" r="1" fill="white"/>
<circle cx="264" cy="67.2246" r="1" fill="white"/>
<circle cx="264" cy="77.2246" r="1" fill="white"/>
<circle cx="264" cy="87.2246" r="1" fill="white"/>
<circle cx="274" cy="7.22461" r="1" fill="white"/>
<circle cx="274" cy="17.2246" r="1" fill="white"/>
<circle cx="274" cy="27.2246" r="1" fill="white"/>
<circle cx="274" cy="37.2246" r="1" fill="white"/>
<circle cx="274" cy="47.2246" r="1" fill="white"/>
<circle cx="274" cy="57.2246" r="1" fill="white"/>
<circle cx="274" cy="67.2246" r="1" fill="white"/>
<circle cx="274" cy="77.2246" r="1" fill="white"/>
<circle cx="274" cy="87.2246" r="1" fill="white"/>
<circle cx="284" cy="7.22461" r="1" fill="white"/>
<circle cx="284" cy="17.2246" r="1" fill="white"/>
<circle cx="284" cy="27.2246" r="1" fill="white"/>
<circle cx="284" cy="37.2246" r="1" fill="white"/>
<circle cx="284" cy="47.2246" r="1" fill="white"/>
<circle cx="284" cy="57.2246" r="1" fill="white"/>
<circle cx="284" cy="67.2246" r="1" fill="white"/>
<circle cx="284" cy="77.2246" r="1" fill="white"/>
<circle cx="284" cy="87.2246" r="1" fill="white"/>
<circle cx="294" cy="7.22461" r="1" fill="white"/>
<circle cx="294" cy="17.2246" r="1" fill="white"/>
<circle cx="294" cy="27.2246" r="1" fill="white"/>
<circle cx="294" cy="37.2246" r="1" fill="white"/>
<circle cx="294" cy="47.2246" r="1" fill="white"/>
<circle cx="294" cy="57.2246" r="1" fill="white"/>
<circle cx="294" cy="67.2246" r="1" fill="white"/>
<circle cx="294" cy="77.2246" r="1" fill="white"/>
<circle cx="294" cy="87.2246" r="1" fill="white"/>
<circle cx="304" cy="7.22461" r="1" fill="white"/>
<circle cx="304" cy="17.2246" r="1" fill="white"/>
<circle cx="304" cy="27.2246" r="1" fill="white"/>
<circle cx="304" cy="37.2246" r="1" fill="white"/>
<circle cx="304" cy="47.2246" r="1" fill="white"/>
<circle cx="304" cy="57.2246" r="1" fill="white"/>
<circle cx="304" cy="67.2246" r="1" fill="white"/>
<circle cx="304" cy="77.2246" r="1" fill="white"/>
<circle cx="304" cy="87.2246" r="1" fill="white"/>
<circle cx="314" cy="7.22461" r="1" fill="white"/>
<circle cx="314" cy="17.2246" r="1" fill="white"/>
<circle cx="314" cy="27.2246" r="1" fill="white"/>
<circle cx="314" cy="37.2246" r="1" fill="white"/>
<circle cx="314" cy="47.2246" r="1" fill="white"/>
<circle cx="314" cy="57.2246" r="1" fill="white"/>
<circle cx="314" cy="67.2246" r="1" fill="white"/>
<circle cx="314" cy="77.2246" r="1" fill="white"/>
<circle cx="314" cy="87.2246" r="1" fill="white"/>
<circle cx="324" cy="7.22461" r="1" fill="white"/>
<circle cx="324" cy="17.2246" r="1" fill="white"/>
<circle cx="324" cy="27.2246" r="1" fill="white"/>
<circle cx="324" cy="37.2246" r="1" fill="white"/>
<circle cx="324" cy="47.2246" r="1" fill="white"/>
<circle cx="324" cy="57.2246" r="1" fill="white"/>
<circle cx="324" cy="67.2246" r="1" fill="white"/>
<circle cx="324" cy="77.2246" r="1" fill="white"/>
<circle cx="324" cy="87.2246" r="1" fill="white"/>
</g>
</svg>
