<svg width="648" height="635" viewBox="0 0 648 635" fill="none" xmlns="http://www.w3.org/2000/svg">
	<path opacity="0.3" d="M316.337 634.112C141.629 459.404 141.629 176.147 316.337 1.4385L632.674 317.775L316.337 634.112Z" fill="#0066A4"/>
	<path opacity="0.3" d="M370.732 579.507C226.182 434.957 226.182 200.595 370.732 56.0448L632.463 317.776L370.732 579.507Z" fill="#0066A4"/>
	<g>
		<g>
			<path d="M316.225 634C235.836 552.599 186.225 440.832 186.225 317.5C186.225 194.168 235.836 82.4013 316.224 1.00001" stroke="#176cb7" stroke-width="2"/>
		</g>
		<g>
			<path d="M335.225 615C257.927 538.485 210.225 433.429 210.225 317.5C210.225 201.571 257.927 96.5146 335.224 20" stroke="#176cb7" stroke-width="2"/>
		</g>
		<g>
			<path d="M353.225 597C280.874 525.115 236.225 426.414 236.225 317.5C236.225 208.586 280.874 109.885 353.224 38" stroke="#176cb7" stroke-width="2"/>
		</g>
		<g>
			<path d="M371.225 580C303.822 512.616 262.225 420.095 262.225 318C262.225 215.905 303.822 123.384 371.225 56" stroke="#176cb7" stroke-width="2"/>
		</g>
	</g>
	<circle opacity="0.3" cx="630" cy="318" r="18" fill="#0099EF"/>
	<circle cx="630" cy="318" r="12" fill="#0099EF"/>
</svg>
