<svg width="91" height="76" viewBox="0 0 91 76" fill="none" xmlns="http://www.w3.org/2000/svg">
<mask id="mask0" mask-type="alpha" maskUnits="userSpaceOnUse" x="0" y="0" width="91" height="76">
<rect x="91" width="76" height="91" transform="rotate(90 91 0)" fill="#C4C4C4"/>
</mask>
<g mask="url(#mask0)">
<ellipse cx="84" cy="8.6867" rx="1.03478" ry="1" transform="rotate(90 84 8.6867)" fill="#1589D4"/>
<ellipse cx="74" cy="8.6867" rx="1.03478" ry="1" transform="rotate(90 74 8.6867)" fill="#1589D4"/>
<ellipse cx="64" cy="8.6867" rx="1.03478" ry="1" transform="rotate(90 64 8.6867)" fill="#1589D4"/>
<ellipse cx="54" cy="8.6867" rx="1.03478" ry="1" transform="rotate(90 54 8.6867)" fill="#1589D4"/>
<ellipse cx="44" cy="8.6867" rx="1.03478" ry="1" transform="rotate(90 44 8.6867)" fill="#1589D4"/>
<ellipse cx="34" cy="8.6867" rx="1.03478" ry="1" transform="rotate(90 34 8.6867)" fill="#1589D4"/>
<ellipse cx="24" cy="8.6867" rx="1.03478" ry="1" transform="rotate(90 24 8.6867)" fill="#1589D4"/>
<ellipse cx="14" cy="8.6867" rx="1.03478" ry="1" transform="rotate(90 14 8.6867)" fill="#1589D4"/>
<ellipse cx="4" cy="8.6867" rx="1.03478" ry="1" transform="rotate(90 4 8.6867)" fill="#1589D4"/>
<ellipse cx="84" cy="19.0345" rx="1.03478" ry="1" transform="rotate(90 84 19.0345)" fill="#1589D4"/>
<ellipse cx="74" cy="19.0345" rx="1.03478" ry="1" transform="rotate(90 74 19.0345)" fill="#1589D4"/>
<ellipse cx="64" cy="19.0345" rx="1.03478" ry="1" transform="rotate(90 64 19.0345)" fill="#1589D4"/>
<ellipse cx="54" cy="19.0345" rx="1.03478" ry="1" transform="rotate(90 54 19.0345)" fill="#1589D4"/>
<ellipse cx="44" cy="19.0345" rx="1.03478" ry="1" transform="rotate(90 44 19.0345)" fill="#1589D4"/>
<ellipse cx="34" cy="19.0345" rx="1.03478" ry="1" transform="rotate(90 34 19.0345)" fill="#1589D4"/>
<ellipse cx="24" cy="19.0345" rx="1.03478" ry="1" transform="rotate(90 24 19.0345)" fill="#1589D4"/>
<ellipse cx="14" cy="19.0345" rx="1.03478" ry="1" transform="rotate(90 14 19.0345)" fill="#1589D4"/>
<ellipse cx="4" cy="19.0345" rx="1.03478" ry="1" transform="rotate(90 4 19.0345)" fill="#1589D4"/>
<ellipse cx="84" cy="29.3823" rx="1.03478" ry="1" transform="rotate(90 84 29.3823)" fill="#1589D4"/>
<ellipse cx="74" cy="29.3823" rx="1.03478" ry="1" transform="rotate(90 74 29.3823)" fill="#1589D4"/>
<ellipse cx="64" cy="29.3823" rx="1.03478" ry="1" transform="rotate(90 64 29.3823)" fill="#1589D4"/>
<ellipse cx="54" cy="29.3823" rx="1.03478" ry="1" transform="rotate(90 54 29.3823)" fill="#1589D4"/>
<ellipse cx="44" cy="29.3823" rx="1.03478" ry="1" transform="rotate(90 44 29.3823)" fill="#1589D4"/>
<ellipse cx="34" cy="29.3823" rx="1.03478" ry="1" transform="rotate(90 34 29.3823)" fill="#1589D4"/>
<ellipse cx="24" cy="29.3823" rx="1.03478" ry="1" transform="rotate(90 24 29.3823)" fill="#1589D4"/>
<ellipse cx="14" cy="29.3823" rx="1.03478" ry="1" transform="rotate(90 14 29.3823)" fill="#1589D4"/>
<ellipse cx="4" cy="29.3823" rx="1.03478" ry="1" transform="rotate(90 4 29.3823)" fill="#1589D4"/>
<ellipse cx="84" cy="39.7301" rx="1.03477" ry="1" transform="rotate(90 84 39.7301)" fill="#1589D4"/>
<ellipse cx="74" cy="39.7301" rx="1.03477" ry="1" transform="rotate(90 74 39.7301)" fill="#1589D4"/>
<ellipse cx="64" cy="39.7301" rx="1.03477" ry="1" transform="rotate(90 64 39.7301)" fill="#1589D4"/>
<ellipse cx="54" cy="39.7301" rx="1.03477" ry="1" transform="rotate(90 54 39.7301)" fill="#1589D4"/>
<ellipse cx="44" cy="39.7301" rx="1.03477" ry="1" transform="rotate(90 44 39.7301)" fill="#1589D4"/>
<ellipse cx="34" cy="39.7301" rx="1.03477" ry="1" transform="rotate(90 34 39.7301)" fill="#1589D4"/>
<ellipse cx="24" cy="39.7301" rx="1.03477" ry="1" transform="rotate(90 24 39.7301)" fill="#1589D4"/>
<ellipse cx="14" cy="39.7301" rx="1.03477" ry="1" transform="rotate(90 14 39.7301)" fill="#1589D4"/>
<ellipse cx="4" cy="39.7301" rx="1.03477" ry="1" transform="rotate(90 4 39.7301)" fill="#1589D4"/>
<ellipse cx="84" cy="50.0779" rx="1.03478" ry="1" transform="rotate(90 84 50.0779)" fill="#1589D4"/>
<ellipse cx="74" cy="50.0779" rx="1.03478" ry="1" transform="rotate(90 74 50.0779)" fill="#1589D4"/>
<ellipse cx="64" cy="50.0779" rx="1.03478" ry="1" transform="rotate(90 64 50.0779)" fill="#1589D4"/>
<ellipse cx="54" cy="50.0779" rx="1.03478" ry="1" transform="rotate(90 54 50.0779)" fill="#1589D4"/>
<ellipse cx="44" cy="50.0779" rx="1.03478" ry="1" transform="rotate(90 44 50.0779)" fill="#1589D4"/>
<ellipse cx="34" cy="50.0779" rx="1.03478" ry="1" transform="rotate(90 34 50.0779)" fill="#1589D4"/>
<ellipse cx="24" cy="50.0779" rx="1.03478" ry="1" transform="rotate(90 24 50.0779)" fill="#1589D4"/>
<ellipse cx="14" cy="50.0779" rx="1.03478" ry="1" transform="rotate(90 14 50.0779)" fill="#1589D4"/>
<ellipse cx="4" cy="50.0779" rx="1.03478" ry="1" transform="rotate(90 4 50.0779)" fill="#1589D4"/>
<ellipse cx="84" cy="60.4257" rx="1.03478" ry="1" transform="rotate(90 84 60.4257)" fill="#1589D4"/>
<ellipse cx="74" cy="60.4257" rx="1.03478" ry="1" transform="rotate(90 74 60.4257)" fill="#1589D4"/>
<ellipse cx="64" cy="60.4257" rx="1.03478" ry="1" transform="rotate(90 64 60.4257)" fill="#1589D4"/>
<ellipse cx="54" cy="60.4257" rx="1.03478" ry="1" transform="rotate(90 54 60.4257)" fill="#1589D4"/>
<ellipse cx="44" cy="60.4257" rx="1.03478" ry="1" transform="rotate(90 44 60.4257)" fill="#1589D4"/>
<ellipse cx="34" cy="60.4257" rx="1.03478" ry="1" transform="rotate(90 34 60.4257)" fill="#1589D4"/>
<ellipse cx="24" cy="60.4257" rx="1.03478" ry="1" transform="rotate(90 24 60.4257)" fill="#1589D4"/>
<ellipse cx="14" cy="60.4257" rx="1.03478" ry="1" transform="rotate(90 14 60.4257)" fill="#1589D4"/>
<ellipse cx="4" cy="60.4257" rx="1.03478" ry="1" transform="rotate(90 4 60.4257)" fill="#1589D4"/>
<ellipse cx="84" cy="70.7735" rx="1.03477" ry="1" transform="rotate(90 84 70.7735)" fill="#1589D4"/>
<ellipse cx="74" cy="70.7735" rx="1.03477" ry="1" transform="rotate(90 74 70.7735)" fill="#1589D4"/>
<ellipse cx="64" cy="70.7735" rx="1.03477" ry="1" transform="rotate(90 64 70.7735)" fill="#1589D4"/>
<ellipse cx="54" cy="70.7735" rx="1.03477" ry="1" transform="rotate(90 54 70.7735)" fill="#1589D4"/>
<ellipse cx="44" cy="70.7735" rx="1.03477" ry="1" transform="rotate(90 44 70.7735)" fill="#1589D4"/>
<ellipse cx="34" cy="70.7735" rx="1.03477" ry="1" transform="rotate(90 34 70.7735)" fill="#1589D4"/>
<ellipse cx="24" cy="70.7735" rx="1.03477" ry="1" transform="rotate(90 24 70.7735)" fill="#1589D4"/>
<ellipse cx="14" cy="70.7735" rx="1.03477" ry="1" transform="rotate(90 14 70.7735)" fill="#1589D4"/>
<ellipse cx="4" cy="70.7735" rx="1.03477" ry="1" transform="rotate(90 4 70.7735)" fill="#1589D4"/>
</g>
</svg>
