<svg width="210" height="54" viewBox="0 0 210 54" fill="none" xmlns="http://www.w3.org/2000/svg">
<mask id="mask0" mask-type="alpha" maskUnits="userSpaceOnUse" x="0" y="0" width="210" height="54">
<rect x="210" width="54" height="210" transform="rotate(90 210 0)" fill="#C4C4C4"/>
</mask>
<g mask="url(#mask0)">
<ellipse cx="205" cy="7.24345" rx="1.03477" ry="1" transform="rotate(90 205 7.24345)" fill="#1589D4"/>
<ellipse cx="195" cy="7.24345" rx="1.03477" ry="1" transform="rotate(90 195 7.24345)" fill="#1589D4"/>
<ellipse cx="185" cy="7.24345" rx="1.03477" ry="1.00002" transform="rotate(90 185 7.24345)" fill="#1589D4"/>
<ellipse cx="175" cy="7.24345" rx="1.03477" ry="0.999985" transform="rotate(90 175 7.24345)" fill="#1589D4"/>
<ellipse cx="165" cy="7.24345" rx="1.03477" ry="1" transform="rotate(90 165 7.24345)" fill="#1589D4"/>
<ellipse cx="155" cy="7.24345" rx="1.03477" ry="1" transform="rotate(90 155 7.24345)" fill="#1589D4"/>
<ellipse cx="145" cy="7.24345" rx="1.03477" ry="0.999985" transform="rotate(90 145 7.24345)" fill="#1589D4"/>
<ellipse cx="135" cy="7.24345" rx="1.03477" ry="1.00002" transform="rotate(90 135 7.24345)" fill="#1589D4"/>
<ellipse cx="125" cy="7.24345" rx="1.03477" ry="1" transform="rotate(90 125 7.24345)" fill="#1589D4"/>
<ellipse cx="115" cy="7.24345" rx="1.03477" ry="1" transform="rotate(90 115 7.24345)" fill="#1589D4"/>
<ellipse cx="105" cy="7.24345" rx="1.03477" ry="1.00002" transform="rotate(90 105 7.24345)" fill="#1589D4"/>
<ellipse cx="95" cy="7.24345" rx="1.03477" ry="1" transform="rotate(90 95 7.24345)" fill="#1589D4"/>
<ellipse cx="85" cy="7.24345" rx="1.03477" ry="1" transform="rotate(90 85 7.24345)" fill="#1589D4"/>
<ellipse cx="75" cy="7.24345" rx="1.03477" ry="1.00002" transform="rotate(90 75 7.24345)" fill="#1589D4"/>
<ellipse cx="65" cy="7.24345" rx="1.03477" ry="1" transform="rotate(90 65 7.24345)" fill="#1589D4"/>
<ellipse cx="55" cy="7.24345" rx="1.03477" ry="1" transform="rotate(90 55 7.24345)" fill="#1589D4"/>
<ellipse cx="45" cy="7.24345" rx="1.03477" ry="1" transform="rotate(90 45 7.24345)" fill="#1589D4"/>
<ellipse cx="35" cy="7.24345" rx="1.03477" ry="1" transform="rotate(90 35 7.24345)" fill="#1589D4"/>
<ellipse cx="25" cy="7.24345" rx="1.03477" ry="1" transform="rotate(90 25 7.24345)" fill="#1589D4"/>
<ellipse cx="15" cy="7.24345" rx="1.03477" ry="1" transform="rotate(90 15 7.24345)" fill="#1589D4"/>
<ellipse cx="5" cy="7.24345" rx="1.03477" ry="1" transform="rotate(90 5 7.24345)" fill="#1589D4"/>
<ellipse cx="205" cy="17.5912" rx="1.03478" ry="1" transform="rotate(90 205 17.5912)" fill="#1589D4"/>
<ellipse cx="195" cy="17.5912" rx="1.03478" ry="1" transform="rotate(90 195 17.5912)" fill="#1589D4"/>
<ellipse cx="185" cy="17.5912" rx="1.03478" ry="1.00002" transform="rotate(90 185 17.5912)" fill="#1589D4"/>
<ellipse cx="175" cy="17.5912" rx="1.03478" ry="0.999985" transform="rotate(90 175 17.5912)" fill="#1589D4"/>
<ellipse cx="165" cy="17.5912" rx="1.03478" ry="1" transform="rotate(90 165 17.5912)" fill="#1589D4"/>
<ellipse cx="155" cy="17.5912" rx="1.03478" ry="1" transform="rotate(90 155 17.5912)" fill="#1589D4"/>
<ellipse cx="145" cy="17.5912" rx="1.03478" ry="0.999985" transform="rotate(90 145 17.5912)" fill="#1589D4"/>
<ellipse cx="135" cy="17.5912" rx="1.03478" ry="1.00002" transform="rotate(90 135 17.5912)" fill="#1589D4"/>
<ellipse cx="125" cy="17.5912" rx="1.03478" ry="1" transform="rotate(90 125 17.5912)" fill="#1589D4"/>
<ellipse cx="115" cy="17.5912" rx="1.03478" ry="1" transform="rotate(90 115 17.5912)" fill="#1589D4"/>
<ellipse cx="105" cy="17.5912" rx="1.03478" ry="1.00002" transform="rotate(90 105 17.5912)" fill="#1589D4"/>
<ellipse cx="95" cy="17.5912" rx="1.03478" ry="1" transform="rotate(90 95 17.5912)" fill="#1589D4"/>
<ellipse cx="85" cy="17.5912" rx="1.03478" ry="1" transform="rotate(90 85 17.5912)" fill="#1589D4"/>
<ellipse cx="75" cy="17.5912" rx="1.03478" ry="1.00002" transform="rotate(90 75 17.5912)" fill="#1589D4"/>
<ellipse cx="65" cy="17.5912" rx="1.03478" ry="1" transform="rotate(90 65 17.5912)" fill="#1589D4"/>
<ellipse cx="55" cy="17.5912" rx="1.03478" ry="1" transform="rotate(90 55 17.5912)" fill="#1589D4"/>
<ellipse cx="45" cy="17.5912" rx="1.03478" ry="1" transform="rotate(90 45 17.5912)" fill="#1589D4"/>
<ellipse cx="35" cy="17.5912" rx="1.03478" ry="1" transform="rotate(90 35 17.5912)" fill="#1589D4"/>
<ellipse cx="25" cy="17.5912" rx="1.03478" ry="1" transform="rotate(90 25 17.5912)" fill="#1589D4"/>
<ellipse cx="15" cy="17.5912" rx="1.03478" ry="1" transform="rotate(90 15 17.5912)" fill="#1589D4"/>
<ellipse cx="5" cy="17.5912" rx="1.03478" ry="1" transform="rotate(90 5 17.5912)" fill="#1589D4"/>
<ellipse cx="205" cy="27.9391" rx="1.03478" ry="1" transform="rotate(90 205 27.9391)" fill="#1589D4"/>
<ellipse cx="195" cy="27.9391" rx="1.03478" ry="1" transform="rotate(90 195 27.9391)" fill="#1589D4"/>
<ellipse cx="185" cy="27.9391" rx="1.03478" ry="1.00002" transform="rotate(90 185 27.9391)" fill="#1589D4"/>
<ellipse cx="175" cy="27.9391" rx="1.03478" ry="0.999985" transform="rotate(90 175 27.9391)" fill="#1589D4"/>
<ellipse cx="165" cy="27.9391" rx="1.03478" ry="1" transform="rotate(90 165 27.9391)" fill="#1589D4"/>
<ellipse cx="155" cy="27.9391" rx="1.03478" ry="1" transform="rotate(90 155 27.9391)" fill="#1589D4"/>
<ellipse cx="145" cy="27.9391" rx="1.03478" ry="0.999985" transform="rotate(90 145 27.9391)" fill="#1589D4"/>
<ellipse cx="135" cy="27.9391" rx="1.03478" ry="1.00002" transform="rotate(90 135 27.9391)" fill="#1589D4"/>
<ellipse cx="125" cy="27.9391" rx="1.03478" ry="1" transform="rotate(90 125 27.9391)" fill="#1589D4"/>
<ellipse cx="115" cy="27.9391" rx="1.03478" ry="1" transform="rotate(90 115 27.9391)" fill="#1589D4"/>
<ellipse cx="105" cy="27.9391" rx="1.03478" ry="1.00002" transform="rotate(90 105 27.9391)" fill="#1589D4"/>
<ellipse cx="95" cy="27.9391" rx="1.03478" ry="1" transform="rotate(90 95 27.9391)" fill="#1589D4"/>
<ellipse cx="85" cy="27.9391" rx="1.03478" ry="1" transform="rotate(90 85 27.9391)" fill="#1589D4"/>
<ellipse cx="75" cy="27.939" rx="1.03478" ry="1.00002" transform="rotate(90 75 27.939)" fill="#1589D4"/>
<ellipse cx="65" cy="27.939" rx="1.03478" ry="1" transform="rotate(90 65 27.939)" fill="#1589D4"/>
<ellipse cx="55" cy="27.939" rx="1.03478" ry="1" transform="rotate(90 55 27.939)" fill="#1589D4"/>
<ellipse cx="45" cy="27.939" rx="1.03478" ry="1" transform="rotate(90 45 27.939)" fill="#1589D4"/>
<ellipse cx="35" cy="27.939" rx="1.03478" ry="1" transform="rotate(90 35 27.939)" fill="#1589D4"/>
<ellipse cx="25" cy="27.939" rx="1.03478" ry="1" transform="rotate(90 25 27.939)" fill="#1589D4"/>
<ellipse cx="15" cy="27.939" rx="1.03478" ry="1" transform="rotate(90 15 27.939)" fill="#1589D4"/>
<ellipse cx="5" cy="27.939" rx="1.03478" ry="1" transform="rotate(90 5 27.939)" fill="#1589D4"/>
<ellipse cx="205" cy="38.2869" rx="1.03478" ry="1" transform="rotate(90 205 38.2869)" fill="#1589D4"/>
<ellipse cx="195" cy="38.2869" rx="1.03478" ry="1" transform="rotate(90 195 38.2869)" fill="#1589D4"/>
<ellipse cx="185" cy="38.2869" rx="1.03478" ry="1.00002" transform="rotate(90 185 38.2869)" fill="#1589D4"/>
<ellipse cx="175" cy="38.2869" rx="1.03478" ry="0.999985" transform="rotate(90 175 38.2869)" fill="#1589D4"/>
<ellipse cx="165" cy="38.2869" rx="1.03478" ry="1" transform="rotate(90 165 38.2869)" fill="#1589D4"/>
<ellipse cx="155" cy="38.2869" rx="1.03478" ry="1" transform="rotate(90 155 38.2869)" fill="#1589D4"/>
<ellipse cx="145" cy="38.2869" rx="1.03478" ry="0.999985" transform="rotate(90 145 38.2869)" fill="#1589D4"/>
<ellipse cx="135" cy="38.2869" rx="1.03478" ry="1.00002" transform="rotate(90 135 38.2869)" fill="#1589D4"/>
<ellipse cx="125" cy="38.2869" rx="1.03478" ry="1" transform="rotate(90 125 38.2869)" fill="#1589D4"/>
<ellipse cx="115" cy="38.2869" rx="1.03478" ry="1" transform="rotate(90 115 38.2869)" fill="#1589D4"/>
<ellipse cx="105" cy="38.2869" rx="1.03478" ry="1.00002" transform="rotate(90 105 38.2869)" fill="#1589D4"/>
<ellipse cx="95" cy="38.2869" rx="1.03478" ry="1" transform="rotate(90 95 38.2869)" fill="#1589D4"/>
<ellipse cx="85" cy="38.2869" rx="1.03478" ry="1" transform="rotate(90 85 38.2869)" fill="#1589D4"/>
<ellipse cx="75" cy="38.2869" rx="1.03478" ry="1.00002" transform="rotate(90 75 38.2869)" fill="#1589D4"/>
<ellipse cx="65" cy="38.2869" rx="1.03478" ry="1" transform="rotate(90 65 38.2869)" fill="#1589D4"/>
<ellipse cx="55" cy="38.2869" rx="1.03478" ry="1" transform="rotate(90 55 38.2869)" fill="#1589D4"/>
<ellipse cx="45" cy="38.2869" rx="1.03478" ry="1" transform="rotate(90 45 38.2869)" fill="#1589D4"/>
<ellipse cx="35" cy="38.2869" rx="1.03478" ry="1" transform="rotate(90 35 38.2869)" fill="#1589D4"/>
<ellipse cx="25" cy="38.2869" rx="1.03478" ry="1" transform="rotate(90 25 38.2869)" fill="#1589D4"/>
<ellipse cx="15" cy="38.2869" rx="1.03478" ry="1" transform="rotate(90 15 38.2869)" fill="#1589D4"/>
<ellipse cx="5" cy="38.2869" rx="1.03478" ry="1" transform="rotate(90 5 38.2869)" fill="#1589D4"/>
<ellipse cx="205" cy="48.6347" rx="1.03478" ry="1" transform="rotate(90 205 48.6347)" fill="#1589D4"/>
<ellipse cx="195" cy="48.6347" rx="1.03478" ry="1" transform="rotate(90 195 48.6347)" fill="#1589D4"/>
<ellipse cx="185" cy="48.6347" rx="1.03478" ry="1.00002" transform="rotate(90 185 48.6347)" fill="#1589D4"/>
<ellipse cx="175" cy="48.6347" rx="1.03478" ry="0.999985" transform="rotate(90 175 48.6347)" fill="#1589D4"/>
<ellipse cx="165" cy="48.6347" rx="1.03478" ry="1" transform="rotate(90 165 48.6347)" fill="#1589D4"/>
<ellipse cx="155" cy="48.6347" rx="1.03478" ry="1" transform="rotate(90 155 48.6347)" fill="#1589D4"/>
<ellipse cx="145" cy="48.6347" rx="1.03478" ry="0.999985" transform="rotate(90 145 48.6347)" fill="#1589D4"/>
<ellipse cx="135" cy="48.6347" rx="1.03478" ry="1.00002" transform="rotate(90 135 48.6347)" fill="#1589D4"/>
<ellipse cx="125" cy="48.6347" rx="1.03478" ry="1" transform="rotate(90 125 48.6347)" fill="#1589D4"/>
<ellipse cx="115" cy="48.6347" rx="1.03478" ry="1" transform="rotate(90 115 48.6347)" fill="#1589D4"/>
<ellipse cx="105" cy="48.6347" rx="1.03478" ry="1.00002" transform="rotate(90 105 48.6347)" fill="#1589D4"/>
<ellipse cx="95" cy="48.6347" rx="1.03478" ry="1" transform="rotate(90 95 48.6347)" fill="#1589D4"/>
<ellipse cx="85" cy="48.6347" rx="1.03478" ry="1" transform="rotate(90 85 48.6347)" fill="#1589D4"/>
<ellipse cx="75" cy="48.6346" rx="1.03478" ry="1.00002" transform="rotate(90 75 48.6346)" fill="#1589D4"/>
<ellipse cx="65" cy="48.6346" rx="1.03478" ry="1" transform="rotate(90 65 48.6346)" fill="#1589D4"/>
<ellipse cx="55" cy="48.6346" rx="1.03478" ry="1" transform="rotate(90 55 48.6346)" fill="#1589D4"/>
<ellipse cx="45" cy="48.6346" rx="1.03478" ry="1" transform="rotate(90 45 48.6346)" fill="#1589D4"/>
<ellipse cx="35" cy="48.6346" rx="1.03478" ry="1" transform="rotate(90 35 48.6346)" fill="#1589D4"/>
<ellipse cx="25" cy="48.6346" rx="1.03478" ry="1" transform="rotate(90 25 48.6346)" fill="#1589D4"/>
<ellipse cx="15" cy="48.6346" rx="1.03478" ry="1" transform="rotate(90 15 48.6346)" fill="#1589D4"/>
<ellipse cx="5" cy="48.6346" rx="1.03478" ry="1" transform="rotate(90 5 48.6346)" fill="#1589D4"/>
</g>
</svg>
