<svg width="14" height="15" viewBox="0 0 14 15" fill="none" xmlns="http://www.w3.org/2000/svg">
<path d="M13.8186 12.122L11.0822 9.38569C10.9454 9.27623 10.7812 9.19414 10.617 9.19414H10.1792C10.918 8.23642 11.3832 7.03242 11.3832 5.69161C11.3832 2.57217 8.81106 0 5.69161 0C2.54481 0 0 2.57217 0 5.69161C0 8.83842 2.54481 11.3832 5.69161 11.3832C7.00506 11.3832 8.20906 10.9454 9.19415 10.1792V10.6444C9.19415 10.8086 9.24887 10.9728 9.38569 11.1096L12.0947 13.8186C12.3683 14.0922 12.7788 14.0922 13.025 13.8186L13.7912 13.0524C14.0649 12.8061 14.0649 12.3957 13.8186 12.122ZM5.69161 9.19414C3.7488 9.19414 2.18908 7.63442 2.18908 5.69161C2.18908 3.77617 3.7488 2.18908 5.69161 2.18908C7.60706 2.18908 9.19415 3.77617 9.19415 5.69161C9.19415 7.63442 7.60706 9.19414 5.69161 9.19414Z" fill="#0066A4"/>
</svg>
